<?xml version="1.0" encoding="UTF-8"?>
<!DOCTYPE svg PUBLIC "-//W3C//DTD SVG 1.1//EN" "http://www.w3.org/Graphics/SVG/1.1/DTD/svg11.dtd">
<!-- Creator: CorelDRAW 2020 (64-Bit) -->
<svg xmlns="http://www.w3.org/2000/svg" xml:space="preserve" width="51px" height="51px" version="1.1" style="shape-rendering:geometricPrecision; text-rendering:geometricPrecision; image-rendering:optimizeQuality; fill-rule:evenodd; clip-rule:evenodd"
viewBox="0 0 358 358"
 xmlns:xlink="http://www.w3.org/1999/xlink"
 xmlns:xodm="http://www.corel.com/coreldraw/odm/2003">
 <defs>
  <style type="text/css">
   <![CDATA[
    .str1 {stroke:#2B2A29;stroke-width:7;stroke-miterlimit:22.9256}
    .str0 {stroke:black;stroke-width:7;stroke-miterlimit:22.9256}
    .fil2 {fill:none}
    .fil4 {fill:black}
    .fil0 {fill:gray}
    .fil3 {fill:#99FFFF}
    .fil1 {fill:#CCCCCC}
   ]]>
  </style>
 </defs>
 <g id="crew">
  <metadata id="CorelCorpID_0Corel-Layer"/>
  <rect class="fil0 str0" x="31" y="139" width="288" height="172" rx="6" ry="6"/>
  <path class="fil1 str0" d="M102 182l154 0c54,0 99,44 99,99l0 68c0,3 -3,6 -6,6l-339 0c-4,0 -6,-3 -6,-6l0 -68c0,-55 44,-99 98,-99z"/>
  <circle class="fil1 str0" cx="175" cy="114" r="111"/>
  <line class="fil2 str0" x1="79" y1="275" x2="79" y2= "355" />
  <line class="fil2 str0" x1="280" y1="275" x2="280" y2= "355" />
  <path class="fil2 str0" d="M64 108c74,-37 148,-37 222,0"/>
  <path class="fil2 str0" d="M72 156c74,35 143,35 206,0"/>
  <path class="fil3 str1" d="M72 156c31,15 62,24 91,26 11,1 21,1 32,0 28,-2 56,-11 82,-25 3,-6 5,-12 6,-18 2,-8 3,-16 3,-25 0,-2 0,-4 0,-6 -74,-37 -148,-37 -222,0 0,2 0,4 0,6 0,9 1,17 2,25 2,6 4,12 6,17z"/>
  <line class="fil2 str0" x1="298" y1="136" x2="298" y2= "31" />
  <circle class="fil4 str0" cx="298" cy="31" r="12"/>
 </g>
</svg>
