<?xml version="1.0" encoding="UTF-8"?>
<!DOCTYPE svg PUBLIC "-//W3C//DTD SVG 1.1//EN" "http://www.w3.org/Graphics/SVG/1.1/DTD/svg11.dtd">
<!-- Creator: CorelDRAW 2020 (64-Bit) -->
<svg xmlns="http://www.w3.org/2000/svg" xml:space="preserve" width="51px" height="51px" version="1.1" style="shape-rendering:geometricPrecision; text-rendering:geometricPrecision; image-rendering:optimizeQuality; fill-rule:evenodd; clip-rule:evenodd"
viewBox="0 0 447 447"
 xmlns:xlink="http://www.w3.org/1999/xlink"
 xmlns:xodm="http://www.corel.com/coreldraw/odm/2003">
 <defs>
  <style type="text/css">
   <![CDATA[
    .str1 {stroke:#2B2A29;stroke-width:9;stroke-miterlimit:22.9256}
    .str0 {stroke:black;stroke-width:9;stroke-miterlimit:22.9256}
    .str2 {stroke:white;stroke-width:9;stroke-miterlimit:22.9256}
    .fil0 {fill:none}
    .fil2 {fill:#FEFEFE}
    .fil1 {fill:#D18C02}
    .fil3 {fill:white}
   ]]>
  </style>
 </defs>
 <g id="food">
  <metadata id="CorelCorpID_0Corel-Layer"/>
  <path class="fil0 str0" d="M43 255c-24,-27 -39,-63 -39,-103 0,-82 62,-148 138,-148 58,0 107,39 127,93m8 231l38 40m51 -54l-39 -41m-87 -224l2 -2m-199 208c63,38 141,62 234,73m52 -44c-10,-76 -39,-155 -87,-238m151 345c0,2 1,5 1,7 0,24 -21,44 -46,44 -25,0 -46,-20 -46,-44 0,-12 5,-22 13,-30m51 -54c8,-7 19,-11 31,-11 25,0 45,19 45,44 0,25 -20,44 -45,44 -2,0 -3,0 -4,0m-116 -63l-5 -63 55 8"/>
  <path class="fil1 str1" d="M4 152c0,40 15,76 39,103 63,38 141,62 234,73l-5 -63 55 8c-8,-56 -28,-115 -58,-176 -5,-11 -11,-22 -17,-33 -4,-6 -8,-10 -12,-15 -25,-27 -60,-45 -98,-45 -76,0 -138,66 -138,148z"/>
  <path class="fil2 str1" d="M277 328l38 40c-8,8 -13,18 -13,30 0,24 21,44 46,44 25,0 46,-20 46,-44 0,-2 -1,-5 -1,-7 1,0 2,0 4,0 25,0 45,-19 45,-44 0,-25 -20,-44 -45,-44 -12,0 -23,4 -31,11l-39 -41 -55 -8 5 63z"/>
  <ellipse class="fil3 str2" cx="178" cy="81" rx="27" ry="25"/>
 </g>
</svg>
