<?xml version="1.0" encoding="UTF-8"?>
<!DOCTYPE svg PUBLIC "-//W3C//DTD SVG 1.1//EN" "http://www.w3.org/Graphics/SVG/1.1/DTD/svg11.dtd">
<!-- Creator: CorelDRAW 2020 (64-Bit) -->
<svg xmlns="http://www.w3.org/2000/svg" xml:space="preserve" width="51px" height="51px" version="1.1" style="shape-rendering:geometricPrecision; text-rendering:geometricPrecision; image-rendering:optimizeQuality; fill-rule:evenodd; clip-rule:evenodd"
viewBox="0 0 569 569"
 xmlns:xlink="http://www.w3.org/1999/xlink"
 xmlns:xodm="http://www.corel.com/coreldraw/odm/2003">
 <defs>
  <style type="text/css">
   <![CDATA[
    .str0 {stroke:black;stroke-width:11;stroke-miterlimit:22.9256}
    .fil1 {fill:black}
    .fil0 {fill:#33CC33}
   ]]>
  </style>
 </defs>
 <g id="fuel">
  <metadata id="CorelCorpID_0Corel-Layer"/>
  <rect class="fil0 str0" x="37" y="26" width="495" height="517" rx="13" ry="10"/>
  <rect class="fil0 str0" x="6" y="6" width="558" height="41" rx="13" ry="10"/>
  <rect class="fil0 str0" x="6" y="522" width="558" height="41" rx="13" ry="10"/>
  <rect class="fil0 str0" x="6" y="176" width="558" height="41" rx="13" ry="10"/>
  <rect class="fil0 str0" x="6" y="352" width="558" height="41" rx="13" ry="10"/>
  <path class="fil1 str0" d="M165 354l120 -233 85 166c15,12 26,28 31,46 2,7 3,13 3,21 0,52 -54,95 -119,95 -66,0 -120,-43 -120,-95z"/>
 </g>
</svg>
