<?xml version="1.0" encoding="UTF-8"?>
<!DOCTYPE svg PUBLIC "-//W3C//DTD SVG 1.1//EN" "http://www.w3.org/Graphics/SVG/1.1/DTD/svg11.dtd">
<!-- Creator: CorelDRAW 2020 (64-Bit) -->
<svg xmlns="http://www.w3.org/2000/svg" xml:space="preserve" width="119px" height="116px" version="1.1" style="shape-rendering:geometricPrecision; text-rendering:geometricPrecision; image-rendering:optimizeQuality; fill-rule:evenodd; clip-rule:evenodd"
viewBox="0 0 2632 2562"
 xmlns:xlink="http://www.w3.org/1999/xlink"
 xmlns:xodm="http://www.corel.com/coreldraw/odm/2003">
 <defs>
  <style type="text/css">
   <![CDATA[
    .str0 {stroke:black;stroke-width:44;stroke-miterlimit:22.9256}
    .str1 {stroke:#2B2A29;stroke-width:52;stroke-miterlimit:22.9256}
    .fil2 {fill:none}
    .fil4 {fill:black}
    .fil0 {fill:gray}
    .fil3 {fill:#99FFFF}
    .fil1 {fill:#CCCCCC}
   ]]>
  </style>
 </defs>
 <g id="crew">
  <metadata id="CorelCorpID_0Corel-Layer"/>
  <rect class="fil0 str0" x="221" y="992" width="2123" height="1232" rx="44" ry="44"/>
  <path class="fil1 str0" d="M730 1302l1172 0c390,0 708,318 708,707l0 487c0,24 -20,44 -44,44l-2500 0c-24,0 -44,-20 -44,-44l0 -487c0,-389 319,-707 708,-707z"/>
  <ellipse class="fil1 str0" cx="1283" cy="815" rx="818" ry="793"/>
  <line class="fil2 str0" x1="575" y1="1965" x2="575" y2= "2540" />
  <line class="fil2 str0" x1="2057" y1="1965" x2="2057" y2= "2540" />
  <path class="fil2 str0" d="M466 770c545,-267 1090,-267 1635,0"/>
  <path class="fil2 str0" d="M526 1117c544,252 1051,252 1520,0"/>
  <path class="fil3 str1" d="M526 1117c231,107 455,168 672,185 78,5 155,5 232,0 209,-17 412,-77 608,-181 18,-41 32,-84 43,-129 13,-57 20,-116 20,-177 0,-15 0,-31 -1,-46 -545,-266 -1090,-266 -1634,1 -1,15 -2,30 -2,45 0,61 8,120 21,177 10,43 24,85 41,125z"/>
  <line class="fil2 str0" x1="2190" y1="970" x2="2190" y2= "218" />
  <circle class="fil4 str0" cx="2190" cy="218" r="88"/>
 </g>
</svg>
