<?xml version="1.0" encoding="UTF-8"?>
<!DOCTYPE svg PUBLIC "-//W3C//DTD SVG 1.1//EN" "http://www.w3.org/Graphics/SVG/1.1/DTD/svg11.dtd">
<!-- Creator: CorelDRAW 2020 (64-Bit) -->
<svg xmlns="http://www.w3.org/2000/svg" xml:space="preserve" width="51px" height="51px" version="1.1" style="shape-rendering:geometricPrecision; text-rendering:geometricPrecision; image-rendering:optimizeQuality; fill-rule:evenodd; clip-rule:evenodd"
viewBox="0 0 6254 6253"
 xmlns:xlink="http://www.w3.org/1999/xlink"
 xmlns:xodm="http://www.corel.com/coreldraw/odm/2003">
 <defs>
  <style type="text/css">
   <![CDATA[
    .str1 {stroke:#2B2A29;stroke-width:123;stroke-miterlimit:22.9256}
    .str0 {stroke:black;stroke-width:123;stroke-miterlimit:22.9256}
    .fil0 {fill:none}
    .fil1 {fill:gray}
    .fil2 {fill:white;fill-rule:nonzero}
   ]]>
  </style>
 </defs>
 <g id="weight">
  <metadata id="CorelCorpID_0Corel-Layer"/>
  <path class="fil0 str0" d="M1277 2644c-712,-1270 -96,-1876 1850,-1819m1850 1819c712,-1270 96,-1876 -1850,-1819m-2321 2122c-1319,-2004 -545,-2964 2321,-2881m2321 2881c1319,-2004 545,-2964 -2321,-2881m-1382 6126c-999,-346 -1684,-1055 -1684,-1874 0,-525 281,-1004 745,-1371m471 -303c514,-268 1155,-425 1850,-425 695,0 1336,157 1850,425m471 303c464,367 745,846 745,1371 0,819 -685,1528 -1684,1874m-2764 0l2798 0"/>
  <path class="fil1 str1" d="M4509 6192c999,-346 1684,-1055 1684,-1874 0,-525 -281,-1004 -745,-1371 1319,-2004 545,-2964 -2321,-2881 -2866,-83 -3640,877 -2321,2881 -464,367 -745,846 -745,1371 0,819 685,1528 1684,1874l2764 0zm-1382 -3973c-695,0 -1336,157 -1850,425 -712,-1270 -96,-1876 1850,-1819 1946,-57 2562,549 1850,1819 -514,-268 -1155,-425 -1850,-425z"/>
  <polygon class="fil2" points="1778,5173 1778,2978 2048,2978 2048,4228 2686,3582 3034,3582 2427,4173 3096,5173 2763,5173 2235,4360 2048,4542 2048,5173 "/>
  <path id="1" class="fil2" d="M3261 5305l260 36c11,81 41,140 91,177 68,50 159,75 275,75 125,0 221,-25 289,-75 68,-49 114,-119 138,-209 14,-54 20,-169 19,-345 -118,139 -264,209 -440,209 -219,0 -388,-79 -508,-237 -120,-157 -180,-346 -180,-566 0,-152 28,-292 83,-420 54,-129 134,-227 238,-297 104,-70 227,-105 368,-105 188,0 342,77 464,230l0 -196 248 0 0 1374c0,248 -25,423 -75,526 -50,103 -131,185 -239,245 -110,59 -244,90 -403,90 -190,0 -343,-43 -459,-128 -117,-85 -174,-213 -169,-384zm220 -955c0,208 42,360 124,455 84,96 187,144 312,144 124,0 228,-47 312,-142 84,-96 126,-245 126,-448 0,-194 -43,-341 -130,-439 -86,-99 -191,-148 -312,-148 -120,0 -222,48 -306,145 -84,98 -126,242 -126,433z"/>
 </g>
</svg>
