<?xml version="1.0" encoding="UTF-8"?>
<!DOCTYPE svg PUBLIC "-//W3C//DTD SVG 1.1//EN" "http://www.w3.org/Graphics/SVG/1.1/DTD/svg11.dtd">
<!-- Creator: CorelDRAW 2020 (64-Bit) -->
<svg xmlns="http://www.w3.org/2000/svg" xml:space="preserve" width="51px" height="26px" version="1.1" style="shape-rendering:geometricPrecision; text-rendering:geometricPrecision; image-rendering:optimizeQuality; fill-rule:evenodd; clip-rule:evenodd"
viewBox="0 0 300 153"
 xmlns:xlink="http://www.w3.org/1999/xlink"
 xmlns:xodm="http://www.corel.com/coreldraw/odm/2003">
 <defs>
  <style type="text/css">
   <![CDATA[
    .str0 {stroke:black;stroke-width:6;stroke-miterlimit:22.9256}
    .fil3 {fill:none;fill-rule:nonzero}
    .fil0 {fill:#33CC33}
    .fil1 {fill:#99FF00}
    .fil2 {fill:black;fill-rule:nonzero}
   ]]>
  </style>
 </defs>
 <g id="money">
  <metadata id="CorelCorpID_0Corel-Layer"/>
  <rect class="fil0 str0" x="3" y="3" width="294" height="147" rx="17" ry="15"/>
  <rect class="fil0 str0" x="32" y="24" width="237" height="106" rx="17" ry="15"/>
  <ellipse class="fil1 str0" cx="150" cy="77" rx="49" ry="66"/>
  <path class="fil2" d="M147 124l0 -36 -29 -49 12 0 14 26c3,4 6,9 8,14 2,-4 5,-9 8,-15l14 -25 11 0 -29 49 0 36 -9 0z"/>
  <path id="1" class="fil3 str0" d="M147 124l0 -36 -29 -49 12 0 14 26c3,4 6,9 8,14 2,-4 5,-9 8,-15l14 -25 11 0 -29 49 0 36 -9 0z"/>
 </g>
</svg>
