<?xml version="1.0" encoding="UTF-8"?>
<!DOCTYPE svg PUBLIC "-//W3C//DTD SVG 1.1//EN" "http://www.w3.org/Graphics/SVG/1.1/DTD/svg11.dtd">
<!-- Creator: CorelDRAW 2020 (64-Bit) -->
<svg xmlns="http://www.w3.org/2000/svg" xml:space="preserve" width="128px" height="128px" version="1.1" style="shape-rendering:geometricPrecision; text-rendering:geometricPrecision; image-rendering:optimizeQuality; fill-rule:evenodd; clip-rule:evenodd"
viewBox="0 0 4542 4552"
 xmlns:xlink="http://www.w3.org/1999/xlink"
 xmlns:xodm="http://www.corel.com/coreldraw/odm/2003">
 <defs>
  <style type="text/css">
   <![CDATA[
    .str1 {stroke:#2B2A29;stroke-width:32;stroke-miterlimit:22.9256}
    .str0 {stroke:black;stroke-width:71;stroke-linecap:square;stroke-miterlimit:22.9256}
    .fil0 {fill:none}
    .fil4 {fill:#7688A1}
    .fil7 {fill:#009933}
    .fil1 {fill:#00CCFF}
    .fil6 {fill:#339966}
    .fil2 {fill:#33CC66}
    .fil3 {fill:#FF9933}
    .fil5 {fill:white}
   ]]>
  </style>
 </defs>
 <g id="planets">
  <metadata id="CorelCorpID_0Corel-Layer"/>
  <g id="_1325842533168">
   <path class="fil0 str0" d="M1539 423c-5,1 -12,1 -17,2 -26,9 -30,9 -55,25 -27,22 -44,54 -60,85 -5,10 -9,20 -13,30 -4,10 -7,24 -12,32 0,7 -3,18 -5,24l0 6c-1,3 -2,5 -3,8l-2 34 3 35c1,3 2,5 3,7l0 5c2,4 3,6 3,11 2,2 12,22 13,25l23 22c3,1 2,1 4,1 18,14 73,27 97,34 16,5 32,9 48,15 14,4 37,17 48,20 7,5 18,9 26,14 9,7 18,13 27,19l16 15c12,10 28,27 37,35 22,14 42,27 64,41l14 15c1,5 -1,1 3,5 0,6 3,20 5,25l0 4c2,5 2,9 3,14l4 24c3,5 2,3 2,8 3,10 5,16 9,25 5,11 17,31 26,38 8,7 24,10 34,11l35 -1 48 -11c8,-5 20,-8 30,-13 9,-5 30,-18 37,-26 10,-13 7,-10 10,-17 5,-7 4,-13 7,-21 1,-6 3,-24 2,-28l-6 -31c0,-4 -1,-5 -1,-9 -4,-7 -6,-17 -10,-25 -5,-9 -9,-19 -14,-27 -7,-13 -26,-41 -31,-53 -6,-7 -39,-54 -42,-62 -7,-7 -19,-31 -20,-40 -3,-6 -3,-13 -5,-19l0 -5c-1,-3 -1,-5 -2,-9l-3 -25c-2,-16 -3,-47 -3,-49l-3 -31c-2,-5 -1,-7 -1,-12 -1,-3 -2,-6 -3,-8 -3,-22 -5,-31 -14,-50 -6,-10 -9,-16 -17,-25l-20 -20c-13,-8 -24,-13 -36,-20l-63 -12c-3,-1 -5,-1 -9,-2l-20 -3c-6,-2 -41,-10 -46,-11 -3,-2 -30,-13 -33,-13 -10,-9 -27,-17 -38,-26 -5,-1 -7,-2 -11,-5l-47 -6c-7,0 -10,1 -16,1z"/>
   <path class="fil1 str0" d="M1601 2588c-7,2 -14,1 -17,2 -2,1 -4,1 -7,2l-5 0c-9,3 -19,4 -26,8 -4,0 -4,1 -8,1 -7,4 -17,8 -25,11 -7,4 -15,9 -22,14l-19 19c-6,7 -18,30 -19,39l-4 25c0,10 6,27 9,36l10 10c11,7 20,9 30,14l57 8c4,2 2,1 7,1l35 -4c3,-1 5,-2 7,-2l5 0c14,-9 43,-15 60,-21l25 -2 35 4 75 11c8,-2 23,-5 30,-10 7,-6 16,-16 19,-25 1,-6 5,-17 5,-22 0,-4 -5,-27 -7,-31l-22 -23c-21,-14 -34,-24 -57,-34 -9,-4 -18,-9 -28,-13 -10,-4 -37,-12 -48,-14l-4 0c-3,-1 -5,-1 -8,-2l-7 0c-3,-1 -5,-1 -9,-2l-39 -1c-10,0 -18,1 -28,1z"/>
   <path class="fil0 str0" d="M2144 4508c3,3 4,5 9,6l23 0c9,2 25,1 35,1 9,3 98,1 116,1 14,-3 46,-1 52,-2 11,-2 44,-3 44,-3l249 -31c16,0 56,-11 74,-15 25,-5 50,-11 75,-17 26,-7 50,-14 75,-21 16,-4 63,-21 76,-22 10,-6 57,-22 71,-26 60,-20 162,-66 217,-93 50,-25 96,-51 144,-78 43,-24 108,-63 145,-94 5,-8 8,-19 13,-28m806 -2547c-7,5 -6,2 -18,4 -4,2 -2,1 -7,2 -4,1 -3,1 -8,1 -18,6 -29,13 -47,20l-48 38c-26,18 -32,24 -62,36 -20,8 -44,14 -62,22 -4,2 -5,3 -9,4l-32 24c-9,14 -27,39 -28,55 -7,12 -14,43 -20,59 -9,22 -14,38 -30,58 -7,3 -19,6 -26,8 -7,-2 -13,-4 -20,-6 -9,-8 -9,-17 -15,-27 0,-7 -9,-34 -12,-43 -3,-15 -5,-31 -9,-44 0,-6 -3,-17 -6,-22 0,-8 -5,-13 -5,-21 -4,-7 -12,-21 -15,-28 -7,-11 -27,-16 -36,-14 -4,1 -17,4 -22,4 -13,7 -41,27 -52,31 -12,9 -42,34 -50,44 -9,10 -22,29 -28,39 -5,11 -9,24 -15,34 -1,8 -7,22 -9,32 -4,20 -20,85 -28,97 -4,5 -20,21 -26,25 -11,7 -46,21 -58,23 -6,0 -11,2 -16,4l-12 1c-4,1 -6,1 -9,2l-84 9c-5,1 -9,2 -14,3l-4 0c-8,3 -15,3 -22,7 -41,3 -109,86 -151,86 -5,3 -2,3 -8,3 -3,1 -5,1 -8,2l-5 0c-3,1 -5,1 -7,2l-25 1c-7,3 -18,1 -27,1 -4,2 -2,1 -6,2 -8,-3 -19,-2 -28,-2l-33 -2c-3,-1 -5,-1 -8,-2l-12 -1c-9,-3 -20,-5 -30,-8 -13,-3 -28,-10 -37,-18 -13,-13 -13,-19 -21,-33l-7 -45c-3,-9 -2,-20 -2,-30l6 -44c2,-7 6,-23 7,-30 5,-8 11,-30 16,-41 11,-25 29,-62 51,-80 56,-46 146,-75 211,-107 13,-7 57,-35 68,-49 58,-70 83,-159 116,-243 5,-14 9,-27 14,-40 4,-11 16,-34 17,-42l14 -22c4,-7 24,-27 30,-32 12,-8 32,-19 42,-27m3 -1c-2,2 0,1 -3,1m5 -2l-2 1m4 -2l-2 1m6 -2c-3,1 0,1 -4,1m6 -2l-2 1m4 -2l-2 1m5 -3l-3 2m6 -3c-2,2 0,1 -3,1m6 -2c-2,2 1,1 -3,1m5 -2l-2 1m6 -2c-2,1 0,1 -4,1m7 -2c-2,1 1,1 -3,1m8 -2c-3,1 -1,1 -5,1m7 -2l-2 1m5 -3c-2,2 1,2 -3,2m8 -3c-3,2 -1,1 -5,1m9 -2c-2,1 0,1 -4,1m10 -2c-3,1 -1,1 -6,1m9 -2c-2,1 1,1 -3,1m8 -2c-3,1 -1,1 -5,1m13 -2c-5,1 -4,1 -8,1m13 -2c-3,1 -1,1 -5,1m12 -3c-4,2 -2,2 -7,2m17 -3c-4,2 -5,1 -10,1m25 -2c-5,2 -10,1 -15,1m563 61c-5,8 -12,5 -22,7 -5,1 -4,1 -9,1l-9 2c-6,2 -12,3 -18,4l-13 2c-4,1 -2,1 -6,1l-22 2c-9,1 -27,1 -31,2 -9,3 -62,1 -76,1 -5,-1 -8,-1 -14,-1 -15,-2 -27,-1 -37,-2l-21 -2c-5,-2 -6,-1 -11,-1l-31 -6c-15,-5 -27,-8 -42,-16 -10,-4 -36,-18 -44,-24 -9,-3 -27,-14 -37,-17l-50 -13 -21 -1c-8,-2 -25,-1 -34,-1m-1872 3272l4 7c6,3 17,4 25,7l4 0c3,0 5,1 8,2l5 0c2,1 5,1 7,2l39 6c3,1 5,1 9,2l5 0c3,1 5,1 8,2l6 0c3,1 5,1 9,2l5 0c4,1 6,1 9,3l83 9c13,2 37,2 37,2 8,2 19,1 27,1 8,3 19,1 28,1 3,-1 2,-1 6,-1 0,-15 10,-35 11,-49 2,-6 21,-28 27,-35l18 -19c19,-24 53,-52 68,-71 6,-8 20,-27 24,-35 5,-10 13,-31 14,-41l4 -23c1,-3 1,-5 2,-9l3 -38c2,-11 2,-22 4,-33 1,-5 1,-4 1,-8l2 -18c2,-5 2,-10 3,-15l0 -4c3,-7 6,-17 6,-24 5,-9 11,-27 17,-39 8,-16 20,-32 31,-46 7,-8 16,-15 23,-24 10,-12 23,-24 33,-37 12,-17 22,-27 32,-47 9,-16 16,-37 19,-55l2 -27c3,-8 1,-29 1,-39 -2,-12 -1,-34 -2,-40 -2,-6 -1,-12 -1,-18 -3,-8 -1,-18 -1,-26 -1,-3 -1,-2 -1,-4 1,-6 1,-10 1,-16 3,-21 4,-40 13,-60 7,-15 11,-20 20,-33 8,-10 24,-24 31,-34 4,-6 9,-25 11,-34l3 -27c0,-2 0,-1 -1,-4 -1,-7 0,-17 -1,-24 -2,-4 -1,-5 -1,-10 -2,-6 -3,-13 -5,-19 -9,-58 -54,-152 -86,-205 -12,-20 -37,-57 -53,-75 -8,-11 -32,-32 -45,-43 -15,-10 -27,-17 -42,-26 -10,-4 -26,-10 -35,-15 -5,-1 -6,-2 -11,-3 -11,-6 -27,-7 -39,-11l-35 -4c-8,-2 -18,-1 -26,-2 -8,-3 -20,-2 -29,-2 -10,-3 -80,-1 -96,-1l-56 -9c-10,-5 -25,-10 -37,-17 -16,-10 -44,-34 -61,-48 -13,-12 -28,-20 -42,-30 -14,-9 -29,-11 -41,-18l-35 -6c-5,-1 -9,-1 -15,-1 -7,-2 -15,1 -22,-2 -6,2 -15,1 -21,1l-42 5c-3,1 -5,1 -9,2l-11 1c-16,5 -35,8 -52,13 -16,5 -37,12 -52,18 -18,7 -36,14 -53,22 -10,5 -45,22 -53,23 -6,5 -19,13 -27,18l-24 22c-28,18 -44,34 -73,50 -11,5 -30,12 -38,17 -6,0 -13,3 -18,4l-5 0c-2,1 -4,2 -7,3l-30 2c-5,1 -7,1 -12,1l-34 -3c-2,-1 -4,-2 -7,-3l-4 0c-25,-8 -40,-12 -64,-24 -13,-7 -66,-41 -74,-53 -5,-7 -8,-24 -9,-33 -1,-6 -2,-36 -1,-42 2,-8 1,-18 1,-27 1,-3 1,-2 1,-5l-4 -33c-1,-2 -2,-5 -3,-7l0 -4c-2,-4 -2,-6 -4,-9 -1,-8 -7,-15 -10,-23 -3,-9 -5,-20 -6,-29l5 -28c2,-4 1,-2 2,-7 5,-9 11,-17 17,-27l22 -19c5,-3 11,-7 16,-9l29 -6 33 -3c8,-3 20,-1 30,-1 12,-2 31,-1 42,-3l25 -5c4,-2 5,-3 10,-3 4,-3 6,-5 11,-6l15 -12c4,-5 9,-12 11,-18 1,-6 -1,-1 2,-6l5 -34c3,-9 1,-30 1,-41 -1,-5 -1,-2 0,-6 1,-8 0,-16 1,-24l2 -18c7,-19 9,-31 18,-50 7,-13 26,-47 26,-60 3,-5 2,-2 2,-8 1,-3 2,-5 3,-8l0 -4c1,-3 1,-5 2,-8l3 -30c1,-4 1,-6 3,-9l0 -6c6,-21 4,-26 17,-47l7 -7c8,-4 20,-12 29,-13 9,-5 18,-7 27,-10 10,-3 18,-8 27,-11 7,-5 27,-22 32,-28 4,-7 12,-18 18,-24 8,-19 27,-49 39,-67l18 -18c3,-2 4,-3 8,-5 14,-13 44,-16 61,-22l24 -5c13,0 28,-7 41,-7 5,-3 14,-6 19,-6 8,-5 18,-8 27,-12 7,-4 14,-9 19,-15 4,-4 8,-10 9,-15 2,-5 7,-30 6,-37l-5 -27c-2,-4 -2,-2 -2,-7 -1,-6 -14,-23 -18,-28 -12,-16 -46,-44 -61,-63 -6,-7 -17,-27 -18,-35 0,-4 -1,-9 -3,-12l-1 -13c-1,-2 0,-2 -1,-4l5 -33c2,-6 8,-20 9,-24 3,-4 4,-7 7,-10 8,-3 16,-4 23,-7 4,1 21,5 26,5l20 15c9,7 43,41 52,52 18,22 36,38 61,53 10,6 31,14 42,16l21 2c9,2 18,1 27,-1 13,-4 19,-6 32,-11l16 -13c3,-5 7,-11 11,-15 4,-9 9,-17 13,-27 3,-9 5,-19 9,-28 0,-6 2,-16 4,-21l1 -14c1,-3 1,-5 3,-9 1,-6 0,-12 1,-19 1,-4 1,-5 1,-10 2,-6 1,-15 1,-22 3,-9 1,-46 1,-57 -2,-13 -1,-28 -2,-35l-4 -32c-1,-3 -1,-5 -2,-9l-1 -13c-4,-14 -5,-30 -10,-44 -2,-7 -4,-15 -6,-22 -3,-7 -7,-15 -9,-23 -3,-4 -4,-6 -5,-11 -5,-6 -10,-16 -15,-22 -11,-14 -27,-24 -42,-32 -9,-5 -22,-9 -30,-13 -5,-1 -9,-2 -13,-5l-119 -23c-17,-3 -66,-14 -80,-20 -9,-3 -39,-17 -46,-18 -5,-4 -10,-5 -15,-9 -7,-2 -39,-17 -47,-21 -16,-8 -31,-10 -48,-15l-43 -4 -31 5c-4,3 -2,2 -7,2 -7,2 -20,10 -25,15 -23,19 -42,56 -62,73 -3,2 -6,4 -9,6 -4,1 -3,1 -6,4l-5 0c-5,3 -9,2 -15,4l-15 2c-3,0 -2,0 -5,-1l-14 -1c-42,-6 -82,-30 -119,-51 -27,-15 -84,-48 -112,-54 -5,-4 -1,-1 -5,-3 -9,-7 -17,-7 -27,-16 -1,-5 -4,-14 -5,-18 0,-10 5,-19 5,-28 9,-14 22,-39 31,-50 5,-11 14,-32 16,-45 0,-4 1,-7 3,-11l2 -29c2,-5 1,-8 1,-13l-3 -34c-2,-9 -10,-37 -14,-45 -8,-16 -17,-31 -31,-43 -4,-2 -4,-2 -8,-4 -11,-7 -21,-9 -33,-11 -7,-1 -16,-3 -23,-1 -5,1 -6,1 -11,1 -4,1 -6,1 -9,2l-6 0c-11,4 -25,4 -36,8l-17 1c-4,1 -2,1 -6,1l-22 2 -32 -2c-4,-1 -6,-1 -9,-2l-13 -1c-4,-2 -8,-2 -12,-4 -5,0 -5,-1 -10,-1 0,0 -57,-20 -58,-20 -5,-4 0,-1 -5,-2 -24,-12 -64,-38 -84,-55l-30 -30c-9,-7 -4,-1 -15,-13m3534 296c-10,11 -6,7 -13,8 -3,1 -8,2 -11,2 -13,8 -28,10 -39,17 -7,1 -11,4 -17,4 -8,4 -18,4 -26,6l-24 3c-11,1 -40,3 -50,2l-36 -4c-4,-1 -9,-1 -13,-3 -11,0 -50,-13 -58,-19 -7,-3 -6,-1 -20,-12 -12,-10 -28,-35 -36,-47l-19 -35c-4,-18 -29,-53 -37,-72l-72 -83c-4,-6 -12,-18 -16,-23 -4,-6 -12,-32 -13,-40l-1 -14c-1,-9 -1,0 0,-9l1 -17c2,-14 11,-43 16,-56 5,-12 19,-40 21,-50 5,-5 21,-38 23,-44 4,-4 7,-7 10,-12m-144 -114c-2,4 -4,5 -8,9 -1,4 -1,7 -3,11 -7,14 -24,35 -35,56 -2,6 -3,9 -7,15l-26 149c-5,8 -7,16 -11,25 -4,9 -8,16 -13,25 -11,20 -28,42 -41,59l-42 44c-14,11 -27,25 -41,37l-34 26c-20,19 -48,35 -67,53 -14,5 -28,17 -42,22 -11,5 -46,15 -58,17l-13 2c-3,1 -5,1 -9,2l-114 11c-3,1 -5,1 -8,2l-5 0c-15,5 -30,7 -45,13 -21,6 -28,12 -45,24 -15,12 -33,33 -46,48 -16,24 -38,47 -54,70 -9,12 -21,25 -33,35 -14,12 -12,10 -24,16 -10,4 -20,6 -29,7 -7,1 -16,-1 -23,-2 -21,-3 -60,-31 -75,-49l-17 -19c-10,-16 -21,-29 -31,-45l-29 -52c-19,-40 -28,-69 -42,-111l-5 -30c-2,-4 -3,-8 -4,-12l-2 -24c-1,-4 -1,-3 -1,-8l-9 -81c-1,-3 -1,-5 -2,-9l-15 -71c-5,-9 -10,-24 -15,-35 -9,-18 -29,-45 -47,-56 -17,-7 -32,-22 -51,-24 -5,-2 -2,-2 -7,-2 -9,-5 -49,-13 -62,-17 -19,-5 -44,-12 -61,-20 -5,-2 -6,-3 -10,-5 -7,-4 -20,-12 -27,-17l-21 -21c-8,-12 -22,-31 -23,-46 -3,-5 -4,-11 -6,-18l0 -4c-1,-2 -1,-5 -2,-7 -1,-6 0,-14 -1,-20 -2,-6 -1,-13 -1,-19 -3,-9 -1,-34 -1,-45 -2,-13 -2,-35 -3,-41l-3 -25c-9,-27 -6,-32 -24,-57 -5,-7 -21,-20 -29,-24 -2,0 -3,-1 -5,-1 -4,-3 -4,-3 -9,-3 -5,-3 -2,-2 -8,-3 -2,0 -5,-1 -7,-2l-4 0c-3,-1 -5,-1 -7,-2 -6,-1 -12,0 -18,-1 -9,-3 -33,-1 -44,-1l-56 4c-5,2 -6,1 -11,1 -7,3 -17,1 -25,1 -9,3 -35,2 -47,2l-31 -4c-4,-1 -17,-4 -20,-4l-6 -4c-15,-4 -26,-11 -36,-23 -4,-6 -9,-12 -10,-19 -3,-4 -3,-4 -3,-9 -3,-5 -3,-3 -3,-9l-3 -18c-1,-8 -2,-27 -4,-32m-1594 1599c-7,5 -14,9 -21,13 0,10 -14,64 -17,75l-44 322c-2,6 -1,12 -1,18 -3,9 -1,23 -1,33 -3,6 -2,14 -2,21 -2,9 -1,28 -1,38 -3,9 -1,60 -1,73 3,8 1,27 1,37 3,9 1,25 1,35 2,11 2,34 3,38l16 166 22 123c10,59 24,110 39,168 18,72 63,198 93,266 10,22 21,45 29,67 6,15 29,55 32,67 6,7 7,16 13,24 4,16 40,74 50,93 18,31 38,62 58,93 28,45 64,95 97,139 21,28 50,63 73,92l86 94c13,20 74,75 95,96 19,16 45,42 65,59l52 42c3,4 7,7 11,9 22,22 62,49 88,68 29,22 59,42 89,62 46,30 86,53 132,80 13,7 35,17 45,25 23,6 70,40 92,45 10,7 47,22 61,28 20,9 41,17 61,25 21,8 41,16 62,24 15,5 51,16 62,22 5,1 2,0 7,3 8,0 36,11 47,14l94 27c15,4 33,7 47,11l61 6c0,-18 -4,-92 -2,-107 3,-8 2,-24 2,-33l22 -235c2,-10 2,-41 2,-41 3,-9 1,-30 1,-40 2,-5 1,-5 1,-9 -2,-9 -1,-23 -1,-33 -1,-10 -1,-22 -2,-29l-2 -17c-2,-5 -1,-5 -1,-10 -2,-5 -9,-34 -9,-38 -3,-5 -6,-11 -7,-17 -4,-5 -7,-11 -9,-17 -10,-16 -33,-34 -49,-42 -14,-7 -37,-16 -52,-19 -9,-2 -17,-4 -26,-7 -34,-8 -71,-13 -104,-26 -26,-11 -53,-27 -72,-49 -7,-10 -21,-32 -24,-43l-8 -40c-1,-3 -2,-5 -3,-8l-1 -33c-1,-4 -1,-3 -1,-8 3,-8 1,-22 1,-32 3,-9 1,-52 1,-65l-2 -27c-1,-4 -1,-6 -2,-9l0 -6c-1,-3 -1,-5 -2,-8l-15 -41c-3,-6 -18,-23 -23,-28 -4,-2 -5,-4 -8,-7 -10,-6 -26,-15 -34,-21 -5,-1 -30,-11 -37,-14 -11,-4 -32,-9 -44,-11l-4 0c-5,-1 -9,-2 -14,-3l-30 -4c-10,-1 -28,-1 -30,-2 -5,-1 -6,-1 -11,-1 -6,-2 -14,-1 -21,-1 -8,-3 -28,-1 -39,-1l-26 -2c-5,-2 -7,-2 -13,-2 -4,-1 -6,-1 -9,-2l-6 0c-29,-4 -67,-18 -95,-33 -25,-12 -66,-41 -88,-59 -50,-42 -86,-106 -135,-135 -7,-4 -13,-6 -19,-9l-26 -7c-4,0 -8,-1 -11,-2l-14 -2c-4,-1 -3,-1 -8,-1l-19 -2c-4,-1 -6,-1 -11,-1l-31 -6c-3,-1 -22,-7 -25,-7 -3,-2 -4,-3 -7,-5 -16,-3 -40,-25 -55,-35 -21,-17 -41,-47 -51,-70 -7,-18 -9,-29 -15,-45l0 -6c-1,-3 -1,-5 -2,-8l-2 -27c-3,-6 -1,-16 -1,-23 -3,-9 -2,-32 -2,-43 2,-9 2,-28 3,-32 1,-3 1,-5 2,-8l1 -14c1,-4 6,-22 7,-25 6,-11 9,-19 17,-31 6,-9 15,-22 22,-30 2,-5 3,-8 7,-12 4,-9 7,-24 9,-34l1 -29 -9 -70c-6,-18 -8,-42 -13,-60 -6,-21 -12,-44 -24,-62 -6,-6 -27,-11 -35,-10 -6,2 -13,3 -20,6 -11,11 -14,25 -19,39l-15 82c-1,4 -7,27 -8,31 -3,6 -4,12 -9,19 -7,4 -16,5 -24,7 -8,-2 -19,-5 -26,-6 -7,-3 -25,-22 -30,-29 -6,-8 -12,-15 -16,-23 -12,-13 -31,-55 -38,-71 -5,-12 -9,-22 -13,-35 -4,-11 -7,-25 -11,-36l0 -5c-1,-3 -1,-5 -2,-8l-1 -19c-2,-6 -1,-12 -1,-18 -3,-8 -1,-19 -1,-27 2,-9 1,-25 1,-35 1,-11 2,-41 2,-43 3,-8 1,-40 1,-51l-2 -26c-1,-3 -1,-5 -2,-9l-6 -30c-3,-6 -11,-24 -13,-30 -12,-19 -37,-35 -51,-52l-14 -21c-1,-6 0,-2 -3,-6l-4 -30c-2,-5 -2,-2 0,-7l1 -18c1,-4 1,-4 1,-9l10 -45c1,-3 1,-5 2,-9l2 -36c-2,-11 -6,-36 -13,-43 -9,-7 -22,-11 -32,-17 -2,-7 -3,-23 -1,-31l6 -50c3,-10 16,-49 17,-56 3,-4 2,-2 2,-7 2,-3 3,-5 5,-9 0,-5 0,-2 2,-7 0,-4 0,-2 2,-6 1,-5 3,-9 5,-13 0,-4 4,-15 7,-19 0,-4 2,-8 4,-12 0,-5 0,-2 2,-7 1,-5 4,-13 7,-18 0,-6 26,-69 31,-78 6,-13 33,-71 35,-80 4,-4 10,-18 11,-23 3,-5 4,-7 7,-12 1,-6 18,-39 23,-44 0,-4 1,-4 2,-7 6,-8 19,-34 24,-44 8,-15 17,-29 25,-44 8,-14 17,-29 26,-43 7,-12 23,-34 28,-45 9,-10 16,-27 26,-37 4,-11 31,-46 39,-58 14,-17 31,-39 43,-57 5,-5 11,-14 15,-20l23 -27c2,-3 4,-5 5,-8l5 -4c2,-3 4,-5 5,-8l6 -6c2,-3 5,-5 7,-9l16 -18c8,-2 25,-10 33,-11 0,-5 9,-36 15,-42l66 -69c9,-6 26,-24 35,-33 15,-13 39,-38 54,-50l57 -49c31,-26 67,-55 101,-79 79,-56 156,-110 242,-156 52,-28 108,-59 161,-81 27,-11 55,-23 81,-35 23,-10 62,-21 81,-32 4,0 22,-6 26,-9 5,0 2,1 7,-2 4,0 2,0 6,-2 5,0 3,0 7,-2 5,-1 2,0 7,-3 7,0 40,-12 49,-15 16,-5 33,-9 49,-15l57 -7c2,-3 4,-5 6,-9m2 -1l-2 1m6 -2c-2,2 0,1 -4,1m8 -2c-2,1 0,1 -4,1m8 -2c-3,1 0,1 -4,1m8 -2c-2,1 0,1 -4,1m8 -2c-3,1 0,1 -4,1m9 -2c-3,1 -1,1 -5,1m10 -3c-3,2 -1,2 -5,2m9 -3c-2,2 0,1 -4,1m9 -2c-3,1 -1,1 -5,1m10 -2c-3,1 -1,1 -5,1m10 -2c-3,1 -1,1 -5,1m10 -2c-3,1 -1,1 -5,1m11 -2c-3,1 -1,1 -6,1m10 -2c-2,1 0,1 -4,1m10 -3c-3,2 -1,2 -6,2m11 -3c-3,2 -1,1 -5,1m11 -2c-4,2 -2,1 -6,1m11 -2c-3,1 -1,1 -5,1m11 -2c-3,1 -2,1 -6,1m11 -2c-3,1 -1,1 -5,1m13 -2c-4,1 -3,1 -8,1m11 -2c-2,1 1,1 -3,1m11 -2c-4,1 -3,1 -8,1m11 -3c-2,2 1,2 -3,2m11 -3c-4,2 -3,1 -8,1m12 -2c-3,2 0,1 -4,1m11 -2c-4,2 -3,1 -7,1m11 -2c-3,1 0,1 -4,1m12 -2c-4,1 -3,1 -8,1m13 -2c-3,1 -1,1 -5,1m12 -2c-4,1 -2,1 -7,1m13 -3c-4,2 -2,2 -6,2m12 -3c-3,2 -2,1 -6,1m14 -2c-4,2 -3,1 -8,1m14 -2c-4,1 -1,1 -6,1m15 -2c-5,2 -4,1 -9,1m14 -2c-3,1 -1,1 -5,1m15 -2c-4,1 -5,1 -10,1m17 -2c-4,1 -2,1 -7,1m17 -3c-4,2 -5,2 -10,2m16 -3c-3,2 -1,1 -6,1m16 -2c-4,2 -5,1 -10,1m16 -2c-4,1 -2,1 -6,1m16 -2c-5,2 -5,1 -10,1m15 -2c-3,1 -1,1 -5,1m17 -2c-5,1 -7,1 -12,1m20 -2c-4,1 -4,1 -8,1m17 -3c-4,2 -4,2 -9,2m23 -3c-5,2 -8,1 -14,1m23 -2c-4,2 -4,1 -9,1m26 -2c-5,2 -12,1 -17,1m25 -2c-5,2 -4,1 -8,1m23 -2c-4,2 -10,1 -15,1m22 -2c-4,1 -2,1 -7,1m25 -2c-5,2 -12,1 -18,1m39 -3c-6,3 -14,2 -21,2m37 -3c-5,2 -10,1 -16,1m43 -2c-7,3 -19,1 -27,1m54 -2c-8,3 -19,1 -27,1m72 -2c-8,3 -35,1 -45,1m2225 1668c-7,4 -35,6 -44,9 -6,2 -34,22 -42,29 -11,9 -26,26 -36,38 -23,35 -43,64 -64,99 -10,17 -20,33 -30,49 -10,18 -25,33 -36,50 -13,15 -28,28 -44,40 -7,5 -16,8 -23,12 -5,2 -7,3 -12,4 -4,2 -6,3 -11,3l-35 7c-6,1 -13,0 -20,1l-28 2c-3,1 -5,1 -9,2l-9 0c-3,1 -5,2 -8,3l-4 0c-17,5 -45,9 -60,18 -6,0 -54,22 -64,26 -13,6 -52,24 -65,24 -4,3 -2,2 -8,2l-17 3c-4,1 -6,1 -9,2l-90 7c-27,8 -39,10 -64,26 -22,13 -43,29 -65,42 -27,17 -99,50 -129,53 -9,5 -39,8 -52,12l-48 7c-4,1 -3,1 -8,1l-63 7c-4,1 -6,1 -11,1 -10,1 -28,1 -33,2 -9,3 -39,1 -50,1 -9,3 -33,1 -44,1 -14,3 -27,1 -37,3l-40 4c-3,1 -5,1 -9,2l-4 0c-6,2 -19,5 -25,6 -5,3 -19,7 -26,10 -21,9 -36,22 -50,40 -19,28 -36,53 -51,82 -25,51 -53,111 -71,164 -5,14 -9,27 -14,41 -4,14 -6,29 -10,42l-5 43c-1,5 -1,11 -1,18 -1,4 -1,3 -1,7 2,10 2,28 2,33l3 18c1,3 1,5 2,9l1 11c8,26 16,80 28,101 1,19 20,49 24,66 5,7 11,26 16,35 6,12 12,23 19,35 11,21 36,56 52,76l43 45c17,14 33,27 53,37 17,9 31,11 48,17 4,0 11,2 15,3l6 0c3,1 5,1 9,2l26 3c11,1 30,1 36,2 8,2 20,1 29,1 6,2 15,1 22,1 8,3 19,1 28,1 9,3 62,1 76,1 15,3 80,3 99,0l21 -2c5,-2 6,-1 12,-1 4,-1 8,-2 12,-3l41 -5c9,-3 20,-1 29,-1l28 3c4,2 17,6 21,6 10,6 18,10 29,17l16 15c7,9 12,19 17,28l12 36c0,6 2,11 3,16l0 7c1,3 1,5 3,9l1 26c2,7 1,17 1,25 2,6 1,12 1,18 -3,9 -1,26 -1,36 -2,13 -1,35 -2,41l-7 67c-2,14 -3,43 -4,45l-4 44c-2,4 -1,5 -1,11 -1,3 -1,5 -2,8l-7 35c-6,10 -11,28 -17,40 -7,14 -13,27 -21,40 -9,16 -36,66 -37,81 -5,7 -4,14 -7,22l-2 26c-2,6 -1,13 -1,19l11 57c2,4 2,4 4,7 3,11 12,24 18,34 5,13 -3,8 12,22 61,-21 19,7 83,-42l57 -46c3,-3 5,-5 9,-7l70 -63c6,-4 11,-9 16,-15 8,-5 15,-14 22,-21 14,-9 47,-45 61,-59 5,-8 13,-15 20,-22 12,-14 33,-35 45,-49l48 -57c4,-4 8,-8 10,-13 15,-15 34,-41 47,-59 43,-56 88,-120 124,-179 24,-40 47,-80 69,-120 22,-40 39,-80 60,-120 45,-91 103,-256 128,-359 5,-20 11,-40 16,-60 4,-18 7,-43 13,-60l19 -110c1,-4 1,-3 1,-7l18 -151c2,-11 2,-35 2,-35 2,-10 3,-41 3,-41 1,-5 1,-11 1,-18 2,-8 1,-27 1,-37 3,-9 1,-91 1,-107 -3,-9 -1,-26 -1,-36 -2,-10 -2,-40 -2,-41 -2,-10 -2,-38 -3,-40l-30 -235c-6,-20 -12,-56 -16,-78 -6,-24 -11,-54 -19,-77l-10 -7c-1,-5 -3,-31 -4,-37l-3 -17c-11,-35 -20,-82 -35,-114 -5,-3 -10,-7 -15,-8l-8 -54c-7,-17 -14,-35 -21,-53 -5,-13 -19,-41 -21,-52 -4,-6 -8,-14 -10,-21 -3,-4 -10,-19 -11,-24 -3,-5 -10,-18 -11,-24 -7,-9 -18,-34 -23,-46 -6,-5 -16,-9 -23,-12 0,-8 -8,-45 -11,-51 -16,-29 -35,-63 -53,-90 -6,-4 -17,-9 -25,-12 -4,-13 -6,-34 -12,-46 -15,-27 -42,-62 -61,-89 -22,-31 -50,-61 -70,-91l-107 -121c-6,-10 -26,-28 -36,-37 -3,-6 -8,-10 -13,-15 -11,-7 -34,-33 -45,-44l-47 -42c-13,-5 -26,-8 -39,-13 -3,-9 -10,-23 -11,-31 -2,-3 -88,-71 -88,-71l-45 -12c0,-8 -7,-18 -9,-26l-49 -36c-5,-2 -3,-1 -7,-4 -4,-2 -3,-1 -7,-5 -4,-2 -2,-1 -6,-4 -12,-5 -36,-23 -49,-31 -31,-19 -64,-39 -96,-56 -12,-7 -40,-20 -49,-28 -8,-2 -13,-7 -21,-9 -4,-3 -8,-5 -13,-6 -5,-4 -10,-5 -16,-9 -7,-2 -13,-8 -21,-9 -3,-3 -4,-2 -7,-5 -14,-3 -40,-21 -56,-24 -8,-6 -41,-19 -51,-23l-64 -26c-5,0 -9,-2 -13,-4 -4,-1 -8,-2 -12,-5 -5,0 -2,1 -7,-2 -4,0 -8,-2 -12,-4 -5,-1 -2,0 -7,-3 -4,0 -15,-4 -19,-6 -5,-1 -2,0 -7,-3 -5,0 -2,1 -6,-2 -5,0 -3,0 -7,-2 -5,0 -2,0 -7,-2 -16,-2 -49,-19 -66,-19 -5,-3 -2,-3 -8,-3 -4,-2 -28,-8 -34,-9 -3,-2 -12,-4 -16,-4 -16,-9 -73,-17 -95,-24l-49 -9c-2,0 -4,-1 -7,-2l-4 0c-2,-1 -5,-1 -7,-2l-37 -6c-3,-1 -5,-1 -9,-2l-5 0c-4,-1 -6,-1 -9,-2l-81 -10c-5,-2 -4,-1 -9,-1l-23 -3c-10,-1 -17,-1 -24,-2l-57 -4c-6,-2 -14,-2 -21,-2 -7,-2 -18,-1 -27,-1 -7,-2 -18,-1 -26,-1 -9,-3 -33,-1 -44,-1 -9,-3 -45,-1 -56,-1"/>
   <path class="fil1 str1" d="M2864 1138c13,-15 31,-36 46,-48 17,-12 24,-18 45,-24 15,-6 30,-8 45,-13l5 0c3,-1 5,-1 8,-2l114 -11c4,-1 6,-1 9,-2l13 -2c12,-2 47,-12 58,-17 14,-5 28,-17 42,-22 19,-18 47,-34 67,-53l34 -26c14,-12 27,-26 41,-37l42 -44c13,-17 30,-39 41,-59 5,-9 9,-16 13,-25 4,-9 6,-17 11,-25l26 -149c4,-6 5,-9 7,-15 11,-21 28,-42 35,-56 2,-4 2,-7 3,-11 4,-4 6,-5 8,-9 0,-8 -7,-18 -9,-26l-49 -36c-5,-2 -3,-1 -7,-4 -4,-2 -3,-1 -7,-5 -4,-2 -2,-1 -6,-4 -12,-5 -36,-23 -49,-31 -31,-19 -64,-39 -96,-56 -12,-7 -40,-20 -49,-28 -8,-2 -13,-7 -21,-9 -4,-3 -8,-5 -13,-6 -5,-4 -10,-5 -16,-9 -7,-2 -13,-8 -21,-9 -3,-3 -4,-2 -7,-5 -14,-3 -40,-21 -56,-24 -8,-6 -41,-19 -51,-23l-64 -26c-5,0 -9,-2 -13,-4 -4,-1 -8,-2 -12,-5 -5,0 -2,1 -7,-2 -4,0 -8,-2 -12,-4 -5,-1 -2,0 -7,-3 -4,0 -15,-4 -19,-6 -5,-1 -2,0 -7,-3 -5,0 -2,1 -6,-2 -5,0 -3,0 -7,-2 -5,0 -2,0 -7,-2 -16,-2 -49,-19 -66,-19 -5,-3 -2,-3 -8,-3 -4,-2 -28,-8 -34,-9 -3,-2 -12,-4 -16,-4 -16,-9 -73,-17 -95,-24l-49 -9c-2,0 -4,-1 -7,-2l-4 0c-2,-1 -5,-1 -7,-2l-37 -6c-3,-1 -5,-1 -9,-2l-5 0c-4,-1 -6,-1 -9,-2l-81 -10c-5,-2 -4,-1 -9,-1l-23 -3c-10,-1 -17,-1 -24,-2l-57 -4c-6,-2 -14,-2 -21,-2 -7,-2 -18,-1 -27,-1 -7,-2 -18,-1 -26,-1 -9,-3 -33,-1 -44,-1 -9,-3 -45,-1 -56,-1 -8,3 -35,1 -45,1 -8,3 -19,1 -27,1 -7,3 -19,1 -27,1 -5,2 -10,1 -16,1 -6,3 -14,2 -21,2 -5,2 -12,1 -18,1 -4,1 -2,1 -7,1 -4,2 -10,1 -15,1 -5,2 -4,1 -8,1 -5,2 -12,1 -17,1 -4,2 -4,1 -9,1 -5,2 -8,1 -14,1 -4,2 -4,2 -9,2 -4,1 -4,1 -8,1 -5,1 -7,1 -12,1 -3,1 -1,1 -5,1 -5,2 -5,1 -10,1 -4,1 -2,1 -6,1 -4,2 -5,1 -10,1 -3,2 -1,1 -6,1 -4,2 -5,2 -10,2 -4,1 -2,1 -7,1 -4,1 -5,1 -10,1 -3,1 -1,1 -5,1 -5,2 -4,1 -9,1 -4,1 -1,1 -6,1 -4,2 -3,1 -8,1 -3,2 -2,1 -6,1 -4,2 -2,2 -6,2 -4,1 -2,1 -7,1 -3,1 -1,1 -5,1 -4,1 -3,1 -8,1 -3,1 0,1 -4,1 -4,2 -3,1 -7,1 -3,2 0,1 -4,1 -4,2 -3,1 -8,1 -2,2 1,2 -3,2 -4,1 -3,1 -8,1 -2,1 1,1 -3,1 -4,1 -3,1 -8,1 -3,1 -1,1 -5,1 -3,1 -2,1 -6,1 -3,1 -1,1 -5,1 -4,2 -2,1 -6,1 -3,2 -1,1 -5,1 -3,2 -1,2 -6,2 -2,1 0,1 -4,1 -3,1 -1,1 -6,1 -3,1 -1,1 -5,1 -3,1 -1,1 -5,1 -3,1 -1,1 -5,1 -3,1 -1,1 -5,1 -2,2 0,1 -4,1 -3,2 -1,2 -5,2 -3,1 -1,1 -5,1 -3,1 0,1 -4,1 -2,1 0,1 -4,1 -3,1 0,1 -4,1 -2,1 0,1 -4,1 -2,2 0,1 -4,1l-2 1c-2,4 -4,6 -6,9 2,5 3,24 4,32l3 18c0,6 0,4 3,9 0,5 0,5 3,9 1,7 6,13 10,19 10,12 21,19 36,23l6 4c3,0 16,3 20,4l31 4c12,0 38,1 47,-2 8,0 18,2 25,-1 5,0 6,1 11,-1l56 -4c11,0 35,-2 44,1 6,1 12,0 18,1 2,1 4,1 7,2l4 0c2,1 5,2 7,2 6,1 3,0 8,3 5,0 5,0 9,3 2,0 3,1 5,1 8,4 24,17 29,24 18,25 15,30 24,57l3 25c1,6 1,28 3,41 0,11 -2,36 1,45 0,6 -1,13 1,19 1,6 0,14 1,20 1,2 1,5 2,7l0 4c2,7 3,13 6,18 1,15 15,34 23,46l21 21c7,5 20,13 27,17 4,2 5,3 10,5 17,8 42,15 61,20 13,4 53,12 62,17 5,0 2,0 7,2 19,2 34,17 51,24 18,11 38,38 47,56 5,11 10,26 15,35l15 71c1,4 1,6 2,9l9 81c0,5 0,4 1,8l2 24c1,4 2,8 4,12l5 30c14,42 23,71 42,111l29 52c10,16 21,29 31,45l17 19c15,18 54,46 75,49 7,1 16,3 23,2 9,-1 19,-3 29,-7 12,-6 10,-4 24,-16 12,-10 24,-23 33,-35 16,-23 38,-46 54,-70z"/>
   <path class="fil1 str1" d="M2910 1090c-15,12 -33,33 -46,48 -16,24 -38,47 -54,70 -9,12 -21,25 -33,35 -14,12 -12,10 -24,16 -10,4 -20,6 -29,7 -7,1 -16,-1 -23,-2 -21,-3 -60,-31 -75,-49l-17 -19c-10,-16 -21,-29 -31,-45l-29 -52c-19,-40 -28,-69 -42,-111l-5 -30c-2,-4 -3,-8 -4,-12l-2 -24c-1,-4 -1,-3 -1,-8l-9 -81c-1,-3 -1,-5 -2,-9l-15 -71c-5,-9 -10,-24 -15,-35 -9,-18 -29,-45 -47,-56 -17,-7 -32,-22 -51,-24 -5,-2 -2,-2 -7,-2 -9,-5 -49,-13 -62,-17 -19,-5 -44,-12 -61,-20 -5,-2 -6,-3 -10,-5 -7,-4 -20,-12 -27,-17l-21 -21c-8,-12 -22,-31 -23,-46 -3,-5 -4,-11 -6,-18l0 -4c-1,-2 -1,-5 -2,-7 -1,-6 0,-14 -1,-20 -2,-6 -1,-13 -1,-19 -3,-9 -1,-34 -1,-45 -2,-13 -2,-35 -3,-41l-3 -25c-9,-27 -6,-32 -24,-57 -5,-7 -21,-20 -29,-24 -2,0 -3,-1 -5,-1 -4,-3 -4,-3 -9,-3 -5,-3 -2,-2 -8,-3 -2,0 -5,-1 -7,-2l-4 0c-3,-1 -5,-1 -7,-2 -6,-1 -12,0 -18,-1 -9,-3 -33,-1 -44,-1l-56 4c-5,2 -6,1 -11,1 -7,3 -17,1 -25,1 -9,3 -35,2 -47,2l-31 -4c-4,-1 -17,-4 -20,-4l-6 -4c-15,-4 -26,-11 -36,-23 -4,-6 -9,-12 -10,-19 -3,-4 -3,-4 -3,-9 -3,-5 -3,-3 -3,-9l-3 -18c-1,-8 -2,-27 -4,-32l-57 7c-16,6 -33,10 -49,15 -9,3 -42,15 -49,15 -5,3 -2,2 -7,3 -4,2 -2,2 -7,2 -4,2 -2,2 -6,2 -5,3 -2,2 -7,2 -4,3 -22,9 -26,9 -19,11 -58,22 -81,32 -26,12 -54,24 -81,35 -53,22 -109,53 -161,81 -86,46 -163,100 -242,156 -34,24 -70,53 -101,79l-57 49c-15,12 -39,37 -54,50 -9,9 -26,27 -35,33l-66 69c-6,6 -15,37 -15,42 11,12 6,6 15,13l30 30c20,17 60,43 84,55 5,1 0,-2 5,2 1,0 58,20 58,20 5,0 5,1 10,1 4,2 8,2 12,4l13 1c3,1 5,1 9,2l32 2 22 -2c4,0 2,0 6,-1l17 -1c11,-4 25,-4 36,-8l6 0c3,-1 5,-1 9,-2 5,0 6,0 11,-1 7,-2 16,0 23,1 12,2 22,4 33,11 4,2 4,2 8,4 14,12 23,27 31,43 4,8 12,36 14,45l3 34c0,5 1,8 -1,13l-2 29c-2,4 -3,7 -3,11 -2,13 -11,34 -16,45 -9,11 -22,36 -31,50 0,9 -5,18 -5,28 1,4 4,13 5,18 10,9 18,9 27,16 4,2 0,-1 5,3 28,6 85,39 112,54 37,21 77,45 119,51l14 1c3,1 2,1 5,1l15 -2c6,-2 10,-1 15,-4l5 0c3,-3 2,-3 6,-4 3,-2 6,-4 9,-6 20,-17 39,-54 62,-73 5,-5 18,-13 25,-15 5,0 3,1 7,-2l31 -5 43 4c17,5 32,7 48,15 8,4 40,19 47,21 5,4 10,5 15,9 7,1 37,15 46,18 14,6 63,17 80,20l119 23c4,3 8,4 13,5 8,4 21,8 30,13 15,8 31,18 42,32 5,6 10,16 15,22 1,5 2,7 5,11 2,8 6,16 9,23 2,7 4,15 6,22 5,14 6,30 10,44l1 13c1,4 1,6 2,9l4 32c1,7 0,22 2,35 0,11 2,48 -1,57 0,7 1,16 -1,22 0,5 0,6 -1,10 -1,7 0,13 -1,19 -2,4 -2,6 -3,9l-1 14c-2,5 -4,15 -4,21 -4,9 -6,19 -9,28 -4,10 -9,18 -13,27 -4,4 -8,10 -11,15l-16 13c-13,5 -19,7 -32,11 -9,2 -18,3 -27,1l-21 -2c-11,-2 -32,-10 -42,-16 -25,-15 -43,-31 -61,-53 -9,-11 -43,-45 -52,-52l-20 -15c-5,0 -22,-4 -26,-5 -7,3 -15,4 -23,7 -3,3 -4,6 -7,10 -1,4 -7,18 -9,24l-5 33c1,2 0,2 1,4l1 13c2,3 3,8 3,12 1,8 12,28 18,35 15,19 49,47 61,63 4,5 17,22 18,28 0,5 0,3 2,7l5 27c1,7 -4,32 -6,37 -1,5 -5,11 -9,15 -5,6 -12,11 -19,15 -9,4 -19,7 -27,12 -5,0 -14,3 -19,6 -13,0 -28,7 -41,7l-24 5c-17,6 -47,9 -61,22 -4,2 -5,3 -8,5l-18 18c-12,18 -31,48 -39,67 -6,6 -14,17 -18,24 -5,6 -25,23 -32,28 -9,3 -17,8 -27,11 -9,3 -18,5 -27,10 -9,1 -21,9 -29,13l-7 7c-13,21 -11,26 -17,47l0 6c-2,3 -2,5 -3,9l-3 30c-1,3 -1,5 -2,8l0 4c-1,3 -2,5 -3,8 0,6 1,3 -2,8 0,13 -19,47 -26,60 -9,19 -11,31 -18,50l-2 18c-1,8 0,16 -1,24 -1,4 -1,1 0,6 0,11 2,32 -1,41l-5 34c-3,5 -1,0 -2,6 -2,6 -7,13 -11,18l-15 12c-5,1 -7,3 -11,6 -5,0 -6,1 -10,3l-25 5c-11,2 -30,1 -42,3 -10,0 -22,-2 -30,1l-33 3 -29 6c-5,2 -11,6 -16,9l-22 19c-6,10 -12,18 -17,27 -1,5 0,3 -2,7l-5 28c1,9 3,20 6,29 3,8 9,15 10,23 2,3 2,5 4,9l0 4c1,2 2,5 3,7l4 33c0,3 0,2 -1,5 0,9 1,19 -1,27 -1,6 0,36 1,42 1,9 4,26 9,33 8,12 61,46 74,53 24,12 39,16 64,24l4 0c3,1 5,2 7,3l34 3c5,0 7,0 12,-1l30 -2c3,-1 5,-2 7,-3l5 0c5,-1 12,-4 18,-4 8,-5 27,-12 38,-17 29,-16 45,-32 73,-50l24 -22c8,-5 21,-13 27,-18 8,-1 43,-18 53,-23 17,-8 35,-15 53,-22 15,-6 36,-13 52,-18 17,-5 36,-8 52,-13l11 -1c4,-1 6,-1 9,-2l42 -5c6,0 15,1 21,-1 7,3 15,0 22,2 6,0 10,0 15,1l35 6c12,7 27,9 41,18 14,10 29,18 42,30 17,14 45,38 61,48 12,7 27,12 37,17l56 9c16,0 86,-2 96,1 9,0 21,-1 29,2 8,1 18,0 26,2l35 4c12,4 28,5 39,11 5,1 6,2 11,3 9,5 25,11 35,15 15,9 27,16 42,26 13,11 37,32 45,43 16,18 41,55 53,75 32,53 77,147 86,205 2,6 3,13 5,19 0,5 -1,6 1,10 1,7 0,17 1,24 1,3 1,2 1,4l-3 27c-2,9 -7,28 -11,34 -7,10 -23,24 -31,34 -9,13 -13,18 -20,33 -9,20 -10,39 -13,60 0,6 0,10 -1,16 0,2 0,1 1,4 0,8 -2,18 1,26 0,6 -1,12 1,18 1,6 0,28 2,40 0,10 2,31 -1,39l-2 27c-3,18 -10,39 -19,55 -10,20 -20,30 -32,47 -10,13 -23,25 -33,37 -7,9 -16,16 -23,24 -11,14 -23,30 -31,46 -6,12 -12,30 -17,39 0,7 -3,17 -6,24l0 4c-1,5 -1,10 -3,15l-2 18c0,4 0,3 -1,8 -2,11 -2,22 -4,33l-3 38c-1,4 -1,6 -2,9l-4 23c-1,10 -9,31 -14,41 -4,8 -18,27 -24,35 -15,19 -49,47 -68,71l-18 19c-6,7 -25,29 -27,35 -1,14 -11,34 -11,49 3,3 4,5 9,6l23 0c9,2 25,1 35,1 9,3 98,1 116,1 14,-3 46,-1 52,-2 11,-2 44,-3 44,-3l249 -31c16,0 56,-11 74,-15 25,-5 50,-11 75,-17 26,-7 50,-14 75,-21 16,-4 63,-21 76,-22 10,-6 57,-22 71,-26 60,-20 162,-66 217,-93 50,-25 96,-51 144,-78 43,-24 108,-63 145,-94 5,-8 8,-19 13,-28 -15,-14 -7,-9 -12,-22 -6,-10 -15,-23 -18,-34 -2,-3 -2,-3 -4,-7l-11 -57c0,-6 -1,-13 1,-19l2 -26c3,-8 2,-15 7,-22 1,-15 28,-65 37,-81 8,-13 14,-26 21,-40 6,-12 11,-30 17,-40l7 -35c1,-3 1,-5 2,-8 0,-6 -1,-7 1,-11l4 -44c1,-2 2,-31 4,-45l7 -67c1,-6 0,-28 2,-41 0,-10 -2,-27 1,-36 0,-6 1,-12 -1,-18 0,-8 1,-18 -1,-25l-1 -26c-2,-4 -2,-6 -3,-9l0 -7c-1,-5 -3,-10 -3,-16l-12 -36c-5,-9 -10,-19 -17,-28l-16 -15c-11,-7 -19,-11 -29,-17 -4,0 -17,-4 -21,-6l-28 -3c-9,0 -20,-2 -29,1l-41 5c-4,1 -8,2 -12,3 -6,0 -7,-1 -12,1l-21 2c-19,3 -84,3 -99,0 -14,0 -67,2 -76,-1 -9,0 -20,2 -28,-1 -7,0 -16,1 -22,-1 -9,0 -21,1 -29,-1 -6,-1 -25,-1 -36,-2l-26 -3c-4,-1 -6,-1 -9,-2l-6 0c-4,-1 -11,-3 -15,-3 -17,-6 -31,-8 -48,-17 -20,-10 -36,-23 -53,-37l-43 -45c-16,-20 -41,-55 -52,-76 -7,-12 -13,-23 -19,-35 -5,-9 -11,-28 -16,-35 -4,-17 -23,-47 -24,-66 -12,-21 -20,-75 -28,-101l-1 -11c-1,-4 -1,-6 -2,-9l-3 -18c0,-5 0,-23 -2,-33 0,-4 0,-3 1,-7 0,-7 0,-13 1,-18l5 -43c4,-13 6,-28 10,-42 5,-14 9,-27 14,-41 18,-53 46,-113 71,-164 15,-29 32,-54 51,-82 14,-18 29,-31 50,-40 7,-3 21,-7 26,-10 6,-1 19,-4 25,-6l4 0c4,-1 6,-1 9,-2l40 -4c10,-2 23,0 37,-3 11,0 35,2 44,-1 11,0 41,2 50,-1 5,-1 23,-1 33,-2 5,0 7,0 11,-1l63 -7c5,0 4,0 8,-1l48 -7c13,-4 43,-7 52,-12 30,-3 102,-36 129,-53 22,-13 43,-29 65,-42 25,-16 37,-18 64,-26l90 -7c3,-1 5,-1 9,-2l17 -3c6,0 4,1 8,-2 13,0 52,-18 65,-24 10,-4 58,-26 64,-26 15,-9 43,-13 60,-18l4 0c3,-1 5,-2 8,-3l9 0c4,-1 6,-1 9,-2l28 -2c7,-1 14,0 20,-1l35 -7c5,0 7,-1 11,-3 5,-1 7,-2 12,-4 7,-4 16,-7 23,-12 16,-12 31,-25 44,-40 11,-17 26,-32 36,-50 10,-16 20,-32 30,-49 21,-35 41,-64 64,-99 10,-12 25,-29 36,-38 8,-7 36,-27 42,-29 9,-3 37,-5 44,-9 -1,-5 -3,-31 -4,-37l-3 -17c-11,-35 -20,-82 -35,-114 -5,-3 -10,-7 -15,-8 -7,5 -6,2 -18,4 -4,2 -2,1 -7,2 -4,1 -3,1 -8,1 -18,6 -29,13 -47,20l-48 38c-26,18 -32,24 -62,36 -20,8 -44,14 -62,22 -4,2 -5,3 -9,4l-32 24c-9,14 -27,39 -28,55 -7,12 -14,43 -20,59 -9,22 -14,38 -30,58 -7,3 -19,6 -26,8 -7,-2 -13,-4 -20,-6 -9,-8 -9,-17 -15,-27 0,-7 -9,-34 -12,-43 -3,-15 -5,-31 -9,-44 0,-6 -3,-17 -6,-22 0,-8 -5,-13 -5,-21 -4,-7 -12,-21 -15,-28 -7,-11 -27,-16 -36,-14 -4,1 -17,4 -22,4 -13,7 -41,27 -52,31 -12,9 -42,34 -50,44 -9,10 -22,29 -28,39 -5,11 -9,24 -15,34 -1,8 -7,22 -9,32 -4,20 -20,85 -28,97 -4,5 -20,21 -26,25 -11,7 -46,21 -58,23 -6,0 -11,2 -16,4l-12 1c-4,1 -6,1 -9,2l-84 9c-5,1 -9,2 -14,3l-4 0c-8,3 -15,3 -22,7 -41,3 -109,86 -151,86 -5,3 -2,3 -8,3 -3,1 -5,1 -8,2l-5 0c-3,1 -5,1 -7,2l-25 1c-7,3 -18,1 -27,1 -4,2 -2,1 -6,2 -8,-3 -19,-2 -28,-2l-33 -2c-3,-1 -5,-1 -8,-2l-12 -1c-9,-3 -20,-5 -30,-8 -13,-3 -28,-10 -37,-18 -13,-13 -13,-19 -21,-33l-7 -45c-3,-9 -2,-20 -2,-30l6 -44c2,-7 6,-23 7,-30 5,-8 11,-30 16,-41 11,-25 29,-62 51,-80 56,-46 146,-75 211,-107 13,-7 57,-35 68,-49 58,-70 83,-159 116,-243 5,-14 9,-27 14,-40 4,-11 16,-34 17,-42l14 -22c4,-7 24,-27 30,-32 12,-8 32,-19 42,-27 3,0 1,1 3,-1l2 -1 2 -1c4,0 1,0 4,-1l2 -1 2 -1 3 -2c3,0 1,1 3,-1 4,0 1,1 3,-1l2 -1c4,0 2,0 4,-1 4,0 1,0 3,-1 4,0 2,0 5,-1l2 -1c4,0 1,0 3,-2 4,0 2,1 5,-1 4,0 2,0 4,-1 5,0 3,0 6,-1 4,0 1,0 3,-1 4,0 2,0 5,-1 4,0 3,0 8,-1 4,0 2,0 5,-1 5,0 3,0 7,-2 5,0 6,1 10,-1 5,0 10,1 15,-1 9,0 26,-1 34,1l21 1 50 13c10,3 28,14 37,17 8,6 34,20 44,24 15,8 27,11 42,16l31 6c5,0 6,-1 11,1l21 2c10,1 22,0 37,2 6,0 9,0 14,1 14,0 67,2 76,-1 4,-1 22,-1 31,-2l22 -2c4,0 2,0 6,-1l13 -2c6,-1 12,-2 18,-4l9 -2c5,0 4,0 9,-1 10,-2 17,1 22,-7 0,-8 -8,-45 -11,-51 -16,-29 -35,-63 -53,-90 -6,-4 -17,-9 -25,-12 -10,11 -6,7 -13,8 -3,1 -8,2 -11,2 -13,8 -28,10 -39,17 -7,1 -11,4 -17,4 -8,4 -18,4 -26,6l-24 3c-11,1 -40,3 -50,2l-36 -4c-4,-1 -9,-1 -13,-3 -11,0 -50,-13 -58,-19 -7,-3 -6,-1 -20,-12 -12,-10 -28,-35 -36,-47l-19 -35c-4,-18 -29,-53 -37,-72l-72 -83c-4,-6 -12,-18 -16,-23 -4,-6 -12,-32 -13,-40l-1 -14c-1,-9 -1,0 0,-9l1 -17c2,-14 11,-43 16,-56 5,-12 19,-40 21,-50 5,-5 21,-38 23,-44 4,-4 7,-7 10,-12 -3,-9 -10,-23 -11,-31 -2,-3 -88,-71 -88,-71l-45 -12c-2,4 -4,5 -8,9 -1,4 -1,7 -3,11 -7,14 -24,35 -35,56 -2,6 -3,9 -7,15l-26 149c-5,8 -7,16 -11,25 -4,9 -8,16 -13,25 -11,20 -28,42 -41,59l-42 44c-14,11 -27,25 -41,37l-34 26c-20,19 -48,35 -67,53 -14,5 -28,17 -42,22 -11,5 -46,15 -58,17l-13 2c-3,1 -5,1 -9,2l-114 11c-3,1 -5,1 -8,2l-5 0c-15,5 -30,7 -45,13 -21,6 -28,12 -45,24zm-1326 1500c3,-1 10,0 17,-2 10,0 18,-1 28,-1l39 1c4,1 6,1 9,2l7 0c3,1 5,1 8,2l4 0c11,2 38,10 48,14 10,4 19,9 28,13 23,10 36,20 57,34l22 23c2,4 7,27 7,31 0,5 -4,16 -5,22 -3,9 -12,19 -19,25 -7,5 -22,8 -30,10l-75 -11 -35 -4 -25 2c-17,6 -46,12 -60,21l-5 0c-2,0 -4,1 -7,2l-35 4c-5,0 -3,1 -7,-1l-57 -8c-10,-5 -19,-7 -30,-14l-10 -10c-3,-9 -9,-26 -9,-36l4 -25c1,-9 13,-32 19,-39l19 -19c7,-5 15,-10 22,-14 8,-3 18,-7 25,-11 4,0 4,-1 8,-1 7,-4 17,-5 26,-8l5 0c3,-1 5,-1 7,-2zm136 -1663c-9,-8 -25,-25 -37,-35l-16 -15c-9,-6 -18,-12 -27,-19 -8,-5 -19,-9 -26,-14 -11,-3 -34,-16 -48,-20 -16,-6 -32,-10 -48,-15 -24,-7 -79,-20 -97,-34 -2,0 -1,0 -4,-1l-23 -22c-1,-3 -11,-23 -13,-25 0,-5 -1,-7 -3,-11l0 -5c-1,-2 -2,-4 -3,-7l-3 -35 2 -34c1,-3 2,-5 3,-8l0 -6c2,-6 5,-17 5,-24 5,-8 8,-22 12,-32 4,-10 8,-20 13,-30 16,-31 33,-63 60,-85 25,-16 29,-16 55,-25 5,-1 12,-1 17,-2 6,0 9,-1 16,-1l47 6c4,3 6,4 11,5 11,9 28,17 38,26 3,0 30,11 33,13 5,1 40,9 46,11l20 3c4,1 6,1 9,2l63 12c12,7 23,12 36,20l20 20c8,9 11,15 17,25 9,19 11,28 14,50 1,2 2,5 3,8 0,5 -1,7 1,12l3 31c0,2 1,33 3,49l3 25c1,4 1,6 2,9l0 5c2,6 2,13 5,19 1,9 13,33 20,40 3,8 36,55 42,62 5,12 24,40 31,53 5,8 9,18 14,27 4,8 6,18 10,25 0,4 1,5 1,9l6 31c1,4 -1,22 -2,28 -3,8 -2,14 -7,21 -3,7 0,4 -10,17 -7,8 -28,21 -37,26 -10,5 -22,8 -30,13l-48 11 -35 1c-10,-1 -26,-4 -34,-11 -9,-7 -21,-27 -26,-38 -4,-9 -6,-15 -9,-25 0,-5 1,-3 -2,-8l-4 -24c-1,-5 -1,-9 -3,-14l0 -4c-2,-5 -5,-19 -5,-25 -4,-4 -2,0 -3,-5l-14 -15c-22,-14 -42,-27 -64,-41z"/>
   <path class="fil1 str1" d="M1107 3275c-29,-4 -67,-18 -95,-33 -25,-12 -66,-41 -88,-59 -50,-42 -86,-106 -135,-135 -7,-4 -13,-6 -19,-9l-26 -7c-4,0 -8,-1 -11,-2l-14 -2c-4,-1 -3,-1 -8,-1l-19 -2c-4,-1 -6,-1 -11,-1l-31 -6c-3,-1 -22,-7 -25,-7 -3,-2 -4,-3 -7,-5 -16,-3 -40,-25 -55,-35 -21,-17 -41,-47 -51,-70 -7,-18 -9,-29 -15,-45l0 -6c-1,-3 -1,-5 -2,-8l-2 -27c-3,-6 -1,-16 -1,-23 -3,-9 -2,-32 -2,-43 2,-9 2,-28 3,-32 1,-3 1,-5 2,-8l1 -14c1,-4 6,-22 7,-25 6,-11 9,-19 17,-31 6,-9 15,-22 22,-30 2,-5 3,-8 7,-12 4,-9 7,-24 9,-34l1 -29 -9 -70c-6,-18 -8,-42 -13,-60 -6,-21 -12,-44 -24,-62 -6,-6 -27,-11 -35,-10 -6,2 -13,3 -20,6 -11,11 -14,25 -19,39l-15 82c-1,4 -7,27 -8,31 -3,6 -4,12 -9,19 -7,4 -16,5 -24,7 -8,-2 -19,-5 -26,-6 -7,-3 -25,-22 -30,-29 -6,-8 -12,-15 -16,-23 -12,-13 -31,-55 -38,-71 -5,-12 -9,-22 -13,-35 -4,-11 -7,-25 -11,-36l0 -5c-1,-3 -1,-5 -2,-8l-1 -19c-2,-6 -1,-12 -1,-18 -3,-8 -1,-19 -1,-27 2,-9 1,-25 1,-35 1,-11 2,-41 2,-43 3,-8 1,-40 1,-51l-2 -26c-1,-3 -1,-5 -2,-9l-6 -30c-3,-6 -11,-24 -13,-30 -12,-19 -37,-35 -51,-52l-14 -21c-1,-6 0,-2 -3,-6l-4 -30c-2,-5 -2,-2 0,-7l1 -18c1,-4 1,-4 1,-9l10 -45c1,-3 1,-5 2,-9l2 -36c-2,-11 -6,-36 -13,-43 -9,-7 -22,-11 -32,-17 -7,5 -14,9 -21,13 0,10 -14,64 -17,75l-44 322c-2,6 -1,12 -1,18 -3,9 -1,23 -1,33 -3,6 -2,14 -2,21 -2,9 -1,28 -1,38 -3,9 -1,60 -1,73 3,8 1,27 1,37 3,9 1,25 1,35 2,11 2,34 3,38l16 166 22 123c10,59 24,110 39,168 18,72 63,198 93,266 10,22 21,45 29,67 6,15 29,55 32,67 6,7 7,16 13,24 4,16 40,74 50,93 18,31 38,62 58,93 28,45 64,95 97,139 21,28 50,63 73,92l86 94c13,20 74,75 95,96 19,16 45,42 65,59l52 42c3,4 7,7 11,9 22,22 62,49 88,68 29,22 59,42 89,62 46,30 86,53 132,80 13,7 35,17 45,25 23,6 70,40 92,45 10,7 47,22 61,28 20,9 41,17 61,25 21,8 41,16 62,24 15,5 51,16 62,22 5,1 2,0 7,3 8,0 36,11 47,14l94 27c15,4 33,7 47,11l61 6c0,-18 -4,-92 -2,-107 3,-8 2,-24 2,-33l22 -235c2,-10 2,-41 2,-41 3,-9 1,-30 1,-40 2,-5 1,-5 1,-9 -2,-9 -1,-23 -1,-33 -1,-10 -1,-22 -2,-29l-2 -17c-2,-5 -1,-5 -1,-10 -2,-5 -9,-34 -9,-38 -3,-5 -6,-11 -7,-17 -4,-5 -7,-11 -9,-17 -10,-16 -33,-34 -49,-42 -14,-7 -37,-16 -52,-19 -9,-2 -17,-4 -26,-7 -34,-8 -71,-13 -104,-26 -26,-11 -53,-27 -72,-49 -7,-10 -21,-32 -24,-43l-8 -40c-1,-3 -2,-5 -3,-8l-1 -33c-1,-4 -1,-3 -1,-8 3,-8 1,-22 1,-32 3,-9 1,-52 1,-65l-2 -27c-1,-4 -1,-6 -2,-9l0 -6c-1,-3 -1,-5 -2,-8l-15 -41c-3,-6 -18,-23 -23,-28 -4,-2 -5,-4 -8,-7 -10,-6 -26,-15 -34,-21 -5,-1 -30,-11 -37,-14 -11,-4 -32,-9 -44,-11l-4 0c-5,-1 -9,-2 -14,-3l-30 -4c-10,-1 -28,-1 -30,-2 -5,-1 -6,-1 -11,-1 -6,-2 -14,-1 -21,-1 -8,-3 -28,-1 -39,-1l-26 -2c-5,-2 -7,-2 -13,-2 -4,-1 -6,-1 -9,-2l-6 0z"/>
   <path class="fil2 str1" d="M1012 3242c28,15 66,29 95,33l6 0c3,1 5,1 9,2 6,0 8,0 13,2l26 2c11,0 31,-2 39,1 7,0 15,-1 21,1 5,0 6,0 11,1 2,1 20,1 30,2l30 4c5,1 9,2 14,3l4 0c12,2 33,7 44,11 7,3 32,13 37,14 8,6 24,15 34,21 3,3 4,5 8,7 5,5 20,22 23,28l15 41c1,3 1,5 2,8l0 6c1,3 1,5 2,9l2 27c0,13 2,56 -1,65 0,10 2,24 -1,32 0,5 0,4 1,8l1 33c1,3 2,5 3,8l8 40c3,11 17,33 24,43 19,22 46,38 72,49 33,13 70,18 104,26 9,3 17,5 26,7 15,3 38,12 52,19 16,8 39,26 49,42 2,6 5,12 9,17 1,6 4,12 7,17 0,4 7,33 9,38 0,5 -1,5 1,10l2 17c1,7 1,19 2,29 0,10 -1,24 1,33 0,4 1,4 -1,9 0,10 2,31 -1,40 0,0 0,31 -2,41l-22 235c0,9 1,25 -2,33 -2,15 2,89 2,107l4 7c6,3 17,4 25,7l4 0c3,0 5,1 8,2l5 0c2,1 5,1 7,2l39 6c3,1 5,1 9,2l5 0c3,1 5,1 8,2l6 0c3,1 5,1 9,2l5 0c4,1 6,1 9,3l83 9c13,2 37,2 37,2 8,2 19,1 27,1 8,3 19,1 28,1 3,-1 2,-1 6,-1 0,-15 10,-35 11,-49 2,-6 21,-28 27,-35l18 -19c19,-24 53,-52 68,-71 6,-8 20,-27 24,-35 5,-10 13,-31 14,-41l4 -23c1,-3 1,-5 2,-9l3 -38c2,-11 2,-22 4,-33 1,-5 1,-4 1,-8l2 -18c2,-5 2,-10 3,-15l0 -4c3,-7 6,-17 6,-24 5,-9 11,-27 17,-39 8,-16 20,-32 31,-46 7,-8 16,-15 23,-24 10,-12 23,-24 33,-37 12,-17 22,-27 32,-47 9,-16 16,-37 19,-55l2 -27c3,-8 1,-29 1,-39 -2,-12 -1,-34 -2,-40 -2,-6 -1,-12 -1,-18 -3,-8 -1,-18 -1,-26 -1,-3 -1,-2 -1,-4 1,-6 1,-10 1,-16 3,-21 4,-40 13,-60 7,-15 11,-20 20,-33 8,-10 24,-24 31,-34 4,-6 9,-25 11,-34l3 -27c0,-2 0,-1 -1,-4 -1,-7 0,-17 -1,-24 -2,-4 -1,-5 -1,-10 -2,-6 -3,-13 -5,-19 -9,-58 -54,-152 -86,-205 -12,-20 -37,-57 -53,-75 -8,-11 -32,-32 -45,-43 -15,-10 -27,-17 -42,-26 -10,-4 -26,-10 -35,-15 -5,-1 -6,-2 -11,-3 -11,-6 -27,-7 -39,-11l-35 -4c-8,-2 -18,-1 -26,-2 -8,-3 -20,-2 -29,-2 -10,-3 -80,-1 -96,-1l-56 -9c-10,-5 -25,-10 -37,-17 -16,-10 -44,-34 -61,-48 -13,-12 -28,-20 -42,-30 -14,-9 -29,-11 -41,-18l-35 -6c-5,-1 -9,-1 -15,-1 -7,-2 -15,1 -22,-2 -6,2 -15,1 -21,1l-42 5c-3,1 -5,1 -9,2l-11 1c-16,5 -35,8 -52,13 -16,5 -37,12 -52,18 -18,7 -36,14 -53,22 -10,5 -45,22 -53,23 -6,5 -19,13 -27,18l-24 22c-28,18 -44,34 -73,50 -11,5 -30,12 -38,17 -6,0 -13,3 -18,4l-5 0c-2,1 -4,2 -7,3l-30 2c-5,1 -7,1 -12,1l-34 -3c-2,-1 -4,-2 -7,-3l-4 0c-25,-8 -40,-12 -64,-24 -13,-7 -66,-41 -74,-53 -5,-7 -8,-24 -9,-33 -1,-6 -2,-36 -1,-42 2,-8 1,-18 1,-27 1,-3 1,-2 1,-5l-4 -33c-1,-2 -2,-5 -3,-7l0 -4c-2,-4 -2,-6 -4,-9 -1,-8 -7,-15 -10,-23 -3,-9 -5,-20 -6,-29l5 -28c2,-4 1,-2 2,-7 5,-9 11,-17 17,-27l22 -19c5,-3 11,-7 16,-9l29 -6 33 -3c8,-3 20,-1 30,-1 12,-2 31,-1 42,-3l25 -5c4,-2 5,-3 10,-3 4,-3 6,-5 11,-6l15 -12c4,-5 9,-12 11,-18 1,-6 -1,-1 2,-6l5 -34c3,-9 1,-30 1,-41 -1,-5 -1,-2 0,-6 1,-8 0,-16 1,-24l2 -18c7,-19 9,-31 18,-50 7,-13 26,-47 26,-60 3,-5 2,-2 2,-8 1,-3 2,-5 3,-8l0 -4c1,-3 1,-5 2,-8l3 -30c1,-4 1,-6 3,-9l0 -6c6,-21 4,-26 17,-47l7 -7c8,-4 20,-12 29,-13 9,-5 18,-7 27,-10 10,-3 18,-8 27,-11 7,-5 27,-22 32,-28 4,-7 12,-18 18,-24 8,-19 27,-49 39,-67l18 -18c3,-2 4,-3 8,-5 14,-13 44,-16 61,-22l24 -5c13,0 28,-7 41,-7 5,-3 14,-6 19,-6 8,-5 18,-8 27,-12 7,-4 14,-9 19,-15 4,-4 8,-10 9,-15 2,-5 7,-30 6,-37l-5 -27c-2,-4 -2,-2 -2,-7 -1,-6 -14,-23 -18,-28 -12,-16 -46,-44 -61,-63 -6,-7 -17,-27 -18,-35 0,-4 -1,-9 -3,-12l-1 -13c-1,-2 0,-2 -1,-4l5 -33c2,-6 8,-20 9,-24 3,-4 4,-7 7,-10 8,-3 16,-4 23,-7 4,1 21,5 26,5l20 15c9,7 43,41 52,52 18,22 36,38 61,53 10,6 31,14 42,16l21 2c9,2 18,1 27,-1 13,-4 19,-6 32,-11l16 -13c3,-5 7,-11 11,-15 4,-9 9,-17 13,-27 3,-9 5,-19 9,-28 0,-6 2,-16 4,-21l1 -14c1,-3 1,-5 3,-9 1,-6 0,-12 1,-19 1,-4 1,-5 1,-10 2,-6 1,-15 1,-22 3,-9 1,-46 1,-57 -2,-13 -1,-28 -2,-35l-4 -32c-1,-3 -1,-5 -2,-9l-1 -13c-4,-14 -5,-30 -10,-44 -2,-7 -4,-15 -6,-22 -3,-7 -7,-15 -9,-23 -3,-4 -4,-6 -5,-11 -5,-6 -10,-16 -15,-22 -11,-14 -27,-24 -42,-32 -9,-5 -22,-9 -30,-13 -5,-1 -9,-2 -13,-5l-119 -23c-17,-3 -66,-14 -80,-20 -9,-3 -39,-17 -46,-18 -5,-4 -10,-5 -15,-9 -7,-2 -39,-17 -47,-21 -16,-8 -31,-10 -48,-15l-43 -4 -31 5c-4,3 -2,2 -7,2 -7,2 -20,10 -25,15 -23,19 -42,56 -62,73 -3,2 -6,4 -9,6 -4,1 -3,1 -6,4l-5 0c-5,3 -9,2 -15,4l-15 2c-3,0 -2,0 -5,-1l-14 -1c-42,-6 -82,-30 -119,-51 -27,-15 -84,-48 -112,-54 -5,-4 -1,-1 -5,-3 -9,-7 -17,-7 -27,-16 -1,-5 -4,-14 -5,-18 0,-10 5,-19 5,-28 9,-14 22,-39 31,-50 5,-11 14,-32 16,-45 0,-4 1,-7 3,-11l2 -29c2,-5 1,-8 1,-13l-3 -34c-2,-9 -10,-37 -14,-45 -8,-16 -17,-31 -31,-43 -4,-2 -4,-2 -8,-4 -11,-7 -21,-9 -33,-11 -7,-1 -16,-3 -23,-1 -5,1 -6,1 -11,1 -4,1 -6,1 -9,2l-6 0c-11,4 -25,4 -36,8l-17 1c-4,1 -2,1 -6,1l-22 2 -32 -2c-4,-1 -6,-1 -9,-2l-13 -1c-4,-2 -8,-2 -12,-4 -5,0 -5,-1 -10,-1 0,0 -57,-20 -58,-20 -5,-4 0,-1 -5,-2 -24,-12 -64,-38 -84,-55l-30 -30c-9,-7 -4,-1 -15,-13 -8,1 -25,9 -33,11l-16 18c-2,4 -5,6 -7,9l-6 6c-1,3 -3,5 -5,8l-5 4c-1,3 -3,5 -5,8l-23 27c-4,6 -10,15 -15,20 -12,18 -29,40 -43,57 -8,12 -35,47 -39,58 -10,10 -17,27 -26,37 -5,11 -21,33 -28,45 -9,14 -18,29 -26,43 -8,15 -17,29 -25,44 -5,10 -18,36 -24,44 -1,3 -2,3 -2,7 -5,5 -22,38 -23,44 -3,5 -4,7 -7,12 -1,5 -7,19 -11,23 -2,9 -29,67 -35,80 -5,9 -31,72 -31,78 -3,5 -6,13 -7,18 -2,5 -2,2 -2,7 -2,4 -4,8 -4,12 -3,4 -7,15 -7,19 -2,4 -4,8 -5,13 -2,4 -2,2 -2,6 -2,5 -2,2 -2,7 -2,4 -3,6 -5,9 0,5 1,3 -2,7 -1,7 -14,46 -17,56l-6 50c-2,8 -1,24 1,31 10,6 23,10 32,17 7,7 11,32 13,43l-2 36c-1,4 -1,6 -2,9l-10 45c0,5 0,5 -1,9l-1 18c-2,5 -2,2 0,7l4 30c3,4 2,0 3,6l14 21c14,17 39,33 51,52 2,6 10,24 13,30l6 30c1,4 1,6 2,9l2 26c0,11 2,43 -1,51 0,2 -1,32 -2,43 0,10 1,26 -1,35 0,8 -2,19 1,27 0,6 -1,12 1,18l1 19c1,3 1,5 2,8l0 5c4,11 7,25 11,36 4,13 8,23 13,35 7,16 26,58 38,71 4,8 10,15 16,23 5,7 23,26 30,29 7,1 18,4 26,6 8,-2 17,-3 24,-7 5,-7 6,-13 9,-19 1,-4 7,-27 8,-31l15 -82c5,-14 8,-28 19,-39 7,-3 14,-4 20,-6 8,-1 29,4 35,10 12,18 18,41 24,62 5,18 7,42 13,60l9 70 -1 29c-2,10 -5,25 -9,34 -4,4 -5,7 -7,12 -7,8 -16,21 -22,30 -8,12 -11,20 -17,31 -1,3 -6,21 -7,25l-1 14c-1,3 -1,5 -2,8 -1,4 -1,23 -3,32 0,11 -1,34 2,43 0,7 -2,17 1,23l2 27c1,3 1,5 2,8l0 6c6,16 8,27 15,45 10,23 30,53 51,70 15,10 39,32 55,35 3,2 4,3 7,5 3,0 22,6 25,7l31 6c5,0 7,0 11,1l19 2c5,0 4,0 8,1l14 2c3,1 7,2 11,2l26 7c6,3 12,5 19,9 49,29 85,93 135,135 22,18 63,47 88,59z"/>
   <path class="fil3 str1" d="M2806 2998c5,7 11,26 16,35 6,12 12,23 19,35 11,21 36,56 52,76l43 45c17,14 33,27 53,37 17,9 31,11 48,17 4,0 11,2 15,3l6 0c3,1 5,1 9,2l26 3c11,1 30,1 36,2 8,2 20,1 29,1 6,2 15,1 22,1 8,3 19,1 28,1 9,3 62,1 76,1 15,3 80,3 99,0l21 -2c5,-2 6,-1 12,-1 4,-1 8,-2 12,-3l41 -5c9,-3 20,-1 29,-1l28 3c4,2 17,6 21,6 10,6 18,10 29,17l16 15c7,9 12,19 17,28l12 36c0,6 2,11 3,16l0 7c1,3 1,5 3,9l1 26c2,7 1,17 1,25 2,6 1,12 1,18 -3,9 -1,26 -1,36 -2,13 -1,35 -2,41l-7 67c-2,14 -3,43 -4,45l-4 44c-2,4 -1,5 -1,11 -1,3 -1,5 -2,8l-7 35c-6,10 -11,28 -17,40 -7,14 -13,27 -21,40 -9,16 -36,66 -37,81 -5,7 -4,14 -7,22l-2 26c-2,6 -1,13 -1,19l11 57c2,4 2,4 4,7 3,11 12,24 18,34 5,13 -3,8 12,22 61,-21 19,7 83,-42l57 -46c3,-3 5,-5 9,-7l70 -63c6,-4 11,-9 16,-15 8,-5 15,-14 22,-21 14,-9 47,-45 61,-59 5,-8 13,-15 20,-22 12,-14 33,-35 45,-49l48 -57c4,-4 8,-8 10,-13 15,-15 34,-41 47,-59 43,-56 88,-120 124,-179 24,-40 47,-80 69,-120 22,-40 39,-80 60,-120 45,-91 103,-256 128,-359 5,-20 11,-40 16,-60 4,-18 7,-43 13,-60l19 -110c1,-4 1,-3 1,-7l18 -151c2,-11 2,-35 2,-35 2,-10 3,-41 3,-41 1,-5 1,-11 1,-18 2,-8 1,-27 1,-37 3,-9 1,-91 1,-107 -3,-9 -1,-26 -1,-36 -2,-10 -2,-40 -2,-41 -2,-10 -2,-38 -3,-40l-30 -235c-6,-20 -12,-56 -16,-78 -6,-24 -11,-54 -19,-77l-10 -7c-7,4 -35,6 -44,9 -6,2 -34,22 -42,29 -11,9 -26,26 -36,38 -23,35 -43,64 -64,99 -10,17 -20,33 -30,49 -10,18 -25,33 -36,50 -13,15 -28,28 -44,40 -7,5 -16,8 -23,12 -5,2 -7,3 -12,4 -4,2 -6,3 -11,3l-35 7c-6,1 -13,0 -20,1l-28 2c-3,1 -5,1 -9,2l-9 0c-3,1 -5,2 -8,3l-4 0c-17,5 -45,9 -60,18 -6,0 -54,22 -64,26 -13,6 -52,24 -65,24 -4,3 -2,2 -8,2l-17 3c-4,1 -6,1 -9,2l-90 7c-27,8 -39,10 -64,26 -22,13 -43,29 -65,42 -27,17 -99,50 -129,53 -9,5 -39,8 -52,12l-48 7c-4,1 -3,1 -8,1l-63 7c-4,1 -6,1 -11,1 -10,1 -28,1 -33,2 -9,3 -39,1 -50,1 -9,3 -33,1 -44,1 -14,3 -27,1 -37,3l-40 4c-3,1 -5,1 -9,2l-4 0c-6,2 -19,5 -25,6 -5,3 -19,7 -26,10 -21,9 -36,22 -50,40 -19,28 -36,53 -51,82 -25,51 -53,111 -71,164 -5,14 -9,27 -14,41 -4,14 -6,29 -10,42l-5 43c-1,5 -1,11 -1,18 -1,4 -1,3 -1,7 2,10 2,28 2,33l3 18c1,3 1,5 2,9l1 11c8,26 16,80 28,101 1,19 20,49 24,66z"/>
   <path class="fil4 str1" d="M3444 2010l84 -9c3,-1 5,-1 9,-2l12 -1c5,-2 10,-4 16,-4 12,-2 47,-16 58,-23 6,-4 22,-20 26,-25 8,-12 24,-77 28,-97 2,-10 8,-24 9,-32 6,-10 10,-23 15,-34 6,-10 19,-29 28,-39 8,-10 38,-35 50,-44 11,-4 39,-24 52,-31 5,0 18,-3 22,-4 9,-2 29,3 36,14 3,7 11,21 15,28 0,8 5,13 5,21 3,5 6,16 6,22 4,13 6,29 9,44 3,9 12,36 12,43 6,10 6,19 15,27 7,2 13,4 20,6 7,-2 19,-5 26,-8 16,-20 21,-36 30,-58 6,-16 13,-47 20,-59 1,-16 19,-41 28,-55l32 -24c4,-1 5,-2 9,-4 18,-8 42,-14 62,-22 30,-12 36,-18 62,-36l48 -38c18,-7 29,-14 47,-20 5,0 4,0 8,-1 5,-1 3,0 7,-2 12,-2 11,1 18,-4l-8 -54c-7,-17 -14,-35 -21,-53 -5,-13 -19,-41 -21,-52 -4,-6 -8,-14 -10,-21 -3,-4 -10,-19 -11,-24 -3,-5 -10,-18 -11,-24 -7,-9 -18,-34 -23,-46 -6,-5 -16,-9 -23,-12 -5,8 -12,5 -22,7 -5,1 -4,1 -9,1l-9 2c-6,2 -12,3 -18,4l-13 2c-4,1 -2,1 -6,1l-22 2c-9,1 -27,1 -31,2 -9,3 -62,1 -76,1 -5,-1 -8,-1 -14,-1 -15,-2 -27,-1 -37,-2l-21 -2c-5,-2 -6,-1 -11,-1l-31 -6c-15,-5 -27,-8 -42,-16 -10,-4 -36,-18 -44,-24 -9,-3 -27,-14 -37,-17l-50 -13 -21 -1c-8,-2 -25,-1 -34,-1 -5,2 -10,1 -15,1 -4,2 -5,1 -10,1 -4,2 -2,2 -7,2 -3,1 -1,1 -5,1 -5,1 -4,1 -8,1 -3,1 -1,1 -5,1 -2,1 1,1 -3,1 -3,1 -1,1 -6,1 -2,1 0,1 -4,1 -3,2 -1,1 -5,1 -2,2 1,2 -3,2l-2 1c-3,1 -1,1 -5,1 -2,1 1,1 -3,1 -2,1 0,1 -4,1l-2 1c-2,2 1,1 -3,1 -2,2 0,1 -3,1l-3 2 -2 1 -2 1c-3,1 0,1 -4,1l-2 1 -2 1c-2,2 0,1 -3,1 -10,8 -30,19 -42,27 -6,5 -26,25 -30,32l-14 22c-1,8 -13,31 -17,42 -5,13 -9,26 -14,40 -33,84 -58,173 -116,243 -11,14 -55,42 -68,49 -65,32 -155,61 -211,107 -22,18 -40,55 -51,80 -5,11 -11,33 -16,41 -1,7 -5,23 -7,30l-6 44c0,10 -1,21 2,30l7 45c8,14 8,20 21,33 9,8 24,15 37,18 10,3 21,5 30,8l12 1c3,1 5,1 8,2l33 2c9,0 20,-1 28,2 4,-1 2,0 6,-2 9,0 20,2 27,-1l25 -1c2,-1 4,-1 7,-2l5 0c3,-1 5,-1 8,-2 6,0 3,0 8,-3 42,0 110,-83 151,-86 7,-4 14,-4 22,-7l4 0c5,-1 9,-2 14,-3z"/>
   <path class="fil5 str1" d="M2910 1090c17,-12 24,-18 45,-24 15,-6 30,-8 45,-13l5 0c3,-1 5,-1 8,-2l114 -11c4,-1 6,-1 9,-2l13 -2c12,-2 47,-12 58,-17 14,-5 28,-17 42,-22 19,-18 47,-34 67,-53l34 -26c14,-12 27,-26 41,-37l42 -44c13,-17 30,-39 41,-59 5,-9 9,-16 13,-25 4,-9 6,-17 11,-25l26 -149c4,-6 5,-9 7,-15 11,-21 28,-42 35,-56 2,-4 2,-7 3,-11 4,-4 6,-5 8,-9 0,-8 -7,-18 -9,-26l-49 -36c-5,-2 -3,-1 -7,-4 -4,-2 -3,-1 -7,-5 -4,-2 -2,-1 -6,-4 -12,-5 -36,-23 -49,-31 -31,-19 -64,-39 -96,-56 -12,-7 -40,-20 -49,-28 -8,-2 -13,-7 -21,-9 -4,-3 -8,-5 -13,-6 -5,-4 -10,-5 -16,-9 -7,-2 -13,-8 -21,-9 -3,-3 -4,-2 -7,-5 -14,-3 -40,-21 -56,-24 -8,-6 -41,-19 -51,-23l-64 -26c-5,0 -9,-2 -13,-4 -4,-1 -8,-2 -12,-5 -5,0 -2,1 -7,-2 -4,0 -8,-2 -12,-4 -5,-1 -2,0 -7,-3 -4,0 -15,-4 -19,-6 -5,-1 -2,0 -7,-3 -5,0 -2,1 -6,-2 -5,0 -3,0 -7,-2 -5,0 -2,0 -7,-2 -16,-2 -49,-19 -66,-19 -5,-3 -2,-3 -8,-3 -4,-2 -28,-8 -34,-9 -3,-2 -12,-4 -16,-4 -16,-9 -73,-17 -95,-24l-49 -9c-2,0 -4,-1 -7,-2l-4 0c-2,-1 -5,-1 -7,-2l-37 -6c-3,-1 -5,-1 -9,-2l-5 0c-4,-1 -6,-1 -9,-2l-81 -10c-5,-2 -4,-1 -9,-1l-23 -3c-10,-1 -17,-1 -24,-2l-57 -4c-6,-2 -14,-2 -21,-2 -7,-2 -18,-1 -27,-1 -7,-2 -18,-1 -26,-1 -9,-3 -33,-1 -44,-1 -9,-3 -45,-1 -56,-1 -8,3 -35,1 -45,1 -8,3 -19,1 -27,1 -7,3 -19,1 -27,1 -5,2 -10,1 -16,1 -6,3 -14,2 -21,2 -5,2 -12,1 -18,1 -4,1 -2,1 -7,1 -4,2 -10,1 -15,1 -5,2 -4,1 -8,1 -5,2 -12,1 -17,1 -4,2 -4,1 -9,1 -5,2 -8,1 -14,1 -4,2 -4,2 -9,2 -4,1 -4,1 -8,1 -5,1 -7,1 -12,1 -3,1 -1,1 -5,1 -5,2 -5,1 -10,1 -4,1 -2,1 -6,1 -4,2 -5,1 -10,1 -3,2 -1,1 -6,1 -4,2 -5,2 -10,2 -4,1 -2,1 -7,1 -4,1 -5,1 -10,1 -3,1 -1,1 -5,1 -5,2 -4,1 -9,1 -4,1 -1,1 -6,1 -4,2 -3,1 -8,1 -3,2 -2,1 -6,1 -4,2 -2,2 -6,2 -4,1 -2,1 -7,1 -3,1 -1,1 -5,1 -4,1 -3,1 -8,1 -3,1 0,1 -4,1 -4,2 -3,1 -7,1 -3,2 0,1 -4,1 -4,2 -3,1 -8,1 -2,2 1,2 -3,2 -4,1 -3,1 -8,1 -2,1 1,1 -3,1 -4,1 -3,1 -8,1 -3,1 -1,1 -5,1 -3,1 -2,1 -6,1 -3,1 -1,1 -5,1 -4,2 -2,1 -6,1 -3,2 -1,1 -5,1 -3,2 -1,2 -6,2 -2,1 0,1 -4,1 -3,1 -1,1 -6,1 -3,1 -1,1 -5,1 -3,1 -1,1 -5,1 -3,1 -1,1 -5,1 -3,1 -1,1 -5,1 -2,2 0,1 -4,1 -3,2 -1,2 -5,2 -3,1 -1,1 -5,1 -3,1 0,1 -4,1 -2,1 0,1 -4,1 -3,1 0,1 -4,1 -2,1 0,1 -4,1 -2,2 0,1 -4,1l-2 1c-2,4 -4,6 -6,9 2,5 3,24 4,32l3 18c0,6 0,4 3,9 0,5 0,5 3,9 1,7 6,13 10,19 10,12 21,19 36,23l6 4c3,0 16,3 20,4l31 4c12,0 38,1 47,-2 8,0 18,2 25,-1 5,0 6,1 11,-1l56 -4c11,0 35,-2 44,1 6,1 12,0 18,1 2,1 4,1 7,2l4 0c2,1 5,2 7,2 6,1 3,0 8,3 5,0 5,0 9,3 2,0 3,1 5,1 8,4 24,17 29,24 18,25 15,30 24,57l3 25c1,6 1,28 3,41 0,11 -2,36 1,45 0,6 -1,13 1,19 1,6 0,14 1,20 1,2 1,5 2,7l0 4c2,7 3,13 6,18 1,15 15,34 23,46l21 21c7,5 20,13 27,17 4,2 5,3 10,5 17,8 42,15 61,20 13,4 53,12 62,17 5,0 2,0 7,2 19,2 34,17 51,24 18,11 38,38 47,56 5,11 10,26 15,35l15 71c1,4 1,6 2,9l9 81c0,5 0,4 1,8l2 24c1,4 2,8 4,12l5 30c14,42 23,71 42,111l29 52c10,16 21,29 31,45l17 19c15,18 54,46 75,49 7,1 16,3 23,2 9,-1 19,-3 29,-7 12,-6 10,-4 24,-16 12,-10 24,-23 33,-35 16,-23 38,-46 54,-70 13,-15 31,-36 46,-48z"/>
   <path class="fil5 str1" d="M1991 875c-6,-7 -39,-54 -42,-62 -7,-7 -19,-31 -20,-40 -3,-6 -3,-13 -5,-19l0 -5c-1,-3 -1,-5 -2,-9l-3 -25c-2,-16 -3,-47 -3,-49l-3 -31c-2,-5 -1,-7 -1,-12 -1,-3 -2,-6 -3,-8 -3,-22 -5,-31 -14,-50 -6,-10 -9,-16 -17,-25l-20 -20c-13,-8 -24,-13 -36,-20l-63 -12c-3,-1 -5,-1 -9,-2l-20 -3c-6,-2 -41,-10 -46,-11 -3,-2 -30,-13 -33,-13 -10,-9 -27,-17 -38,-26 -5,-1 -7,-2 -11,-5l-47 -6c-7,0 -10,1 -16,1 -5,1 -12,1 -17,2 -26,9 -30,9 -55,25 -27,22 -44,54 -60,85 -5,10 -9,20 -13,30 -4,10 -7,24 -12,32 0,7 -3,18 -5,24l0 6c-1,3 -2,5 -3,8l-2 34 3 35c1,3 2,5 3,7l0 5c2,4 3,6 3,11 2,2 12,22 13,25l23 22c3,1 2,1 4,1 18,14 73,27 97,34 16,5 32,9 48,15 14,4 37,17 48,20 7,5 18,9 26,14 9,7 18,13 27,19l16 15c12,10 28,27 37,35 22,14 42,27 64,41l14 15c1,5 -1,1 3,5 0,6 3,20 5,25l0 4c2,5 2,9 3,14l4 24c3,5 2,3 2,8 3,10 5,16 9,25 5,11 17,31 26,38 8,7 24,10 34,11l35 -1 48 -11c8,-5 20,-8 30,-13 9,-5 30,-18 37,-26 10,-13 7,-10 10,-17 5,-7 4,-13 7,-21 1,-6 3,-24 2,-28l-6 -31c0,-4 -1,-5 -1,-9 -4,-7 -6,-17 -10,-25 -5,-9 -9,-19 -14,-27 -7,-13 -26,-41 -31,-53z"/>
   <path class="fil5 str1" d="M3680 867l72 83c8,19 33,54 37,72l19 35c8,12 24,37 36,47 14,11 13,9 20,12 8,6 47,19 58,19 4,2 9,2 13,3l36 4c10,1 39,-1 50,-2l24 -3c8,-2 18,-2 26,-6 6,0 10,-3 17,-4 11,-7 26,-9 39,-17 3,0 8,-1 11,-2 7,-1 3,3 13,-8 -4,-13 -6,-34 -12,-46 -15,-27 -42,-62 -61,-89 -22,-31 -50,-61 -70,-91l-107 -121c-6,-10 -26,-28 -36,-37 -3,-6 -8,-10 -13,-15 -11,-7 -34,-33 -45,-44l-47 -42c-13,-5 -26,-8 -39,-13 -3,5 -6,8 -10,12 -2,6 -18,39 -23,44 -2,10 -16,38 -21,50 -5,13 -14,42 -16,56l-1 17c-1,9 -1,0 0,9l1 14c1,8 9,34 13,40 4,5 12,17 16,23z"/>
   <path class="fil6 str1" d="M3692 1191c-5,2 -10,1 -15,1 -4,2 -5,1 -10,1 -4,2 -2,2 -7,2 -3,1 -1,1 -5,1 -5,1 -4,1 -8,1 -3,1 -1,1 -5,1 -2,1 1,1 -3,1 -3,1 -1,1 -6,1 -2,1 0,1 -4,1 -3,2 -1,1 -5,1 -2,2 1,2 -3,2l-2 1c-3,1 -1,1 -5,1 -2,1 1,1 -3,1 -2,1 0,1 -4,1l-2 1c-2,2 1,1 -3,1 -2,2 0,1 -3,1l-3 2 -2 1 -2 1c-3,1 0,1 -4,1l-2 1 -2 1c-2,2 0,1 -3,1 -10,8 -30,19 -42,27 -6,5 -26,25 -30,32l-14 22c-1,8 -13,31 -17,42 -5,13 -9,26 -14,40 -33,84 -58,173 -116,243 -11,14 -55,42 -68,49 -65,32 -155,61 -211,107 -22,18 -40,55 -51,80 -5,11 -11,33 -16,41 -1,7 -5,23 -7,30l-6 44c0,10 -1,21 2,30l7 45c8,14 8,20 21,33 9,8 24,15 37,18 10,3 21,5 30,8l12 1c3,1 5,1 8,2l33 2c9,0 20,-1 28,2 4,-1 2,0 6,-2 9,0 20,2 27,-1l25 -1c2,-1 4,-1 7,-2l5 0c3,-1 5,-1 8,-2 6,0 3,0 8,-3 42,0 110,-83 151,-86 7,-4 14,-4 22,-7l4 0c5,-1 9,-2 14,-3l84 -9c3,-1 5,-1 9,-2l12 -1c5,-2 10,-4 16,-4 12,-2 47,-16 58,-23 6,-4 22,-20 26,-25 8,-12 24,-77 28,-97 2,-10 8,-24 9,-32 6,-10 10,-23 15,-34 6,-10 19,-29 28,-39 8,-10 38,-35 50,-44 11,-4 39,-24 52,-31 5,0 18,-3 22,-4 9,-2 29,3 36,14 3,7 11,21 15,28 0,8 5,13 5,21 3,5 6,16 6,22 4,13 6,29 9,44 3,9 12,36 12,43 6,10 6,19 15,27 7,2 13,4 20,6 7,-2 19,-5 26,-8 16,-20 21,-36 30,-58 6,-16 13,-47 20,-59 1,-16 19,-41 28,-55l32 -24c4,-1 5,-2 9,-4 18,-8 42,-14 62,-22 30,-12 36,-18 62,-36l48 -38c18,-7 29,-14 47,-20 5,0 4,0 8,-1 5,-1 3,0 7,-2 12,-2 11,1 18,-4l-8 -54c-7,-17 -14,-35 -21,-53 -5,-13 -19,-41 -21,-52 -4,-6 -8,-14 -10,-21 -3,-4 -10,-19 -11,-24 -3,-5 -10,-18 -11,-24 -7,-9 -18,-34 -23,-46 -6,-5 -16,-9 -23,-12 -5,8 -12,5 -22,7 -5,1 -4,1 -9,1l-9 2c-6,2 -12,3 -18,4l-13 2c-4,1 -2,1 -6,1l-22 2c-9,1 -27,1 -31,2 -9,3 -62,1 -76,1 -5,-1 -8,-1 -14,-1 -15,-2 -27,-1 -37,-2l-21 -2c-5,-2 -6,-1 -11,-1l-31 -6c-15,-5 -27,-8 -42,-16 -10,-4 -36,-18 -44,-24 -9,-3 -27,-14 -37,-17l-50 -13 -21 -1c-8,-2 -25,-1 -34,-1z"/>
   <path class="fil7 str1" d="M1744 2606c-10,-4 -37,-12 -48,-14l-4 0c-3,-1 -5,-1 -8,-2l-7 0c-3,-1 -5,-1 -9,-2l-39 -1c-10,0 -18,1 -28,1 -7,2 -14,1 -17,2 -2,1 -4,1 -7,2l-5 0c-9,3 -19,4 -26,8 -4,0 -4,1 -8,1 -7,4 -17,8 -25,11 -7,4 -15,9 -22,14l-19 19c-6,7 -18,30 -19,39l-4 25c0,10 6,27 9,36l10 10c11,7 20,9 30,14l57 8c4,2 2,1 7,1l35 -4c3,-1 5,-2 7,-2l5 0c14,-9 43,-15 60,-21l25 -2 35 4 75 11c8,-2 23,-5 30,-10 7,-6 16,-16 19,-25 1,-6 5,-17 5,-22 0,-4 -5,-27 -7,-31l-22 -23c-21,-14 -34,-24 -57,-34 -9,-4 -18,-9 -28,-13z"/>
  </g>
 </g>
</svg>
