<?xml version="1.0" encoding="UTF-8"?>
<!DOCTYPE svg PUBLIC "-//W3C//DTD SVG 1.1//EN" "http://www.w3.org/Graphics/SVG/1.1/DTD/svg11.dtd">
<!-- Creator: CorelDRAW 2020 (64-Bit) -->
<svg xmlns="http://www.w3.org/2000/svg" xml:space="preserve" width="127px" height="128px" version="1.1" style="shape-rendering:geometricPrecision; text-rendering:geometricPrecision; image-rendering:optimizeQuality; fill-rule:evenodd; clip-rule:evenodd"
viewBox="0 0 1553 1557"
 xmlns:xlink="http://www.w3.org/1999/xlink"
 xmlns:xodm="http://www.corel.com/coreldraw/odm/2003">
 <defs>
  <style type="text/css">
   <![CDATA[
    .str1 {stroke:#2B2A29;stroke-width:11;stroke-miterlimit:22.9256}
    .str0 {stroke:black;stroke-width:24;stroke-linecap:square;stroke-miterlimit:22.9256}
    .fil0 {fill:none}
    .fil2 {fill:#009933}
    .fil4 {fill:#00CCFF}
    .fil3 {fill:#33CC66}
    .fil1 {fill:#FFCC99}
    .fil5 {fill:white}
   ]]>
  </style>
 </defs>
 <g id="planets">
  <metadata id="CorelCorpID_0Corel-Layer"/>
  <g id="_1325843326208">
   <path class="fil0 str0" d="M1099 544c-2,1 -5,0 -8,1l-11 2c-3,0 -18,4 -21,5 -2,0 -3,1 -5,1 -3,2 -12,6 -17,8 -13,5 -38,19 -51,27 -10,6 -24,14 -34,18 -6,3 -11,6 -17,8 -5,2 -14,5 -18,7 -2,0 -9,2 -12,3 -4,1 -8,2 -12,3l-11 1c-2,1 -5,1 -7,1 -2,1 -4,0 -7,0 -2,1 -8,1 -11,1 -2,0 -1,0 -2,0l-12 0c-4,-1 -8,-1 -11,-1 -5,-1 -9,-1 -14,-2l-13 -2c-6,-1 -15,-3 -21,-4 -35,-7 -68,-20 -103,-29 -7,-2 -14,-4 -20,-5 -9,-2 -19,-5 -28,-6l-27 -4c-4,-1 -11,-1 -11,-1 -3,-1 -13,-1 -16,-1 -2,1 -3,1 -5,1 -1,0 -2,0 -3,0l-3 0c0,1 -1,1 -2,1l-2 0c-1,1 -3,1 -4,1 -11,2 -24,9 -32,16 -3,3 -8,7 -10,10 -1,2 -2,3 -3,5 -5,5 -6,13 -9,18 0,1 0,0 0,1l-2 8c0,2 0,4 0,7 -1,4 -1,4 -1,8 0,4 0,10 1,14 1,2 0,2 0,4 1,2 1,3 2,5l0 2c1,4 2,10 3,15 3,10 7,20 11,30 2,2 7,13 7,15 1,1 5,9 5,11 5,5 19,35 22,43 3,7 6,14 9,21 3,9 7,26 9,36l6 33c0,2 0,5 1,6 0,5 4,21 6,27 2,8 3,19 6,26l5 42c0,1 0,2 0,4 1,3 1,14 1,15 0,3 1,13 1,13 0,4 0,15 0,15 1,4 1,11 1,13l1 9c1,4 1,10 1,14l4 27c0,3 6,25 8,28 0,7 11,28 15,35 4,10 17,29 24,38 6,6 17,18 23,23 10,6 16,12 27,18 4,2 8,5 13,7 4,1 10,3 13,5l28 6c1,1 2,1 3,1l7 0c2,1 4,1 6,1 3,0 7,1 10,0 3,0 6,0 9,-1 2,0 3,0 5,0 1,0 2,0 3,-1l5 0c2,-1 12,-3 14,-4 4,-2 11,-4 16,-7 9,-5 21,-14 28,-23 14,-17 20,-29 28,-50 5,-11 8,-23 11,-35l23 -193 2 -11c0,-2 1,-3 1,-5 0,-4 7,-29 9,-33 0,-5 9,-23 11,-28 5,-10 14,-24 21,-32 5,-6 15,-15 22,-21 6,-4 12,-9 19,-14 7,-4 13,-8 20,-12 13,-6 27,-14 40,-19 6,-3 34,-17 39,-19 7,-4 14,-8 20,-12 6,-3 17,-11 23,-16 6,-5 15,-15 21,-21 7,-11 13,-18 19,-30 4,-7 9,-21 10,-29l0 -2c0,-1 0,-2 1,-3l0 -8c1,-2 0,-3 0,-4l-2 -18c-1,-1 -1,-2 -1,-4 -1,-1 -5,-11 -5,-11 -1,-3 -7,-11 -9,-13 -2,-3 -7,-8 -11,-11 -6,-4 -19,-13 -26,-14 -2,-1 -4,-1 -6,-1 -1,0 -5,-2 -7,-2l-1 0c-1,0 -2,0 -3,-1l-13 -1c-7,-1 -13,0 -19,0z"/>
   <path class="fil0 str0" d="M63 524c16,11 5,0 15,17 3,4 6,7 8,11l10 11c8,5 13,9 21,13 9,4 17,6 26,9l12 2c1,0 2,0 3,1l6 0c4,1 20,2 24,1 4,-1 7,0 10,-1l7 -1c2,0 2,0 3,0l5 -1c7,-2 15,-3 22,-5 5,-1 18,-4 22,-6 5,-1 47,-18 54,-21 18,-8 37,-14 55,-23 18,-9 37,-17 54,-27 9,-6 18,-10 27,-16 10,-7 26,-19 36,-27l10 -9c4,-3 11,-11 15,-14 4,-5 10,-12 14,-17l6 -7c6,-7 15,-20 20,-27 24,-34 62,-102 80,-139 7,-12 12,-27 16,-41l3 -18c1,-2 1,-2 1,-3l1 -20c0,-4 0,-6 0,-9l-1 -6c-1,-2 -1,-2 -1,-4 0,-1 0,-3 -1,-4 0,-7 -5,-16 -7,-22 -1,-1 0,0 0,-1 -1,-2 -1,-1 -1,-3l-7 -11 -10 -14c-5,-6 -13,-13 -20,-18 -4,-4 -14,-10 -19,-13 -3,-3 -5,-8 -7,-12m206 -30l1 -2m-767 730l-2 2c0,9 -1,46 -1,51 1,3 1,8 1,11 1,5 0,15 1,17l6 60 7 44c1,7 7,29 9,37 6,23 14,51 22,74 3,6 5,12 7,18 2,5 7,14 8,18 1,2 11,25 11,26 1,1 8,16 8,17 3,3 3,7 6,10 1,4 14,27 17,33 19,31 34,53 56,82 4,5 9,11 13,17l29 33c2,2 4,4 5,6 2,2 5,5 8,7 3,6 19,20 25,26 6,5 12,11 18,16l44 37c32,24 65,47 101,65 7,3 13,7 20,10 4,2 18,9 21,10 4,3 27,13 33,15 6,2 12,4 17,7 5,1 14,4 17,6 4,0 23,8 29,9 10,3 20,6 29,9 10,2 19,4 29,7 9,2 21,3 29,6l15 2c2,0 1,0 3,0l61 8c3,0 13,0 13,0 2,1 5,1 7,1 2,1 6,0 8,0 3,1 16,1 20,1 3,1 21,0 26,0 3,-1 12,0 16,0 3,-1 11,-1 13,-1 4,-1 13,-1 15,-1l82 -11c2,0 11,-2 13,-3 10,0 83,-20 90,-24 2,0 1,0 3,-1 2,0 22,-7 25,-9 9,-3 17,-7 26,-10 9,-4 17,-8 26,-12 4,-1 22,-10 25,-12 8,-2 58,-33 68,-39 17,-12 34,-24 50,-36 6,-5 12,-10 18,-14l40 -36c3,-2 8,-8 11,-11 3,-1 5,-4 8,-7 2,-3 8,-8 11,-11 4,-5 9,-10 13,-15 7,-7 13,-15 20,-22 10,-12 19,-23 28,-37 7,-10 14,-19 21,-29 12,-18 26,-40 35,-59 10,-20 20,-39 29,-59 7,-15 12,-30 18,-45 1,-3 4,-11 5,-14 1,-4 7,-22 9,-27 2,-9 5,-18 7,-28 3,-9 5,-18 7,-27 1,-7 3,-20 5,-27l10 -76c1,-1 0,-4 0,-6 1,-4 1,-11 1,-13 1,-2 0,-5 0,-7 1,-3 1,-9 1,-13 1,-3 0,-37 0,-43 -1,-3 0,-9 0,-13 -1,-3 -1,-12 -1,-13 -1,-3 -1,-12 -1,-13l-10 -77c-2,-7 -3,-17 -5,-24 -1,-8 -3,-15 -5,-23 -4,-16 -8,-33 -13,-48 -5,-15 -11,-32 -17,-47 -3,-7 -7,-16 -10,-23 -2,-6 -9,-20 -10,-24 -3,-4 -8,-15 -10,-19 -13,-27 -28,-53 -45,-77 -8,-14 -18,-26 -27,-39 -5,-6 -11,-13 -15,-19l-11 -13c-5,-6 -10,-11 -15,-17l-8 -9c-5,-6 -23,-25 -28,-29 -3,-2 -6,-6 -9,-9 -5,-4 -9,-8 -14,-12 -8,-7 -16,-15 -25,-21l-20 -17c-26,-20 -77,-54 -107,-68 -4,-2 -15,-8 -18,-10 -2,0 -2,0 -3,-1 -3,-1 -5,-3 -8,-4 -4,-3 -17,-8 -22,-10 -22,-10 -45,-18 -68,-26 -15,-5 -29,-9 -45,-13 -7,-2 -15,-4 -22,-6 -7,-1 -16,-3 -23,-5l-23 -4c-1,0 -3,0 -4,-1l-7 0c-1,-1 0,-1 -2,-1 -1,0 -1,0 -3,0l-65 -7c-2,0 -5,0 -8,0 -3,-1 -10,0 -14,0 -3,-1 -13,-1 -17,-1m-31 0c-2,1 -11,1 -14,1 -5,1 -13,0 -16,1 -4,0 -9,0 -12,1l-8 1c-4,0 -6,0 -9,0l-10 2c-1,0 -1,0 -3,0 -1,0 -2,0 -3,1l-2 0c-2,0 -2,0 -4,1l-2 0c-1,0 -2,0 -3,0l-3 0c-1,1 -1,1 -3,1l-2 0c-1,0 -2,0 -3,1l-39 7c-3,0 -12,3 -15,4l-20 5c-1,2 -3,4 -5,6 -4,0 -6,0 -10,0l-17 3c-3,1 -10,3 -13,4 -1,0 0,0 -2,0 -1,1 0,1 -2,1 -2,1 -1,1 -2,1 -2,1 -1,1 -3,1 -1,1 0,0 -2,0 -4,3 -18,7 -23,9 -8,3 -16,6 -24,10 -8,3 -15,7 -23,10 -6,2 -19,10 -24,11 -2,2 -12,7 -16,9 -26,13 -72,43 -96,62l-64 53c-2,2 -5,5 -7,7 -5,4 -16,15 -20,20 -4,5 -10,10 -13,13 -5,6 -13,14 -18,21l-12 14c-6,8 -14,17 -20,25 -18,24 -34,51 -50,76 -9,16 -18,34 -26,50 -6,11 -20,43 -22,53l-3 16c0,2 0,4 0,6 -2,2 -6,4 -8,5 -1,2 0,1 -1,2 0,2 -1,3 -2,5 0,1 0,1 0,2 -1,2 0,1 -1,2 0,2 0,1 -1,3 0,1 0,0 -1,2 0,2 0,1 -1,2 0,6 -6,18 -6,23 -1,2 -5,16 -5,17 -3,6 -5,25 -8,32l-7 41c0,1 0,1 -1,3l-3 27c-1,1 -1,1 -1,3l-2 24c0,2 0,3 0,5 -1,3 -1,7 -1,10 0,5 -1,10 1,15 5,1 12,4 16,4l2 1c4,4 16,10 21,13 2,1 4,1 6,3 3,0 11,4 15,5l26 6c1,1 2,1 3,1l9 0c3,1 6,1 9,1 2,0 2,0 4,0 5,-1 16,0 17,-1l11 -1c1,0 2,0 3,-1l7 0c1,-1 1,-1 3,-1 9,-3 22,-4 32,-7l64 -19c6,-1 31,-7 37,-8l20 -3c3,0 10,0 11,-1 3,-1 14,0 18,0l10 1c2,1 2,0 4,0l5 2c9,1 22,5 30,9 10,5 15,10 24,16 4,3 12,11 16,16 2,3 8,11 10,13 1,2 6,12 8,14 0,2 5,11 6,15 2,5 4,10 6,15 1,4 3,10 4,15 1,4 2,10 3,15l3 22c1,2 0,3 0,5 1,2 1,5 1,7 1,3 0,14 0,18 1,2 1,0 0,2l0 15c0,4 0,11 -1,13 0,3 0,13 0,14l-5 59c-1,1 0,3 0,5 -1,3 -1,9 -1,13 -1,3 0,13 0,17 -1,3 -1,7 -1,10 1,3 1,8 1,12l3 29c1,2 1,4 1,6l1 4c3,9 4,20 7,30 2,5 4,10 5,15 2,3 6,12 6,15 1,1 5,10 6,12 1,2 2,5 4,7 1,6 12,22 16,29 5,7 18,25 25,33l7 8c8,10 24,25 35,34 1,1 2,1 3,2 8,8 53,38 62,40 8,6 31,14 41,18 7,2 14,4 21,6l49 8c2,1 6,1 8,1 4,1 22,0 27,0 4,-1 8,0 11,-1 5,-1 9,-1 14,-1l11 -2c2,-1 5,-1 8,-2 3,0 13,-2 16,-4 3,0 14,-4 17,-4 6,-3 18,-7 25,-10 19,-8 35,-17 52,-28 7,-5 24,-18 32,-24l8 -8c3,-2 13,-12 15,-14 4,-5 9,-9 13,-14 12,-15 21,-24 32,-44 7,-11 14,-24 20,-36 8,-17 14,-35 19,-54l5 -32c1,-3 1,-8 1,-11 1,-4 1,-12 1,-13 1,-3 1,-10 1,-14 0,-2 0,-3 0,-5 -1,-3 0,-17 0,-22 -1,-3 -1,-7 -1,-10 -1,-3 0,-13 0,-17 -1,-3 -1,-12 -1,-15 -1,-4 0,-13 0,-17 1,-2 0,-4 0,-6 1,-3 1,-8 1,-11 1,-5 1,-11 1,-16l3 -16c0,-3 4,-16 5,-19 1,-9 12,-27 18,-34 9,-12 21,-21 35,-28 5,-3 14,-6 19,-8 4,-1 19,-6 24,-8 8,-2 16,-4 24,-7 12,-4 24,-9 36,-16 3,-2 9,-5 12,-7l26 -20c8,-6 17,-15 23,-24 6,-7 12,-14 17,-22 12,-18 22,-39 29,-59 2,-6 3,-12 5,-18 2,-5 2,-12 4,-18l2 -17c0,-1 0,-2 0,-3 1,-5 2,-25 1,-29 -1,-3 0,-7 -1,-10l-2 -18c-1,-4 -2,-9 -3,-13 -2,-9 -5,-18 -9,-27l-8 -18c-2,-2 -2,-4 -4,-6 -2,-7 -16,-24 -21,-31 -14,-17 -33,-33 -52,-45 -6,-4 -13,-9 -20,-12 -7,-4 -32,-16 -39,-16 -2,-1 -1,-1 -2,-1 -2,-1 -1,-1 -3,-1 -4,-3 -17,-4 -23,-6l-19 -3c-2,0 -1,0 -3,0 -3,-1 -8,-1 -10,-1 -3,-1 -7,0 -10,0 -2,-1 -4,-1 -6,-1 -6,1 -10,1 -13,1l-9 1c-1,0 -1,0 -3,0l-6 1c-2,0 -3,1 -5,1l-4 1c-4,1 -10,2 -15,3 -17,5 -32,12 -47,20 -20,10 -45,27 -64,40 -24,17 -66,46 -94,56 -5,2 -11,5 -16,6 -5,2 -11,3 -16,5 -2,0 -7,1 -9,1l-5 1c-1,0 -1,0 -2,0l-7 1c-2,1 -5,0 -7,0 -3,1 -8,1 -11,1 -3,-1 -9,-1 -11,-1 -1,0 -2,0 -3,-1l-9 -1c-2,0 -10,-3 -13,-4 -9,-4 -16,-7 -23,-12l-12 -9c-3,-2 -10,-9 -13,-13 -2,-3 -4,-5 -6,-8 -1,-3 -4,-8 -5,-10 -1,-3 -4,-6 -4,-10 -1,-2 -1,-3 -2,-4 0,-1 -1,-4 -1,-5l-1 -9c-1,-3 0,-7 0,-10l1 -10c1,-1 3,-11 3,-12 1,-1 4,-8 4,-10 3,-3 6,-10 9,-14 4,-6 8,-11 12,-16l10 -11c6,-7 13,-15 20,-22 0,-1 1,-2 2,-3 12,-13 23,-35 31,-50 6,-13 9,-24 13,-37l6 -30c0,-1 0,0 0,-2 1,-5 1,-8 1,-11 1,-4 1,-9 1,-11 1,-3 0,-18 0,-22 0,-2 0,-3 0,-5 0,-3 0,-7 -1,-10l-1 -11c0,-1 0,-1 0,-2l-1 -8c-2,-6 -4,-15 -6,-22 -2,-8 -4,-15 -7,-23 -5,-11 -16,-37 -24,-45 -1,-5 -4,-14 -4,-18 -2,-1 -3,-1 -5,-2l-25 0"/>
   <path class="fil1 str1" d="M1100 1036c0,5 -1,19 0,22 0,2 0,3 0,5 0,4 0,11 -1,14 0,1 0,9 -1,13 0,3 0,8 -1,11l-5 32c-5,19 -11,37 -19,54 -6,12 -13,25 -20,36 -11,20 -20,29 -32,44 -4,5 -9,9 -13,14 -2,2 -12,12 -15,14l-8 8c-8,6 -25,19 -32,24 -17,11 -33,20 -52,28 -7,3 -19,7 -25,10 -3,0 -14,4 -17,4 -3,2 -13,4 -16,4 -3,1 -6,1 -8,2l-11 2c-5,0 -9,0 -14,1 -3,1 -7,0 -11,1 -5,0 -23,1 -27,0 -2,0 -6,0 -8,-1l-49 -8c-7,-2 -14,-4 -21,-6 -10,-4 -33,-12 -41,-18 -9,-2 -54,-32 -62,-40 -1,-1 -2,-1 -3,-2 -11,-9 -27,-24 -35,-34l-7 -8c-7,-8 -20,-26 -25,-33 -4,-7 -15,-23 -16,-29 -2,-2 -3,-5 -4,-7 -1,-2 -5,-11 -6,-12 0,-3 -4,-12 -6,-15 -1,-5 -3,-10 -5,-15 -3,-10 -4,-21 -7,-30l-1 -4c0,-2 0,-4 -1,-6l-3 -29c0,-4 0,-9 -1,-12 0,-3 0,-7 1,-10 0,-4 -1,-14 0,-17 0,-4 0,-10 1,-13 0,-2 -1,-4 0,-5l5 -59c0,-1 0,-11 0,-14 1,-2 1,-9 1,-13l0 -15c1,-2 1,0 0,-2 0,-4 1,-15 0,-18 0,-2 0,-5 -1,-7 0,-2 1,-3 0,-5l-3 -22c-1,-5 -2,-11 -3,-15 -1,-5 -3,-11 -4,-15 -2,-5 -4,-10 -6,-15 -1,-4 -6,-13 -6,-15 -2,-2 -7,-12 -8,-14 -2,-2 -8,-10 -10,-13 -4,-5 -12,-13 -16,-16 -9,-6 -14,-11 -24,-16 -8,-4 -21,-8 -30,-9l-5 -2c-2,0 -2,1 -4,0l-10 -1c-4,0 -15,-1 -18,0 -1,1 -8,1 -11,1l-20 3c-6,1 -31,7 -37,8l-64 19c-10,3 -23,4 -32,7 -2,0 -2,0 -3,1l-7 0c-1,1 -2,1 -3,1l-11 1c-1,1 -12,0 -17,1 -2,0 -2,0 -4,0 -3,0 -6,0 -9,-1l-9 0c-1,0 -2,0 -3,-1l-26 -6c-4,-1 -12,-5 -15,-5 -2,-2 -4,-2 -6,-3 -5,-3 -17,-9 -21,-13l-2 -1c-4,0 -11,-3 -16,-4l-2 2c0,9 -1,46 -1,51 1,3 1,8 1,11 1,5 0,15 1,17l6 60 7 44c1,7 7,29 9,37 6,23 14,51 22,74 3,6 5,12 7,18 2,5 7,14 8,18 1,2 11,25 11,26 1,1 8,16 8,17 3,3 3,7 6,10 1,4 14,27 17,33 19,31 34,53 56,82 4,5 9,11 13,17l29 33c2,2 4,4 5,6 2,2 5,5 8,7 3,6 19,20 25,26 6,5 12,11 18,16l44 37c32,24 65,47 101,65 7,3 13,7 20,10 4,2 18,9 21,10 4,3 27,13 33,15 6,2 12,4 17,7 5,1 14,4 17,6 4,0 23,8 29,9 10,3 20,6 29,9 10,2 19,4 29,7 9,2 21,3 29,6l15 2c2,0 1,0 3,0l61 8c3,0 13,0 13,0 2,1 5,1 7,1 2,1 6,0 8,0 3,1 16,1 20,1 3,1 21,0 26,0 3,-1 12,0 16,0 3,-1 11,-1 13,-1 4,-1 13,-1 15,-1l82 -11c2,0 11,-2 13,-3 10,0 83,-20 90,-24 2,0 1,0 3,-1 2,0 22,-7 25,-9 9,-3 17,-7 26,-10 9,-4 17,-8 26,-12 4,-1 22,-10 25,-12 8,-2 58,-33 68,-39 17,-12 34,-24 50,-36 6,-5 12,-10 18,-14l40 -36c3,-2 8,-8 11,-11 3,-1 5,-4 8,-7 2,-3 8,-8 11,-11 4,-5 9,-10 13,-15 7,-7 13,-15 20,-22 10,-12 19,-23 28,-37 7,-10 14,-19 21,-29 12,-18 26,-40 35,-59 10,-20 20,-39 29,-59 7,-15 12,-30 18,-45 1,-3 4,-11 5,-14 1,-4 7,-22 9,-27 2,-9 5,-18 7,-28 3,-9 5,-18 7,-27 1,-7 3,-20 5,-27l10 -76c1,-1 0,-4 0,-6 1,-4 1,-11 1,-13 1,-2 0,-5 0,-7 1,-3 1,-9 1,-13 1,-3 0,-37 0,-43 -1,-3 0,-9 0,-13 -1,-3 -1,-12 -1,-13 -1,-3 -1,-12 -1,-13l-10 -77c-2,-7 -3,-17 -5,-24 -1,-8 -3,-15 -5,-23 -4,-16 -8,-33 -13,-48 -5,-15 -11,-32 -17,-47 -3,-7 -7,-16 -10,-23 -2,-6 -9,-20 -10,-24 -3,-4 -8,-15 -10,-19 -13,-27 -28,-53 -45,-77 -8,-14 -18,-26 -27,-39 -5,-6 -11,-13 -15,-19l-11 -13c-5,-6 -10,-11 -15,-17l-8 -9c-5,-6 -23,-25 -28,-29 -3,-2 -6,-6 -9,-9 -5,-4 -9,-8 -14,-12 -8,-7 -16,-15 -25,-21l-20 -17c-26,-20 -77,-54 -107,-68 -4,-2 -15,-8 -18,-10 -2,0 -2,0 -3,-1 -3,-1 -5,-3 -8,-4 -4,-3 -17,-8 -22,-10 -22,-10 -45,-18 -68,-26 -15,-5 -29,-9 -45,-13 -7,-2 -15,-4 -22,-6 -7,-1 -16,-3 -23,-5l-23 -4c-1,0 -3,0 -4,-1l-7 0c-1,-1 0,-1 -2,-1 -1,0 -1,0 -3,0l-65 -7c-2,0 -5,0 -8,0 -3,-1 -10,0 -14,0 -3,-1 -13,-1 -17,-1l-1 2c0,4 3,13 4,18 8,8 19,34 24,45 3,8 5,15 7,23 2,7 4,16 6,22l1 8c0,1 0,1 0,2l1 11c1,3 1,7 1,10 0,2 0,3 0,5 0,4 1,19 0,22 0,2 0,7 -1,11 0,3 0,6 -1,11 0,2 0,1 0,2l-6 30c-4,13 -7,24 -13,37 -8,15 -19,37 -31,50 -1,1 -2,2 -2,3 -7,7 -14,15 -20,22l-10 11c-4,5 -8,10 -12,16 -3,4 -6,11 -9,14 0,2 -3,9 -4,10 0,1 -2,11 -3,12l-1 10c0,3 -1,7 0,10l1 9c0,1 1,4 1,5 1,1 1,2 2,4 0,4 3,7 4,10 1,2 4,7 5,10 2,3 4,5 6,8 3,4 10,11 13,13l12 9c7,5 14,8 23,12 3,1 11,4 13,4l9 1c1,1 2,1 3,1 2,0 8,0 11,1 3,0 8,0 11,-1 2,0 5,1 7,0l7 -1c1,0 1,0 2,0l5 -1c2,0 7,-1 9,-1 5,-2 11,-3 16,-5 5,-1 11,-4 16,-6 28,-10 70,-39 94,-56 19,-13 44,-30 64,-40 15,-8 30,-15 47,-20 5,-1 11,-2 15,-3l4 -1c2,0 3,-1 5,-1l6 -1c2,0 2,0 3,0l9 -1c3,0 7,0 13,-1 2,0 4,0 6,1 3,0 7,-1 10,0 2,0 7,0 10,1 2,0 1,0 3,0l19 3c6,2 19,3 23,6 2,0 1,0 3,1 1,0 0,0 2,1 7,0 32,12 39,16 7,3 14,8 20,12 19,12 38,28 52,45 5,7 19,24 21,31 2,2 2,4 4,6l8 18c4,9 7,18 9,27 1,4 2,9 3,13l2 18c1,3 0,7 1,10 1,4 0,24 -1,29 0,1 0,2 0,3l-2 17c-2,6 -2,13 -4,18 -2,6 -3,12 -5,18 -7,20 -17,41 -29,59 -5,8 -11,15 -17,22 -6,9 -15,18 -23,24l-26 20c-3,2 -9,5 -12,7 -12,7 -24,12 -36,16 -8,3 -16,5 -24,7 -5,2 -20,7 -24,8 -5,2 -14,5 -19,8 -14,7 -26,16 -35,28 -6,7 -17,25 -18,34 -1,3 -5,16 -5,19l-3 16c0,5 0,11 -1,16 0,3 0,8 -1,11 0,2 1,4 0,6 0,4 -1,13 0,17 0,3 0,12 1,15 0,4 -1,14 0,17 0,3 0,7 1,10z"/>
   <path class="fil2 str1" d="M901 1132l23 -193 2 -11c0,-2 1,-3 1,-5 0,-4 7,-29 9,-33 0,-5 9,-23 11,-28 5,-10 14,-24 21,-32 5,-6 15,-15 22,-21 6,-4 12,-9 19,-14 7,-4 13,-8 20,-12 13,-6 27,-14 40,-19 6,-3 34,-17 39,-19 7,-4 14,-8 20,-12 6,-3 17,-11 23,-16 6,-5 15,-15 21,-21 7,-11 13,-18 19,-30 4,-7 9,-21 10,-29l0 -2c0,-1 0,-2 1,-3l0 -8c1,-2 0,-3 0,-4l-2 -18c-1,-1 -1,-2 -1,-4 -1,-1 -5,-11 -5,-11 -1,-3 -7,-11 -9,-13 -2,-3 -7,-8 -11,-11 -6,-4 -19,-13 -26,-14 -2,-1 -4,-1 -6,-1 -1,0 -5,-2 -7,-2l-1 0c-1,0 -2,0 -3,-1l-13 -1c-7,-1 -13,0 -19,0 -2,1 -5,0 -8,1l-11 2c-3,0 -18,4 -21,5 -2,0 -3,1 -5,1 -3,2 -12,6 -17,8 -13,5 -38,19 -51,27 -10,6 -24,14 -34,18 -6,3 -11,6 -17,8 -5,2 -14,5 -18,7 -2,0 -9,2 -12,3 -4,1 -8,2 -12,3l-11 1c-2,1 -5,1 -7,1 -2,1 -4,0 -7,0 -2,1 -8,1 -11,1 -2,0 -1,0 -2,0l-12 0c-4,-1 -8,-1 -11,-1 -5,-1 -9,-1 -14,-2l-13 -2c-6,-1 -15,-3 -21,-4 -35,-7 -68,-20 -103,-29 -7,-2 -14,-4 -20,-5 -9,-2 -19,-5 -28,-6l-27 -4c-4,-1 -11,-1 -11,-1 -3,-1 -13,-1 -16,-1 -2,1 -3,1 -5,1 -1,0 -2,0 -3,0l-3 0c0,1 -1,1 -2,1l-2 0c-1,1 -3,1 -4,1 -11,2 -24,9 -32,16 -3,3 -8,7 -10,10 -1,2 -2,3 -3,5 -5,5 -6,13 -9,18 0,1 0,0 0,1l-2 8c0,2 0,4 0,7 -1,4 -1,4 -1,8 0,4 0,10 1,14 1,2 0,2 0,4 1,2 1,3 2,5l0 2c1,4 2,10 3,15 3,10 7,20 11,30 2,2 7,13 7,15 1,1 5,9 5,11 5,5 19,35 22,43 3,7 6,14 9,21 3,9 7,26 9,36l6 33c0,2 0,5 1,6 0,5 4,21 6,27 2,8 3,19 6,26l5 42c0,1 0,2 0,4 1,3 1,14 1,15 0,3 1,13 1,13 0,4 0,15 0,15 1,4 1,11 1,13l1 9c1,4 1,10 1,14l4 27c0,3 6,25 8,28 0,7 11,28 15,35 4,10 17,29 24,38 6,6 17,18 23,23 10,6 16,12 27,18 4,2 8,5 13,7 4,1 10,3 13,5l28 6c1,1 2,1 3,1l7 0c2,1 4,1 6,1 3,0 7,1 10,0 3,0 6,0 9,-1 2,0 3,0 5,0 1,0 2,0 3,-1l5 0c2,-1 12,-3 14,-4 4,-2 11,-4 16,-7 9,-5 21,-14 28,-23 14,-17 20,-29 28,-50 5,-11 8,-23 11,-35z"/>
   <path class="fil3 str1" d="M493 452c4,-3 11,-11 15,-14 4,-5 10,-12 14,-17l6 -7c6,-7 15,-20 20,-27 24,-34 62,-102 80,-139 7,-12 12,-27 16,-41l3 -18c1,-2 1,-2 1,-3l1 -20c0,-4 0,-6 0,-9l-1 -6c-1,-2 -1,-2 -1,-4 0,-1 0,-3 -1,-4 0,-7 -5,-16 -7,-22 -1,-1 0,0 0,-1 -1,-2 -1,-1 -1,-3l-7 -11 -10 -14c-5,-6 -13,-13 -20,-18 -4,-4 -14,-10 -19,-13 -3,-3 -5,-8 -7,-12 -4,0 -6,0 -10,0l-17 3c-3,1 -10,3 -13,4 -1,0 0,0 -2,0 -1,1 0,1 -2,1 -2,1 -1,1 -2,1 -2,1 -1,1 -3,1 -1,1 0,0 -2,0 -4,3 -18,7 -23,9 -8,3 -16,6 -24,10 -8,3 -15,7 -23,10 -6,2 -19,10 -24,11 -2,2 -12,7 -16,9 -26,13 -72,43 -96,62l-64 53c-2,2 -5,5 -7,7 -5,4 -16,15 -20,20 -4,5 -10,10 -13,13 -5,6 -13,14 -18,21l-12 14c-6,8 -14,17 -20,25 -18,24 -34,51 -50,76 -9,16 -18,34 -26,50 -6,11 -20,43 -22,53l-3 16c0,2 0,4 0,6 16,11 5,0 15,17 3,4 6,7 8,11l10 11c8,5 13,9 21,13 9,4 17,6 26,9l12 2c1,0 2,0 3,1l6 0c4,1 20,2 24,1 4,-1 7,0 10,-1l7 -1c2,0 2,0 3,0l5 -1c7,-2 15,-3 22,-5 5,-1 18,-4 22,-6 5,-1 47,-18 54,-21 18,-8 37,-14 55,-23 18,-9 37,-17 54,-27 9,-6 18,-10 27,-16 10,-7 26,-19 36,-27l10 -9z"/>
   <path class="fil4 str1" d="M982 450c-24,17 -66,46 -94,56 -5,2 -11,5 -16,6 -5,2 -11,3 -16,5 -2,0 -7,1 -9,1l-5 1c-1,0 -1,0 -2,0l-7 1c-2,1 -5,0 -7,0 -3,1 -8,1 -11,1 -3,-1 -9,-1 -11,-1 -1,0 -2,0 -3,-1l-9 -1c-2,0 -10,-3 -13,-4 -9,-4 -16,-7 -23,-12l-12 -9c-3,-2 -10,-9 -13,-13 -2,-3 -4,-5 -6,-8 -1,-3 -4,-8 -5,-10 -1,-3 -4,-6 -4,-10 -1,-2 -1,-3 -2,-4 0,-1 -1,-4 -1,-5l-1 -9c-1,-3 0,-7 0,-10l1 -10c1,-1 3,-11 3,-12 1,-1 4,-8 4,-10 3,-3 6,-10 9,-14 4,-6 8,-11 12,-16l10 -11c6,-7 13,-15 20,-22 0,-1 1,-2 2,-3 12,-13 23,-35 31,-50 6,-13 9,-24 13,-37l6 -30c0,-1 0,0 0,-2 1,-5 1,-8 1,-11 1,-4 1,-9 1,-11 1,-3 0,-18 0,-22 0,-2 0,-3 0,-5 0,-3 0,-7 -1,-10l-1 -11c0,-1 0,-1 0,-2l-1 -8c-2,-6 -4,-15 -6,-22 -2,-8 -4,-15 -7,-23 -5,-11 -16,-37 -24,-45 -1,-5 -4,-14 -4,-18 -2,-1 -3,-1 -5,-2l-25 0c-2,1 -11,1 -14,1 -5,1 -13,0 -16,1 -4,0 -9,0 -12,1l-8 1c-4,0 -6,0 -9,0l-10 2c-1,0 -1,0 -3,0 -1,0 -2,0 -3,1l-2 0c-2,0 -2,0 -4,1l-2 0c-1,0 -2,0 -3,0l-3 0c-1,1 -1,1 -3,1l-2 0c-1,0 -2,0 -3,1l-39 7c-3,0 -12,3 -15,4l-20 5c-1,2 -3,4 -5,6 2,4 4,9 7,12 5,3 15,9 19,13 7,5 15,12 20,18l10 14 7 11c0,2 0,1 1,3 0,1 -1,0 0,1 2,6 7,15 7,22 1,1 1,3 1,4 0,2 0,2 1,4l1 6c0,3 0,5 0,9l-1 20c0,1 0,1 -1,3l-3 18c-4,14 -9,29 -16,41 -18,37 -56,105 -80,139 -5,7 -14,20 -20,27l-6 7c-4,5 -10,12 -14,17 -4,3 -11,11 -15,14l-10 9c-10,8 -26,20 -36,27 -9,6 -18,10 -27,16 -17,10 -36,18 -54,27 -18,9 -37,15 -55,23 -7,3 -49,20 -54,21 -4,2 -17,5 -22,6 -7,2 -15,3 -22,5l-5 1c-1,0 -1,0 -3,0l-7 1c-3,1 -6,0 -10,1 -4,1 -20,0 -24,-1l-6 0c-1,-1 -2,-1 -3,-1l-12 -2c-9,-3 -17,-5 -26,-9 -8,-4 -13,-8 -21,-13l-10 -11c-2,-4 -5,-7 -8,-11 -10,-17 1,-6 -15,-17 -2,2 -6,4 -8,5 -1,2 0,1 -1,2 0,2 -1,3 -2,5 0,1 0,1 0,2 -1,2 0,1 -1,2 0,2 0,1 -1,3 0,1 0,0 -1,2 0,2 0,1 -1,2 0,6 -6,18 -6,23 -1,2 -5,16 -5,17 -3,6 -5,25 -8,32l-7 41c0,1 0,1 -1,3l-3 27c-1,1 -1,1 -1,3l-2 24c0,2 0,3 0,5 -1,3 -1,7 -1,10 0,5 -1,10 1,15 5,1 12,4 16,4l2 1c4,4 16,10 21,13 2,1 4,1 6,3 3,0 11,4 15,5l26 6c1,1 2,1 3,1l9 0c3,1 6,1 9,1 2,0 2,0 4,0 5,-1 16,0 17,-1l11 -1c1,0 2,0 3,-1l7 0c1,-1 1,-1 3,-1 9,-3 22,-4 32,-7l64 -19c6,-1 31,-7 37,-8l20 -3c3,0 10,0 11,-1 3,-1 14,0 18,0l10 1c2,1 2,0 4,0l5 2c9,1 22,5 30,9 10,5 15,10 24,16 4,3 12,11 16,16 2,3 8,11 10,13 1,2 6,12 8,14 0,2 5,11 6,15 2,5 4,10 6,15 1,4 3,10 4,15 1,4 2,10 3,15l3 22c1,2 0,3 0,5 1,2 1,5 1,7 1,3 0,14 0,18 1,2 1,0 0,2l0 15c0,4 0,11 -1,13 0,3 0,13 0,14l-5 59c-1,1 0,3 0,5 -1,3 -1,9 -1,13 -1,3 0,13 0,17 -1,3 -1,7 -1,10 1,3 1,8 1,12l3 29c1,2 1,4 1,6l1 4c3,9 4,20 7,30 2,5 4,10 5,15 2,3 6,12 6,15 1,1 5,10 6,12 1,2 2,5 4,7 1,6 12,22 16,29 5,7 18,25 25,33l7 8c8,10 24,25 35,34 1,1 2,1 3,2 8,8 53,38 62,40 8,6 31,14 41,18 7,2 14,4 21,6l49 8c2,1 6,1 8,1 4,1 22,0 27,0 4,-1 8,0 11,-1 5,-1 9,-1 14,-1l11 -2c2,-1 5,-1 8,-2 3,0 13,-2 16,-4 3,0 14,-4 17,-4 6,-3 18,-7 25,-10 19,-8 35,-17 52,-28 7,-5 24,-18 32,-24l8 -8c3,-2 13,-12 15,-14 4,-5 9,-9 13,-14 12,-15 21,-24 32,-44 7,-11 14,-24 20,-36 8,-17 14,-35 19,-54l5 -32c1,-3 1,-8 1,-11 1,-4 1,-12 1,-13 1,-3 1,-10 1,-14 0,-2 0,-3 0,-5 -1,-3 0,-17 0,-22 -1,-3 -1,-7 -1,-10 -1,-3 0,-13 0,-17 -1,-3 -1,-12 -1,-15 -1,-4 0,-13 0,-17 1,-2 0,-4 0,-6 1,-3 1,-8 1,-11 1,-5 1,-11 1,-16l3 -16c0,-3 4,-16 5,-19 1,-9 12,-27 18,-34 9,-12 21,-21 35,-28 5,-3 14,-6 19,-8 4,-1 19,-6 24,-8 8,-2 16,-4 24,-7 12,-4 24,-9 36,-16 3,-2 9,-5 12,-7l26 -20c8,-6 17,-15 23,-24 6,-7 12,-14 17,-22 12,-18 22,-39 29,-59 2,-6 3,-12 5,-18 2,-5 2,-12 4,-18l2 -17c0,-1 0,-2 0,-3 1,-5 2,-25 1,-29 -1,-3 0,-7 -1,-10l-2 -18c-1,-4 -2,-9 -3,-13 -2,-9 -5,-18 -9,-27l-8 -18c-2,-2 -2,-4 -4,-6 -2,-7 -16,-24 -21,-31 -14,-17 -33,-33 -52,-45 -6,-4 -13,-9 -20,-12 -7,-4 -32,-16 -39,-16 -2,-1 -1,-1 -2,-1 -2,-1 -1,-1 -3,-1 -4,-3 -17,-4 -23,-6l-19 -3c-2,0 -1,0 -3,0 -3,-1 -8,-1 -10,-1 -3,-1 -7,0 -10,0 -2,-1 -4,-1 -6,-1 -6,1 -10,1 -13,1l-9 1c-1,0 -1,0 -3,0l-6 1c-2,0 -3,1 -5,1l-4 1c-4,1 -10,2 -15,3 -17,5 -32,12 -47,20 -20,10 -45,27 -64,40zm203 124c2,2 8,10 9,13 0,0 4,10 5,11 0,2 0,3 1,4l2 18c0,1 1,2 0,4l0 8c-1,1 -1,2 -1,3l0 2c-1,8 -6,22 -10,29 -6,12 -12,19 -19,30 -6,6 -15,16 -21,21 -6,5 -17,13 -23,16 -6,4 -13,8 -20,12 -5,2 -33,16 -39,19 -13,5 -27,13 -40,19 -7,4 -13,8 -20,12 -7,5 -13,10 -19,14 -7,6 -17,15 -22,21 -7,8 -16,22 -21,32 -2,5 -11,23 -11,28 -2,4 -9,29 -9,33 0,2 -1,3 -1,5l-2 11 -23 193c-3,12 -6,24 -11,35 -8,21 -14,33 -28,50 -7,9 -19,18 -28,23 -5,3 -12,5 -16,7 -2,1 -12,3 -14,4l-5 0c-1,1 -2,1 -3,1 -2,0 -3,0 -5,0 -3,1 -6,1 -9,1 -3,1 -7,0 -10,0 -2,0 -4,0 -6,-1l-7 0c-1,0 -2,0 -3,-1l-28 -6c-3,-2 -9,-4 -13,-5 -5,-2 -9,-5 -13,-7 -11,-6 -17,-12 -27,-18 -6,-5 -17,-17 -23,-23 -7,-9 -20,-28 -24,-38 -4,-7 -15,-28 -15,-35 -2,-3 -8,-25 -8,-28l-4 -27c0,-4 0,-10 -1,-14l-1 -9c0,-2 0,-9 -1,-13 0,0 0,-11 0,-15 0,0 -1,-10 -1,-13 0,-1 0,-12 -1,-15 0,-2 0,-3 0,-4l-5 -42c-3,-7 -4,-18 -6,-26 -2,-6 -6,-22 -6,-27 -1,-1 -1,-4 -1,-6l-6 -33c-2,-10 -6,-27 -9,-36 -3,-7 -6,-14 -9,-21 -3,-8 -17,-38 -22,-43 0,-2 -4,-10 -5,-11 0,-2 -5,-13 -7,-15 -4,-10 -8,-20 -11,-30 -1,-5 -2,-11 -3,-15l0 -2c-1,-2 -1,-3 -2,-5 0,-2 1,-2 0,-4 -1,-4 -1,-10 -1,-14 0,-4 0,-4 1,-8 0,-3 0,-5 0,-7l2 -8c0,-1 0,0 0,-1 3,-5 4,-13 9,-18 1,-2 2,-3 3,-5 2,-3 7,-7 10,-10 8,-7 21,-14 32,-16 1,0 3,0 4,-1l2 0c1,0 2,0 2,-1l3 0c1,0 2,0 3,0 2,0 3,0 5,-1 3,0 13,0 16,1 0,0 7,0 11,1l27 4c9,1 19,4 28,6 6,1 13,3 20,5 35,9 68,22 103,29 6,1 15,3 21,4l13 2c5,1 9,1 14,2 3,0 7,0 11,1l12 0c1,0 0,0 2,0 3,0 9,0 11,-1 3,0 5,1 7,0 2,0 5,0 7,-1l11 -1c4,-1 8,-2 12,-3 3,-1 10,-3 12,-3 4,-2 13,-5 18,-7 6,-2 11,-5 17,-8 10,-4 24,-12 34,-18 13,-8 38,-22 51,-27 5,-2 14,-6 17,-8 2,0 3,-1 5,-1 3,-1 18,-5 21,-5l11 -2c3,-1 6,0 8,-1 6,0 12,-1 19,0l13 1c1,1 2,1 3,1l1 0c2,0 6,2 7,2 2,0 4,0 6,1 7,1 20,10 26,14 4,3 9,8 11,11z"/>
   <path class="fil5 str1" d="M528 414c6,-7 15,-20 20,-27 24,-34 62,-102 80,-139 7,-12 12,-27 16,-41l3 -18c1,-2 1,-2 1,-3l1 -20c0,-4 0,-6 0,-9l-1 -6c-1,-2 -1,-2 -1,-4 0,-1 0,-3 -1,-4 0,-7 -5,-16 -7,-22 -1,-1 0,0 0,-1 -1,-2 -1,-1 -1,-3l-7 -11 -10 -14c-5,-6 -13,-13 -20,-18 -4,-4 -14,-10 -19,-13 -3,-3 -5,-8 -7,-12 -4,0 -6,0 -10,0l-17 3c-3,1 -10,3 -13,4 -1,0 0,0 -2,0 -1,1 0,1 -2,1 -2,1 -1,1 -2,1 -2,1 -1,1 -3,1 -1,1 0,0 -2,0 -4,3 -18,7 -23,9 -8,3 -16,6 -24,10 -8,3 -15,7 -23,10 -6,2 -19,10 -24,11 -2,2 -12,7 -16,9 -26,13 -72,43 -96,62l-64 53c-2,2 -5,5 -7,7 -5,4 -16,15 -20,20 -4,5 -10,10 -13,13 -5,6 -13,14 -18,21l-12 14c-6,8 -14,17 -20,25 -18,24 -34,51 -50,76 -9,16 -18,34 -26,50 -6,11 -20,43 -22,53l-3 16c0,2 0,4 0,6 16,11 5,0 15,17 3,4 6,7 8,11l10 11c8,5 13,9 21,13 9,4 17,6 26,9l12 2c1,0 2,0 3,1l6 0c4,1 20,2 24,1 4,-1 7,0 10,-1l7 -1c2,0 2,0 3,0l5 -1c7,-2 15,-3 22,-5 5,-1 18,-4 22,-6 5,-1 47,-18 54,-21 18,-8 37,-14 55,-23 18,-9 37,-17 54,-27 9,-6 18,-10 27,-16 10,-7 26,-19 36,-27l10 -9c4,-3 11,-11 15,-14 4,-5 10,-12 14,-17l6 -7z"/>
  </g>
 </g>
</svg>
