<?xml version="1.0" encoding="UTF-8"?>
<!DOCTYPE svg PUBLIC "-//W3C//DTD SVG 1.1//EN" "http://www.w3.org/Graphics/SVG/1.1/DTD/svg11.dtd">
<!-- Creator: CorelDRAW 2020 (64-Bit) -->
<svg xmlns="http://www.w3.org/2000/svg" xml:space="preserve" width="127px" height="127px" version="1.1" style="shape-rendering:geometricPrecision; text-rendering:geometricPrecision; image-rendering:optimizeQuality; fill-rule:evenodd; clip-rule:evenodd"
viewBox="0 0 2300 2300"
 xmlns:xlink="http://www.w3.org/1999/xlink"
 xmlns:xodm="http://www.corel.com/coreldraw/odm/2003">
 <defs>
  <style type="text/css">
   <![CDATA[
    .str0 {stroke:#2B2A29;stroke-width:16;stroke-miterlimit:22.9256}
    .str1 {stroke:black;stroke-width:18;stroke-linecap:square;stroke-miterlimit:22.9256}
    .fil1 {fill:none}
    .fil0 {fill:#C9D8F5}
    .fil2 {fill:white}
   ]]>
  </style>
 </defs>
 <g id="planets">
  <metadata id="CorelCorpID_0Corel-Layer"/>
  <g id="_1325895767520">
   <path class="fil0 str0" d="M197 523c-18,27 -36,57 -51,85 -14,28 -29,56 -41,85 -6,14 -12,28 -18,42 -2,7 -5,14 -8,21 -2,6 -5,17 -8,22 0,3 0,1 -1,4 0,2 0,1 -1,3 -1,7 -9,28 -12,36 -6,24 -14,48 -18,72 -2,6 -3,12 -5,19l-21 155c-1,5 -1,16 -1,17 -2,4 -1,11 -1,16 -1,3 -1,8 -1,11 -1,5 0,14 0,19 -1,4 -1,14 -1,19l0 18c2,5 1,15 1,20 1,4 0,12 0,17 1,6 1,18 2,20l11 100 8 44c0,3 1,7 1,10 4,24 13,55 19,79 11,40 31,97 47,136 5,11 10,22 15,34 3,7 15,28 17,34 3,4 4,10 8,14 1,7 21,40 26,48 26,43 50,81 81,121 6,8 14,17 19,25l48 55c2,3 6,6 9,9 3,4 11,11 15,16 4,6 20,20 26,26 9,8 19,19 29,26 12,10 23,21 35,31 4,2 7,5 10,8 7,6 18,14 26,19 36,29 88,63 128,85 9,5 44,25 51,27 3,2 22,11 25,12 9,7 45,20 58,25 10,4 19,8 29,12 7,2 24,7 29,10 3,1 1,0 4,2 3,0 26,8 32,10 10,3 21,6 32,9 11,3 21,6 32,8 9,2 25,5 33,8 14,2 28,5 41,8l10 1c2,0 1,0 3,0l91 11c6,1 20,1 20,1 6,1 18,1 20,1 4,2 10,1 15,1 4,1 25,1 32,1 2,0 2,0 4,0 5,-1 26,0 32,0 8,-2 20,-1 23,-2 3,-1 7,0 10,0 6,-1 19,-1 21,-1l114 -15c9,-3 22,-3 32,-6 12,-1 117,-29 126,-34 3,0 1,0 4,-1 24,-8 53,-20 77,-29 13,-5 27,-11 39,-17 8,-5 33,-15 39,-20 9,-2 38,-20 48,-26 17,-9 33,-19 49,-29 16,-10 33,-22 49,-33 16,-12 32,-26 48,-37l58 -50c3,-2 5,-4 8,-7 3,-2 7,-7 10,-10 8,-5 27,-26 35,-34 5,-6 14,-14 17,-18 9,-11 21,-23 30,-34l19 -24c8,-8 18,-22 25,-31 75,-100 143,-230 177,-350 6,-21 12,-41 17,-63 3,-10 5,-21 8,-32 2,-9 3,-23 6,-32l14 -111c1,-5 2,-18 2,-18 0,-5 1,-20 1,-21 1,-2 0,-6 0,-9 2,-4 1,-14 1,-19 2,-10 0,-27 0,-37l0 -18c-1,-4 0,-12 0,-17 -1,-6 -1,-19 -1,-20 -1,-6 -1,-19 -1,-21l-15 -118c-1,-2 -1,-5 -2,-7 0,-7 -5,-27 -7,-35 -7,-35 -17,-69 -28,-104 -7,-24 -17,-46 -25,-69 -4,-12 -9,-23 -14,-35 -3,-8 -14,-28 -15,-34 -1,-2 -1,-2 -3,-4 0,-3 -15,-33 -17,-35 -2,-9 -21,-38 -26,-47 -9,-17 -19,-32 -29,-48 -10,-16 -22,-32 -33,-47 -11,-16 -25,-32 -36,-48l-49 -56c-2,-3 -4,-5 -7,-8 -6,-9 -33,-34 -43,-43 -6,-5 -14,-14 -18,-18 -11,-8 -23,-20 -34,-29l-11 -10c-16,-13 -31,-25 -50,-38 -30,-21 -59,-42 -90,-60 -8,-5 -15,-9 -23,-14 -6,-4 -18,-9 -23,-13 -3,-1 -21,-11 -25,-13 -4,-2 -22,-11 -26,-12 -2,-2 -17,-9 -20,-9 -6,-4 -35,-16 -43,-19 -8,-3 -15,-6 -22,-9 -5,-2 -18,-6 -23,-8 -2,-1 -1,0 -3,-2 -4,0 -11,-4 -15,-4 -3,-1 -1,-1 -4,-1 -6,-4 -26,-9 -34,-11 -11,-4 -23,-6 -34,-10 -11,-3 -23,-6 -34,-8 -11,-3 -25,-5 -35,-8l-141 -18c-5,-1 -16,-1 -17,-1 -3,-1 -8,-1 -11,-1 -5,-1 -12,0 -17,0 -4,-2 -16,-1 -21,-1 -12,-2 -33,0 -46,0 -5,1 -15,1 -20,1 -7,1 -17,0 -21,1l-113 12 -36 7c-2,0 -7,1 -9,2 -16,0 -140,35 -153,43 -27,8 -58,23 -84,33 -29,12 -57,27 -84,42 -29,15 -57,34 -84,52 -22,14 -43,29 -63,45l-39 31c-7,6 -17,16 -25,22l-13 13c-4,2 -7,6 -10,9 -9,6 -32,31 -41,40 -5,6 -12,12 -16,17 -9,12 -20,22 -29,34l-20 24c-11,11 -23,30 -33,43 -10,13 -19,28 -29,42zm535 -275c-5,13 1,13 -14,25 -10,7 -31,24 -41,26 -9,7 -25,10 -35,15l-25 6 -25 1c-2,-1 -6,-2 -9,-2 -2,-2 -4,-7 -4,-10 0,-2 4,-13 4,-16l14 -12c16,-12 29,-20 47,-28 8,-3 27,-11 36,-13 4,-1 8,-2 12,-3l3 0c1,0 2,0 4,-1 2,0 3,0 5,0 3,0 9,-1 13,0 16,2 11,2 15,12z"/>
   <path class="fil1 str1" d="M1119 10c-5,1 -15,1 -20,1 -7,1 -17,0 -21,1l-113 12 -36 7c-2,0 -7,1 -9,2 -16,0 -140,35 -153,43 -27,8 -58,23 -84,33 -29,12 -57,27 -84,42 -29,15 -57,34 -84,52 -22,14 -43,29 -63,45l-39 31c-7,6 -17,16 -25,22l-13 13c-4,2 -7,6 -10,9 -9,6 -32,31 -41,40 -5,6 -12,12 -16,17 -9,12 -20,22 -29,34l-20 24c-11,11 -23,30 -33,43 -10,13 -19,28 -29,42 -18,27 -36,57 -51,85 -14,28 -29,56 -41,85 -6,14 -12,28 -18,42 -2,7 -5,14 -8,21 -2,6 -5,17 -8,22 0,3 0,1 -1,4 0,2 0,1 -1,3 -1,7 -9,28 -12,36 -6,24 -14,48 -18,72 -2,6 -3,12 -5,19l-21 155c-1,5 -1,16 -1,17 -2,4 -1,11 -1,16 -1,3 -1,8 -1,11 -1,5 0,14 0,19 -1,4 -1,14 -1,19l0 18c2,5 1,15 1,20 1,4 0,12 0,17 1,6 1,18 2,20l11 100 8 44c0,3 1,7 1,10 4,24 13,55 19,79 11,40 31,97 47,136 5,11 10,22 15,34 3,7 15,28 17,34 3,4 4,10 8,14 1,7 21,40 26,48 26,43 50,81 81,121 6,8 14,17 19,25l48 55c2,3 6,6 9,9 3,4 11,11 15,16 4,6 20,20 26,26 9,8 19,19 29,26 12,10 23,21 35,31 4,2 7,5 10,8 7,6 18,14 26,19 36,29 88,63 128,85 9,5 44,25 51,27 3,2 22,11 25,12 9,7 45,20 58,25 10,4 19,8 29,12 7,2 24,7 29,10 3,1 1,0 4,2 3,0 26,8 32,10 10,3 21,6 32,9 11,3 21,6 32,8 9,2 25,5 33,8 14,2 28,5 41,8l10 1c2,0 1,0 3,0l91 11c6,1 20,1 20,1 6,1 18,1 20,1 4,2 10,1 15,1 4,1 25,1 32,1 2,0 2,0 4,0 5,-1 26,0 32,0 8,-2 20,-1 23,-2 3,-1 7,0 10,0 6,-1 19,-1 21,-1l114 -15c9,-3 22,-3 32,-6 12,-1 117,-29 126,-34 3,0 1,0 4,-1 24,-8 53,-20 77,-29 13,-5 27,-11 39,-17 8,-5 33,-15 39,-20 9,-2 38,-20 48,-26 17,-9 33,-19 49,-29 16,-10 33,-22 49,-33 16,-12 32,-26 48,-37l58 -50c3,-2 5,-4 8,-7 3,-2 7,-7 10,-10 8,-5 27,-26 35,-34 5,-6 14,-14 17,-18 9,-11 21,-23 30,-34l19 -24c8,-8 18,-22 25,-31 75,-100 143,-230 177,-350 6,-21 12,-41 17,-63 3,-10 5,-21 8,-32 2,-9 3,-23 6,-32l14 -111c1,-5 2,-18 2,-18 0,-5 1,-20 1,-21 1,-2 0,-6 0,-9 2,-4 1,-14 1,-19 2,-10 0,-27 0,-37l0 -18c-1,-4 0,-12 0,-17 -1,-6 -1,-19 -1,-20 -1,-6 -1,-19 -1,-21l-15 -118c-1,-2 -1,-5 -2,-7 0,-7 -5,-27 -7,-35 -7,-35 -17,-69 -28,-104 -7,-24 -17,-46 -25,-69 -4,-12 -9,-23 -14,-35 -3,-8 -14,-28 -15,-34 -1,-2 -1,-2 -3,-4 0,-3 -15,-33 -17,-35 -2,-9 -21,-38 -26,-47 -9,-17 -19,-32 -29,-48 -10,-16 -22,-32 -33,-47 -11,-16 -25,-32 -36,-48l-49 -56c-2,-3 -4,-5 -7,-8 -6,-9 -33,-34 -43,-43 -6,-5 -14,-14 -18,-18 -11,-8 -23,-20 -34,-29l-11 -10c-16,-13 -31,-25 -50,-38 -30,-21 -59,-42 -90,-60 -8,-5 -15,-9 -23,-14 -6,-4 -18,-9 -23,-13 -3,-1 -21,-11 -25,-13 -4,-2 -22,-11 -26,-12 -2,-2 -17,-9 -20,-9 -6,-4 -35,-16 -43,-19 -8,-3 -15,-6 -22,-9 -5,-2 -18,-6 -23,-8 -2,-1 -1,0 -3,-2 -4,0 -11,-4 -15,-4 -3,-1 -1,-1 -4,-1 -6,-4 -26,-9 -34,-11 -11,-4 -23,-6 -34,-10 -11,-3 -23,-6 -34,-8 -11,-3 -25,-5 -35,-8l-141 -18c-5,-1 -16,-1 -17,-1 -3,-1 -8,-1 -11,-1 -5,-1 -12,0 -17,0 -4,-2 -16,-1 -21,-1 -12,-2 -33,0 -46,0z"/>
   <path class="fil1 str1" d="M704 236c-2,0 -3,0 -5,0 -2,1 -3,1 -4,1l-3 0c-4,1 -8,2 -12,3 -9,2 -28,10 -36,13 -18,8 -31,16 -47,28l-14 12c0,3 -4,14 -4,16 0,3 2,8 4,10 3,0 7,1 9,2l25 -1 25 -6c10,-5 26,-8 35,-15 10,-2 31,-19 41,-26 15,-12 9,-12 14,-25 -4,-10 1,-10 -15,-12 -4,-1 -10,0 -13,0z"/>
   <path class="fil1 str1" d="M2120 814c-5,-8 -13,-22 -19,-30 -6,-10 -13,-21 -20,-30 -8,-10 -15,-20 -22,-30 -7,-10 -17,-21 -24,-31l-41 -47c-9,-11 -42,-45 -49,-51 -5,-3 -9,-8 -13,-13 -8,-6 -20,-18 -27,-24l-23 -20c-1,-1 -3,-2 -4,-3l-20 -16c-8,-8 -21,-17 -31,-24 -39,-31 -113,-79 -156,-101 -13,-7 -53,-30 -63,-32 -6,-4 -26,-12 -34,-15 -11,-5 -22,-10 -33,-15 -11,-4 -22,-8 -33,-13 -9,-3 -27,-8 -34,-12 -5,0 -14,-6 -20,-6 -5,-3 -26,-9 -32,-10l-65 -18c-10,-2 -24,-4 -33,-7l-65 -12c-2,0 -3,0 -5,-1l-89 -9c-3,-1 -4,-1 -7,-1 -5,-1 -20,-1 -20,-1 -5,-2 -11,-1 -15,-1 -5,-1 -14,0 -19,0 -4,-2 -10,-1 -14,-1 -5,-1 -21,0 -27,0 -4,1 -9,0 -14,0 -4,2 -14,1 -19,1 -3,1 -8,0 -11,0 -6,1 -21,1 -23,1l-110 14c-6,1 -22,4 -28,5"/>
   <path class="fil1 str1" d="M571 2070c-1,-3 -34,-38 -41,-46l-16 -19c-1,-2 -2,-3 -3,-5 -12,-12 -28,-34 -38,-48 -27,-38 -40,-57 -64,-97 -4,-8 -9,-16 -13,-24 -3,-6 -11,-21 -14,-25 -2,-6 -15,-31 -19,-39 -15,-30 -38,-87 -48,-118 -9,-27 -16,-52 -24,-79 -4,-13 -11,-43 -15,-59 -2,-13 -7,-34 -9,-48l-17 -136c0,-5 -1,-18 -1,-18 -1,-3 0,-9 0,-13 -2,-4 -1,-11 -1,-16 -1,-5 -1,-18 -1,-24 -1,-5 0,-40 0,-48 1,-4 0,-17 0,-22 2,-4 1,-9 1,-13 1,-4 1,-13 1,-18l13 -131 11 -64c0,-2 2,-12 3,-15 0,-3 2,-14 3,-17 0,-8 6,-28 8,-36 4,-22 14,-52 20,-75 2,-8 10,-31 11,-37 2,-4 6,-18 8,-24 8,-23 17,-47 26,-70 25,-63 57,-130 92,-188 9,-16 18,-32 29,-47l32 -48"/>
   <path class="fil1 str1" d="M1950 1523c0,-2 -1,-3 -1,-4 0,-8 -7,-30 -8,-39 -3,-13 -7,-26 -10,-39 -7,-26 -15,-52 -23,-78 -13,-38 -28,-80 -44,-117 -4,-8 -17,-33 -18,-39 -4,-5 -11,-21 -14,-28 -4,-7 -11,-23 -15,-29 -1,-2 -3,-6 -5,-8 -2,-8 -23,-42 -28,-51 -11,-17 -21,-34 -33,-51 -18,-27 -33,-49 -53,-75 -6,-9 -14,-18 -20,-26l-67 -77c-7,-10 -37,-37 -47,-48 -4,-2 -8,-7 -11,-10 -7,-5 -16,-15 -22,-20 -11,-9 -25,-22 -38,-33l-38 -30c-58,-44 -88,-63 -150,-101 -10,-6 -21,-11 -31,-17 -7,-4 -24,-11 -30,-16 -7,-2 -24,-14 -33,-15 -2,-2 -14,-8 -17,-8 -11,-9 -145,-61 -158,-62 -4,-2 -30,-9 -36,-11 -25,-6 -45,-12 -72,-18 -10,-2 -27,-5 -36,-8l-62 -10c-2,-1 -1,-1 -3,-1l-33 -5"/>
   <path class="fil1 str1" d="M1001 2138c-6,-4 -20,-18 -27,-23l-13 -13c-3,-2 -6,-5 -9,-8 -9,-6 -33,-33 -43,-42 -5,-7 -15,-16 -19,-20 -9,-11 -19,-21 -28,-32l-22 -27c-14,-13 -30,-37 -41,-53 -26,-34 -50,-70 -72,-107 -5,-9 -10,-18 -15,-27 -4,-8 -11,-21 -15,-27 -1,-3 -4,-9 -6,-11 -1,-4 -10,-20 -12,-25 -13,-25 -25,-51 -35,-77 -7,-17 -15,-34 -21,-51 -20,-55 -34,-94 -49,-153 -4,-17 -8,-34 -12,-51 -2,-8 -4,-17 -6,-25 -1,-7 -3,-19 -5,-26l-14 -83c-1,-2 0,-1 0,-4l-12 -117c-1,-5 -1,-18 -2,-19 -1,-3 0,-8 0,-11 -2,-5 -1,-11 -1,-16 -1,-4 0,-9 0,-14 -2,-4 -1,-17 -1,-22 -2,-6 0,-58 0,-68 1,-5 0,-17 0,-23 1,-4 1,-9 1,-13 1,-4 0,-10 0,-14 1,-6 1,-19 1,-21 1,-5 1,-16 2,-18l13 -121 16 -93c0,-9 8,-35 10,-45 7,-31 17,-61 25,-91 2,-7 4,-15 7,-22 2,-6 6,-17 8,-23 1,-2 0,0 1,-2"/>
   <path class="fil1 str1" d="M2135 1390c-3,-7 -7,-28 -9,-37 -10,-39 -21,-74 -34,-112 -7,-24 -17,-52 -27,-75 -6,-12 -11,-25 -16,-37 -4,-8 -16,-31 -18,-38 -1,-2 -2,-2 -2,-4 -2,-2 -3,-5 -4,-7 -1,-2 -2,-5 -3,-7 -4,-5 -5,-11 -9,-15 0,-3 -3,-9 -5,-11 -2,-7 -21,-38 -26,-47 -26,-43 -48,-76 -79,-116 -6,-8 -13,-16 -18,-23l-35 -40c-2,-3 -4,-5 -7,-7 -6,-10 -34,-35 -44,-46 -7,-5 -16,-14 -21,-19l-23 -19c-1,-2 -3,-3 -4,-4l-21 -17"/>
   <path class="fil1 str1" d="M1000 1694c-1,-3 -10,-12 -12,-15 -10,-11 -23,-29 -32,-42 -21,-28 -50,-74 -68,-106 -3,-5 -8,-16 -11,-21 -11,-21 -26,-50 -34,-72 -5,-11 -10,-25 -16,-36 -5,-12 -8,-25 -13,-36 -9,-24 -15,-49 -23,-73 -3,-12 -6,-24 -9,-36 -3,-12 -5,-27 -8,-37l-20 -148c-1,-2 -1,-5 -1,-8 -1,-3 0,-9 0,-13 -2,-4 -1,-11 -1,-16 -1,-5 0,-57 0,-67 1,-5 0,-11 0,-15 1,-6 1,-20 1,-22l9 -82 8 -42c0,-2 1,-7 1,-9 0,-9 6,-28 8,-38 2,-9 9,-29 9,-37 2,-2 2,-2 2,-5"/>
   <path class="fil1 str1" d="M1483 1453c-3,-12 -16,-32 -19,-42 -5,-7 -15,-30 -19,-39 -5,-9 -15,-32 -21,-39 -2,-7 -22,-39 -27,-47 -19,-30 -43,-66 -64,-94 -6,-8 -12,-16 -18,-23l-66 -78c-2,-3 -4,-5 -7,-8 -2,-3 -6,-6 -9,-9 -5,-7 -22,-24 -30,-31 -4,-3 -12,-11 -16,-16 -8,-6 -21,-20 -29,-26 -11,-10 -25,-22 -37,-32l-11 -9c-11,-10 -30,-24 -42,-33 -12,-9 -31,-24 -43,-30"/>
   <path class="fil1 str1" d="M1736 1962c-8,-4 -19,-13 -27,-18 -17,-12 -36,-27 -53,-40 -8,-6 -18,-14 -27,-20 -4,-5 -17,-15 -23,-19l-55 -47c-8,-6 -18,-16 -25,-21 -6,-6 -13,-13 -17,-16l-16 -15c-4,-3 -7,-6 -10,-10 -4,-2 -8,-6 -11,-10 -6,-4 -20,-19 -26,-25 -8,-9 -17,-17 -26,-26 -3,-4 -12,-12 -16,-17 -3,-4 -7,-8 -11,-11 -5,-6 -14,-14 -16,-18 -5,-6 -14,-14 -18,-19 -11,-13 -26,-29 -38,-43l-35 -43c-8,-8 -18,-22 -25,-31 -42,-53 -74,-99 -112,-156 -14,-21 -26,-42 -39,-62"/>
   <path class="fil1 str1" d="M1517 2160c-19,-7 -40,-18 -59,-26 -10,-4 -21,-9 -30,-14 -5,-2 -26,-12 -30,-13 -2,-1 -2,-1 -3,-2 -7,-2 -40,-20 -48,-24 -27,-14 -73,-41 -97,-58 -8,-6 -16,-11 -24,-17l-34 -27c-11,-10 -41,-38 -48,-46 -5,-7 -14,-16 -20,-24 -1,-1 -2,-2 -3,-3 -7,-10 -17,-22 -24,-32 -7,-10 -15,-23 -20,-33"/>
  </g>
  <path class="fil2 str0" d="M644 253c-18,8 -31,16 -47,28l-14 12c0,3 -4,14 -4,16 0,3 2,8 4,10 3,0 7,1 9,2l25 -1 25 -6c10,-5 26,-8 35,-15 10,-2 31,-19 41,-26 15,-12 9,-12 14,-25 -4,-10 1,-10 -15,-12 -4,-1 -10,0 -13,0 -2,0 -3,0 -5,0 -2,1 -3,1 -4,1l-3 0c-4,1 -8,2 -12,3 -9,2 -28,10 -36,13z"/>
 </g>
</svg>
