<?xml version="1.0" encoding="UTF-8"?>
<!DOCTYPE svg PUBLIC "-//W3C//DTD SVG 1.1//EN" "http://www.w3.org/Graphics/SVG/1.1/DTD/svg11.dtd">
<!-- Creator: CorelDRAW 2020 (64-Bit) -->
<svg xmlns="http://www.w3.org/2000/svg" xml:space="preserve" width="128px" height="127px" version="1.1" style="shape-rendering:geometricPrecision; text-rendering:geometricPrecision; image-rendering:optimizeQuality; fill-rule:evenodd; clip-rule:evenodd"
viewBox="0 0 1441 1440"
 xmlns:xlink="http://www.w3.org/1999/xlink"
 xmlns:xodm="http://www.corel.com/coreldraw/odm/2003">
 <defs>
  <style type="text/css">
   <![CDATA[
    .str1 {stroke:#2B2A29;stroke-width:10;stroke-miterlimit:22.9256}
    .str0 {stroke:black;stroke-width:23;stroke-linecap:square;stroke-miterlimit:22.9256}
    .fil0 {fill:none}
    .fil4 {fill:#7688A1}
    .fil5 {fill:#B3B3B3}
    .fil1 {fill:#D18C02}
    .fil3 {fill:#FF6600}
    .fil2 {fill:#FF9933}
    .fil6 {fill:white}
   ]]>
  </style>
 </defs>
 <g id="planets">
  <metadata id="CorelCorpID_0Corel-Layer"/>
  <g id="_1326817604960">
   <path class="fil0 str0" d="M745 1423c-2,1 -4,1 -6,1l-6 2c-1,0 -1,-1 -2,0l-15 2c-3,1 -15,1 -19,1 -3,-1 -11,-1 -14,-1 -4,0 -10,0 -10,0l-9 -1c-3,-1 -7,0 -9,-1l-28 -3c-2,0 -2,0 -4,0 -1,-1 -2,-1 -3,-1l-1 0c-2,0 -2,0 -3,-1l-2 0c-1,0 -2,0 -3,0l-1 0c-1,-1 -2,-1 -3,-1l-8 -1c-1,-1 -2,-1 -3,-1l-1 0c-1,0 -2,0 -3,-1l-1 0c-1,0 -2,0 -3,0l-17 -4c-3,0 -20,-4 -23,-5 -3,0 -7,-2 -10,-2 -2,-1 -1,-1 -3,-1 -1,-1 0,-1 -2,-1 -2,-1 -1,0 -3,-1 -1,0 0,0 -2,0 -2,-1 -4,-2 -5,-2 -1,0 -18,-6 -20,-6 -1,0 0,0 -2,0 -1,-1 0,-1 -2,-1 -1,-1 -3,-1 -5,-2 -1,0 0,0 -2,0 -1,-1 0,-1 -2,-1 -1,0 -1,-1 -2,-1 -2,-3 -4,-7 -5,-9m674 -114l-2 -2 -23 2 -8 2c-6,0 -24,5 -30,6 -10,3 -20,5 -30,8 -10,2 -20,5 -30,8 -6,3 -24,7 -30,10 -3,1 -25,10 -31,12 -10,3 -21,8 -31,12 -21,10 -42,18 -63,28 -21,10 -42,20 -63,29 -15,6 -32,14 -47,21 -4,2 -12,4 -16,7 -3,4 -5,10 -8,13 2,1 4,3 5,5l5 0c2,-1 7,0 10,0 5,-1 12,-1 14,-1l68 -9c7,-2 17,-3 24,-5 9,-2 17,-3 25,-6 8,-2 17,-5 25,-7 5,-1 21,-5 25,-8 1,0 1,1 2,0 5,-1 43,-16 51,-20 17,-7 33,-15 51,-24 17,-8 34,-19 51,-29 8,-5 16,-11 25,-17 9,-6 17,-13 25,-19 2,-2 6,-14 6,-16l2 0c1,-1 3,-2 5,-2 1,-1 2,-1 3,-1 2,-1 0,-1 2,-1 2,-1 10,-5 12,-5 2,-1 0,-1 2,-1l20 -17c2,-2 5,-5 7,-8 5,-3 17,-16 22,-21 4,-5 8,-8 11,-11l15 -17c1,-1 2,-2 2,-3l2 -2c1,-1 2,-2 2,-3l2 -2c1,-1 1,-1 2,-2l2 -2c0,-1 1,-2 1,-2l7 -9c2,-2 3,-3 4,-5 4,-4 10,-12 13,-17 3,-5 8,-13 12,-17 0,-1 0,-1 1,-2 1,-1 1,-1 2,-2 0,-1 0,-1 1,-2 1,-2 0,-1 2,-2 1,-4 6,-9 7,-13 3,-3 8,-13 11,-17 3,-4 7,-13 10,-17 0,-1 6,-12 7,-13 1,-3 8,-15 9,-19 3,-6 6,-13 9,-18l3 -18c1,-3 2,-1 0,-3m-1035 311c2,5 5,10 7,15 11,7 22,13 33,20 5,3 28,16 33,17 2,1 3,1 5,3 4,0 17,8 22,10 6,2 17,8 23,9l15 2 11 1c1,-3 3,-6 5,-8 3,0 12,-3 15,-4l47 -14c11,-4 21,-7 32,-10 5,-2 27,-10 31,-10 1,-1 0,-1 2,-1 1,-1 1,0 2,-1 1,0 1,0 2,0 2,-1 1,-1 2,-1 2,-1 1,-1 2,-1 2,-1 1,0 3,0 1,-1 0,-1 2,-1 1,-1 0,-1 2,-1 1,-1 0,0 2,-1 1,0 1,0 2,0 2,-1 1,-1 2,-1 2,-1 1,-1 2,-1 2,-1 1,0 3,0 1,-1 0,-1 2,-1 1,-1 0,-1 2,-1 1,-1 0,0 2,-1 1,0 1,0 2,0 1,-1 1,-1 2,-1 2,-1 1,-1 2,-1 2,0 1,0 3,0 1,-1 0,-1 2,-1 1,-1 0,-1 2,-1 1,-1 0,0 2,-1 1,0 0,0 2,0 1,-1 1,-1 2,-1 2,-1 1,-1 2,-1 2,0 1,0 2,0 4,-3 10,-3 14,-5 1,0 9,-3 10,-4 2,0 17,-5 18,-6 4,-1 27,-10 32,-12 11,-4 21,-8 32,-12 16,-7 32,-14 47,-22 5,-2 13,-5 16,-8 4,-1 21,-11 26,-13 28,-16 50,-32 77,-49 30,-18 46,-29 77,-43 5,-2 9,-4 13,-5 4,-2 10,-4 13,-6 2,0 1,0 3,0 2,-1 3,-2 5,-2 1,-1 0,0 2,0 5,-3 26,-9 32,-10 21,-6 44,-12 64,-18 8,-2 28,-6 33,-9 6,-1 64,-25 69,-30 5,-1 40,-22 47,-26 8,-6 16,-11 24,-17 7,-5 15,-13 23,-18 1,-1 2,-2 3,-3 4,-1 15,-5 19,-5l5 -8c1,-2 3,-4 4,-6 1,-1 1,-1 2,-2 9,-14 10,-21 15,-38 7,-20 16,-55 20,-76 1,-4 2,-11 3,-15l9 -70c1,-2 0,-3 0,-5 1,-4 1,-14 1,-14 1,-1 1,-3 1,-4 0,-3 0,-6 0,-8 1,-3 0,-13 0,-17 1,-2 1,-9 1,-12l-5 -5m-74 -307l36 86c2,1 4,2 6,4 0,1 0,0 1,2 0,1 0,1 1,2 0,1 1,5 2,7 0,1 6,21 7,22 0,2 -1,1 0,3 0,1 0,1 1,2 0,4 4,11 4,15 1,3 5,21 5,23l3 14c0,1 0,2 1,3l0 1c0,1 0,2 0,3l0 2c1,1 1,1 1,2l2 12c0,1 0,2 0,3l0 2c1,1 1,1 1,3l0 1c0,1 0,2 1,3 0,2 0,2 0,4l3 27c1,3 1,5 1,9l1 9c0,2 0,12 1,17l0 8c-2,4 -2,8 -3,11l0 2c0,1 -1,4 -1,5 -4,2 -10,5 -14,7 -2,4 -5,10 -7,14 -1,3 -5,12 -6,14 -1,3 -4,10 -6,14l-16 39c-7,17 -14,36 -22,53 -9,18 -17,36 -27,53 -5,9 -10,17 -16,26l-21 29 -12 13c-2,3 -15,15 -18,18 -9,7 -22,17 -30,22 -8,4 -15,8 -23,12 -9,4 -25,9 -35,11 -4,1 -8,2 -12,3l-7 1c-2,0 -1,0 -2,0 -5,1 -9,1 -13,1l-6 1c0,0 -10,0 -13,1 -4,1 -36,0 -41,-1 -1,0 -9,0 -12,-1 -2,0 -5,1 -7,0 0,0 -7,0 -10,-1l-69 -5c-1,-1 -9,0 -13,-1 -3,0 -10,1 -12,0 -5,0 -20,-1 -23,0 -3,0 -8,-1 -11,0l-8 1c0,0 -5,0 -9,1 -1,0 -1,0 -2,0l-8 1c-9,1 -24,5 -33,7 -6,2 -13,4 -19,6 -7,3 -14,6 -20,9 -7,3 -14,7 -20,10 -16,8 -45,28 -60,40 -6,5 -15,11 -20,16l-79 65c-8,5 -17,13 -25,19 -8,6 -17,12 -25,18 -14,9 -35,22 -50,28 -4,2 -9,4 -13,6 -22,9 -39,15 -62,21 -5,1 -20,6 -25,6 -4,1 -9,1 -13,2l-50 7c-2,0 -8,0 -12,1 -2,0 -4,-1 -5,0l-23 0c-3,1 -3,2 -6,4 -6,0 -18,-6 -25,-6 -7,-6 -19,-13 -26,-20l-11 -9c-1,-1 -2,-1 -3,-2 -8,-7 -16,-15 -24,-21 -3,-2 -9,-9 -14,-13 -5,-4 -23,-23 -28,-29l-30 -34c-3,-4 -8,-9 -11,-14l-21 -27c-3,-4 -6,-11 -10,-14 0,-2 0,-1 -1,-3 -1,-1 0,0 -1,-2 -1,-1 -1,-1 -2,-2 -1,-2 -9,-15 -11,-17 0,-6 -3,-15 -4,-21l1 -1 -1 -7c4,-3 4,-5 6,-8 2,-2 27,-7 35,-9l24 -3c2,0 2,0 3,0l18 -2c2,0 5,0 7,0 2,-1 8,0 11,0 3,-1 9,-1 13,-1 2,-1 14,0 18,0 3,1 16,0 20,0 2,1 5,1 7,1 3,0 13,0 16,0 2,1 5,0 8,0 3,1 20,1 25,1 3,1 32,0 38,0 2,-1 9,0 12,0 4,-1 12,-1 13,-1 3,-1 6,0 8,-1l20 -2c1,0 1,0 2,-1l11 -1c7,-2 16,-3 23,-5 7,-2 15,-4 22,-7 7,-3 14,-5 22,-8 4,-2 19,-9 22,-11 1,0 0,0 1,-1 5,-1 38,-20 45,-24 29,-18 59,-38 89,-53 11,-6 22,-11 34,-16 3,-1 8,-2 11,-4 2,0 1,0 2,-1 2,0 1,0 2,-1 3,0 14,-4 17,-5l37 -6c4,-1 9,-1 9,-1 1,-1 2,0 3,0 3,-1 7,-1 10,-1 3,-1 16,0 20,0 2,1 10,0 13,0l9 1c3,0 9,1 10,1l98 10c4,1 10,1 10,1 2,1 5,0 8,0 3,1 11,1 14,1 3,1 7,0 11,0 2,-1 8,0 11,0 4,-1 8,0 11,-1l12 -1c2,-1 1,-1 3,-1 1,0 1,0 2,0l15 -3c4,-1 7,-2 11,-3 16,-4 35,-13 48,-22 9,-5 16,-11 24,-17l7 -6c2,-2 11,-10 13,-12 4,-5 8,-10 12,-14 4,-6 10,-12 14,-18 5,-6 8,-12 12,-18 8,-11 15,-24 20,-36 9,-18 17,-36 23,-54 2,-4 5,-14 7,-18 0,-3 6,-19 7,-22 3,-8 5,-15 8,-23 2,-7 4,-15 7,-22 1,-4 7,-20 7,-23 1,-1 1,-1 1,-2 1,-2 0,-1 1,-2 0,-2 0,-1 0,-2 1,-2 1,-1 1,-3 1,-1 1,0 1,-2 1,-1 0,0 0,-2 1,-1 2,-2 2,-4 2,-4 4,-13 6,-18 3,-6 5,-12 7,-18 5,-12 11,-23 16,-35 6,-15 21,-40 31,-54l17 -22c3,-3 14,-16 16,-17 3,-1 7,-2 9,-4zm-1323 454c3,0 12,2 15,3 4,0 30,12 36,14 6,3 12,5 18,8 5,1 15,4 18,7 2,0 9,2 10,3 2,0 1,0 3,1 1,0 0,0 2,1 3,0 19,5 23,6l36 7c1,1 1,0 3,0l13 2c4,0 10,0 12,1 3,1 28,0 33,0 3,-1 12,-1 13,-1l42 -5 18 -4c6,-1 11,-2 16,-3 6,-1 11,-3 16,-4 4,-1 13,-5 17,-5 3,-1 15,-4 19,-6 5,-1 15,-4 19,-6 5,-1 36,-13 43,-16 14,-5 28,-11 42,-16 15,-6 29,-11 43,-17 7,-3 14,-6 21,-8 5,-2 18,-6 22,-8 1,0 9,-3 10,-4 2,0 1,1 2,0 2,0 1,0 2,-1 2,0 1,0 3,-1 1,0 0,0 2,0 2,-1 17,-6 21,-7 13,-5 28,-8 42,-11 6,-2 15,-3 21,-5l44 -7c3,0 9,0 10,0l9 -1c2,-1 8,0 11,0 3,-1 16,-1 20,-1 3,1 9,1 12,1 4,0 15,0 17,0 3,1 13,1 14,1 3,1 12,1 12,1 3,0 11,0 12,1 4,0 12,0 14,0 2,1 9,1 12,1 3,1 20,0 24,0 3,-1 14,-1 15,-1l28 -3c3,-1 7,-2 10,-2 17,-3 38,-13 53,-22 7,-4 16,-11 23,-17 4,-3 15,-14 20,-20 0,-1 1,-2 2,-3 10,-10 23,-33 29,-46 4,-7 8,-14 11,-22 2,-6 6,-19 8,-23 1,-3 4,-11 5,-15 1,-5 2,-9 3,-14 3,-9 4,-21 7,-29l19 -151 5 -30c0,-5 6,-27 8,-33 7,-23 14,-45 27,-66 3,-6 6,-11 10,-17 5,-7 10,-14 16,-21l7 -7c1,-4 4,-17 7,-20l-78 -71c-1,2 -2,2 -2,4l0 2c-2,5 -3,10 -5,15 -1,3 -4,13 -4,15 -2,3 -4,12 -6,16 -2,5 -4,10 -5,15 -9,25 -30,70 -43,91 -6,10 -11,21 -17,31 -6,10 -13,20 -20,31 -7,10 -14,20 -21,30 -7,9 -17,23 -24,30l-14 17c-6,7 -12,13 -18,20 -2,2 -7,8 -11,11 -5,6 -20,22 -25,26 -2,2 -5,4 -7,6 -2,2 -3,4 -5,5l-38 33c-6,4 -12,10 -18,14 -6,4 -12,9 -18,13 -11,9 -24,17 -35,25 -12,8 -24,15 -36,22 -7,4 -30,17 -36,19 -4,3 -24,12 -31,15 -10,5 -19,9 -30,13 -10,4 -20,8 -30,12 -5,2 -10,4 -15,6 -4,1 -12,3 -15,5 -2,0 -1,0 -2,1 -2,0 -1,0 -3,1 -2,0 -12,3 -14,4 -14,5 -32,9 -45,13 -10,3 -20,4 -30,7 -5,1 -10,2 -15,3 -4,1 -12,3 -15,3l-10 2 -101 12c-2,1 -8,1 -12,1 -1,0 -8,0 -11,1 -1,0 -12,0 -16,1 -3,0 -6,-1 -9,0 -8,0 -55,1 -59,0 -3,0 -7,0 -10,-1 0,0 -12,0 -15,0 -2,-1 -10,-1 -13,-1 -2,0 -4,0 -6,-1 -1,0 -8,0 -11,0l-91 -11c-2,0 -1,0 -2,-1l-26 -4c-8,-2 -19,-4 -27,-6 -9,-2 -19,-3 -28,-6 -1,0 -2,1 -3,0l-15 -1m23 -157c3,1 9,1 12,1 3,1 20,0 24,0 3,1 25,0 30,0 3,0 19,0 23,0 4,0 13,0 14,-1 3,0 13,0 14,0 3,-1 12,-1 12,-1l103 -12 25 -4c2,-1 4,-1 6,-1 3,0 20,-4 23,-5 14,-2 25,-6 38,-8 22,-5 54,-15 76,-21 6,-2 12,-4 19,-5 4,-2 16,-5 19,-7 2,0 1,0 2,-1 2,0 7,-2 8,-3 5,0 38,-13 44,-15 15,-6 29,-12 44,-18 30,-13 58,-27 88,-42 22,-11 67,-38 88,-52 14,-10 29,-20 43,-30 8,-5 15,-11 22,-16 8,-6 15,-13 22,-18l41 -35c2,-1 4,-3 5,-5 3,-1 5,-4 7,-6 6,-4 21,-21 27,-27 3,-3 8,-8 10,-11 6,-6 14,-14 19,-21l13 -16c5,-5 11,-14 16,-20 8,-11 20,-28 28,-40 3,-5 9,-15 12,-20 0,-2 2,-6 2,-8 1,-1 1,-1 2,-2l-84 -33c-2,4 -3,8 -4,12 -4,4 -12,13 -16,15 -2,3 -5,6 -7,8l-48 42c-7,4 -17,12 -24,18 -7,6 -15,12 -23,17 -15,11 -32,23 -47,32 -15,10 -31,21 -47,29 -8,4 -16,8 -24,13 -3,2 -20,11 -23,12 -1,1 -3,2 -4,2 -2,1 -5,3 -7,4 -4,3 -32,15 -38,18 -13,5 -25,11 -38,16 -12,5 -25,10 -37,15 -12,5 -34,13 -44,16 -3,2 -7,2 -9,4 -2,0 -1,-1 -3,0 -1,0 0,0 -2,1 -1,0 -1,0 -2,1 -1,0 -1,0 -2,0 -2,1 -1,0 -2,1 -1,0 -52,16 -52,16 -5,0 -17,5 -22,6 -7,2 -14,4 -21,6 -14,4 -29,7 -43,10 -14,3 -28,7 -43,10 -7,1 -14,3 -21,4l-30 6 -133 21c-2,1 -6,1 -9,1 0,0 -8,0 -11,1 -2,0 -2,0 -4,-1l30 -51c1,1 2,1 4,1l13 -2c1,0 1,0 3,0 4,-2 10,-3 15,-4 15,-4 30,-8 46,-13 10,-3 20,-6 30,-9 5,-1 10,-3 15,-4 4,-1 13,-5 15,-5 2,-1 1,-1 3,-1 1,-1 0,0 2,0 1,-1 0,-1 2,-1 1,-1 0,-1 2,-1 1,-1 1,0 2,-1 2,0 1,0 2,0 2,-1 1,-1 2,-1 2,-1 1,-1 3,-1 2,-1 6,-2 9,-3 11,-4 25,-9 37,-13 10,-4 20,-8 30,-12 19,-7 39,-15 58,-23 20,-9 39,-18 59,-27 10,-4 20,-9 30,-14 6,-3 25,-12 29,-15 1,0 0,0 2,-1 4,-1 27,-14 33,-17 11,-6 22,-13 33,-19 23,-13 44,-26 67,-40 23,-13 45,-29 67,-44 11,-7 23,-16 33,-24 11,-8 23,-17 34,-24 1,-4 4,-10 5,-14m-97 -9c-3,1 -9,1 -12,1 -3,1 -8,0 -11,0 -4,1 -11,1 -12,1l-69 8 -19 3c-5,0 -17,4 -22,5 -8,1 -15,3 -22,5 -8,2 -15,4 -22,6 -5,1 -19,7 -23,7 -1,1 0,1 -2,1 -2,1 -5,1 -7,3 -2,0 -1,0 -2,0 -7,1 -44,17 -53,21 -37,16 -71,35 -105,58 -9,5 -18,11 -26,18 -5,3 -9,6 -14,10l-48 41c-2,1 -4,3 -5,5 -3,1 -5,4 -8,7 -4,2 -12,12 -16,16 -2,2 -5,5 -8,8 -4,5 -13,13 -17,19l-21 25c-6,7 -15,20 -21,28 -7,9 -13,18 -19,28 -1,4 -3,12 -4,17 -3,2 -7,5 -11,7 -5,5 -9,18 -14,24 0,1 0,1 -1,2 0,5 -4,13 -4,18 -1,0 -7,4 -7,5 -2,2 -4,5 -4,7 -1,2 -1,2 -2,4 -1,2 -1,2 -2,4 0,1 0,1 -1,2 -1,3 -3,6 -4,9 -4,5 -6,17 -10,23 0,2 0,1 -1,2 0,2 -2,6 -2,7 -1,2 -2,5 -3,6 0,2 0,3 -1,4 0,2 -1,3 -1,4 -1,1 -1,3 -2,4 0,1 -1,3 -1,4 0,1 0,1 -1,2 0,1 -3,9 -4,10 0,4 -3,10 -3,14 -1,2 -3,8 -3,10 -1,2 -1,1 -1,3 -1,1 -1,4 -2,5l-2 18c-1,1 -2,2 -3,2 -1,1 -5,21 -5,24 0,1 -1,2 -1,4l-3 16c0,0 0,1 -1,2l-1 8c0,1 0,2 0,3l0 2c-1,1 -1,2 -1,3l0 2c-1,1 -1,2 -1,3l0 2c0,1 0,2 -1,3l0 7c-1,1 -1,1 -1,3l0 6c-1,1 -1,1 -1,3l-2 23c0,2 0,3 0,5 -1,3 -1,7 -1,10 -1,7 0,17 0,17 -1,3 -1,6 -1,9 -1,3 0,25 0,31 1,2 0,5 0,8 1,2 1,8 1,11l6 62 5 33c2,7 1,3 4,8l2 17c0,2 0,2 0,4 1,2 5,17 5,19 0,1 1,4 1,5 0,1 10,32 10,33 1,1 0,0 0,2 1,1 1,1 1,2 1,1 1,1 1,2 1,2 0,1 1,2 1,3 1,5 2,7 1,2 2,5 3,7 0,1 0,2 1,3 0,2 0,1 1,3 0,1 1,4 2,5 0,2 5,13 6,16 1,4 6,13 6,16 1,1 3,5 3,6 1,2 4,8 4,10 1,1 1,1 2,2 0,2 2,3 2,5 4,6 8,19 13,25 0,0 0,2 2,4 2,1 13,6 16,7 0,2 1,5 1,7l4 3 8 0c3,1 9,1 13,1l9 0c3,1 10,1 10,1l62 8c1,1 2,1 3,1l1 0c1,0 2,0 3,1l114 16c1,1 2,0 4,0 3,1 11,1 12,1 5,1 30,1 34,1 4,-1 12,-1 13,-1l7 -1c4,0 8,0 12,-1 1,0 1,0 2,0 2,-1 1,-1 3,-1l7 -1c5,-2 13,-3 19,-4 5,-1 16,-5 20,-6 3,-2 9,-3 13,-5 5,-2 10,-3 14,-5 30,-14 54,-26 83,-43 30,-17 53,-29 83,-43 5,-2 9,-4 14,-6 4,-1 11,-3 14,-5 1,0 1,0 2,-1 2,0 1,0 2,-1 2,0 1,0 2,0 3,-1 15,-5 20,-6 6,-2 18,-4 25,-6l40 -4c2,-1 2,-1 4,-1 2,-1 8,0 11,0 3,-1 27,0 32,0 3,1 10,0 13,0 4,1 12,0 14,1l107 9c4,1 16,1 16,1 3,1 14,1 14,1 3,1 13,0 16,0 3,1 19,0 23,0 2,-1 9,0 12,0 5,-1 14,-1 17,-1l24 -3c1,0 1,0 3,0l9 -2c8,-2 19,-3 28,-6 19,-6 38,-12 55,-23 5,-3 10,-5 14,-8l17 -13c7,-6 17,-16 24,-24 0,-1 1,-2 2,-3 10,-10 23,-33 29,-46 4,-8 7,-15 10,-23 1,-4 3,-7 5,-11 1,-3 3,-9 4,-12 0,-2 0,-1 1,-2 0,-3 4,-14 5,-18 3,-11 6,-23 9,-35 1,-5 2,-13 4,-18 0,-2 2,-15 3,-17l7 -38c0,-2 1,-6 2,-8 2,-11 6,-36 10,-46 1,-7 3,-14 5,-20 1,-7 4,-14 6,-20 7,-26 22,-57 37,-80 3,-1 7,-3 10,-4l-3 -20c0,-1 0,-1 0,-2 -3,-6 -6,-16 -9,-23 -2,-5 -9,-18 -10,-23 -1,-1 0,-1 -1,-2 0,-1 -1,-1 -1,-2 -1,-1 -1,-1 -1,-2 -1,-1 -1,-2 -1,-3 -1,-1 -2,-4 -3,-6 -2,-1 -5,-3 -7,-3 0,-5 -3,-12 -3,-16l-7 -13c-11,-21 -37,-60 -51,-79 -6,-9 -15,-18 -20,-26l-29 -33c-2,-3 -5,-6 -8,-8 -1,-2 -3,-3 -4,-5l-21 -7c-1,-3 -1,-2 -3,-4l-11 -13c0,-1 -1,-1 -1,-2l-8 -9c-3,-4 -8,-8 -10,-11 -2,-3 -15,-16 -17,-18 -3,-2 -10,-7 -13,-10 -5,-1 -10,-3 -15,-4 0,-2 -3,-6 -3,-9 -13,-8 -25,-16 -37,-24 -7,-4 -13,-8 -19,-11 -4,-2 -15,-8 -18,-10 -3,-1 -19,-9 -22,-11l-15 -3c-4,-8 -2,-5 -9,-8 -1,-1 -2,-1 -3,-1 -5,-4 -18,-7 -23,-10 -2,-1 -1,0 -2,-1 -2,0 -4,-1 -6,-2 -1,0 -3,-1 -4,-2 -2,0 0,1 -2,0 -1,-1 -2,-1 -3,-2 -2,0 -3,-1 -4,-1 -2,0 -3,-1 -4,-2 -2,0 -3,-1 -5,-1l-11 -2c-3,0 -5,-1 -8,-1 -1,-1 -2,-3 -3,-4 -2,-1 -9,-3 -11,-3 -2,-2 -19,-6 -22,-7 -7,-1 -17,-3 -23,-5 -2,0 -2,0 -3,-1l-2 0c0,0 -1,0 -2,-1l-1 0c-1,0 -2,0 -2,0l-11 -2c-2,0 -3,-1 -4,-1l-14 -2c-3,-1 -8,-1 -8,-1l-10 -1c-6,-1 -4,1 -9,1 -1,-1 -2,-2 -3,-4l-32 -2c-3,-1 -10,-1 -10,-1 -2,-1 -5,0 -7,0 -3,-1 -9,-1 -13,-1 -2,-1 -7,0 -10,0 -3,-1 -18,-1 -22,-1z"/>
   <path class="fil1 str1" d="M20 614l0 2c-1,1 -1,2 -1,3l0 2c0,1 0,2 -1,3l0 7c-1,1 -1,1 -1,3l0 6c-1,1 -1,1 -1,3l-2 23c0,2 0,3 0,5 -1,3 -1,7 -1,10 -1,7 0,17 0,17 -1,3 -1,6 -1,9l15 1c1,1 2,0 3,0 9,3 19,4 28,6 8,2 19,4 27,6l26 4c1,1 0,1 2,1l91 11c3,0 10,0 11,0 2,1 4,1 6,1 3,0 11,0 13,1 3,0 15,0 15,0 3,1 7,1 10,1 4,1 51,0 59,0 3,-1 6,0 9,0 4,-1 15,-1 16,-1 3,-1 10,-1 11,-1 4,0 10,0 12,-1l101 -12 10 -2c3,0 11,-2 15,-3 5,-1 10,-2 15,-3 10,-3 20,-4 30,-7 13,-4 31,-8 45,-13 2,-1 12,-4 14,-4 2,-1 1,-1 3,-1 1,-1 0,-1 2,-1 3,-2 11,-4 15,-5 5,-2 10,-4 15,-6 10,-4 20,-8 30,-12 11,-4 20,-8 30,-13 7,-3 27,-12 31,-15 6,-2 29,-15 36,-19 12,-7 24,-14 36,-22 11,-8 24,-16 35,-25 6,-4 12,-9 18,-13 6,-4 12,-10 18,-14l38 -33c2,-1 3,-3 5,-5 2,-2 5,-4 7,-6 5,-4 20,-20 25,-26 4,-3 9,-9 11,-11 6,-7 12,-13 18,-20l14 -17c7,-7 17,-21 24,-30 7,-10 14,-20 21,-30 7,-11 14,-21 20,-31 6,-10 11,-21 17,-31 13,-21 34,-66 43,-91 1,-5 3,-10 5,-15 2,-4 4,-13 6,-16 0,-2 3,-12 4,-15 2,-5 3,-10 5,-15l0 -2c0,-2 1,-2 2,-4 0,-2 -3,-6 -3,-9 -13,-8 -25,-16 -37,-24 -7,-4 -13,-8 -19,-11 -4,-2 -15,-8 -18,-10 -3,-1 -19,-9 -22,-11l-15 -3c-1,1 -1,1 -2,2 0,2 -2,6 -2,8 -3,5 -9,15 -12,20 -8,12 -20,29 -28,40 -5,6 -11,15 -16,20l-13 16c-5,7 -13,15 -19,21 -2,3 -7,8 -10,11 -6,6 -21,23 -27,27 -2,2 -4,5 -7,6 -1,2 -3,4 -5,5l-41 35c-7,5 -14,12 -22,18 -7,5 -14,11 -22,16 -14,10 -29,20 -43,30 -21,14 -66,41 -88,52 -30,15 -58,29 -88,42 -15,6 -29,12 -44,18 -6,2 -39,15 -44,15 -1,1 -6,3 -8,3 -1,1 0,1 -2,1 -3,2 -15,5 -19,7 -7,1 -13,3 -19,5 -22,6 -54,16 -76,21 -13,2 -24,6 -38,8 -3,1 -20,5 -23,5 -2,0 -4,0 -6,1l-25 4 -103 12c0,0 -9,0 -12,1 -1,0 -11,0 -14,0 -1,1 -10,1 -14,1 -4,0 -20,0 -23,0 -5,0 -27,1 -30,0 -4,0 -21,1 -24,0 -3,0 -9,0 -12,-1 -1,1 -2,2 -3,2 -1,1 -5,21 -5,24 0,1 -1,2 -1,4l-3 16c0,0 0,1 -1,2l-1 8c0,1 0,2 0,3l0 2c-1,1 -1,2 -1,3z"/>
   <path class="fil2 str1" d="M722 639c-4,3 -24,12 -31,15 -10,5 -19,9 -30,13 -10,4 -20,8 -30,12 -5,2 -10,4 -15,6 -4,1 -12,3 -15,5 -2,0 -1,0 -2,1 -2,0 -1,0 -3,1 -2,0 -12,3 -14,4 -14,5 -32,9 -45,13 -10,3 -20,4 -30,7 -5,1 -10,2 -15,3 -4,1 -12,3 -15,3l-10 2 -101 12c-2,1 -8,1 -12,1 -1,0 -8,0 -11,1 -1,0 -12,0 -16,1 -3,0 -6,-1 -9,0 -8,0 -55,1 -59,0 -3,0 -7,0 -10,-1 0,0 -12,0 -15,0 -2,-1 -10,-1 -13,-1 -2,0 -4,0 -6,-1 -1,0 -8,0 -11,0l-91 -11c-2,0 -1,0 -2,-1l-26 -4c-8,-2 -19,-4 -27,-6 -9,-2 -19,-3 -28,-6 -1,0 -2,1 -3,0l-15 -1c-1,3 0,25 0,31 1,2 0,5 0,8 1,2 1,8 1,11l6 62 5 33c2,7 1,3 4,8 3,0 12,2 15,3 4,0 30,12 36,14 6,3 12,5 18,8 5,1 15,4 18,7 2,0 9,2 10,3 2,0 1,0 3,1 1,0 0,0 2,1 3,0 19,5 23,6l36 7c1,1 1,0 3,0l13 2c4,0 10,0 12,1 3,1 28,0 33,0 3,-1 12,-1 13,-1l42 -5 18 -4c6,-1 11,-2 16,-3 6,-1 11,-3 16,-4 4,-1 13,-5 17,-5 3,-1 15,-4 19,-6 5,-1 15,-4 19,-6 5,-1 36,-13 43,-16 14,-5 28,-11 42,-16 15,-6 29,-11 43,-17 7,-3 14,-6 21,-8 5,-2 18,-6 22,-8 1,0 9,-3 10,-4 2,0 1,1 2,0 2,0 1,0 2,-1 2,0 1,0 3,-1 1,0 0,0 2,0 2,-1 17,-6 21,-7 13,-5 28,-8 42,-11 6,-2 15,-3 21,-5l44 -7c3,0 9,0 10,0l9 -1c2,-1 8,0 11,0 3,-1 16,-1 20,-1 3,1 9,1 12,1 4,0 15,0 17,0 3,1 13,1 14,1 3,1 12,1 12,1 3,0 11,0 12,1 4,0 12,0 14,0 2,1 9,1 12,1 3,1 20,0 24,0 3,-1 14,-1 15,-1l28 -3c3,-1 7,-2 10,-2 17,-3 38,-13 53,-22 7,-4 16,-11 23,-17 4,-3 15,-14 20,-20 0,-1 1,-2 2,-3 10,-10 23,-33 29,-46 4,-7 8,-14 11,-22 2,-6 6,-19 8,-23 1,-3 4,-11 5,-15 1,-5 2,-9 3,-14 3,-9 4,-21 7,-29l19 -151 5 -30c0,-5 6,-27 8,-33 7,-23 14,-45 27,-66 3,-6 6,-11 10,-17 5,-7 10,-14 16,-21l7 -7c1,-4 4,-17 7,-20l-78 -71c-1,2 -2,2 -2,4l0 2c-2,5 -3,10 -5,15 -1,3 -4,13 -4,15 -2,3 -4,12 -6,16 -2,5 -4,10 -5,15 -9,25 -30,70 -43,91 -6,10 -11,21 -17,31 -6,10 -13,20 -20,31 -7,10 -14,20 -21,30 -7,9 -17,23 -24,30l-14 17c-6,7 -12,13 -18,20 -2,2 -7,8 -11,11 -5,6 -20,22 -25,26 -2,2 -5,4 -7,6 -2,2 -3,4 -5,5l-38 33c-6,4 -12,10 -18,14 -6,4 -12,9 -18,13 -11,9 -24,17 -35,25 -12,8 -24,15 -36,22 -7,4 -30,17 -36,19z"/>
   <path class="fil3 str1" d="M728 778l-44 7c-6,2 -15,3 -21,5 -14,3 -29,6 -42,11 -4,1 -19,6 -21,7 -2,0 -1,0 -2,0 -2,1 -1,1 -3,1 -1,1 0,1 -2,1 -1,1 0,0 -2,0 -1,1 -9,4 -10,4 -4,2 -17,6 -22,8 -7,2 -14,5 -21,8 -14,6 -28,11 -43,17 -14,5 -28,11 -42,16 -7,3 -38,15 -43,16 -4,2 -14,5 -19,6 -4,2 -16,5 -19,6 -4,0 -13,4 -17,5 -5,1 -10,3 -16,4 -5,1 -10,2 -16,3l-18 4 -42 5c-1,0 -10,0 -13,1 -5,0 -30,1 -33,0 -2,-1 -8,-1 -12,-1l-13 -2c-2,0 -2,1 -3,0l-36 -7c-4,-1 -20,-6 -23,-6 -2,-1 -1,-1 -2,-1 -2,-1 -1,-1 -3,-1 -1,-1 -8,-3 -10,-3 -3,-3 -13,-6 -18,-7 -6,-3 -12,-5 -18,-8 -6,-2 -32,-14 -36,-14 -3,-1 -12,-3 -15,-3l2 17c0,2 0,2 0,4 1,2 5,17 5,19 0,1 1,4 1,5 0,1 10,32 10,33 1,1 0,0 0,2 1,1 1,1 1,2 1,1 1,1 1,2 1,2 0,1 1,2 1,3 1,5 2,7 1,2 2,5 3,7 0,1 0,2 1,3 0,2 0,1 1,3 0,1 1,4 2,5 0,2 5,13 6,16 1,4 6,13 6,16 1,1 3,5 3,6 1,2 4,8 4,10 1,1 1,1 2,2 0,2 2,3 2,5 4,6 8,19 13,25 0,0 0,2 2,4 2,1 13,6 16,7 4,-3 4,-5 6,-8 2,-2 27,-7 35,-9l24 -3c2,0 2,0 3,0l18 -2c2,0 5,0 7,0 2,-1 8,0 11,0 3,-1 9,-1 13,-1 2,-1 14,0 18,0 3,1 16,0 20,0 2,1 5,1 7,1 3,0 13,0 16,0 2,1 5,0 8,0 3,1 20,1 25,1 3,1 32,0 38,0 2,-1 9,0 12,0 4,-1 12,-1 13,-1 3,-1 6,0 8,-1l20 -2c1,0 1,0 2,-1l11 -1c7,-2 16,-3 23,-5 7,-2 15,-4 22,-7 7,-3 14,-5 22,-8 4,-2 19,-9 22,-11 1,0 0,0 1,-1 5,-1 38,-20 45,-24 29,-18 59,-38 89,-53 11,-6 22,-11 34,-16 3,-1 8,-2 11,-4 2,0 1,0 2,-1 2,0 1,0 2,-1 3,0 14,-4 17,-5l37 -6c4,-1 9,-1 9,-1 1,-1 2,0 3,0 3,-1 7,-1 10,-1 3,-1 16,0 20,0 2,1 10,0 13,0l9 1c3,0 9,1 10,1l98 10c4,1 10,1 10,1 2,1 5,0 8,0 3,1 11,1 14,1 3,1 7,0 11,0 2,-1 8,0 11,0 4,-1 8,0 11,-1l12 -1c2,-1 1,-1 3,-1 1,0 1,0 2,0l15 -3c4,-1 7,-2 11,-3 16,-4 35,-13 48,-22 9,-5 16,-11 24,-17l7 -6c2,-2 11,-10 13,-12 4,-5 8,-10 12,-14 4,-6 10,-12 14,-18 5,-6 8,-12 12,-18 8,-11 15,-24 20,-36 9,-18 17,-36 23,-54 2,-4 5,-14 7,-18 0,-3 6,-19 7,-22 3,-8 5,-15 8,-23 2,-7 4,-15 7,-22 1,-4 7,-20 7,-23 1,-1 1,-1 1,-2 1,-2 0,-1 1,-2 0,-2 0,-1 0,-2 1,-2 1,-1 1,-3 1,-1 1,0 1,-2 1,-1 0,0 0,-2 1,-1 2,-2 2,-4 2,-4 4,-13 6,-18 3,-6 5,-12 7,-18 5,-12 11,-23 16,-35 6,-15 21,-40 31,-54l17 -22c3,-3 14,-16 16,-17 3,-1 7,-2 9,-4 0,-5 -3,-12 -3,-16l-7 -13c-11,-21 -37,-60 -51,-79 -6,-9 -15,-18 -20,-26l-29 -33c-2,-3 -5,-6 -8,-8 -1,-2 -3,-3 -4,-5l-21 -7c-3,3 -6,16 -7,20l-7 7c-6,7 -11,14 -16,21 -4,6 -7,11 -10,17 -13,21 -20,43 -27,66 -2,6 -8,28 -8,33l-5 30 -19 151c-3,8 -4,20 -7,29 -1,5 -2,9 -3,14 -1,4 -4,12 -5,15 -2,4 -6,17 -8,23 -3,8 -7,15 -11,22 -6,13 -19,36 -29,46 -1,1 -2,2 -2,3 -5,6 -16,17 -20,20 -7,6 -16,13 -23,17 -15,9 -36,19 -53,22 -3,0 -7,1 -10,2l-28 3c-1,0 -12,0 -15,1 -4,0 -21,1 -24,0 -3,0 -10,0 -12,-1 -2,0 -10,0 -14,0 -1,-1 -9,-1 -12,-1 0,0 -9,0 -12,-1 -1,0 -11,0 -14,-1 -2,0 -13,0 -17,0 -3,0 -9,0 -12,-1 -4,0 -17,0 -20,1 -3,0 -9,-1 -11,0l-9 1c-1,0 -7,0 -10,0z"/>
   <path class="fil1 str1" d="M796 891c-4,0 -17,-1 -20,0 -3,0 -7,0 -10,1 -1,0 -2,-1 -3,0 0,0 -5,0 -9,1l-37 6c-3,1 -14,5 -17,5 -1,1 0,1 -2,1 -1,1 0,1 -2,1 -3,2 -8,3 -11,4 -12,5 -23,10 -34,16 -30,15 -60,35 -89,53 -7,4 -40,23 -45,24 -1,1 0,1 -1,1 -3,2 -18,9 -22,11 -8,3 -15,5 -22,8 -7,3 -15,5 -22,7 -7,2 -16,3 -23,5l-11 1c-1,1 -1,1 -2,1l-20 2c-2,1 -5,0 -8,1 -1,0 -9,0 -13,1 -3,0 -10,-1 -12,0 -6,0 -35,1 -38,0 -5,0 -22,0 -25,-1 -3,0 -6,1 -8,0 -3,0 -13,0 -16,0 -2,0 -5,0 -7,-1 -4,0 -17,1 -20,0 -4,0 -16,-1 -18,0 -4,0 -10,0 -13,1 -3,0 -9,-1 -11,0 -2,0 -5,0 -7,0l-18 2c-1,0 -1,0 -3,0l-24 3c-8,2 -33,7 -35,9 -2,3 -2,5 -6,8l1 6c0,0 0,0 0,1l4 3 8 0c3,1 9,1 13,1l9 0c3,1 10,1 10,1l62 8c1,1 2,1 3,1l1 0c1,0 2,0 3,1l114 16c1,1 2,0 4,0 3,1 11,1 12,1 5,1 30,1 34,1 4,-1 12,-1 13,-1l7 -1c4,0 8,0 12,-1 1,0 1,0 2,0 2,-1 1,-1 3,-1l7 -1c5,-2 13,-3 19,-4 5,-1 16,-5 20,-6 3,-2 9,-3 13,-5 5,-2 10,-3 14,-5 30,-14 54,-26 83,-43 30,-17 53,-29 83,-43 5,-2 9,-4 14,-6 4,-1 11,-3 14,-5 1,0 1,0 2,-1 2,0 1,0 2,-1 2,0 1,0 2,0 3,-1 15,-5 20,-6 6,-2 18,-4 25,-6l40 -4c2,-1 2,-1 4,-1 2,-1 8,0 11,0 3,-1 27,0 32,0 3,1 10,0 13,0 4,1 12,0 14,1l107 9c4,1 16,1 16,1 3,1 14,1 14,1 3,1 13,0 16,0 3,1 19,0 23,0 2,-1 9,0 12,0 5,-1 14,-1 17,-1l24 -3c1,0 1,0 3,0l9 -2c8,-2 19,-3 28,-6 19,-6 38,-12 55,-23 5,-3 10,-5 14,-8l17 -13c7,-6 17,-16 24,-24 0,-1 1,-2 2,-3 10,-10 23,-33 29,-46 4,-8 7,-15 10,-23 1,-4 3,-7 5,-11 1,-3 3,-9 4,-12 0,-2 0,-1 1,-2 0,-3 4,-14 5,-18 3,-11 6,-23 9,-35 1,-5 2,-13 4,-18 0,-2 2,-15 3,-17l7 -38c0,-2 1,-6 2,-8 2,-11 6,-36 10,-46 1,-7 3,-14 5,-20 1,-7 4,-14 6,-20 7,-26 22,-57 37,-80 3,-1 7,-3 10,-4l-36 -86c-2,2 -6,3 -9,4 -2,1 -13,14 -16,17l-17 22c-10,14 -25,39 -31,54 -5,12 -11,23 -16,35 -2,6 -4,12 -7,18 -2,5 -4,14 -6,18 0,2 -1,3 -2,4 0,2 1,1 0,2 0,2 0,1 -1,2 0,2 0,1 -1,3 0,1 0,0 0,2 -1,1 0,0 -1,2 0,1 0,1 -1,2 0,3 -6,19 -7,23 -3,7 -5,15 -7,22 -3,8 -5,15 -8,23 -1,3 -7,19 -7,22 -2,4 -5,14 -7,18 -6,18 -14,36 -23,54 -5,12 -12,25 -20,36 -4,6 -7,12 -12,18 -4,6 -10,12 -14,18 -4,4 -8,9 -12,14 -2,2 -11,10 -13,12l-7 6c-8,6 -15,12 -24,17 -13,9 -32,18 -48,22 -4,1 -7,2 -11,3l-15 3c-1,0 -1,0 -2,0 -2,0 -1,0 -3,1l-12 1c-3,1 -7,0 -11,1 -3,0 -9,-1 -11,0 -4,0 -8,1 -11,0 -3,0 -11,0 -14,-1 -3,0 -6,1 -8,0 0,0 -6,0 -10,-1l-98 -10c-1,0 -7,-1 -10,-1l-9 -1c-3,0 -11,1 -13,0z"/>
   <path class="fil4 str1" d="M785 962l-40 4c-7,2 -19,4 -25,6 -5,1 -17,5 -20,6 -1,0 0,0 -2,0 -1,1 0,1 -2,1 -1,1 -1,1 -2,1 -3,2 -10,4 -14,5 -5,2 -9,4 -14,6 -30,14 -53,26 -83,43 -29,17 -53,29 -83,43 -4,2 -9,3 -14,5 -4,2 -10,3 -13,5 -4,1 -15,5 -20,6 -6,1 -14,2 -19,4l-7 1c-2,0 -1,0 -3,1 -1,0 -1,0 -2,0 -4,1 -8,1 -12,1l-7 1c-1,0 -9,0 -13,1 -4,0 -29,0 -34,-1 -1,0 -9,0 -12,-1 -2,0 -3,1 -4,0l-114 -16c-1,-1 -2,-1 -3,-1l-1 0c-1,0 -2,0 -3,-1l-62 -8c0,0 -7,0 -10,-1l-9 0c-4,0 -10,0 -13,-1l-8 0 -4 -3 -1 1c1,6 4,15 4,21 2,2 10,15 11,17 1,1 1,1 2,2 1,2 0,1 1,2 1,2 1,1 1,3 4,3 7,10 10,14l21 27c3,5 8,10 11,14l30 34c5,6 23,25 28,29 5,4 11,11 14,13 8,6 16,14 24,21 1,1 2,1 3,2l11 9c7,7 19,14 26,20 7,0 19,6 25,6 3,-2 3,-3 6,-4l23 0c1,-1 3,0 5,0 4,-1 10,-1 12,-1l50 -7c4,-1 9,-1 13,-2 5,0 20,-5 25,-6 23,-6 40,-12 62,-21 4,-2 9,-4 13,-6 15,-6 36,-19 50,-28 8,-6 17,-12 25,-18 8,-6 17,-14 25,-19l79 -65c5,-5 14,-11 20,-16 15,-12 44,-32 60,-40 6,-3 13,-7 20,-10 6,-3 13,-6 20,-9 6,-2 13,-4 19,-6 9,-2 24,-6 33,-7l8 -1c1,0 1,0 2,0 4,-1 9,-1 9,-1l8 -1c3,-1 8,0 11,0 3,-1 18,0 23,0 2,1 9,0 12,0 4,1 12,0 13,1l69 5c3,1 10,1 10,1 2,1 5,0 7,0 3,1 11,1 12,1 5,1 37,2 41,1 3,-1 13,-1 13,-1l6 -1c4,0 8,0 13,-1 1,0 0,0 2,0l7 -1c4,-1 8,-2 12,-3 10,-2 26,-7 35,-11 8,-4 15,-8 23,-12 8,-5 21,-15 30,-22 3,-3 16,-15 18,-18l12 -13 21 -29c6,-9 11,-17 16,-26 10,-17 18,-35 27,-53 8,-17 15,-36 22,-53l16 -39c2,-4 5,-11 6,-14 1,-2 5,-11 6,-14 2,-4 5,-10 7,-14 4,-2 10,-5 14,-7 0,-1 1,-4 1,-5l0 -2c1,-3 1,-7 3,-11l0 -8c-1,-5 -1,-15 -1,-17l-1 -9c0,-4 0,-6 -1,-9l-3 -27c0,-2 0,-2 0,-4 -1,-1 -1,-2 -1,-3l0 -1c0,-2 0,-2 -1,-3l0 -2c0,-1 0,-2 0,-3l-2 -12c0,-1 0,-1 -1,-2l0 -2c0,-1 0,-2 0,-3l0 -1c-1,-1 -1,-2 -1,-3l-3 -14c0,-2 -4,-20 -5,-23 0,-4 -4,-11 -4,-15 -1,-1 -1,-1 -1,-2 -1,-2 0,-1 0,-3 -1,-1 -7,-21 -7,-22 -1,-2 -2,-6 -2,-7 -1,-1 -1,-1 -1,-2 -1,-2 -1,-1 -1,-2 -2,-2 -4,-3 -6,-4 -3,1 -7,3 -10,4 -15,23 -30,54 -37,80 -2,6 -5,13 -6,20 -2,6 -4,13 -5,20 -4,10 -8,35 -10,46 -1,2 -2,6 -2,8l-7 38c-1,2 -3,15 -3,17 -2,5 -3,13 -4,18 -3,12 -6,24 -9,35 -1,4 -5,15 -5,18 -1,1 -1,0 -1,2 -1,3 -3,9 -4,12 -2,4 -4,7 -5,11 -3,8 -6,15 -10,23 -6,13 -19,36 -29,46 -1,1 -2,2 -2,3 -7,8 -17,18 -24,24l-17 13c-4,3 -9,5 -14,8 -17,11 -36,17 -55,23 -9,3 -20,4 -28,6l-9 2c-2,0 -2,0 -3,0l-24 3c-3,0 -12,0 -17,1 -3,0 -10,-1 -12,0 -4,0 -20,1 -23,0 -3,0 -13,1 -16,0 0,0 -11,0 -14,-1 0,0 -12,0 -16,-1l-107 -9c-2,-1 -10,0 -14,-1 -3,0 -10,1 -13,0 -5,0 -29,-1 -32,0 -3,0 -9,-1 -11,0 -2,0 -2,0 -4,1z"/>
   <path class="fil2 str1" d="M745 966l40 -4c2,-1 2,-1 4,-1 2,-1 8,0 11,0 3,-1 27,0 32,0 3,1 10,0 13,0 4,1 12,0 14,1l107 9c4,1 16,1 16,1 3,1 14,1 14,1 3,1 13,0 16,0 3,1 19,0 23,0 2,-1 9,0 12,0 5,-1 14,-1 17,-1l24 -3c1,0 1,0 3,0l9 -2c8,-2 19,-3 28,-6 19,-6 38,-12 55,-23 5,-3 10,-5 14,-8l17 -13c7,-6 17,-16 24,-24 0,-1 1,-2 2,-3 10,-10 23,-33 29,-46 4,-8 7,-15 10,-23 1,-4 3,-7 5,-11 1,-3 3,-9 4,-12 0,-2 0,-1 1,-2 0,-3 4,-14 5,-18 3,-11 6,-23 9,-35 1,-5 2,-13 4,-18 0,-2 2,-15 3,-17l7 -38c0,-2 1,-6 2,-8 2,-11 6,-36 10,-46 1,-7 3,-14 5,-20 1,-7 4,-14 6,-20 7,-26 22,-57 37,-80 3,-1 7,-3 10,-4l-36 -86c-2,2 -6,3 -9,4 -2,1 -13,14 -16,17l-17 22c-10,14 -25,39 -31,54 -5,12 -11,23 -16,35 -2,6 -4,12 -7,18 -2,5 -4,14 -6,18 0,2 -1,3 -2,4 0,2 1,1 0,2 0,2 0,1 -1,2 0,2 0,1 -1,3 0,1 0,0 0,2 -1,1 0,0 -1,2 0,1 0,1 -1,2 0,3 -6,19 -7,23 -3,7 -5,15 -7,22 -3,8 -5,15 -8,23 -1,3 -7,19 -7,22 -2,4 -5,14 -7,18 -6,18 -14,36 -23,54 -5,12 -12,25 -20,36 -4,6 -7,12 -12,18 -4,6 -10,12 -14,18 -4,4 -8,9 -12,14 -2,2 -11,10 -13,12l-7 6c-8,6 -15,12 -24,17 -13,9 -32,18 -48,22 -4,1 -7,2 -11,3l-15 3c-1,0 -1,0 -2,0 -2,0 -1,0 -3,1l-12 1c-3,1 -7,0 -11,1 -3,0 -9,-1 -11,0 -4,0 -8,1 -11,0 -3,0 -11,0 -14,-1 -3,0 -6,1 -8,0 0,0 -6,0 -10,-1l-98 -10c-1,0 -7,-1 -10,-1l-9 -1c-3,0 -11,1 -13,0 -4,0 -17,-1 -20,0 -3,0 -7,0 -10,1 -1,0 -2,-1 -3,0 0,0 -5,0 -9,1l-37 6c-3,1 -14,5 -17,5 -1,1 0,1 -2,1 -1,1 0,1 -2,1 -3,2 -8,3 -11,4 -12,5 -23,10 -34,16 -30,15 -60,35 -89,53 -7,4 -40,23 -45,24 -1,1 0,1 -1,1 -3,2 -18,9 -22,11 -8,3 -15,5 -22,8 -7,3 -15,5 -22,7 -7,2 -16,3 -23,5l-11 1c-1,1 -1,1 -2,1l-20 2c-2,1 -5,0 -8,1 -1,0 -9,0 -13,1 -3,0 -10,-1 -12,0 -6,0 -35,1 -38,0 -5,0 -22,0 -25,-1 -3,0 -6,1 -8,0 -3,0 -13,0 -16,0 -2,0 -5,0 -7,-1 -4,0 -17,1 -20,0 -4,0 -16,-1 -18,0 -4,0 -10,0 -13,1 -3,0 -9,-1 -11,0 -2,0 -5,0 -7,0l-18 2c-1,0 -1,0 -3,0l-24 3c-8,2 -33,7 -35,9 -2,3 -2,5 -6,8l1 6c0,0 0,0 0,1l4 3 8 0c3,1 9,1 13,1l9 0c3,1 10,1 10,1l62 8c1,1 2,1 3,1l1 0c1,0 2,0 3,1l114 16c1,1 2,0 4,0 3,1 11,1 12,1 5,1 30,1 34,1 4,-1 12,-1 13,-1l7 -1c4,0 8,0 12,-1 1,0 1,0 2,0 2,-1 1,-1 3,-1l7 -1c5,-2 13,-3 19,-4 5,-1 16,-5 20,-6 3,-2 9,-3 13,-5 5,-2 10,-3 14,-5 30,-14 54,-26 83,-43 30,-17 53,-29 83,-43 5,-2 9,-4 14,-6 4,-1 11,-3 14,-5 1,0 1,0 2,-1 2,0 1,0 2,-1 2,0 1,0 2,0 3,-1 15,-5 20,-6 6,-2 18,-4 25,-6z"/>
   <path class="fil1 str1" d="M785 962l-40 4c-7,2 -19,4 -25,6 -5,1 -17,5 -20,6 -1,0 0,0 -2,0 -1,1 0,1 -2,1 -1,1 -1,1 -2,1 -3,2 -10,4 -14,5 -5,2 -9,4 -14,6 -30,14 -53,26 -83,43 -29,17 -53,29 -83,43 -4,2 -9,3 -14,5 -4,2 -10,3 -13,5 -4,1 -15,5 -20,6 -6,1 -14,2 -19,4l-7 1c-2,0 -1,0 -3,1 -1,0 -1,0 -2,0 -4,1 -8,1 -12,1l-7 1c-1,0 -9,0 -13,1 -4,0 -29,0 -34,-1 -1,0 -9,0 -12,-1 -2,0 -3,1 -4,0l-114 -16c-1,-1 -2,-1 -3,-1l-1 0c-1,0 -2,0 -3,-1l-62 -8c0,0 -7,0 -10,-1l-9 0c-4,0 -10,0 -13,-1l-8 0 -4 -3 -1 1c1,6 4,15 4,21 2,2 10,15 11,17 1,1 1,1 2,2 1,2 0,1 1,2 1,2 1,1 1,3 4,3 7,10 10,14l21 27c3,5 8,10 11,14l30 34c5,6 23,25 28,29 5,4 11,11 14,13 8,6 16,14 24,21 1,1 2,1 3,2l11 9c7,7 19,14 26,20 7,0 19,6 25,6 3,-2 3,-3 6,-4l23 0c1,-1 3,0 5,0 4,-1 10,-1 12,-1l50 -7c4,-1 9,-1 13,-2 5,0 20,-5 25,-6 23,-6 40,-12 62,-21 4,-2 9,-4 13,-6 15,-6 36,-19 50,-28 8,-6 17,-12 25,-18 8,-6 17,-14 25,-19l79 -65c5,-5 14,-11 20,-16 15,-12 44,-32 60,-40 6,-3 13,-7 20,-10 6,-3 13,-6 20,-9 6,-2 13,-4 19,-6 9,-2 24,-6 33,-7l8 -1c1,0 1,0 2,0 4,-1 9,-1 9,-1l8 -1c3,-1 8,0 11,0 3,-1 18,0 23,0 2,1 9,0 12,0 4,1 12,0 13,1l69 5c3,1 10,1 10,1 2,1 5,0 7,0 3,1 11,1 12,1 5,1 37,2 41,1 3,-1 13,-1 13,-1l6 -1c4,0 8,0 13,-1 1,0 0,0 2,0l7 -1c4,-1 8,-2 12,-3 10,-2 26,-7 35,-11 8,-4 15,-8 23,-12 8,-5 21,-15 30,-22 3,-3 16,-15 18,-18l12 -13 21 -29c6,-9 11,-17 16,-26 10,-17 18,-35 27,-53 8,-17 15,-36 22,-53l16 -39c2,-4 5,-11 6,-14 1,-2 5,-11 6,-14 2,-4 5,-10 7,-14 4,-2 10,-5 14,-7 0,-1 1,-4 1,-5l0 -2c1,-3 1,-7 3,-11l0 -8c-1,-5 -1,-15 -1,-17l-1 -9c0,-4 0,-6 -1,-9l-3 -27c0,-2 0,-2 0,-4 -1,-1 -1,-2 -1,-3l0 -1c0,-2 0,-2 -1,-3l0 -2c0,-1 0,-2 0,-3l-2 -12c0,-1 0,-1 -1,-2l0 -2c0,-1 0,-2 0,-3l0 -1c-1,-1 -1,-2 -1,-3l-3 -14c0,-2 -4,-20 -5,-23 0,-4 -4,-11 -4,-15 -1,-1 -1,-1 -1,-2 -1,-2 0,-1 0,-3 -1,-1 -7,-21 -7,-22 -1,-2 -2,-6 -2,-7 -1,-1 -1,-1 -1,-2 -1,-2 -1,-1 -1,-2 -2,-2 -4,-3 -6,-4 -3,1 -7,3 -10,4 -15,23 -30,54 -37,80 -2,6 -5,13 -6,20 -2,6 -4,13 -5,20 -4,10 -8,35 -10,46 -1,2 -2,6 -2,8l-7 38c-1,2 -3,15 -3,17 -2,5 -3,13 -4,18 -3,12 -6,24 -9,35 -1,4 -5,15 -5,18 -1,1 -1,0 -1,2 -1,3 -3,9 -4,12 -2,4 -4,7 -5,11 -3,8 -6,15 -10,23 -6,13 -19,36 -29,46 -1,1 -2,2 -2,3 -7,8 -17,18 -24,24l-17 13c-4,3 -9,5 -14,8 -17,11 -36,17 -55,23 -9,3 -20,4 -28,6l-9 2c-2,0 -2,0 -3,0l-24 3c-3,0 -12,0 -17,1 -3,0 -10,-1 -12,0 -4,0 -20,1 -23,0 -3,0 -13,1 -16,0 0,0 -11,0 -14,-1 0,0 -12,0 -16,-1l-107 -9c-2,-1 -10,0 -14,-1 -3,0 -10,1 -13,0 -5,0 -29,-1 -32,0 -3,0 -9,-1 -11,0 -2,0 -2,0 -4,1z"/>
   <path class="fil5 str1" d="M802 1071c-16,8 -45,28 -60,40 -6,5 -15,11 -20,16l-79 65c-8,5 -17,13 -25,19 -8,6 -17,12 -25,18 -14,9 -35,22 -50,28 -4,2 -9,4 -13,6 -22,9 -39,15 -62,21 -5,1 -20,6 -25,6 -4,1 -9,1 -13,2l-50 7c-2,0 -8,0 -12,1 -2,0 -4,-1 -5,0l-23 0c-3,1 -3,2 -6,4 2,5 5,10 7,15 11,7 22,13 33,20 5,3 28,16 33,17 2,1 3,1 5,3 4,0 17,8 22,10 6,2 17,8 23,9l15 2 11 1c1,-3 3,-6 5,-8 3,0 12,-3 15,-4l47 -14c11,-4 21,-7 32,-10 5,-2 27,-10 31,-10 1,-1 0,-1 2,-1 1,-1 1,0 2,-1 1,0 1,0 2,0 2,-1 1,-1 2,-1 2,-1 1,-1 2,-1 2,-1 1,0 3,0 1,-1 0,-1 2,-1 1,-1 0,-1 2,-1 1,-1 0,0 2,-1 1,0 1,0 2,0 2,-1 1,-1 2,-1 2,-1 1,-1 2,-1 2,-1 1,0 3,0 1,-1 0,-1 2,-1 1,-1 0,-1 2,-1 1,-1 0,0 2,-1 1,0 1,0 2,0 1,-1 1,-1 2,-1 2,-1 1,-1 2,-1 2,0 1,0 3,0 1,-1 0,-1 2,-1 1,-1 0,-1 2,-1 1,-1 0,0 2,-1 1,0 0,0 2,0 1,-1 1,-1 2,-1 2,-1 1,-1 2,-1 2,0 1,0 2,0 4,-3 10,-3 14,-5 1,0 9,-3 10,-4 2,0 17,-5 18,-6 4,-1 27,-10 32,-12 11,-4 21,-8 32,-12 16,-7 32,-14 47,-22 5,-2 13,-5 16,-8 4,-1 21,-11 26,-13 28,-16 50,-32 77,-49 30,-18 46,-29 77,-43 5,-2 9,-4 13,-5 4,-2 10,-4 13,-6 2,0 1,0 3,0 2,-1 3,-2 5,-2 1,-1 0,0 2,0 5,-3 26,-9 32,-10 21,-6 44,-12 64,-18 8,-2 28,-6 33,-9 6,-1 64,-25 69,-30 5,-1 40,-22 47,-26 8,-6 16,-11 24,-17 7,-5 15,-13 23,-18 1,-1 2,-2 3,-3 4,-1 15,-5 19,-5l5 -8c1,-2 3,-4 4,-6 1,-1 1,-1 2,-2 9,-14 10,-21 15,-38 7,-20 16,-55 20,-76 1,-4 2,-11 3,-15l9 -70c1,-2 0,-3 0,-5 1,-4 1,-14 1,-14 1,-1 1,-3 1,-4 0,-3 0,-6 0,-8 1,-3 0,-13 0,-17 1,-2 1,-9 1,-12l-5 -5c-4,2 -10,5 -14,7 -2,4 -5,10 -7,14 -1,3 -5,12 -6,14 -1,3 -4,10 -6,14l-16 39c-7,17 -14,36 -22,53 -9,18 -17,36 -27,53 -5,9 -10,17 -16,26l-21 29 -12 13c-2,3 -15,15 -18,18 -9,7 -22,17 -30,22 -8,4 -15,8 -23,12 -9,4 -25,9 -35,11 -4,1 -8,2 -12,3l-7 1c-2,0 -1,0 -2,0 -5,1 -9,1 -13,1l-6 1c0,0 -10,0 -13,1 -4,1 -36,0 -41,-1 -1,0 -9,0 -12,-1 -2,0 -5,1 -7,0 0,0 -7,0 -10,-1l-69 -5c-1,-1 -9,0 -13,-1 -3,0 -10,1 -12,0 -5,0 -20,-1 -23,0 -3,0 -8,-1 -11,0l-8 1c0,0 -5,0 -9,1 -1,0 -1,0 -2,0l-8 1c-9,1 -24,5 -33,7 -6,2 -13,4 -19,6 -7,3 -14,6 -20,9 -7,3 -14,7 -20,10z"/>
   <path class="fil5 str1" d="M659 407c22,-11 67,-38 88,-52 14,-10 29,-20 43,-30 8,-5 15,-11 22,-16 8,-6 15,-13 22,-18l41 -35c2,-1 4,-3 5,-5 3,-1 5,-4 7,-6 6,-4 21,-21 27,-27 3,-3 8,-8 10,-11 6,-6 14,-14 19,-21l13 -16c5,-5 11,-14 16,-20 8,-11 20,-28 28,-40 3,-5 9,-15 12,-20 0,-2 2,-6 2,-8 1,-1 1,-1 2,-2l-84 -33c-2,4 -3,8 -4,12 -4,4 -12,13 -16,15 -2,3 -5,6 -7,8l-48 42c-7,4 -17,12 -24,18 -7,6 -15,12 -23,17 -15,11 -32,23 -47,32 -15,10 -31,21 -47,29 -8,4 -16,8 -24,13 -3,2 -20,11 -23,12 -1,1 -3,2 -4,2 -2,1 -5,3 -7,4 -4,3 -32,15 -38,18 -13,5 -25,11 -38,16 -12,5 -25,10 -37,15 -12,5 -34,13 -44,16 -3,2 -7,2 -9,4 -2,0 -1,-1 -3,0 -1,0 0,0 -2,1 -1,0 -1,0 -2,1 -1,0 -1,0 -2,0 -2,1 -1,0 -2,1 -1,0 -52,16 -52,16 -5,0 -17,5 -22,6 -7,2 -14,4 -21,6 -14,4 -29,7 -43,10 -14,3 -28,7 -43,10 -7,1 -14,3 -21,4l-30 6 -133 21c-2,1 -6,1 -9,1 0,0 -8,0 -11,1 -2,0 -2,0 -4,-1 -1,0 -7,4 -7,5 -2,2 -4,5 -4,7 -1,2 -1,2 -2,4 -1,2 -1,2 -2,4 0,1 0,1 -1,2 -1,3 -3,6 -4,9 -4,5 -6,17 -10,23 0,2 0,1 -1,2 0,2 -2,6 -2,7 -1,2 -2,5 -3,6 0,2 0,3 -1,4 0,2 -1,3 -1,4 -1,1 -1,3 -2,4 0,1 -1,3 -1,4 0,1 0,1 -1,2 0,1 -3,9 -4,10 0,4 -3,10 -3,14 -1,2 -3,8 -3,10 -1,2 -1,1 -1,3 -1,1 -1,4 -2,5l-2 18c3,1 9,1 12,1 3,1 20,0 24,0 3,1 25,0 30,0 3,0 19,0 23,0 4,0 13,0 14,-1 3,0 13,0 14,0 3,-1 12,-1 12,-1l103 -12 25 -4c2,-1 4,-1 6,-1 3,0 20,-4 23,-5 14,-2 25,-6 38,-8 22,-5 54,-15 76,-21 6,-2 12,-4 19,-5 4,-2 16,-5 19,-7 2,0 1,0 2,-1 2,0 7,-2 8,-3 5,0 38,-13 44,-15 15,-6 29,-12 44,-18 30,-13 58,-27 88,-42z"/>
   <path class="fil4 str1" d="M659 407c22,-11 67,-38 88,-52 14,-10 29,-20 43,-30 8,-5 15,-11 22,-16 8,-6 15,-13 22,-18l41 -35c2,-1 4,-3 5,-5 3,-1 5,-4 7,-6 6,-4 21,-21 27,-27 3,-3 8,-8 10,-11 6,-6 14,-14 19,-21l13 -16c5,-5 11,-14 16,-20 8,-11 20,-28 28,-40 3,-5 9,-15 12,-20 0,-2 2,-6 2,-8 1,-1 1,-1 2,-2l-84 -33c-2,4 -3,8 -4,12 -4,4 -12,13 -16,15 -2,3 -5,6 -7,8l-48 42c-7,4 -17,12 -24,18 -7,6 -15,12 -23,17 -15,11 -32,23 -47,32 -15,10 -31,21 -47,29 -8,4 -16,8 -24,13 -3,2 -20,11 -23,12 -1,1 -3,2 -4,2 -2,1 -5,3 -7,4 -4,3 -32,15 -38,18 -13,5 -25,11 -38,16 -12,5 -25,10 -37,15 -12,5 -34,13 -44,16 -3,2 -7,2 -9,4 -2,0 -1,-1 -3,0 -1,0 0,0 -2,1 -1,0 -1,0 -2,1 -1,0 -1,0 -2,0 -2,1 -1,0 -2,1 -1,0 -52,16 -52,16 -5,0 -17,5 -22,6 -7,2 -14,4 -21,6 -14,4 -29,7 -43,10 -14,3 -28,7 -43,10 -7,1 -14,3 -21,4l-30 6 -133 21c-2,1 -6,1 -9,1 0,0 -8,0 -11,1 -2,0 -2,0 -4,-1 -1,0 -7,4 -7,5 -2,2 -4,5 -4,7 -1,2 -1,2 -2,4 -1,2 -1,2 -2,4 0,1 0,1 -1,2 -1,3 -3,6 -4,9 -4,5 -6,17 -10,23 0,2 0,1 -1,2 0,2 -2,6 -2,7 -1,2 -2,5 -3,6 0,2 0,3 -1,4 0,2 -1,3 -1,4 -1,1 -1,3 -2,4 0,1 -1,3 -1,4 0,1 0,1 -1,2 0,1 -3,9 -4,10 0,4 -3,10 -3,14 -1,2 -3,8 -3,10 -1,2 -1,1 -1,3 -1,1 -1,4 -2,5l-2 18c3,1 9,1 12,1 3,1 20,0 24,0 3,1 25,0 30,0 3,0 19,0 23,0 4,0 13,0 14,-1 3,0 13,0 14,0 3,-1 12,-1 12,-1l103 -12 25 -4c2,-1 4,-1 6,-1 3,0 20,-4 23,-5 14,-2 25,-6 38,-8 22,-5 54,-15 76,-21 6,-2 12,-4 19,-5 4,-2 16,-5 19,-7 2,0 1,0 2,-1 2,0 7,-2 8,-3 5,0 38,-13 44,-15 15,-6 29,-12 44,-18 30,-13 58,-27 88,-42z"/>
   <path class="fil4 str1" d="M822 1061c-7,3 -14,7 -20,10 -16,8 -45,28 -60,40 -6,5 -15,11 -20,16l-79 65c-8,5 -17,13 -25,19 -8,6 -17,12 -25,18 -14,9 -35,22 -50,28 -4,2 -9,4 -13,6 -22,9 -39,15 -62,21 -5,1 -20,6 -25,6 -4,1 -9,1 -13,2l-50 7c-2,0 -8,0 -12,1 -2,0 -4,-1 -5,0l-23 0c-3,1 -3,2 -6,4 2,5 5,10 7,15 11,7 22,13 33,20 5,3 28,16 33,17 2,1 3,1 5,3 4,0 17,8 22,10 6,2 17,8 23,9l15 2 11 1c1,-3 3,-6 5,-8 3,0 12,-3 15,-4l47 -14c11,-4 21,-7 32,-10 5,-2 27,-10 31,-10 1,-1 0,-1 2,-1 1,-1 1,0 2,-1 1,0 1,0 2,0 2,-1 1,-1 2,-1 2,-1 1,-1 2,-1 2,-1 1,0 3,0 1,-1 0,-1 2,-1 1,-1 0,-1 2,-1 1,-1 0,0 2,-1 1,0 1,0 2,0 2,-1 1,-1 2,-1 2,-1 1,-1 2,-1 2,-1 1,0 3,0 1,-1 0,-1 2,-1 1,-1 0,-1 2,-1 1,-1 0,0 2,-1 1,0 1,0 2,0 1,-1 1,-1 2,-1 2,-1 1,-1 2,-1 2,0 1,0 3,0 1,-1 0,-1 2,-1 1,-1 0,-1 2,-1 1,-1 0,0 2,-1 1,0 0,0 2,0 1,-1 1,-1 2,-1 2,-1 1,-1 2,-1 2,0 1,0 2,0 4,-3 10,-3 14,-5 1,0 9,-3 10,-4 2,0 17,-5 18,-6 4,-1 27,-10 32,-12 11,-4 21,-8 32,-12 16,-7 32,-14 47,-22 5,-2 13,-5 16,-8 4,-1 21,-11 26,-13 28,-16 50,-32 77,-49 30,-18 46,-29 77,-43 5,-2 9,-4 13,-5 4,-2 10,-4 13,-6 2,0 1,0 3,0 2,-1 3,-2 5,-2 1,-1 0,0 2,0 5,-3 26,-9 32,-10 21,-6 44,-12 64,-18 8,-2 28,-6 33,-9 6,-1 64,-25 69,-30 5,-1 40,-22 47,-26 8,-6 16,-11 24,-17 7,-5 15,-13 23,-18 1,-1 2,-2 3,-3 4,-1 15,-5 19,-5l5 -8c1,-2 3,-4 4,-6 1,-1 1,-1 2,-2 9,-14 10,-21 15,-38 7,-20 16,-55 20,-76 1,-4 2,-11 3,-15l9 -70c1,-2 0,-3 0,-5 1,-4 1,-14 1,-14 1,-1 1,-3 1,-4 0,-3 0,-6 0,-8 1,-3 0,-13 0,-17 1,-2 1,-9 1,-12l-5 -5c-4,2 -10,5 -14,7 -2,4 -5,10 -7,14 -1,3 -5,12 -6,14 -1,3 -4,10 -6,14l-16 39c-7,17 -14,36 -22,53 -9,18 -17,36 -27,53 -5,9 -10,17 -16,26l-21 29 -12 13c-2,3 -15,15 -18,18 -9,7 -22,17 -30,22 -8,4 -15,8 -23,12 -9,4 -25,9 -35,11 -4,1 -8,2 -12,3l-7 1c-2,0 -1,0 -2,0 -5,1 -9,1 -13,1l-6 1c0,0 -10,0 -13,1 -4,1 -36,0 -41,-1 -1,0 -9,0 -12,-1 -2,0 -5,1 -7,0 0,0 -7,0 -10,-1l-69 -5c-1,-1 -9,0 -13,-1 -3,0 -10,1 -12,0 -5,0 -20,-1 -23,0 -3,0 -8,-1 -11,0l-8 1c0,0 -5,0 -9,1 -1,0 -1,0 -2,0l-8 1c-9,1 -24,5 -33,7 -6,2 -13,4 -19,6 -7,3 -14,6 -20,9z"/>
   <path class="fil5 str1" d="M545 300c12,-5 25,-10 37,-15 13,-5 25,-11 38,-16 6,-3 34,-15 38,-18 2,-1 5,-3 7,-4 1,0 3,-1 4,-2 3,-1 20,-10 23,-12 8,-5 16,-9 24,-13 16,-8 32,-19 47,-29 15,-9 32,-21 47,-32 8,-5 16,-11 23,-17 7,-6 17,-14 24,-18l48 -42c2,-2 5,-5 7,-8 4,-2 12,-11 16,-15 1,-4 2,-8 4,-12 -1,-1 -2,-3 -3,-4 -2,-1 -9,-3 -11,-3 -2,-2 -19,-6 -22,-7 -7,-1 -17,-3 -23,-5 -2,0 -2,0 -3,-1l-2 0c0,0 -1,0 -2,-1l-1 0c-1,0 -2,0 -2,0l-11 -2c-2,0 -3,-1 -4,-1l-14 -2c-3,-1 -8,-1 -8,-1l-10 -1c-6,-1 -4,1 -9,1 -1,4 -4,10 -5,14 -11,7 -23,16 -34,24 -10,8 -22,17 -33,24 -22,15 -44,31 -67,44 -23,14 -44,27 -67,40 -11,6 -22,13 -33,19 -6,3 -29,16 -33,17 -2,1 -1,1 -2,1 -4,3 -23,12 -29,15 -10,5 -20,10 -30,14 -20,9 -39,18 -59,27 -19,8 -39,16 -58,23 -10,4 -20,8 -30,12 -12,4 -26,9 -37,13 -3,1 -7,2 -9,3 -2,0 -1,0 -3,1 -1,0 0,0 -2,1 -1,0 0,0 -2,0 -1,1 -1,0 -2,1 -2,0 -1,0 -2,1 -2,0 -1,0 -2,1 -2,0 -1,-1 -2,0 -2,0 -1,0 -3,1 -2,0 -11,4 -15,5 -5,1 -10,3 -15,4 -10,3 -20,6 -30,9 -16,5 -31,9 -46,13 -5,1 -11,2 -15,4 -2,0 -2,0 -3,0l-13 2c-2,0 -3,0 -4,-1l-30 51c2,1 2,1 4,1 3,-1 11,-1 11,-1 3,0 7,0 9,-1l133 -21 30 -6c7,-1 14,-3 21,-4 15,-3 29,-7 43,-10 14,-3 29,-6 43,-10 7,-2 14,-4 21,-6 5,-1 17,-6 22,-6 0,0 51,-16 52,-16 1,-1 0,0 2,-1 1,0 1,0 2,0 1,-1 1,-1 2,-1 2,-1 1,-1 2,-1 2,-1 1,0 3,0 2,-2 6,-2 9,-4 10,-3 32,-11 44,-16z"/>
   <path class="fil5 str1" d="M1019 1142c-31,14 -47,25 -77,43 -27,17 -49,33 -77,49 -5,2 -22,12 -26,13 -3,3 -11,6 -16,8 -15,8 -31,15 -47,22 -11,4 -21,8 -32,12 -5,2 -28,11 -32,12 -1,1 -16,6 -18,6 -1,1 -9,4 -10,4 -4,2 -10,2 -14,5 -1,0 0,0 -2,0 -1,0 0,0 -2,1 -1,0 -1,0 -2,1 -2,0 -1,0 -2,0 -2,1 -1,0 -2,1 -2,0 -1,0 -2,1 -2,0 -1,0 -2,1 -2,0 -1,0 -3,0 -1,0 0,0 -2,1 -1,0 -1,0 -2,1 -1,0 -1,0 -2,0 -2,1 -1,0 -2,1 -2,0 -1,0 -2,1 -2,0 -1,0 -2,1 -2,0 -1,-1 -3,0 -1,0 0,0 -2,1 -1,0 0,0 -2,1 -1,0 -1,0 -2,0 -2,1 -1,0 -2,1 -2,0 -1,0 -2,1 -2,0 -1,0 -2,1 -2,0 -1,-1 -3,0 -1,0 0,0 -2,1 -1,0 0,0 -2,1 -1,0 -1,0 -2,0 -1,1 -1,0 -2,1 -2,0 -1,0 -2,1 -4,0 -26,8 -31,10 -11,3 -21,6 -32,10l-47 14c-3,1 -12,4 -15,4 -2,2 -4,5 -5,8 1,2 3,6 5,9 1,0 1,1 2,1 2,0 1,0 2,1 2,0 1,0 2,0 2,1 4,1 5,2 2,0 1,0 2,1 2,0 1,0 2,0 2,0 19,6 20,6 1,0 3,1 5,2 2,0 1,0 2,0 2,1 1,0 3,1 2,0 1,0 2,1 2,0 1,0 3,1 3,0 7,2 10,2 3,1 20,5 23,5l17 4c1,0 2,0 3,0l1 0c1,1 2,1 3,1l1 0c1,0 2,0 3,1l8 1c1,0 2,0 3,1l1 0c1,0 2,0 3,0l2 0c1,1 1,1 3,1l1 0c1,0 2,0 3,1 2,0 2,0 4,0l28 3c2,1 6,0 9,1l9 1c0,0 6,0 10,0 3,0 11,0 14,1 4,0 16,0 19,-1l15 -2c1,-1 1,0 2,0l6 -2c2,0 4,0 6,-1 3,-3 5,-9 8,-13 4,-3 12,-5 16,-7 15,-7 32,-15 47,-21 21,-9 42,-19 63,-29 21,-10 42,-18 63,-28 10,-4 21,-9 31,-12 6,-2 28,-11 31,-12 6,-3 24,-7 30,-10 10,-3 20,-6 30,-8 10,-3 20,-5 30,-8 6,-1 24,-6 30,-6l8 -2 23 -2 2 2 2 0c1,-1 3,-2 5,-2 1,-1 2,-1 3,-1 2,-1 0,-1 2,-1 2,-1 10,-5 12,-5 2,-1 0,-1 2,-1l20 -17c2,-2 5,-5 7,-8 5,-3 17,-16 22,-21 4,-5 8,-8 11,-11l15 -17c1,-1 2,-2 2,-3l2 -2c1,-1 2,-2 2,-3l2 -2c1,-1 1,-1 2,-2l2 -2c0,-1 1,-2 1,-2l7 -9c2,-2 3,-3 4,-5 4,-4 10,-12 13,-17 3,-5 8,-13 12,-17 0,-1 0,-1 1,-2 1,-1 1,-1 2,-2 0,-1 0,-1 1,-2 1,-2 0,-1 2,-2 1,-4 6,-9 7,-13 3,-3 8,-13 11,-17 3,-4 7,-13 10,-17 0,-1 6,-12 7,-13 1,-3 8,-15 9,-19 3,-6 6,-13 9,-18l3 -18c1,-3 2,-1 0,-3 -4,0 -15,4 -19,5 -1,1 -2,2 -3,3 -8,5 -16,13 -23,18 -8,6 -16,11 -24,17 -7,4 -42,25 -47,26 -5,5 -63,29 -69,30 -5,3 -25,7 -33,9 -20,6 -43,12 -64,18 -6,1 -27,7 -32,10 -2,0 -1,-1 -2,0 -2,0 -3,1 -5,2 -2,0 -1,0 -3,0 -3,2 -9,4 -13,6 -4,1 -8,3 -13,5z"/>
   <path class="fil6 str1" d="M474 232c10,-4 20,-9 30,-14 6,-3 25,-12 29,-15 1,0 0,0 2,-1 4,-1 27,-14 33,-17 11,-6 22,-13 33,-19 23,-13 44,-26 67,-40 23,-13 45,-29 67,-44 11,-7 23,-16 33,-24 11,-8 23,-17 34,-24 1,-4 4,-10 5,-14 -1,-1 -2,-2 -3,-4l-32 -2c-3,-1 -10,-1 -10,-1 -2,-1 -5,0 -7,0 -3,-1 -9,-1 -13,-1 -2,-1 -7,0 -10,0 -3,-1 -18,-1 -22,-1 -3,1 -9,1 -12,1 -3,1 -8,0 -11,0 -4,1 -11,1 -12,1l-69 8 -19 3c-5,0 -17,4 -22,5 -8,1 -15,3 -22,5 -8,2 -15,4 -22,6 -5,1 -19,7 -23,7 -1,1 0,1 -2,1 -2,1 -5,1 -7,3 -2,0 -1,0 -2,0 -7,1 -44,17 -53,21 -37,16 -71,35 -105,58 -9,5 -18,11 -26,18 -5,3 -9,6 -14,10l-48 41c-2,1 -4,3 -5,5 -3,1 -5,4 -8,7 -4,2 -12,12 -16,16 -2,2 -5,5 -8,8 -4,5 -13,13 -17,19l-21 25c-6,7 -15,20 -21,28 -7,9 -13,18 -19,28 -1,4 -3,12 -4,17 1,1 2,1 4,1l13 -2c1,0 1,0 3,0 4,-2 10,-3 15,-4 15,-4 30,-8 46,-13 10,-3 20,-6 30,-9 5,-1 10,-3 15,-4 4,-1 13,-5 15,-5 2,-1 1,-1 3,-1 1,-1 0,0 2,0 1,-1 0,-1 2,-1 1,-1 0,-1 2,-1 1,-1 1,0 2,-1 2,0 1,0 2,0 2,-1 1,-1 2,-1 2,-1 1,-1 3,-1 2,-1 6,-2 9,-3 11,-4 25,-9 37,-13 10,-4 20,-8 30,-12 19,-7 39,-15 58,-23 20,-9 39,-18 59,-27z"/>
   <path class="fil6 str1" d="M973 1313c-10,3 -21,8 -31,12 -21,10 -42,18 -63,28 -21,10 -42,20 -63,29 -15,6 -32,14 -47,21 -4,2 -12,4 -16,7 -3,4 -5,10 -8,13 2,1 4,3 5,5l5 0c2,-1 7,0 10,0 5,-1 12,-1 14,-1l68 -9c7,-2 17,-3 24,-5 9,-2 17,-3 25,-6 8,-2 17,-5 25,-7 5,-1 21,-5 25,-8 1,0 1,1 2,0 5,-1 43,-16 51,-20 17,-7 33,-15 51,-24 17,-8 34,-19 51,-29 8,-5 16,-11 25,-17 9,-6 17,-13 25,-19 2,-2 6,-14 6,-16l-2 -2 -23 2 -8 2c-6,0 -24,5 -30,6 -10,3 -20,5 -30,8 -10,2 -20,5 -30,8 -6,3 -24,7 -30,10 -3,1 -25,10 -31,12z"/>
  </g>
 </g>
</svg>
