<?xml version="1.0" encoding="UTF-8"?>
<!DOCTYPE svg PUBLIC "-//W3C//DTD SVG 1.1//EN" "http://www.w3.org/Graphics/SVG/1.1/DTD/svg11.dtd">
<!-- Creator: CorelDRAW 2020 (64-Bit) -->
<svg xmlns="http://www.w3.org/2000/svg" xml:space="preserve" width="127px" height="128px" version="1.1" style="shape-rendering:geometricPrecision; text-rendering:geometricPrecision; image-rendering:optimizeQuality; fill-rule:evenodd; clip-rule:evenodd"
viewBox="0 0 2315 2321"
 xmlns:xlink="http://www.w3.org/1999/xlink"
 xmlns:xodm="http://www.corel.com/coreldraw/odm/2003">
 <defs>
  <style type="text/css">
   <![CDATA[
    .str1 {stroke:#2B2A29;stroke-width:16;stroke-miterlimit:22.9256}
    .str0 {stroke:black;stroke-width:36;stroke-linecap:square;stroke-miterlimit:22.9256}
    .fil0 {fill:none}
    .fil1 {fill:#009933}
    .fil4 {fill:#00CCFF}
    .fil3 {fill:#D18C02}
    .fil2 {fill:white}
   ]]>
  </style>
 </defs>
 <g id="planets">
  <metadata id="CorelCorpID_0Corel-Layer"/>
  <g id="_1325854077728">
   <path class="fil0 str0" d="M1796 2096c-1,4 -4,11 -6,14 -43,29 -84,52 -129,75 -21,11 -43,21 -65,30 -11,4 -22,8 -33,13 -8,3 -25,8 -32,12 -2,0 -11,3 -13,4 -3,0 -1,0 -4,1 -6,1 -30,10 -38,12 -25,7 -51,14 -77,19 -11,2 -29,5 -39,8l-2 0c-2,1 -3,1 -4,1l-102 13c-5,1 -16,1 -17,1 -5,1 -20,1 -21,1 -3,1 -6,1 -9,1 -4,1 -12,0 -17,0 -5,2 -51,1 -60,1 -7,-1 -23,-1 -26,-1 -5,-1 -22,-1 -22,-1l-51 -5c-9,-1 -21,-2 -30,-4l-31 -4c-2,-1 -3,-1 -5,-2l-2 0c-2,0 -3,0 -5,-1l-2 0c-9,-3 -28,-6 -38,-8 -26,-5 -52,-11 -77,-19 -7,-2 -33,-11 -39,-12 -2,-1 -1,-1 -3,-1 -5,-3 -24,-9 -31,-11 -21,-7 -41,-16 -62,-25 -7,-2 -26,-12 -31,-13 -2,-2 -2,-2 -4,-3 -8,-1 -45,-22 -55,-28 -19,-9 -38,-21 -56,-32 -29,-17 -57,-37 -84,-58 -9,-7 -19,-15 -28,-21l-26 -21c-8,-7 -18,-17 -26,-23l-14 -13c-10,-7 -37,-37 -48,-47 -5,-7 -17,-18 -21,-24 -11,-13 -22,-25 -33,-38 -1,-1 -2,-2 -3,-4 -12,-12 -29,-35 -38,-49 -23,-32 -46,-65 -65,-99 -4,-8 -9,-16 -14,-24 -4,-7 -9,-19 -13,-25 -1,-2 -1,-1 -1,-3 -3,-3 -16,-30 -17,-34 -4,-6 -11,-24 -15,-33 -20,-42 -44,-117 -56,-162 -3,-11 -6,-22 -8,-33 -3,-10 -5,-24 -8,-33l-17 -121c-1,-5 -1,-15 -1,-16l-1 -14c-1,-2 -1,-4 -1,-7 -1,-4 0,-9 0,-13 -2,-4 -1,-12 -1,-17 -1,-4 -1,-35 0,-39m425 -876c1,-3 5,-13 7,-16 7,-5 15,-12 23,-18 36,-27 76,-53 116,-76 7,-5 15,-9 23,-13 6,-3 18,-9 23,-13m1 0l-1 0m2 -1l-1 1m2 -1l-1 0m3 -1l-2 1m3 -2l-1 1m2 -1l-1 0m2 -1l-1 1m2 -1l-1 0m2 -1l-1 1m2 -1l-1 0m3 -1l-2 1m3 -2l-1 1m2 -1l-1 0m2 -1l-1 1m2 -1l-1 0m2 -1l-1 1m2 -1l-1 0m3 -1l-2 1m3 -2l-1 1m2 -1l-1 0m2 -1l-1 1m2 -1l-1 0m2 -1l-1 1m2 -1l-1 0m3 -1l-2 1m3 -2c-1,1 1,1 -1,1m2 -1l-1 0m3 -1l-2 1m3 -1l-1 0m2 -1l-1 1m2 -1l-1 0m2 -1l-1 1m3 -2c-1,1 0,1 -2,1m3 -1l-1 0m2 -1l-1 1m2 -1l-1 0m2 -1l-1 1m3 -1c-1,0 0,0 -2,0m3 -1l-1 1m3 -2l-2 1m3 -1l-1 0m2 -1l-1 1m3 -1c-2,0 0,0 -2,0m3 -1l-1 1m2 -1l-1 0m2 -1l-1 1m2 -2l-1 1m3 -1c-1,1 0,0 -2,0m3 -1l-1 1m3 -1c-2,0 0,0 -2,0m3 -1l-1 1m2 -1l-1 0m2 -1l-1 1m2 -2l-1 1m3 -1c-1,1 0,0 -2,0m3 -1l-1 1m2 -1l-1 0m3 -1c-1,1 0,1 -2,1m3 -1l-1 0m2 -1l-1 1m2 -2l-1 1m3 -1c-1,1 0,0 -2,0m3 -1l-1 1m2 -1l-1 0m3 -1c-1,1 0,1 -2,1m3 -1l-1 0m2 -1l-1 1m3 -2c-1,1 0,1 -2,1m3 -1l-1 0m2 -1l-1 1m3 -1c-1,0 0,0 -2,0m3 -1l-1 1m3 -1c-1,0 0,0 -2,0m3 -1l-1 1m2 -2l-1 1m3 -1c-1,1 0,0 -2,0m3 -1l-1 1m3 -1c-1,0 0,0 -2,0m3 -1l-1 1m3 -1c-2,0 0,0 -2,0m3 -1l-1 1m3 -2c-2,1 0,1 -2,1m3 -1l-1 0m2 -1c-1,1 1,1 -1,1m3 -1c-1,0 0,0 -2,0m3 -1l-1 1m3 -1c-1,0 0,0 -2,0m3 -1l-1 1m3 -2c-1,1 0,1 -2,1m4 -1c-2,1 0,0 -2,0m3 -1l-1 1m2 -1c-1,0 1,0 -1,0m3 -1c-1,1 0,1 -2,1m3 -1l-1 0m3 -1c-1,1 0,1 -2,1m3 -2l-1 1m3 -1c-1,1 0,0 -2,0m4 -1c-2,1 0,1 -2,1m3 -1l-1 0m2 -1c-1,1 1,1 -1,1m3 -1c-1,0 0,0 -2,0m4 -1c-1,1 0,1 -2,1m4 -2c-2,1 0,1 -2,1m3 -1l-1 0m2 -1c-1,1 1,1 -1,1m3 -1c-1,0 0,0 -2,0m4 -1c-1,1 0,1 -2,1m4 -1c-2,0 0,0 -2,0m3 -1c-1,1 0,1 -1,1m3 -2c-1,1 0,1 -2,1m4 -1c-1,1 0,0 -2,0m3 -1l-1 1m3 -1c-1,0 0,0 -2,0m3 -1l-1 1m4 -1c-2,0 -1,0 -3,0m4 -1l-1 1m3 -2c-1,1 0,1 -2,1m3 -1l-1 0m3 -1c-1,1 0,1 -2,1m4 -1c-1,0 0,0 -2,0m4 -1c-1,1 0,1 -2,1m4 -1c-2,0 0,0 -2,0m3 -1c-1,1 0,1 -1,1m3 -2c-1,1 0,1 -2,1m4 -1c-1,1 0,0 -2,0m3 -1c-1,1 1,1 -1,1m3 -1c-1,0 0,0 -2,0m4 -1c-1,1 0,1 -2,1m4 -1c-2,0 0,0 -2,0m3 -1c-1,1 1,1 -1,1m4 -2c-2,1 -1,1 -3,1m4 -1c-1,1 1,0 -1,0m3 -1c-1,1 0,1 -2,1m4 -1c-1,0 0,0 -2,0m3 -1c-1,1 1,1 -1,1m4 -1c-2,0 -1,0 -3,0m4 -1c-1,1 1,1 -1,1m3 -2c-1,1 0,1 -2,1m4 -1c-1,1 0,0 -2,0m4 -1c-1,1 0,1 -2,1m4 -1c-1,0 0,0 -2,0m4 -1c-1,1 0,1 -2,1m4 -2c-1,1 0,1 -2,1m4 -1c-1,1 0,0 -2,0m4 -1c-1,1 0,1 -2,1m1274 1694c-1,4 -5,19 -6,24 -5,6 -10,15 -15,22 -5,8 -10,15 -16,22 -10,15 -24,30 -34,45l-50 58c-1,3 -4,6 -7,8 -3,4 -7,7 -10,11 -5,7 -25,25 -33,33 -6,5 -15,15 -19,18 -10,8 -22,20 -33,29l-24 20c-7,6 -19,14 -26,20 -8,6 -19,13 -26,19 -4,1 -19,5 -23,6 -4,-4 -3,-3 -4,-8 -1,-5 -14,-50 -16,-57 -5,-13 -12,-43 -19,-54 0,-5 -13,-36 -16,-44 -3,-7 -6,-15 -10,-22 -2,-5 -9,-19 -10,-22l-16 -30c-4,-6 -8,-13 -12,-20 -5,-7 -26,-35 -33,-44 -4,-5 -23,-24 -29,-29l-12 -9c-10,-10 -25,-16 -36,-24 -10,-3 -30,-17 -42,-18 -2,-1 -1,-1 -3,-1 -8,-5 -22,-6 -32,-9l-5 0c-3,-1 -5,-1 -7,-2l-16 -2c-5,-1 -13,-1 -15,-1 -3,-1 -4,-1 -6,-1 -5,-1 -13,0 -18,0 -4,-1 -9,-1 -13,-1 -5,2 -18,1 -24,1 -7,1 -22,0 -25,1l-72 6c-5,0 -14,0 -16,1 -6,1 -22,1 -23,1 -5,1 -13,1 -18,1 -5,1 -13,0 -18,0 -5,-1 -13,0 -18,0 -7,-1 -13,-1 -17,-2l-20 -2c-2,-1 -1,0 -3,0l-9 -2c-5,-1 -15,-3 -21,-4 -7,-2 -16,-4 -23,-6 -8,-3 -14,-6 -22,-8 -6,-3 -18,-9 -22,-10 -5,-4 -13,-7 -18,-11 -6,-4 -12,-9 -18,-13 -17,-14 -32,-33 -41,-52 -2,-4 -5,-11 -7,-15l-9 -44c-1,-4 -1,-9 -1,-13 -1,-4 -1,-9 -1,-14 -1,-4 0,-9 0,-13 1,-4 0,-12 0,-17 1,-6 1,-24 1,-24 1,-5 1,-17 2,-19 1,-7 2,-44 1,-50 -1,-4 -1,-10 -1,-14 -1,-3 -1,-5 -1,-8l-2 -11c-2,-12 -8,-31 -13,-42 -6,-12 -14,-24 -22,-34 -4,-5 -16,-16 -21,-20 -9,-6 -17,-13 -26,-18 -16,-11 -35,-17 -53,-23 -8,-3 -23,-7 -33,-8 -2,0 -4,-1 -6,-1l-12 -2c-5,-1 -12,-1 -13,-1 -4,-1 -9,0 -14,0 -5,-2 -18,-1 -24,-1 -4,1 -11,1 -15,1l-95 12c-2,0 -3,0 -4,1l-36 6c-2,0 -2,0 -4,0l-99 12c-5,1 -20,1 -21,1 -8,1 -64,2 -70,1 -5,-1 -13,0 -19,0 -5,-1 -21,-1 -22,-1 -5,-1 -16,-2 -20,-2l-86 -11c-8,-3 -18,-4 -26,-6 -14,-1 -113,-28 -124,-35 -8,0 -44,-16 -55,-20l-28 -5c0,-1 0,-1 0,-2l0 -33c1,-3 0,-7 0,-10 2,-5 1,-14 1,-19l1 -15c1,-5 1,-15 1,-15 1,-7 1,-16 2,-19l13 -90c3,-18 4,-29 9,-48l15 -58c2,-7 8,-24 8,-29 2,-2 9,-26 10,-28 1,-2 1,-1 1,-4 2,-4 5,-15 7,-20 3,-9 13,-34 17,-42 1,-4 8,-18 8,-21 5,-6 11,-24 15,-32 5,-11 10,-22 16,-33 28,-54 65,-114 102,-163 8,-10 18,-22 25,-32l60 -68c6,-9 33,-34 42,-43 7,-6 17,-16 23,-21 5,-4 25,-23 29,-25 3,-1 18,-5 20,-6 10,10 1,3 11,15l15 16c3,4 10,10 14,15 5,6 12,12 18,19 7,11 14,17 20,30 3,5 5,9 7,15 2,4 2,10 4,14l1 15c1,3 0,8 0,11l-1 13c-1,2 0,2 0,5l-6 22c-2,4 -5,14 -7,19 -3,7 -6,13 -10,20 -7,14 -14,27 -22,40 -7,12 -15,27 -20,40 -4,6 -6,13 -9,20 -3,5 -5,15 -8,20 0,3 -3,14 -4,17l0 3c0,2 -1,4 -1,6l-1 8c-1,6 -1,19 -1,19 -1,3 -1,4 -1,7 2,7 1,16 2,24l3 17c0,12 14,48 19,60 5,10 10,20 16,30 7,10 17,25 24,34 9,10 25,27 35,35 1,1 3,3 4,4 25,24 76,50 108,62 18,7 35,13 54,18 8,3 18,5 26,7 8,2 20,4 27,6l21 3c2,1 2,1 4,1l64 8c3,1 3,1 6,1 3,0 7,0 10,0 4,1 9,1 12,1 5,1 17,0 23,0 4,2 10,1 15,1 5,-2 14,-1 20,-1 5,-1 15,0 18,-1l21 -2c2,-1 3,-1 5,-1l11 -1c3,-2 8,-2 12,-3 13,-1 48,-14 61,-19 10,-4 20,-10 30,-15 10,-6 25,-17 34,-25 5,-3 16,-15 20,-20 11,-12 21,-26 29,-40 3,-6 7,-13 9,-19 2,-5 5,-14 8,-18l6 -32 2 -15c1,-5 0,-11 0,-16 -1,-6 -1,-12 -2,-17l-4 -21c-1,-5 -5,-12 -6,-17 -2,-2 -3,-3 -3,-6 -2,-2 -1,-1 -2,-3 -20,-39 -55,-71 -77,-110 -8,-14 -10,-23 -15,-37l-1 -13c-1,-4 0,-8 0,-11l1 -15c1,-1 1,-3 2,-4 0,-12 13,-31 20,-41 32,-38 81,-56 127,-72 17,-7 34,-14 50,-23 9,-4 18,-10 26,-15 9,-6 17,-14 26,-20 6,-5 23,-21 28,-27 20,-24 39,-51 52,-80 7,-16 15,-36 18,-54 1,-5 3,-13 4,-18l1 -8c0,-1 0,-2 1,-4 1,-5 0,-9 1,-14 1,-3 1,-8 1,-11 1,-5 0,-15 0,-21 -1,-5 0,-10 -1,-15 -1,-7 -1,-24 -1,-25 -1,-3 -1,-7 -1,-10m-599 0c-1,0 0,0 -2,0m4 -1c-1,1 0,1 -2,1m4 -1c-1,0 0,0 -2,0m4 -1c-1,1 0,1 -2,1m4 -1c-1,0 0,0 -2,0m4 -1c-1,1 0,1 -2,1m5 -2c-2,1 0,1 -3,1m4 -1c-1,1 1,0 -1,0m4 -1c-1,1 0,1 -3,1m5 -1c-1,0 0,0 -2,0m5 -1c-2,1 -1,1 -3,1m5 -2c-2,1 0,1 -2,1m4 -1c-1,1 0,0 -2,0m4 -1c-1,1 0,1 -2,1m5 -1c-2,0 -1,0 -3,0m5 -1c-1,1 0,1 -2,1m5 -1c-2,0 -1,0 -3,0m5 -1c-1,1 0,1 -2,1m4 -1c-1,0 0,0 -2,0m4 -1c-1,1 0,1 -2,1m5 -2c-2,1 0,1 -3,1m5 -1c-1,0 0,0 -2,0m4 -1c-1,1 0,1 -2,1m5 -1c-2,0 -1,0 -3,0m5 -1c-1,1 0,1 -2,1m5 -2c-2,1 0,1 -3,1m5 -1c-1,1 0,0 -2,0m4 -1c-1,1 0,1 -2,1m5 -1c-2,0 0,0 -3,0m6 -1c-2,1 -1,1 -3,1m5 -1c-1,0 0,0 -2,0m5 -1c-2,1 0,1 -3,1m6 -2c-2,1 0,1 -3,1m5 -1c-1,1 0,0 -2,0m5 -1c-2,1 0,1 -3,1m6 -1c-2,0 0,0 -3,0m6 -1c-2,1 -1,1 -3,1m6 -1c-2,0 -1,0 -3,0m6 -1c-1,1 0,1 -3,1m7 -2c-2,1 -1,1 -4,1m7 -1c-2,1 -1,0 -3,0m6 -1c-2,1 -1,1 -3,1m6 -1c-2,1 -1,0 -3,0m6 -1c-1,1 0,1 -3,1m7 -1c-2,0 -1,0 -4,0m7 -1c-2,1 -1,1 -3,1m5 -2c-1,1 0,1 -2,1m6 -1c-2,1 -1,0 -4,0m7 -1c-2,1 -1,1 -3,1m7 -1c-2,1 -1,0 -4,0m7 -1c-2,1 -1,1 -3,1m7 -1c-2,0 -2,0 -4,0m8 -1c-3,1 -2,1 -4,1m7 -2c-2,1 -1,1 -3,1m8 -1c-3,1 -3,0 -5,0m9 -1c-3,1 -2,1 -4,1m8 -1c-2,1 -2,0 -4,0m9 -1c-2,1 -2,1 -5,1m10 -1c-2,0 -3,0 -5,0m9 -1c-2,1 -2,1 -4,1m9 -2c-2,1 -2,1 -5,1m9 -1c-2,1 -2,0 -4,0m9 -1c-3,1 -3,1 -5,1m10 -1c-3,1 -3,0 -5,0m10 -1c-2,1 -3,1 -5,1m10 -1c-2,0 -3,0 -5,0m12 -1c-2,1 -4,1 -7,1m15 -2c-2,1 -5,1 -8,1m16 -1c-2,1 -5,0 -8,0m15 -1c-3,1 -4,1 -7,1m15 -1c-3,1 -5,0 -8,0m16 -1c-2,1 -5,1 -8,1m25 -1c-4,1 -12,0 -17,0m28 -1c-3,1 -7,1 -11,1m31 -2c-4,2 -15,1 -20,1m645 187c-5,5 -4,8 -6,9 -13,6 -26,11 -39,17 -12,6 -28,13 -40,18 -44,18 -117,64 -158,91 -13,9 -26,18 -39,27 -13,10 -27,23 -40,31l-15 13c-5,5 -17,16 -21,20 -6,7 -12,13 -17,20 -7,10 -14,18 -20,29 -4,6 -12,24 -13,30 -2,4 -2,9 -4,14l-1 10c-1,3 -2,12 -1,15l1 12c0,1 0,2 1,4l6 22c2,3 4,9 7,13 3,5 6,9 9,13l15 15c4,3 8,7 12,10 4,2 9,4 13,7 3,1 15,7 18,9 2,0 3,1 5,2 8,5 18,14 24,21 2,4 5,7 7,11 3,3 4,7 6,10 1,4 4,13 6,17l0 2c0,1 0,3 1,4l1 19c-1,4 0,8 -1,11 0,2 0,2 0,5 -1,1 -1,2 -1,3l0 2c-4,11 -7,19 -11,29 -5,11 -6,18 -9,29l0 2c-1,2 -1,3 -2,4l-1 14c-1,4 0,10 0,15l1 15c2,7 5,19 7,25 2,2 2,3 3,5 1,2 1,1 1,4 3,3 6,8 9,12 8,11 20,20 32,26 3,1 5,2 7,3 2,1 0,0 2,1 3,1 19,7 22,9 3,0 2,0 4,1 12,1 33,12 44,13 3,1 1,1 4,1 4,2 11,4 16,6 16,6 33,14 44,28 4,4 6,8 8,13 3,5 4,10 5,15l1 17 -3 15c0,3 0,3 0,5 -1,1 -7,15 -7,16 -3,3 -6,9 -8,14 -9,14 -22,29 -32,42 -7,9 -13,19 -19,28 -3,5 -4,10 -6,15 -2,4 -7,15 -7,19l-4 24c-1,6 -2,22 -1,28l4 28c0,4 5,22 6,25 1,4 2,5 2,8 5,8 8,22 14,29 2,9 22,35 29,44l20 23c5,8 25,26 32,33 9,8 19,17 29,25l55 46c5,5 17,14 23,18 10,10 27,22 38,30 13,10 26,21 39,30 51,35 101,75 155,107 19,12 38,25 58,37 5,4 15,9 19,12 3,1 8,2 11,3 1,1 1,1 3,3 4,-1 8,-4 12,-5 6,-7 23,-39 28,-49 9,-15 17,-32 25,-48 26,-52 59,-139 73,-195 4,-16 8,-33 12,-49 2,-8 4,-16 6,-24 1,-7 3,-19 5,-25l14 -116c1,-5 1,-20 1,-20 1,-5 1,-21 1,-21 2,-4 1,-10 1,-15 2,-5 1,-52 1,-61 -2,-7 -1,-23 -2,-25 0,-6 -1,-21 -1,-22l-15 -127c-2,-5 -4,-17 -5,-24 -8,-36 -20,-87 -32,-122 -4,-12 -12,-39 -18,-49 0,-6 -18,-47 -22,-56 -3,-9 -8,-19 -13,-28 -2,-5 -12,-25 -13,-29 -1,-1 -2,-2 -2,-4 -4,-5 -10,-19 -14,-25 -4,-8 -9,-16 -13,-24 -10,-18 -20,-33 -30,-50 -16,-26 -34,-50 -53,-75 -6,-8 -14,-16 -19,-25l-48 -55c-1,-2 -4,-5 -6,-7 -7,-10 -38,-38 -49,-49 -7,-6 -17,-16 -22,-21 -11,-9 -23,-20 -35,-30l-20 -16c-9,-9 -25,-19 -36,-27 -11,-9 -24,-18 -36,-26 -8,0 -20,-6 -28,-6 -2,-5 -4,-11 -7,-16 -8,-5 -16,-11 -25,-15 -6,-4 -20,-11 -25,-15 -3,-1 -25,-13 -29,-15 -7,-5 -21,-11 -29,-15 -19,-8 -38,-17 -57,-25 -38,-17 -77,-28 -115,-41l-21 -2c-4,-1 -5,-1 -10,-1 -1,-2 -4,-6 -6,-7 -7,-1 -37,-8 -44,-10l-76 -14c-2,0 -2,0 -4,0l-94 -9c-3,-1 -7,-1 -11,-1 -4,-1 -12,0 -17,0 -4,-2 -14,-1 -19,-1 -5,-1 -29,-1 -36,-1"/>
   <path class="fil1 str1" d="M1585 1288c0,4 5,22 6,25 1,4 2,5 2,8 5,8 8,22 14,29 2,9 22,35 29,44l20 23c5,8 25,26 32,33 9,8 19,17 29,25l55 46c5,5 17,14 23,18 10,10 27,22 38,30 13,10 26,21 39,30 51,35 101,75 155,107 19,12 38,25 58,37 5,4 15,9 19,12 3,1 8,2 11,3 1,1 1,1 3,3 4,-1 8,-4 12,-5 6,-7 23,-39 28,-49 9,-15 17,-32 25,-48 26,-52 59,-139 73,-195 4,-16 8,-33 12,-49 2,-8 4,-16 6,-24 1,-7 3,-19 5,-25l14 -116c1,-5 1,-20 1,-20 1,-5 1,-21 1,-21 2,-4 1,-10 1,-15 2,-5 1,-52 1,-61 -2,-7 -1,-23 -2,-25 0,-6 -1,-21 -1,-22l-15 -127c-2,-5 -4,-17 -5,-24 -8,-36 -20,-87 -32,-122 -4,-12 -12,-39 -18,-49 0,-6 -18,-47 -22,-56 -3,-9 -8,-19 -13,-28 -2,-5 -12,-25 -13,-29 -1,-1 -2,-2 -2,-4 -4,-5 -10,-19 -14,-25 -4,-8 -9,-16 -13,-24 -10,-18 -20,-33 -30,-50 -16,-26 -34,-50 -53,-75 -6,-8 -14,-16 -19,-25l-48 -55c-1,-2 -4,-5 -6,-7 -7,-10 -38,-38 -49,-49 -7,-6 -17,-16 -22,-21 -11,-9 -23,-20 -35,-30l-20 -16c-9,-9 -25,-19 -36,-27 -11,-9 -24,-18 -36,-26 -8,0 -20,-6 -28,-6 -5,5 -4,8 -6,9 -13,6 -26,11 -39,17 -12,6 -28,13 -40,18 -44,18 -117,64 -158,91 -13,9 -26,18 -39,27 -13,10 -27,23 -40,31l-15 13c-5,5 -17,16 -21,20 -6,7 -12,13 -17,20 -7,10 -14,18 -20,29 -4,6 -12,24 -13,30 -2,4 -2,9 -4,14l-1 10c-1,3 -2,12 -1,15l1 12c0,1 0,2 1,4l6 22c2,3 4,9 7,13 3,5 6,9 9,13l15 15c4,3 8,7 12,10 4,2 9,4 13,7 3,1 15,7 18,9 2,0 3,1 5,2 8,5 18,14 24,21 2,4 5,7 7,11 3,3 4,7 6,10 1,4 4,13 6,17l0 2c0,1 0,3 1,4l1 19c-1,4 0,8 -1,11 0,2 0,2 0,5 -1,1 -1,2 -1,3l0 2c-4,11 -7,19 -11,29 -5,11 -6,18 -9,29l0 2c-1,2 -1,3 -2,4l-1 14c-1,4 0,10 0,15l1 15c2,7 5,19 7,25 2,2 2,3 3,5 1,2 1,1 1,4 3,3 6,8 9,12 8,11 20,20 32,26 3,1 5,2 7,3 2,1 0,0 2,1 3,1 19,7 22,9 3,0 2,0 4,1 12,1 33,12 44,13 3,1 1,1 4,1 4,2 11,4 16,6 16,6 33,14 44,28 4,4 6,8 8,13 3,5 4,10 5,15l1 17 -3 15c0,3 0,3 0,5 -1,1 -7,15 -7,16 -3,3 -6,9 -8,14 -9,14 -22,29 -32,42 -7,9 -13,19 -19,28 -3,5 -4,10 -6,15 -2,4 -7,15 -7,19l-4 24c-1,6 -2,22 -1,28l4 28z"/>
   <path class="fil2 str1" d="M1148 918c11,-12 21,-26 29,-40 3,-6 7,-13 9,-19 2,-5 5,-14 8,-18l6 -32 2 -15c1,-5 0,-11 0,-16 -1,-6 -1,-12 -2,-17l-4 -21c-1,-5 -5,-12 -6,-17 -2,-2 -3,-3 -3,-6 -2,-2 -1,-1 -2,-3 -20,-39 -55,-71 -77,-110 -8,-14 -10,-23 -15,-37l-1 -13c-1,-4 0,-8 0,-11l1 -15c1,-1 1,-3 2,-4 0,-12 13,-31 20,-41 32,-38 81,-56 127,-72 17,-7 34,-14 50,-23 9,-4 18,-10 26,-15 9,-6 17,-14 26,-20 6,-5 23,-21 28,-27 20,-24 39,-51 52,-80 7,-16 15,-36 18,-54 1,-5 3,-13 4,-18l1 -8c0,-1 0,-2 1,-4 1,-5 0,-9 1,-14 1,-3 1,-8 1,-11 1,-5 0,-15 0,-21 -1,-5 0,-10 -1,-15 -1,-7 -1,-24 -1,-25 -1,-3 -1,-7 -1,-10 -1,-2 -4,-6 -6,-7 -7,-1 -37,-8 -44,-10l-76 -14c-2,0 -2,0 -4,0l-94 -9c-3,-1 -7,-1 -11,-1 -4,-1 -12,0 -17,0 -4,-2 -14,-1 -19,-1 -5,-1 -29,-1 -36,-1 -4,2 -15,1 -20,1 -3,1 -7,1 -11,1 -4,1 -12,0 -17,0 -2,1 -5,1 -8,1 -3,1 -5,0 -8,0 -3,1 -4,1 -7,1 -2,1 -5,0 -8,0 -2,1 -5,1 -8,1 -2,1 -4,1 -7,1 -2,0 -3,0 -5,0 -2,1 -3,1 -5,1 -3,1 -3,0 -5,0 -3,1 -3,1 -5,1 -2,1 -2,0 -4,0 -2,1 -2,1 -5,1 -2,1 -2,1 -4,1 -2,0 -3,0 -5,0 -2,1 -2,1 -5,1 -2,1 -2,0 -4,0 -3,1 -2,1 -4,1 -3,1 -3,0 -5,0 -2,1 -1,1 -3,1 -3,1 -2,1 -4,1 -2,0 -2,0 -4,0 -2,1 -1,1 -3,1 -2,1 -1,0 -4,0 -2,1 -1,1 -3,1 -2,1 -1,0 -4,0 -1,1 0,1 -2,1 -2,1 -1,1 -3,1 -2,0 -1,0 -4,0 -1,1 0,1 -3,1 -2,1 -1,0 -3,0 -2,1 -1,1 -3,1 -2,1 -1,0 -3,0 -2,1 -1,1 -4,1 -1,1 0,1 -3,1 -2,0 -1,0 -3,0 -2,1 -1,1 -3,1 -2,0 0,0 -3,0 -2,1 0,1 -3,1 -1,1 0,0 -2,0 -2,1 0,1 -3,1 -2,1 0,1 -3,1 -1,0 0,0 -2,0 -2,1 -1,1 -3,1 -2,0 0,0 -3,0 -1,1 0,1 -2,1 -1,1 0,0 -2,0 -2,1 0,1 -3,1 -1,1 0,1 -2,1 -2,0 -1,0 -3,0 -1,1 0,1 -2,1 -1,0 0,0 -2,0 -2,1 0,1 -3,1 -1,1 0,1 -2,1 -1,0 0,0 -2,0 -1,1 0,1 -2,1 -2,0 -1,0 -3,0 -1,1 0,1 -2,1 -2,0 -1,0 -3,0 -1,1 0,1 -2,1 -1,1 0,0 -2,0 -2,1 0,1 -2,1 -2,1 -1,1 -3,1 -1,0 0,0 -2,0 -1,1 0,1 -3,1 -1,1 1,0 -1,0 -2,1 0,1 -3,1 -1,1 0,1 -2,1 -1,0 0,0 -2,0 -1,1 0,1 -2,1 -1,0 0,0 -2,0 -1,1 0,1 -2,1 -1,0 0,0 -2,0 -1,1 0,1 -2,1 -1,1 0,0 -2,0 -1,1 0,1 -2,1 -1,1 0,1 -2,1 -1,0 0,0 -2,0 -1,1 0,1 -2,1 -1,1 0,0 -2,0 -1,1 0,1 -2,1 -1,1 1,1 -1,1 -2,0 -1,0 -3,0 -1,1 1,1 -1,1 -1,0 0,0 -2,0 -1,1 0,1 -2,1 -1,1 1,0 -1,0 -2,1 -1,1 -3,1 -1,1 1,1 -1,1 -2,0 0,0 -2,0 -1,1 0,1 -2,1 -1,0 0,0 -2,0 -1,1 1,1 -1,1 -1,1 0,0 -2,0 -1,1 0,1 -2,1 -1,1 0,1 -1,1 -2,0 0,0 -2,0 -1,1 0,1 -2,1 -1,0 0,0 -2,0 -1,1 0,1 -2,1l-1 0c-1,1 0,1 -2,1l-1 1c-2,0 -1,0 -3,0l-1 1c-1,0 0,0 -2,0l-1 1c-1,1 0,0 -2,0 -1,1 0,1 -2,1 -1,1 0,1 -1,1 -2,0 0,0 -2,0 -1,1 0,1 -2,1 -1,0 0,0 -2,0 -1,1 1,1 -1,1l-1 0c-2,1 0,1 -2,1 -1,1 0,1 -2,1 -1,0 0,0 -2,0 -1,1 1,1 -1,1l-1 0c-2,1 0,1 -2,1 -1,1 0,0 -2,0l-1 1c-1,1 0,1 -2,1l-1 0c-1,1 0,1 -2,1 -1,0 1,0 -1,0l-1 1c-2,1 0,0 -2,0 -1,1 0,1 -2,1l-1 1c-1,0 0,0 -2,0l-1 1c-1,0 0,0 -2,0 -1,1 1,1 -1,1l-1 0c-2,1 0,1 -2,1l-1 1c-2,0 0,0 -2,0l-1 1c-1,0 0,0 -2,0l-1 1c-1,1 0,0 -2,0l-1 1 -1 1c-1,0 0,0 -2,0l-1 1c-1,0 0,0 -2,0l-1 1 -1 0c-1,1 0,1 -2,1l-1 1 -1 0c-1,1 0,1 -2,1l-1 0 -1 1c-1,1 0,0 -2,0l-1 1 -1 1 -1 0c-1,1 0,1 -2,1l-1 0 -1 1c-1,1 0,0 -2,0l-1 1 -1 1 -1 0 -1 1c-2,0 0,0 -2,0l-1 1c-1,1 0,0 -2,0l-1 1 -1 1 -1 0 -1 1c-2,0 0,0 -2,0l-1 1 -1 0 -2 1 -1 1c-1,0 0,0 -2,0l-1 1 -1 0 -1 1 -1 0c-1,1 0,1 -2,1l-1 1 -1 0 -1 1 -1 0 -2 1 -1 0c-1,1 1,1 -1,1l-2 1 -1 0 -1 1 -1 0 -1 1 -1 0 -1 1 -2 1 -1 0 -1 1 -1 0 -1 1 -1 0 -1 1 -2 1 -1 0 -1 1 -1 0 -1 1 -1 0 -1 1 -2 1 -1 0 -1 1 -1 0c-5,4 -17,10 -23,13 -8,4 -16,8 -23,13 -40,23 -80,49 -116,76 -8,6 -16,13 -23,18 -2,3 -6,13 -7,16 10,10 1,3 11,15l15 16c3,4 10,10 14,15 5,6 12,12 18,19 7,11 14,17 20,30 3,5 5,9 7,15 2,4 2,10 4,14l1 15c1,3 0,8 0,11l-1 13c-1,2 0,2 0,5l-6 22c-2,4 -5,14 -7,19 -3,7 -6,13 -10,20 -7,14 -14,27 -22,40 -7,12 -15,27 -20,40 -4,6 -6,13 -9,20 -3,5 -5,15 -8,20 0,3 -3,14 -4,17l0 3c0,2 -1,4 -1,6l-1 8c-1,6 -1,19 -1,19 -1,3 -1,4 -1,7 2,7 1,16 2,24l3 17c0,12 14,48 19,60 5,10 10,20 16,30 7,10 17,25 24,34 9,10 25,27 35,35 1,1 3,3 4,4 25,24 76,50 108,62 18,7 35,13 54,18 8,3 18,5 26,7 8,2 20,4 27,6l21 3c2,1 2,1 4,1l64 8c3,1 3,1 6,1 3,0 7,0 10,0 4,1 9,1 12,1 5,1 17,0 23,0 4,2 10,1 15,1 5,-2 14,-1 20,-1 5,-1 15,0 18,-1l21 -2c2,-1 3,-1 5,-1l11 -1c3,-2 8,-2 12,-3 13,-1 48,-14 61,-19 10,-4 20,-10 30,-15 10,-6 25,-17 34,-25 5,-3 16,-15 20,-20z"/>
   <path class="fil3 str1" d="M967 1315c-6,-12 -14,-24 -22,-34 -4,-5 -16,-16 -21,-20 -9,-6 -17,-13 -26,-18 -16,-11 -35,-17 -53,-23 -8,-3 -23,-7 -33,-8 -2,0 -4,-1 -6,-1l-12 -2c-5,-1 -12,-1 -13,-1 -4,-1 -9,0 -14,0 -5,-2 -18,-1 -24,-1 -4,1 -11,1 -15,1l-95 12c-2,0 -3,0 -4,1l-36 6c-2,0 -2,0 -4,0l-99 12c-5,1 -20,1 -21,1 -8,1 -64,2 -70,1 -5,-1 -13,0 -19,0 -5,-1 -21,-1 -22,-1 -5,-1 -16,-2 -20,-2l-86 -11c-8,-3 -18,-4 -26,-6 -14,-1 -113,-28 -124,-35 -8,0 -44,-16 -55,-20l-28 -5c-1,4 -1,35 0,39 0,5 -1,13 1,17 0,4 -1,9 0,13 0,3 0,5 1,7l1 14c0,1 0,11 1,16l17 121c3,9 5,23 8,33 2,11 5,22 8,33 12,45 36,120 56,162 4,9 11,27 15,33 1,4 14,31 17,34 0,2 0,1 1,3 4,6 9,18 13,25 5,8 10,16 14,24 19,34 42,67 65,99 9,14 26,37 38,49 1,2 2,3 3,4 11,13 22,25 33,38 4,6 16,17 21,24 11,10 38,40 48,47l14 13c8,6 18,16 26,23l26 21c9,6 19,14 28,21 27,21 55,41 84,58 18,11 37,23 56,32 10,6 47,27 55,28 2,1 2,1 4,3 5,1 24,11 31,13 21,9 41,18 62,25 7,2 26,8 31,11 2,0 1,0 3,1 6,1 32,10 39,12 25,8 51,14 77,19 10,2 29,5 38,8l2 0c2,1 3,1 5,1l2 0c2,1 3,1 5,2l31 4c9,2 21,3 30,4l51 5c0,0 17,0 22,1 3,0 19,0 26,1 9,0 55,1 60,-1 5,0 13,1 17,0 3,0 6,0 9,-1 1,0 16,0 21,-1 1,0 12,0 17,-1l102 -13c1,0 2,0 4,-1l2 0c10,-3 28,-6 39,-8 26,-5 52,-12 77,-19 8,-2 32,-11 38,-12 3,-1 1,-1 4,-1 2,-1 11,-4 13,-4 7,-4 24,-9 32,-12 11,-5 22,-9 33,-13 22,-9 44,-19 65,-30 45,-23 86,-46 129,-75 2,-3 5,-10 6,-14 -4,-4 -3,-3 -4,-8 -1,-5 -14,-50 -16,-57 -5,-13 -12,-43 -19,-54 0,-5 -13,-36 -16,-44 -3,-7 -6,-15 -10,-22 -2,-5 -9,-19 -10,-22l-16 -30c-4,-6 -8,-13 -12,-20 -5,-7 -26,-35 -33,-44 -4,-5 -23,-24 -29,-29l-12 -9c-10,-10 -25,-16 -36,-24 -10,-3 -30,-17 -42,-18 -2,-1 -1,-1 -3,-1 -8,-5 -22,-6 -32,-9l-5 0c-3,-1 -5,-1 -7,-2l-16 -2c-5,-1 -13,-1 -15,-1 -3,-1 -4,-1 -6,-1 -5,-1 -13,0 -18,0 -4,-1 -9,-1 -13,-1 -5,2 -18,1 -24,1 -7,1 -22,0 -25,1l-72 6c-5,0 -14,0 -16,1 -6,1 -22,1 -23,1 -5,1 -13,1 -18,1 -5,1 -13,0 -18,0 -5,-1 -13,0 -18,0 -7,-1 -13,-1 -17,-2l-20 -2c-2,-1 -1,0 -3,0l-9 -2c-5,-1 -15,-3 -21,-4 -7,-2 -16,-4 -23,-6 -8,-3 -14,-6 -22,-8 -6,-3 -18,-9 -22,-10 -5,-4 -13,-7 -18,-11 -6,-4 -12,-9 -18,-13 -17,-14 -32,-33 -41,-52 -2,-4 -5,-11 -7,-15l-9 -44c-1,-4 -1,-9 -1,-13 -1,-4 -1,-9 -1,-14 -1,-4 0,-9 0,-13 1,-4 0,-12 0,-17 1,-6 1,-24 1,-24 1,-5 1,-17 2,-19 1,-7 2,-44 1,-50 -1,-4 -1,-10 -1,-14 -1,-3 -1,-5 -1,-8l-2 -11c-2,-12 -8,-31 -13,-42z"/>
   <path class="fil4 str1" d="M945 1281c8,10 16,22 22,34 5,11 11,30 13,42l2 11c0,3 0,5 1,8 0,4 0,10 1,14 1,6 0,43 -1,50 -1,2 -1,14 -2,19 0,0 0,18 -1,24 0,5 1,13 0,17 0,4 -1,9 0,13 0,5 0,10 1,14 0,4 0,9 1,13l9 44c2,4 5,11 7,15 9,19 24,38 41,52 6,4 12,9 18,13 5,4 13,7 18,11 4,1 16,7 22,10 8,2 14,5 22,8 7,2 16,4 23,6 6,1 16,3 21,4l9 2c2,0 1,-1 3,0l20 2c4,1 10,1 17,2 5,0 13,-1 18,0 5,0 13,1 18,0 5,0 13,0 18,-1 1,0 17,0 23,-1 2,-1 11,-1 16,-1l72 -6c3,-1 18,0 25,-1 6,0 19,1 24,-1 4,0 9,0 13,1 5,0 13,-1 18,0 2,0 3,0 6,1 2,0 10,0 15,1l16 2c2,1 4,1 7,2l5 0c10,3 24,4 32,9 2,0 1,0 3,1 12,1 32,15 42,18 11,8 26,14 36,24l12 9c6,5 25,24 29,29 7,9 28,37 33,44 4,7 8,14 12,20l16 30c1,3 8,17 10,22 4,7 7,15 10,22 3,8 16,39 16,44 7,11 14,41 19,54 2,7 15,52 16,57 1,5 0,4 4,8 4,-1 19,-5 23,-6 7,-6 18,-13 26,-19 7,-6 19,-14 26,-20l24 -20c11,-9 23,-21 33,-29 4,-3 13,-13 19,-18 8,-8 28,-26 33,-33 3,-4 7,-7 10,-11 3,-2 6,-5 7,-8l50 -58c10,-15 24,-30 34,-45 6,-7 11,-14 16,-22 5,-7 10,-16 15,-22 1,-5 5,-20 6,-24 -2,-2 -2,-2 -3,-3 -3,-1 -8,-2 -11,-3 -4,-3 -14,-8 -19,-12 -20,-12 -39,-25 -58,-37 -54,-32 -104,-72 -155,-107 -13,-9 -26,-20 -39,-30 -11,-8 -28,-20 -38,-30 -6,-4 -18,-13 -23,-18l-55 -46c-10,-8 -20,-17 -29,-25 -7,-7 -27,-25 -32,-33l-20 -23c-7,-9 -27,-35 -29,-44 -6,-7 -9,-21 -14,-29 0,-3 -1,-4 -2,-8 -1,-3 -6,-21 -6,-25l-4 -28c-1,-6 0,-22 1,-28l4 -24c0,-4 5,-15 7,-19 2,-5 3,-10 6,-15 6,-9 12,-19 19,-28 10,-13 23,-28 32,-42 2,-5 5,-11 8,-14 0,-1 6,-15 7,-16 0,-2 0,-2 0,-5l3 -15 -1 -17c-1,-5 -2,-10 -5,-15 -2,-5 -4,-9 -8,-13 -11,-14 -28,-22 -44,-28 -5,-2 -12,-4 -16,-6 -3,0 -1,0 -4,-1 -11,-1 -32,-12 -44,-13 -2,-1 -1,-1 -4,-1 -3,-2 -19,-8 -22,-9 -2,-1 0,0 -2,-1 -2,-1 -4,-2 -7,-3 -12,-6 -24,-15 -32,-26 -3,-4 -6,-9 -9,-12 0,-3 0,-2 -1,-4 -1,-2 -1,-3 -3,-5 -2,-6 -5,-18 -7,-25l-1 -15c0,-5 -1,-11 0,-15l1 -14c1,-1 1,-2 2,-4l0 -2c3,-11 4,-18 9,-29 4,-10 7,-18 11,-29l0 -2c0,-1 0,-2 1,-3 0,-3 0,-3 0,-5 1,-3 0,-7 1,-11l-1 -19c-1,-1 -1,-3 -1,-4l0 -2c-2,-4 -5,-13 -6,-17 -2,-3 -3,-7 -6,-10 -2,-4 -5,-7 -7,-11 -6,-7 -16,-16 -24,-21 -2,-1 -3,-2 -5,-2 -3,-2 -15,-8 -18,-9 -4,-3 -9,-5 -13,-7 -4,-3 -8,-7 -12,-10l-15 -15c-3,-4 -6,-8 -9,-13 -3,-4 -5,-10 -7,-13l-6 -22c-1,-2 -1,-3 -1,-4l-1 -12c-1,-3 0,-12 1,-15l1 -10c2,-5 2,-10 4,-14 1,-6 9,-24 13,-30 6,-11 13,-19 20,-29 5,-7 11,-13 17,-20 4,-4 16,-15 21,-20l15 -13c13,-8 27,-21 40,-31 13,-9 26,-18 39,-27 41,-27 114,-73 158,-91 12,-5 28,-12 40,-18 13,-6 26,-11 39,-17 2,-1 1,-4 6,-9 -2,-5 -4,-11 -7,-16 -8,-5 -16,-11 -25,-15 -6,-4 -20,-11 -25,-15 -3,-1 -25,-13 -29,-15 -7,-5 -21,-11 -29,-15 -19,-8 -38,-17 -57,-25 -38,-17 -77,-28 -115,-41l-21 -2c-4,-1 -5,-1 -10,-1 0,3 0,7 1,10 0,1 0,18 1,25 1,5 0,10 1,15 0,6 1,16 0,21 0,3 0,8 -1,11 -1,5 0,9 -1,14 -1,2 -1,3 -1,4l-1 8c-1,5 -3,13 -4,18 -3,18 -11,38 -18,54 -13,29 -32,56 -52,80 -5,6 -22,22 -28,27 -9,6 -17,14 -26,20 -8,5 -17,11 -26,15 -16,9 -33,16 -50,23 -46,16 -95,34 -127,72 -7,10 -20,29 -20,41 -1,1 -1,3 -2,4l-1 15c0,3 -1,7 0,11l1 13c5,14 7,23 15,37 22,39 57,71 77,110 1,2 0,1 2,3 0,3 1,4 3,6 1,5 5,12 6,17l4 21c1,5 1,11 2,17 0,5 1,11 0,16l-2 15 -6 32c-3,4 -6,13 -8,18 -2,6 -6,13 -9,19 -8,14 -18,28 -29,40 -4,5 -15,17 -20,20 -9,8 -24,19 -34,25 -10,5 -20,11 -30,15 -13,5 -48,18 -61,19 -4,1 -9,1 -12,3l-11 1c-2,0 -3,0 -5,1l-21 2c-3,1 -13,0 -18,1 -6,0 -15,-1 -20,1 -5,0 -11,1 -15,-1 -6,0 -18,1 -23,0 -3,0 -8,0 -12,-1 -3,0 -7,0 -10,0 -3,0 -3,0 -6,-1l-64 -8c-2,0 -2,0 -4,-1l-21 -3c-7,-2 -19,-4 -27,-6 -8,-2 -18,-4 -26,-7 -19,-5 -36,-11 -54,-18 -32,-12 -83,-38 -108,-62 -1,-1 -3,-3 -4,-4 -10,-8 -26,-25 -35,-35 -7,-9 -17,-24 -24,-34 -6,-10 -11,-20 -16,-30 -5,-12 -19,-48 -19,-60l-3 -17c-1,-8 0,-17 -2,-24 0,-3 0,-4 1,-7 0,0 0,-13 1,-19l1 -8c0,-2 1,-4 1,-6l0 -3c1,-3 4,-14 4,-17 3,-5 5,-15 8,-20 3,-7 5,-14 9,-20 5,-13 13,-28 20,-40 8,-13 15,-26 22,-40 4,-7 7,-13 10,-20 2,-5 5,-15 7,-19l6 -22c0,-3 -1,-3 0,-5l1 -13c0,-3 1,-8 0,-11l-1 -15c-2,-4 -2,-10 -4,-14 -2,-6 -4,-10 -7,-15 -6,-13 -13,-19 -20,-30 -6,-7 -13,-13 -18,-19 -4,-5 -11,-11 -14,-15l-15 -16c-10,-12 -1,-5 -11,-15 -2,1 -17,5 -20,6 -4,2 -24,21 -29,25 -6,5 -16,15 -23,21 -9,9 -36,34 -42,43l-60 68c-7,10 -17,22 -25,32 -37,49 -74,109 -102,163 -6,11 -11,22 -16,33 -4,8 -10,26 -15,32 0,3 -7,17 -8,21 -4,8 -14,33 -17,42 -2,5 -5,16 -7,20 0,3 0,2 -1,4 -1,2 -8,26 -10,28 0,5 -6,22 -8,29l-15 58c-5,19 -6,30 -9,48l-13 90c-1,3 -1,12 -2,19 0,0 0,10 -1,15l-1 15c0,5 1,14 -1,19 0,3 1,7 0,10l0 33c0,1 0,1 0,2l28 5c11,4 47,20 55,20 11,7 110,34 124,35 8,2 18,3 26,6l86 11c4,0 15,1 20,2 1,0 17,0 22,1 6,0 14,-1 19,0 6,1 62,0 70,-1 1,0 16,0 21,-1l99 -12c2,0 2,0 4,0l36 -6c1,-1 2,-1 4,-1l95 -12c4,0 11,0 15,-1 6,0 19,-1 24,1 5,0 10,-1 14,0 1,0 8,0 13,1l12 2c2,0 4,1 6,1 10,1 25,5 33,8 18,6 37,12 53,23 9,5 17,12 26,18 5,4 17,15 21,20z"/>
  </g>
 </g>
</svg>
