<?xml version="1.0" encoding="UTF-8"?>
<!DOCTYPE svg PUBLIC "-//W3C//DTD SVG 1.1//EN" "http://www.w3.org/Graphics/SVG/1.1/DTD/svg11.dtd">
<!-- Creator: CorelDRAW 2020 (64-Bit) -->
<svg xmlns="http://www.w3.org/2000/svg" xml:space="preserve" width="128px" height="128px" version="1.1" style="shape-rendering:geometricPrecision; text-rendering:geometricPrecision; image-rendering:optimizeQuality; fill-rule:evenodd; clip-rule:evenodd"
viewBox="0 0 2268 2271"
 xmlns:xlink="http://www.w3.org/1999/xlink"
 xmlns:xodm="http://www.corel.com/coreldraw/odm/2003">
 <defs>
  <style type="text/css">
   <![CDATA[
    .str1 {stroke:#2B2A29;stroke-width:16;stroke-miterlimit:22.9256}
    .str0 {stroke:black;stroke-width:36;stroke-linecap:square;stroke-miterlimit:22.9256}
    .fil0 {fill:none}
    .fil1 {fill:#7688A1}
    .fil5 {fill:#009933}
    .fil4 {fill:#00CCFF}
    .fil6 {fill:gray}
    .fil8 {fill:#B3B3B3}
    .fil7 {fill:#FF9966}
    .fil9 {fill:#FFCC00}
    .fil3 {fill:#FFCC99}
    .fil2 {fill:white}
   ]]>
  </style>
 </defs>
 <g id="planets">
  <metadata id="CorelCorpID_0Corel-Layer"/>
  <g id="_1325802359248">
   <path class="fil0 str0" d="M709 2158l8 -11c15,-3 95,-27 114,-33 8,-2 32,-9 38,-12 2,-1 1,0 3,-1 4,-1 20,-7 26,-9 5,-2 20,-9 25,-9 3,-5 6,-11 9,-17m444 -6c-3,1 -15,1 -17,1l-88 8c-5,1 -21,1 -22,1 -3,1 -4,1 -7,1 -6,1 -22,1 -23,1 -4,1 -8,1 -12,1 -5,1 -30,0 -37,0 -4,2 -36,1 -44,1 -4,-2 -26,-1 -33,-1 -6,-1 -18,-1 -20,-1 -6,-1 -22,-1 -23,-1 -3,-1 -23,-2 -24,-2l-8 -9m363 -1c-3,1 -3,1 -5,1m10 -1c-3,0 -3,0 -5,0m10 -1c-2,1 -3,1 -5,1m10 -2c-2,1 -3,1 -5,1m10 -1c-2,1 -3,0 -5,0m10 -1c-2,1 -3,1 -5,1m9 -1c-2,1 -2,0 -4,0m9 -1c-2,1 -2,1 -5,1m9 -1c-2,0 -2,0 -4,0m8 -1c-2,1 -1,1 -4,1m9 -2c-2,1 -2,1 -5,1m9 -1c-2,1 -2,0 -4,0m8 -1c-2,1 -1,1 -4,1m8 -1c-2,1 -2,0 -4,0m8 -1c-2,1 -2,1 -4,1m8 -1c-2,0 -1,0 -4,0m9 -1c-2,1 -2,1 -5,1m9 -1c-2,0 -2,0 -4,0m8 -1c-2,1 -2,1 -4,1m8 -2c-2,1 -2,1 -4,1m8 -1c-3,1 -2,0 -4,0m7 -1c-2,1 -1,1 -3,1m7 -1c-2,1 -1,0 -4,0m8 -1c-2,1 -1,1 -4,1m8 -1c-2,0 -2,0 -4,0m8 -1c-2,1 -2,1 -4,1m7 -1c-2,0 -1,0 -3,0m7 -1c-2,1 -1,1 -4,1m8 -2c-2,1 -2,1 -4,1m8 -1c-2,1 -1,0 -4,0m8 -1c-2,1 -2,1 -4,1m8 -1c-3,1 -2,0 -4,0m7 -1c-2,1 -1,1 -3,1m7 -1c-2,0 -2,0 -4,0m7 -1c-2,1 -1,1 -3,1m7 -2c-2,1 -1,1 -4,1m8 -1c-2,1 -2,0 -4,0m7 -1c-2,1 -1,1 -3,1m7 -1c-2,1 -1,0 -4,0m8 -1c-2,1 -2,1 -4,1m8 -1c-2,0 -2,0 -4,0m7 -1c-2,1 -1,1 -3,1m6 -1c-2,0 -1,0 -3,0m7 -1c-2,1 -1,1 -4,1m8 -2c-2,1 -1,1 -4,1m7 -1c-2,1 -1,0 -3,0m7 -1c-2,1 -2,1 -4,1m7 -1c-2,1 -1,0 -3,0m7 -1c-2,1 -2,1 -4,1m7 -1c-2,0 -1,0 -3,0m6 -1c-1,1 0,1 -3,1m7 -1c-2,0 -1,0 -4,0m8 -1c-2,1 -2,1 -4,1m7 -2c-2,1 -1,1 -3,1m7 -1c-2,1 -2,0 -4,0m7 -1c-2,1 -1,1 -3,1m7 -1c-2,0 -2,0 -4,0m7 -1c-2,1 -1,1 -3,1m6 -1c-2,0 -1,0 -3,0m7 -1c-2,1 -1,1 -4,1m7 -2c-2,1 -1,1 -3,1m6 -1c-2,1 -1,0 -3,0m7 -1c-2,1 -1,1 -4,1m7 -1c-2,1 -1,0 -3,0m6 -1c-2,1 -1,1 -3,1m7 -1c-2,0 -1,0 -4,0m7 -1c-2,1 -1,1 -3,1m7 -1c-2,0 -2,0 -4,0m7 -1c-2,1 -1,1 -3,1m6 -2c-2,1 -1,1 -3,1m7 -1c-2,1 -1,0 -4,0m7 -1c-2,1 -1,1 -3,1m6 -1c-2,1 -1,0 -3,0m7 -1c-2,1 -1,1 -4,1m7 -1c-2,0 -1,0 -3,0m6 -1c-2,1 -1,1 -3,1m6 -1c-2,0 0,0 -3,0m7 -1c-2,1 -2,1 -4,1m7 -2c-2,1 -1,1 -3,1m6 -1c-2,1 -1,0 -3,0m7 -1c-2,1 -1,1 -4,1m7 -1c-2,0 -1,0 -3,0m6 -1c-2,1 -1,1 -3,1m7 -1c-2,0 -2,0 -4,0m6 -1c-1,1 0,1 -2,1m6 -2c-2,1 -1,1 -4,1m7 -1c-2,1 -1,0 -3,0m7 -1c-2,1 -2,1 -4,1m7 -1c-2,1 -1,0 -3,0m6 -1c-2,1 -1,1 -3,1m7 -1c-2,0 -1,0 -4,0m6 -1c-1,1 0,1 -2,1m6 -1c-2,0 -1,0 -4,0m7 -1c-2,1 -1,1 -3,1m6 -2c-2,1 -1,1 -3,1m7 -1c-2,1 -2,0 -4,0m7 -1c-2,1 -1,1 -3,1m6 -1c-2,1 -1,0 -3,0m6 -1c-2,1 -1,1 -3,1m7 -1c-2,0 -1,0 -4,0m7 -1c-2,1 -1,1 -3,1m6 -1c-1,0 -1,0 -3,0m7 -1c-2,1 -1,1 -4,1m7 -2c-2,1 -1,1 -3,1m6 -1c-2,1 -1,0 -3,0m6 -1c-2,1 -1,1 -3,1m7 -1c-2,0 -1,0 -4,0m7 -1c-2,1 -1,1 -3,1m6 -1c-2,0 -1,0 -3,0m7 -1c-2,1 -2,1 -4,1m7 -2c-2,1 -1,1 -3,1m6 -1c-2,1 -1,0 -3,0m6 -1c-2,1 -1,1 -3,1m7 -1c-2,1 -1,0 -4,0m11 -1c-2,1 -5,1 -7,1m14 -1c-3,1 -4,0 -7,0m14 -1c-2,1 -5,1 -7,1m14 -1c-2,0 -4,0 -7,0m14 3l-4 -3 -3 0m-1170 160c-3,-5 -6,-11 -9,-17 -8,-4 -22,-9 -28,-15 -7,-1 -38,-20 -46,-25 -31,-19 -61,-38 -91,-61 -8,-5 -15,-11 -23,-17 -7,-6 -15,-13 -23,-18l-37 -33c-5,-3 -24,-21 -26,-23 -2,-7 -6,-17 -7,-24m959 1l14 -15m1 -1c2,1 0,1 0,0m-718 -239c-4,1 -12,0 -17,0 -4,2 -25,1 -31,1 -7,2 -108,0 -124,0 -5,-1 -28,0 -34,0 -5,1 -25,0 -32,0 -5,-1 -60,0 -70,0 -8,-3 -123,-1 -141,-1m469 -1c-4,2 -15,1 -20,1m32 -1c-3,1 -8,0 -12,0m23 -1c-3,1 -8,1 -11,1m21 -2c-3,2 -7,1 -10,1m19 -1c-3,1 -6,0 -9,0m19 -1c-3,1 -7,1 -10,1m20 -1c-3,1 -7,0 -10,0m18 -1c-3,1 -5,1 -8,1m15 -1c-2,0 -5,0 -7,0m12 -1c-2,1 -3,1 -5,1m11 -2c-2,1 -3,1 -6,1m12 -1c-3,1 -3,0 -6,0m11 -1c-2,1 -3,1 -5,1m11 -1c-2,1 -3,0 -6,0m12 -1c-2,1 -4,1 -6,1m12 -1c-3,1 -3,0 -6,0m11 -1c-3,1 -3,1 -5,1m10 -1c-3,0 -3,0 -5,0m10 -1c-2,1 -3,1 -5,1m9 -2c-2,1 -1,1 -4,1m9 -1c-2,1 -2,0 -5,0m8 -1c-2,1 -1,1 -3,1m8 -1c-3,1 -3,0 -5,0m8 -1c-2,1 -1,1 -3,1m6 -1c-2,0 -1,0 -3,0m7 -1c-2,1 -1,1 -4,1m8 -1c-2,0 -1,0 -4,0m7 -1c-1,1 -1,1 -3,1m7 -2c-2,1 -1,1 -4,1m8 -1c-2,1 -1,0 -4,0m8 -1c-2,1 -1,1 -4,1m8 -1c-3,1 -2,0 -4,0m7 -1c-2,1 -1,1 -3,1m6 -1c-2,0 -1,0 -3,0m7 -1c-2,1 -1,1 -4,1m7 -2c-2,1 -1,1 -3,1m6 -1c-2,1 -1,0 -3,0m6 -1c-2,1 -1,1 -3,1m6 -1c-2,0 -1,0 -3,0m6 -1c-2,1 -1,1 -3,1m6 -1c-2,0 -1,0 -3,0m5 -1c-1,1 0,1 -2,1m5 -1c-2,0 0,0 -3,0m5 -1c-1,1 0,1 -2,1m5 -2c-2,1 0,1 -3,1m6 -1c-2,1 -1,0 -3,0m6 -1c-2,1 -1,1 -3,1m6 -1c-2,0 -1,0 -3,0m5 -1c-1,1 0,1 -2,1m5 -1c-2,0 -1,0 -3,0m5 -1c-1,1 0,1 -2,1m5 -1c-2,0 0,0 -3,0m5 -1c-1,1 0,1 -2,1m5 -2c-1,1 0,1 -3,1m6 -1c-2,1 -1,0 -3,0m5 -1c-1,1 0,1 -2,1m5 -1c-2,0 0,0 -3,0m5 -1c-1,1 0,1 -2,1m5 -1c-2,0 0,0 -3,0m5 -1c-1,1 0,1 -2,1m5 -2c-2,1 0,1 -3,1m5 -1c-1,1 0,0 -2,0m5 -1c-1,1 0,1 -3,1m5 -1c-1,0 0,0 -2,0m5 -1c-2,1 -1,1 -3,1m5 -1c-1,0 0,0 -2,0m4 -1c-1,1 0,1 -2,1m4 -1c-1,0 0,0 -2,0m5 -1c-2,1 -1,1 -3,1m7 -2c-2,1 0,0 -3,0m7 -1c-1,0 0,0 -2,0m6 -1c-1,0 0,0 -2,0m4 -1c-1,1 0,1 -2,1m4 -1c-1,0 0,0 -2,0m6 -2c-1,1 0,1 -2,1m6 -2c-1,1 0,1 -2,1m5 -1c-2,0 -1,0 -3,0m5 -1c-2,1 -1,1 -2,1m6 -2c-2,1 -1,1 -3,1m5 -2c-1,1 0,1 -2,1m6 -2c-1,1 0,1 -2,1m7 -2c-1,0 0,0 -2,0m6 -1c-1,0 0,0 -2,0m6 -2c-1,1 0,1 -2,1m8 -2c-1,0 0,0 -2,0m6 -1c-2,0 0,0 -2,0m6 -1c-2,0 -1,0 -3,0m10 -3c-1,1 0,1 -2,1m8 -2c-2,0 -1,0 -3,0m10 -3c-1,1 0,1 -2,1m14 -5c-1,1 0,1 -2,1m6 -2c-2,1 -1,1 -3,1m6 -2c-1,1 0,1 -2,1m5 -2c-1,1 0,1 -2,1m279 -117c-1,0 0,0 -2,0m5 -1c-2,1 -1,1 -3,1m5 -1c-1,0 0,0 -2,0m6 -1c-2,1 -1,1 -4,1m7 -2c-2,1 -1,1 -3,1m5 -1c-1,1 0,0 -2,0m5 -1c-2,1 0,1 -3,1m6 -1c-2,0 -1,0 -3,0m6 -1c-2,1 -1,1 -3,1m6 -1c-2,0 -1,0 -3,0m-1084 311l3 -3 235 -34c2,-1 2,-1 4,-1l127 -20c2,-1 3,-1 4,-1l163 -30c2,0 9,-1 11,-2 3,0 10,-1 12,-2 3,0 15,-3 18,-3 2,0 14,-3 17,-4 6,0 21,-4 28,-5 10,-2 19,-4 29,-6 10,-2 19,-4 29,-6 37,-7 74,-16 112,-23 28,-6 56,-13 84,-19 29,-5 56,-13 84,-20 22,-6 43,-17 63,-28 7,-4 14,-11 21,-15 10,-9 25,-26 31,-37 4,-6 6,-14 10,-20l3 -19c0,-2 0,-2 0,-4l1 -8c-2,-2 0,-1 -2,-1m-678 679c5,1 6,1 7,1l8 1 34 0 14 2c2,5 6,12 9,16 3,0 46,17 49,18 4,1 16,6 21,7 7,2 14,5 20,7 14,3 28,7 42,11 17,5 44,11 62,14l133 19c5,1 18,1 18,1 5,1 18,1 19,1 4,1 9,1 14,1 5,1 63,0 74,0 5,0 20,-1 21,-1 3,-1 6,0 9,0 6,-1 18,-1 20,-1l118 -16c7,0 27,-6 36,-7 17,-4 57,-14 73,-19 5,-2 33,-11 37,-11 5,-3 15,-5 20,-8 7,0 68,-25 77,-30 26,-12 52,-23 77,-37 26,-16 52,-28 77,-45 13,-9 26,-17 39,-26 12,-9 26,-20 38,-29 3,-3 10,-21 11,-26 4,0 9,-4 14,-5 2,-1 0,0 3,-1 1,-1 1,-1 3,-2 3,0 1,1 3,-1 2,0 2,-1 4,-1 2,-2 0,-1 3,-1 1,-1 1,-1 3,-3 1,0 8,-2 11,-5l34 -31c9,-6 31,-30 40,-39 6,-7 16,-17 21,-22 7,-10 18,-20 26,-30l8 -10c6,-9 15,-18 21,-27 23,-30 36,-49 57,-81 10,-15 57,-94 60,-107 5,-6 12,-25 16,-33 16,-34 26,-64 39,-99 9,-23 22,-71 29,-98 3,-11 4,-24 7,-33 3,-13 6,-28 8,-41l3 -34 -3 -3m-2144 222c2,-1 6,0 9,0 6,0 23,1 24,1l39 3c5,1 19,1 19,1 3,1 7,1 10,1 6,1 18,1 20,1 4,1 9,0 13,0 5,2 11,1 16,1 4,1 12,1 17,1 5,1 41,0 49,0 5,1 0,1 5,0l49 0c4,-1 14,0 19,0 4,-2 9,-1 13,-1 7,-1 19,-1 22,-1 3,-1 6,-1 9,-1 6,-1 18,-1 20,-1 5,-1 18,-1 19,-1l183 -22 53 -9c6,0 24,-5 31,-7 32,-6 67,-14 98,-22 22,-5 43,-12 65,-18 10,-3 22,-6 32,-9 6,-2 29,-10 33,-10 2,-2 1,-1 3,-1 2,-2 1,-1 3,-2 3,-1 1,-1 4,-1 2,-1 1,-1 3,-1 2,-1 1,-1 4,-1 4,-3 10,-3 14,-6 20,-6 53,-18 76,-27 23,-9 45,-18 67,-28 22,-9 45,-19 66,-30 10,-5 24,-12 34,-16 5,-2 29,-14 33,-17 3,-1 33,-17 38,-20 11,-7 25,-15 37,-21 13,-7 25,-14 38,-21 7,-3 33,-16 38,-20m81 -35c-1,0 0,0 -2,0m6 -1c-2,0 0,0 -2,0m5 -1c-1,0 0,0 -2,0m19 -6c-1,1 0,0 -2,0m6 -1c-1,0 0,0 -2,0m6 -1c-1,0 0,0 -2,0m5 -1c-2,1 -1,1 -3,1m5 -1c-1,0 0,0 -2,0m5 -1c-2,1 -1,1 -3,1m5 -2c-1,1 0,1 -2,1m4 -1c-1,0 0,0 -2,0m4 -1c-1,1 0,1 -2,1m5 -1c-2,0 -1,0 -3,0m5 -1c-1,1 0,1 -2,1m4 -1c-1,0 0,0 -2,0m5 -1c-2,1 -1,1 -3,1m6 -1c-2,0 -1,0 -3,0m7 -1c-3,1 -2,1 -4,1m7 -2c-2,1 -1,1 -3,1m6 -1c-2,1 -1,0 -3,0m6 -1c-2,1 -1,1 -3,1m6 -1c-2,0 -1,0 -3,0m8 -1c-2,1 -3,1 -5,1m10 -1c-2,0 -3,0 -5,0m8 -1c-2,1 -1,1 -3,1m12 -2c-2,1 -6,1 -9,1m17 -1c-3,1 -5,0 -8,0m-1569 63c-1,3 -2,7 -1,10 1,5 1,23 1,23l2 23c1,5 1,21 1,21 2,8 0,9 -1,16l0 6c9,9 7,2 9,13l3 17c3,19 5,29 10,50 6,25 12,51 20,75 3,6 12,33 13,38 0,3 6,6 9,7l4 29c3,6 8,21 11,28 3,6 11,22 12,27 1,2 7,15 8,17 1,1 1,2 2,3 1,4 3,5 3,9 2,2 2,3 4,5 0,3 8,18 10,20 1,3 4,11 6,13 2,1 10,5 12,5 1,9 5,19 6,27 17,29 34,54 53,82l2 3c4,2 11,5 15,6 0,6 5,16 6,23 0,2 27,36 34,44l30 34c3,3 24,26 26,27 6,1 16,7 23,7 2,-1 2,-2 4,-4l13 0c5,-1 18,-1 19,-1l234 -28 50 -9c3,0 10,-1 12,-2 4,0 22,-4 25,-5 3,0 16,-3 19,-4 8,0 28,-6 37,-7 29,-6 84,-20 111,-28 24,-7 48,-14 73,-21 12,-4 25,-7 37,-11 9,-3 30,-9 37,-13 2,0 1,0 3,-1 2,0 11,-3 13,-4 14,-5 29,-11 44,-16 34,-13 73,-27 106,-42 36,-15 70,-30 105,-47 8,-4 30,-13 36,-18 3,0 11,-4 13,-6 3,-1 5,-2 7,-4 2,0 2,0 4,-2 6,-1 24,-12 31,-16 10,-5 20,-11 31,-16 21,-11 41,-24 61,-36 20,-11 43,-27 62,-40 10,-8 21,-15 31,-22 10,-8 21,-17 31,-24l45 -40c9,-6 36,-32 42,-40l16 -18c9,-14 18,-24 27,-38 4,-6 6,-12 9,-18 3,-6 5,-14 8,-19l6 -23 1 -18c1,-4 1,-10 1,-15l-2 -17c0,-1 -1,-2 -1,-3l0 -3c-3,-8 -4,-15 -8,-22 -5,-10 -8,-14 -14,-22l-16 -16c-9,-6 -15,-10 -24,-15 -7,-3 -18,-6 -24,-9 -3,0 -13,-3 -17,-4l-2 0c-2,-1 -4,-1 -7,-2l-7 0c-13,-3 -25,-2 -38,-2m-292 768l4 4 3 0c1,3 0,1 5,1l24 -3c58,-20 102,-44 155,-76 53,-32 105,-70 157,-104 25,-18 52,-36 77,-54 26,-19 53,-37 79,-56 37,-27 80,-59 117,-88 11,-9 27,-22 39,-30l97 -83c8,-6 18,-16 25,-22l56 -51c6,-4 15,-14 17,-16 4,-2 7,-6 10,-9 4,-3 8,-7 11,-10 5,-3 9,-9 13,-13 4,-2 7,-6 11,-10 4,-1 21,-7 25,-8 3,-8 4,-9 6,-12 0,-2 0,-2 0,-3 2,-3 2,-3 3,-6l3 -37c1,-6 1,-18 1,-18 1,-5 1,-19 1,-19 1,-3 1,-5 1,-8 1,-4 0,-13 0,-17 2,-5 1,-51 1,-60 -1,-5 -1,-12 -1,-17 0,-4 -1,-18 -1,-18 -1,-6 -1,-20 -1,-21l-1 -13c-1,-2 -6,-6 -8,-8m-1057 921l-11 22c-2,1 -2,1 -4,1 -2,2 -2,2 -5,3 -6,4 -24,12 -32,16 -22,10 -45,21 -66,30 -10,5 -23,11 -33,15 -4,5 -8,14 -11,19l-29 3c-11,2 -30,0 -38,1l-19 2c-2,-3 -5,-7 -8,-10 -5,0 -29,-6 -35,-7 -6,-1 -25,-7 -29,-7 -7,-4 -13,-5 -21,-10 -2,-2 -8,-8 -9,-10 0,-1 -4,-15 -3,-18 0,-2 3,-13 4,-15 5,-7 8,-11 14,-17 8,-5 15,-9 23,-14 7,-3 17,-6 23,-10 2,0 3,-1 5,-1 8,-4 18,-4 27,-7l20 -3c6,-1 13,-1 13,-1 3,-1 3,-1 6,-1 4,-1 11,0 16,0 4,-2 12,-1 17,-1 4,2 11,1 16,1 4,1 15,1 16,1l103 9c6,1 20,1 22,1 4,1 15,1 20,1l8 7c11,-4 26,-5 38,-9l13 -1c3,-1 4,-1 6,-1 4,-1 9,-2 12,-4l2 0c2,-1 6,-2 9,-3 2,-1 4,-1 6,-2 2,-1 2,-1 4,-2 9,-1 29,-12 38,-14 3,-7 8,-18 12,-24 13,-9 29,-17 43,-26 15,-9 30,-18 45,-27 29,-18 58,-39 87,-58 30,-20 59,-42 88,-63 15,-10 30,-22 44,-32 14,-11 30,-25 44,-35l126 -107c6,-5 14,-13 19,-17l15 -14c3,-2 6,-5 9,-8 3,-2 7,-6 10,-9 4,-3 9,-9 13,-13 7,-5 23,-23 30,-30 2,-1 2,-1 4,-3 5,-7 23,-23 30,-31 3,-4 8,-8 12,-12 5,-6 15,-16 18,-19 5,-6 15,-16 19,-21 10,-12 24,-27 34,-39l42 -50c8,-8 17,-21 24,-29 38,-49 72,-97 105,-149 13,-19 24,-39 36,-59 5,-3 15,-7 20,-10 1,-5 3,-13 4,-17l0 -30c1,-3 1,-7 2,-10l0 -3c0,-2 1,-3 1,-6m-68 -205c-5,3 -10,5 -15,7 -8,13 -16,23 -25,35l-11 13c-5,7 -16,18 -22,23 -7,6 -15,14 -23,20 -8,6 -17,13 -24,19 -23,17 -48,33 -73,45 -17,8 -32,16 -49,23 -7,4 -16,7 -24,10 -6,3 -19,6 -24,9 -5,1 -26,8 -33,10 -11,3 -22,6 -33,8 -11,2 -22,5 -33,7 -9,2 -24,4 -33,7l-531 61 -27 5c-9,0 -35,8 -46,11 -8,2 -16,4 -24,6 -4,2 -19,7 -23,7 -2,2 -1,1 -3,1 -6,4 -20,8 -27,11 -9,4 -18,8 -27,11 -10,5 -47,21 -54,27 -6,1 -22,11 -29,15 -10,5 -20,10 -30,16 -8,4 -53,29 -58,30 -2,2 -2,2 -5,2 -2,2 -4,3 -7,4 -7,6 -49,24 -60,28 -10,4 -20,9 -30,12 -6,2 -26,9 -31,11 -2,0 -1,0 -3,1 -2,1 -1,0 -3,2 -5,0 -18,5 -24,6 -16,5 -32,10 -48,13 -7,2 -17,4 -24,6 -12,2 -26,5 -38,7l-89 10c-5,1 -20,1 -21,1 -4,2 -10,1 -15,1 -5,1 -52,0 -61,0 -7,-1 -24,-1 -25,-1 -5,-1 -18,-1 -20,-1l-95 -12c-9,-3 -26,-6 -35,-8 -24,-4 -47,-11 -71,-18 -8,-2 -29,-8 -35,-11 -5,-1 -33,-12 -40,-15 -6,-2 -13,-5 -19,-8 -5,-1 -16,-7 -20,-8 -4,-3 -6,-2 -9,-3 -7,-2 -17,-3 -24,-5 -5,-9 -2,-8 -3,-13 -1,-4 0,-9 0,-13 -2,-4 -1,-10 -1,-15 -1,-4 0,-16 0,-21 -2,-4 -1,-19 -1,-24 1,-4 1,-16 1,-21 1,-5 0,-11 0,-15 1,-7 1,-19 1,-22 1,-7 1,-16 2,-23l4 -41c1,-2 0,-2 0,-5 1,-2 1,-3 2,-5l0 -3c0,-2 0,-3 1,-4l0 -4c0,-2 0,-3 1,-4l0 -4c0,-2 0,-3 1,-5l0 -3c0,-2 0,-3 1,-5l3 -19c0,-1 0,-3 1,-4l0 -2c0,-1 1,-3 1,-4l2 -13c1,-1 1,-2 1,-3l3 -12c0,-7 5,-27 7,-34 2,-8 9,-28 9,-34 0,-1 16,-53 16,-54 1,-1 1,-2 2,-4 1,-3 0,-1 1,-4 1,-2 2,-4 3,-6 0,-2 0,-1 1,-3 0,-2 1,-4 2,-6 0,-3 0,-1 1,-4 0,-2 1,-4 2,-6 1,-2 4,-12 5,-14 2,-1 3,-1 4,-2m193 -309c-3,1 -6,3 -9,4 -2,1 -3,2 -6,2 -1,2 -1,1 -3,2l-5 3c-7,10 -17,21 -24,31 -23,30 -45,63 -64,95 -13,21 -25,41 -36,63 -5,10 -10,21 -15,31 -3,6 -13,27 -14,32 -3,4 -6,12 -8,17l-4 20c0,5 1,4 -1,7 2,0 1,0 3,2 4,0 10,2 15,2 3,1 21,12 25,14 4,1 22,9 28,12 7,3 23,7 28,11 3,0 2,0 4,1 4,0 16,4 21,6 6,1 16,4 22,6 3,0 21,4 24,5l42 5c5,0 16,0 18,1 4,1 17,0 23,0 2,1 1,1 3,0l28 0c4,-1 9,-1 13,-1 7,-1 13,-2 20,-3 2,0 1,0 4,0l15 -2c8,-3 22,-5 30,-7 49,-9 102,-29 150,-41 11,-2 21,-5 31,-7l56 -11 16 -2c2,-1 2,-1 4,-1l26 -2c4,-1 11,0 16,0 4,-2 20,-1 26,-1 4,-1 13,-1 18,-1 4,2 10,1 15,1 7,1 18,1 21,1l262 30c6,1 15,1 15,1 6,1 17,1 20,1 3,1 8,1 11,1 5,1 24,0 31,0 2,1 1,1 3,1 4,-2 23,-1 28,-1 6,-1 18,-1 20,-1l59 -7c9,-3 20,-4 29,-7 6,-1 24,-7 29,-8 6,-3 22,-8 30,-11 17,-7 45,-22 60,-33 13,-9 27,-19 39,-30 10,-8 35,-31 41,-38 7,-9 16,-18 23,-27 1,-2 2,-2 3,-4 10,-14 23,-28 33,-43 9,-14 19,-28 29,-43 18,-28 34,-57 51,-86 24,-42 49,-89 76,-129l28 -43c4,-8 -1,-3 6,-11m-115 -72c-1,1 -1,1 -3,2 -3,5 0,9 -6,14 -11,10 -21,16 -34,23 -7,4 -16,6 -22,9 -4,1 -15,4 -19,5 -3,1 -18,4 -22,5l-68 11c-8,2 -18,4 -27,6 -53,16 -90,40 -135,71 -19,13 -37,30 -55,42 -8,8 -23,19 -33,26 -11,8 -22,17 -33,25 -31,23 -64,43 -99,59 -19,9 -45,17 -66,23 -10,3 -24,4 -33,7l-46 6c-2,1 -2,0 -5,0 -6,1 -16,1 -19,2 -7,1 -52,2 -59,1 -5,-1 -17,-1 -19,-1 -6,-1 -20,-1 -21,-2l-153 -21c-2,0 -9,-2 -12,-3 -3,0 -19,-3 -23,-4l-11 -2c-3,0 -14,-3 -17,-4 -3,0 -15,-2 -17,-3l-31 -6c-22,-3 -45,-8 -67,-11l-98 -11c-2,-1 -4,-1 -7,-1 -4,-1 -8,0 -12,0 -4,-2 -14,-1 -19,-1 -4,-1 -23,0 -29,0 -4,1 -28,0 -34,0 -3,1 -7,1 -10,1l-3 -3c3,-8 5,-17 8,-26l12 -13c4,-5 11,-12 14,-15 6,-9 33,-34 43,-43 6,-6 15,-14 20,-19l23 -21c2,-1 3,-2 5,-3l2 -2c2,-1 3,-2 5,-4l17 -14c3,-3 8,-6 11,-8 13,-13 34,-23 47,-35 2,-1 15,-10 17,-12 3,-1 2,-1 4,-3 2,-1 1,0 3,-2l11 -7c7,-6 32,-20 41,-25 7,-4 14,-8 21,-12 5,-2 17,-9 21,-11 2,-1 2,-1 4,-3m121 -53c-2,0 -1,0 -3,0m9 -3c-2,1 -1,1 -3,1m9 -3c-1,1 0,1 -2,1m8 -3c-1,1 0,0 -2,0m5 -1c-1,0 0,0 -2,0m12 -4c-1,1 0,1 -2,1m15 -5c-2,1 0,0 -2,0m5 -1c-1,0 0,0 -2,0m5 -1c-1,0 0,0 -2,0m6 -1c-1,0 0,0 -2,0m5 -2c-1,1 0,1 -2,1m8 -2c-2,0 0,0 -2,0m5 -1c-1,0 0,0 -2,0m9 -3c-1,1 0,1 -2,1m6 -2c-1,1 0,1 -2,1m6 -2c-1,1 0,1 -2,1m6 -2c-1,1 0,1 -2,1m6 -2c-2,1 0,1 -3,1m7 -2c-1,0 0,0 -2,0m6 -1c-1,0 0,0 -2,0m6 -1c-1,0 0,0 -2,0m7 -2c-2,1 -1,1 -3,1m7 -2c-1,1 0,1 -2,1m6 -2c-1,1 0,1 -3,1m7 -2c-1,1 0,1 -2,1m7 -2c-2,1 -1,1 -3,1m7 -2c-2,1 0,0 -3,0m8 -1c-2,0 -1,0 -3,0m7 -1c-2,0 0,0 -3,0m5 -1c-1,1 0,1 -2,1m5 -1c-2,0 -1,0 -3,0m5 -1c-1,1 0,1 -2,1m4 -2c-1,1 0,1 -2,1m5 -1c-2,0 -1,0 -3,0m6 -1c-2,1 -1,1 -3,1m5 -1c-1,0 0,0 -2,0m8 -1c-2,0 -2,0 -4,0m6 -1c-2,1 0,1 -2,1m5 -2c-2,1 -1,1 -3,1m5 -1c-1,1 0,0 -2,0m6 -1c-2,1 -1,1 -4,1m6 -1c-1,0 0,0 -2,0m6 -1c-2,1 -2,1 -4,1m9 -2c-2,1 -1,1 -3,1m9 -2c-2,1 -1,1 -4,1m10 -2c-2,1 -2,0 -4,0m9 -1c-2,1 -1,0 -4,0m7 -1c-2,1 0,1 -3,1m6 -1c-2,0 -1,0 -3,0m6 -1c-1,1 0,1 -3,1m7 -1c-2,0 -1,0 -4,0m8 -1c-2,1 -2,1 -4,1m7 -2c-2,1 -1,1 -3,1m7 -1c-2,1 -2,0 -4,0m7 -1c-2,1 0,1 -3,1m8 -1c-2,1 -2,0 -5,0m8 -1c-2,1 -1,1 -3,1m9 -1c-3,0 -3,0 -6,0m8 -1c-1,1 0,1 -2,1m7 -2c-2,1 -2,1 -5,1m8 -1c-2,1 -1,0 -3,0m8 -1c-2,1 -3,1 -5,1m9 -1c-2,1 -1,0 -4,0m9 -1c-3,1 -3,1 -5,1m10 -1c-3,1 -3,0 -5,0m9 -1c-2,1 -2,1 -4,1m11 -1c-2,0 -4,0 -7,0m12 -1c-2,1 -3,1 -5,1m13 -2c-2,1 -5,1 -8,1m12 -1c-2,1 -1,0 -4,0m12 -1c-3,1 -6,1 -8,1m13 -1c-3,1 -3,0 -5,0m12 -1c-3,1 -5,1 -7,1m20 -1c-3,1 -9,0 -13,0m21 -1c-2,1 -5,1 -8,1m21 -1c-4,1 -9,0 -13,0m40 -1c-4,1 -21,1 -27,1m1155 943c-3,-1 -9,-5 -10,-9l-1 -9c-3,-17 -7,-36 -11,-54 -5,-25 -20,-79 -28,-104 -2,-6 -6,-16 -7,-22 -3,-3 -8,-5 -11,-7 0,-9 -2,-18 -4,-27l-1 -7c-4,-10 -9,-22 -13,-32 -3,-6 -13,-28 -14,-33 -2,-2 -5,-9 -6,-11 -2,-3 -7,-14 -8,-16 -4,-5 -6,-14 -11,-20 -1,-3 -3,-7 -5,-10 -1,-5 -17,-30 -21,-37 -3,-6 -7,-12 -11,-18 -3,-5 -9,-14 -12,-19 -4,-5 -12,-18 -16,-24 -5,-8 -11,-16 -17,-24 -6,-8 -12,-17 -18,-24 -6,-8 -14,-17 -19,-25l-41 -47c-4,-5 -12,-12 -15,-16 -6,-9 -31,-32 -40,-41 -7,-6 -17,-16 -23,-21 -9,-8 -20,-18 -30,-26 -2,-1 -3,-2 -5,-4l-17 -14c-11,-10 -26,-18 -36,-28 -4,-1 -18,-5 -22,-5 -1,-4 -4,-10 -6,-14 -3,-3 -7,-5 -11,-8 -3,-7 -6,-14 -9,-21 -2,0 -1,0 -4,0 -9,-3 -20,-5 -30,-7 -4,-1 -27,-15 -30,-17 -7,0 -18,-5 -25,-5 -1,-4 -4,-9 -6,-12 -7,-2 -17,-8 -25,-12 -5,-3 -21,-11 -25,-12 -3,-2 -5,-3 -8,-4 -2,-1 -3,-1 -5,-2 -5,-3 -25,-11 -31,-14 -8,-3 -25,-8 -31,-12 -3,0 -5,-1 -7,-2 -2,0 -1,0 -3,-1 -2,-1 -4,-2 -6,-3 -3,0 -1,0 -4,-1 -2,0 -4,-1 -6,-2 -2,0 -4,-1 -6,-2 -2,0 -1,0 -3,-1 -3,-1 -1,0 -4,-2 -2,0 -1,1 -3,-1 -2,0 -1,1 -3,-1 -3,0 -1,0 -4,-1 -9,-1 -31,-11 -41,-12 -2,-1 -14,-4 -17,-4 -2,-1 -6,-2 -8,-2 -7,-4 -29,-7 -38,-10l-19 -3c-1,-1 -2,-1 -3,-1l-2 0c-1,-1 -3,-1 -4,-1l-2 0c-1,-1 -2,-1 -3,-2l-3 0c-1,0 -2,0 -3,-1l-26 -4c-2,0 -3,0 -5,-1l-6 0c-3,-1 -3,-1 -5,-1 -2,0 -3,0 -5,-1l-3 0c-2,-1 -3,-1 -5,-1l-17 -2c-2,0 -2,0 -4,0l-36 -4c-3,-1 -5,0 -8,0 -5,-1 -21,-1 -21,-1 -4,-2 -9,-1 -13,-1 -4,-1 -22,0 -28,0 -4,-2 -28,-1 -35,-1"/>
   <path class="fil1 str1" d="M1126 1081c8,-2 16,-4 24,-6 11,-3 37,-11 46,-11l27 -5 531 -61c9,-3 24,-5 33,-7 11,-2 22,-5 33,-7 11,-2 22,-5 33,-8 7,-2 28,-9 33,-10 5,-3 18,-6 24,-9 8,-3 17,-6 24,-10 17,-7 32,-15 49,-23 25,-12 50,-28 73,-45 7,-6 16,-13 24,-19 8,-6 16,-14 23,-20 6,-5 17,-16 22,-23l11 -13c9,-12 17,-22 25,-35 5,-2 10,-4 15,-7 0,-9 -2,-18 -4,-27l-1 -7c-4,-10 -9,-22 -13,-32 -3,-6 -13,-28 -14,-33 -2,-2 -5,-9 -6,-11 -2,-3 -7,-14 -8,-16 -4,-5 -6,-14 -11,-20 -1,-3 -3,-7 -5,-10 -1,-5 -17,-30 -21,-37 -3,-6 -7,-12 -11,-18 -3,-5 -9,-14 -12,-19 -4,-5 -12,-18 -16,-24 -5,-8 -11,-16 -17,-24 -6,-8 -12,-17 -18,-24 -6,-8 -14,-17 -19,-25l-41 -47c-4,-5 -12,-12 -15,-16 -6,-9 -31,-32 -40,-41 -7,-6 -17,-16 -23,-21 -9,-8 -20,-18 -30,-26 -2,-1 -3,-2 -5,-4l-17 -14c-11,-10 -26,-18 -36,-28 -4,-1 -18,-5 -22,-5 -7,8 -2,3 -6,11l-28 43c-27,40 -52,87 -76,129 -17,29 -33,58 -51,86 -10,15 -20,29 -29,43 -10,15 -23,29 -33,43 -1,2 -2,2 -3,4 -7,9 -16,18 -23,27 -6,7 -31,30 -41,38 -12,11 -26,21 -39,30 -15,11 -43,26 -60,33 -8,3 -24,8 -30,11 -5,1 -23,7 -29,8 -9,3 -20,4 -29,7l-59 7c-2,0 -14,0 -20,1 -5,0 -24,-1 -28,1 -2,0 -1,0 -3,-1 -7,0 -26,1 -31,0 -3,0 -8,0 -11,-1 -3,0 -14,0 -20,-1 0,0 -9,0 -15,-1l-262 -30c-3,0 -14,0 -21,-1 -5,0 -11,1 -15,-1 -5,0 -14,0 -18,1 -6,0 -22,-1 -26,1 -5,0 -12,-1 -16,0l-26 2c-2,0 -2,0 -4,1l-16 2 -56 11c-10,2 -20,5 -31,7 -48,12 -101,32 -150,41 -8,2 -22,4 -30,7l-15 2c-3,0 -2,0 -4,0 -7,1 -13,2 -20,3 -4,0 -9,0 -13,1l-28 0c-2,1 -1,1 -3,0 -6,0 -19,1 -23,0 -2,-1 -13,-1 -18,-1l-42 -5c-3,-1 -21,-5 -24,-5 -6,-2 -16,-5 -22,-6 -5,-2 -17,-6 -21,-6 -2,-1 -1,-1 -4,-1 -5,-4 -21,-8 -28,-11 -6,-3 -24,-11 -28,-12 -4,-2 -22,-13 -25,-14 -5,0 -11,-2 -15,-2 -2,-2 -1,-2 -3,-2l-1 0 -1 1 -2 1c-1,1 -2,1 -4,2 -1,2 -4,12 -5,14 -1,2 -2,4 -2,6 -1,3 -1,1 -1,4 -1,2 -2,4 -2,6 -1,2 -1,1 -1,3 -1,2 -2,4 -3,6 -1,3 0,1 -1,4 -1,2 -1,3 -2,4 0,1 -16,53 -16,54 0,6 -7,26 -9,34 -2,7 -7,27 -7,34l-3 12c0,1 0,2 -1,3l-2 13c0,1 -1,3 -1,4l0 2c-1,1 -1,3 -1,4l-3 19c-1,2 -1,3 -1,5l0 3c-1,2 -1,3 -1,5l0 4c-1,1 -1,2 -1,4l0 4c-1,1 -1,2 -1,4l0 3c-1,2 -1,3 -2,5 0,3 1,3 0,5l-4 41c-1,7 -1,16 -2,23 0,3 0,15 -1,22 0,4 1,10 0,15 0,5 0,17 -1,21 0,5 -1,20 1,24 0,5 -1,17 0,21 0,5 -1,11 1,15 0,4 -1,9 0,13 1,5 -2,4 3,13 7,2 17,3 24,5 3,1 5,0 9,3 4,1 15,7 20,8 6,3 13,6 19,8 7,3 35,14 40,15 6,3 27,9 35,11 24,7 47,14 71,18 9,2 26,5 35,8l95 12c2,0 15,0 20,1 1,0 18,0 25,1 9,0 56,1 61,0 5,0 11,1 15,-1 1,0 16,0 21,-1l89 -10c12,-2 26,-5 38,-7 7,-2 17,-4 24,-6 16,-3 32,-8 48,-13 6,-1 19,-6 24,-6 2,-2 1,-1 3,-2 2,-1 1,-1 3,-1 5,-2 25,-9 31,-11 10,-3 20,-8 30,-12 11,-4 53,-22 60,-28 3,-1 5,-2 7,-4 3,0 3,0 5,-2 5,-1 50,-26 58,-30 10,-6 20,-11 30,-16 7,-4 23,-14 29,-15 7,-6 44,-22 54,-27 9,-3 18,-7 27,-11 7,-3 21,-7 27,-11 2,0 1,1 3,-1 4,0 19,-5 23,-7z"/>
   <path class="fil2 str1" d="M1034 482c21,-6 47,-14 66,-23 35,-16 68,-36 99,-59 11,-8 22,-17 33,-25 10,-7 25,-18 33,-26 18,-12 36,-29 55,-42 45,-31 82,-55 135,-71 9,-2 19,-4 27,-6l68 -11c4,-1 19,-4 22,-5 4,-1 15,-4 19,-5 6,-3 15,-5 22,-9 13,-7 23,-13 34,-23 6,-5 3,-9 6,-14 2,-1 2,-1 3,-2 -1,-4 -4,-9 -6,-12 -7,-2 -17,-8 -25,-12 -5,-3 -21,-11 -25,-12 -3,-2 -5,-3 -8,-4 -2,-1 -3,-1 -5,-2 -5,-3 -25,-11 -31,-14 -8,-3 -25,-8 -31,-12 -3,0 -5,-1 -7,-2 -2,0 -1,0 -3,-1 -2,-1 -4,-2 -6,-3 -3,0 -1,0 -4,-1 -2,0 -4,-1 -6,-2 -2,0 -4,-1 -6,-2 -2,0 -1,0 -3,-1 -3,-1 -1,0 -4,-2 -2,0 -1,1 -3,-1 -2,0 -1,1 -3,-1 -3,0 -1,0 -4,-1 -9,-1 -31,-11 -41,-12 -2,-1 -14,-4 -17,-4 -2,-1 -6,-2 -8,-2 -7,-4 -29,-7 -38,-10l-19 -3c-1,-1 -2,-1 -3,-1l-2 0c-1,-1 -3,-1 -4,-1l-2 0c-1,-1 -2,-1 -3,-2l-3 0c-1,0 -2,0 -3,-1l-26 -4c-2,0 -3,0 -5,-1l-6 0c-3,-1 -3,-1 -5,-1 -2,0 -3,0 -5,-1l-3 0c-2,-1 -3,-1 -5,-1l-17 -2c-2,0 -2,0 -4,0l-36 -4c-3,-1 -5,0 -8,0 -5,-1 -21,-1 -21,-1 -4,-2 -9,-1 -13,-1 -4,-1 -22,0 -28,0 -4,-2 -28,-1 -35,-1 -4,1 -21,1 -27,1 -4,1 -9,0 -13,0 -2,1 -5,1 -8,1 -3,1 -9,0 -13,0 -3,1 -5,1 -7,1 -3,1 -3,0 -5,0 -3,1 -6,1 -8,1 -2,1 -1,0 -4,0 -2,1 -5,1 -8,1 -2,1 -3,1 -5,1 -2,0 -4,0 -7,0 -2,1 -2,1 -4,1 -3,1 -3,0 -5,0 -3,1 -3,1 -5,1 -2,1 -1,0 -4,0 -2,1 -3,1 -5,1 -2,1 -1,0 -3,0 -2,1 -2,1 -5,1 -1,1 0,1 -2,1 -3,0 -3,0 -6,0 -2,1 -1,1 -3,1 -2,1 -2,0 -5,0 -2,1 0,1 -3,1 -2,1 -2,0 -4,0 -2,1 -1,1 -3,1 -2,1 -2,1 -4,1 -2,0 -1,0 -4,0 -1,1 0,1 -3,1 -2,0 -1,0 -3,0 -2,1 0,1 -3,1 -2,1 -1,0 -4,0 -1,1 1,1 -1,1 -2,1 -2,0 -4,0 -1,1 0,1 -2,1 -2,1 -1,1 -4,1 -1,0 0,0 -2,0 -2,1 -1,1 -3,1 -2,0 0,0 -2,0 -2,1 -2,1 -4,1 -1,0 0,0 -2,0 -2,1 -1,1 -4,1 -1,1 0,0 -2,0 -2,1 -1,1 -3,1 -2,1 0,1 -2,1 -2,0 -2,0 -4,0 -1,1 0,1 -2,1 -1,0 0,0 -2,0 -2,1 -1,1 -3,1 -2,0 -1,0 -3,0 -1,1 0,1 -2,1 -1,1 0,1 -2,1 -2,0 -1,0 -3,0 -1,1 0,1 -2,1 -2,0 0,0 -3,0 -1,1 1,1 -1,1 -2,0 -1,0 -3,0 -1,1 0,1 -2,1 -2,1 0,0 -3,0 -1,1 1,1 -1,1 -2,1 -1,1 -3,1 -1,0 0,0 -2,0 -1,1 0,1 -2,1 -1,0 0,0 -2,0 -1,1 0,1 -3,1l-1 0c-1,1 0,1 -2,1 -2,1 0,0 -2,0 -2,1 -1,1 -3,1 -1,1 0,1 -2,1 -1,0 0,0 -2,0 -1,1 0,1 -2,1 -1,0 0,0 -2,0 -1,1 0,1 -2,1 -1,0 0,0 -2,0 -1,1 0,1 -2,1 -2,1 0,1 -3,1l-1 0c-1,1 0,1 -2,1 -1,0 0,0 -2,0 -1,1 0,1 -2,1 -1,0 0,0 -2,0 -1,1 0,1 -2,1 -1,1 0,0 -2,0 -1,1 0,1 -2,1 -1,1 0,1 -2,1 -1,0 1,0 -1,0 -1,1 0,1 -2,1 -1,0 0,0 -2,0l-1 1c-2,0 0,0 -2,0 -2,1 0,1 -2,1 -1,1 0,0 -2,0 -1,1 0,1 -2,1l-1 1c-1,0 0,0 -2,0l-2 1c-1,0 0,0 -2,0l-1 1c-1,0 0,0 -2,0l-1 1c-2,1 0,0 -2,0l-2 1c-1,1 1,1 -1,1 -1,0 0,0 -2,0 -1,1 0,1 -2,1 -1,0 1,0 -1,0 -1,1 0,1 -2,1l-1 0c-1,1 0,1 -2,1l-1 1c-2,0 0,0 -2,0 -1,1 0,1 -2,1 -1,0 0,0 -2,0l-1 1c-1,0 0,0 -2,0l-1 1c-1,1 0,0 -2,0l-1 1c-2,1 0,1 -2,1l-1 0c-1,1 0,1 -2,1l-2 0c-1,1 1,1 -1,1l-1 0c-2,1 -1,1 -3,1l-1 1c-1,0 1,0 -1,0l-1 1c-2,0 -1,0 -3,0l-1 1c-1,0 0,0 -2,0l-1 1c-1,1 1,0 -1,0l-1 1c-2,1 0,1 -2,1l-1 0c-1,1 0,1 -2,1 -1,0 0,0 -2,0l-1 1c-1,1 0,0 -1,0l-2 1c-1,1 1,0 -1,0l-1 1c-1,1 0,1 -2,1l-1 0 -1 1c-1,0 0,0 -2,0l-1 1c-1,1 0,0 -2,0l-1 1c-1,1 0,0 -2,0l-1 1c-1,1 1,1 -1,1l-1 0 -2 1 -1 0c-1,1 1,1 -1,1l-1 0c-2,1 0,1 -2,1l-1 1 -1 0c-2,1 0,1 -2,1l-1 0 -1 1 -1 0c-2,1 0,1 -2,1l-1 0 -1 1 -1 1c-2,0 0,0 -2,0l-1 1 -1 0 -2 1c-1,1 1,0 -1,0l-1 1 -1 0 -2 1 -1 1 -1 0c-1,1 0,1 -1,1l-2 0 -1 1 -1 0 -1 1 -1 1 -1 0 -1 1c-1,0 0,0 -2,0l-1 1 -1 0 -1 1 -1 0 -2 1 -1 1 -1 0 -1 1 -1 0 -1 1 -1 0 -1 1 -2 0c-1,1 1,1 -1,1l-1 1 -1 0 -2 1 -1 0 -1 1 -1 0 -1 1 -1 1 -1 0 -1 1 -2 0 -1 1 -1 0 -1 1 -1 0 -1 1 -1 1 -1 0 -1 1 -2 0 -1 1 -1 0c-2,2 -2,2 -4,3 -4,2 -16,9 -21,11 -7,4 -14,8 -21,12 -9,5 -34,19 -41,25l-11 7c-2,2 -1,1 -3,2 -2,2 -1,2 -4,3 -2,2 -15,11 -17,12 -13,12 -34,22 -47,35 -3,2 -8,5 -11,8l-17 14c-2,2 -3,3 -5,4l-2 2c-2,1 -3,2 -5,3l-23 21c-5,5 -14,13 -20,19 -10,9 -37,34 -43,43 -3,3 -10,10 -14,15l-12 13c-3,9 -5,18 -8,26l3 3c3,0 7,0 10,-1 6,0 30,1 34,0 6,0 25,-1 29,0 5,0 15,-1 19,1 4,0 8,-1 12,0 3,0 5,0 7,1l98 11c22,3 45,8 67,11l31 6c2,1 14,3 17,3 3,1 14,4 17,4l11 2c4,1 20,4 23,4 3,1 10,3 12,3l153 21c1,1 15,1 21,2 2,0 14,0 19,1 7,1 52,0 59,-1 3,-1 13,-1 19,-2 3,0 3,1 5,0l46 -6c9,-3 23,-4 33,-7z"/>
   <path class="fil2 str1" d="M1733 1686c-25,18 -52,36 -77,54 -52,34 -104,72 -157,104 -53,32 -97,56 -155,76l-24 3c-5,0 -4,2 -5,-1l-3 0 -4 -4c-9,2 -29,13 -38,14 -2,1 -2,1 -4,2 -2,1 -4,1 -6,2 -3,1 -7,2 -9,3l-2 0c-3,2 -8,3 -12,4 -2,0 -3,0 -6,1l-13 1c-12,4 -27,5 -38,9l-11 22c-2,1 -2,1 -4,1 -2,2 -2,2 -5,3 -6,4 -24,12 -32,16 -22,10 -45,21 -66,30 -10,5 -23,11 -33,15 -4,5 -8,14 -11,19l8 9c1,0 21,1 24,2 1,0 17,0 23,1 2,0 14,0 20,1 7,0 29,-1 33,1 8,0 40,1 44,-1 7,0 32,1 37,0 4,0 8,0 12,-1 1,0 17,0 23,-1 3,0 4,0 7,-1 1,0 17,0 22,-1l88 -8c2,0 14,0 17,-1 2,0 2,0 5,-1 2,0 2,0 5,0 2,0 3,0 5,-1 2,0 3,0 5,-1 2,0 3,1 5,0 2,0 3,0 5,-1 2,0 2,1 4,0 3,0 3,0 5,-1 2,0 2,0 4,0 3,0 2,0 4,-1 3,0 3,0 5,-1 2,0 2,1 4,0 3,0 2,0 4,-1 2,0 2,1 4,0 2,0 2,0 4,-1 3,0 2,0 4,0 3,0 3,0 5,-1 2,0 2,0 4,0 2,0 2,0 4,-1 2,0 2,0 4,-1 2,0 1,1 4,0 2,0 1,0 3,-1 3,0 2,1 4,0 3,0 2,0 4,-1 2,0 2,0 4,0 2,0 2,0 4,-1 2,0 1,0 3,0 3,0 2,0 4,-1 2,0 2,0 4,-1 3,0 2,1 4,0 2,0 2,0 4,-1 2,0 1,1 4,0 2,0 1,0 3,-1 2,0 2,0 4,0 2,0 1,0 3,-1 3,0 2,0 4,-1 2,0 2,1 4,0 2,0 1,0 3,-1 3,0 2,1 4,0 2,0 2,0 4,-1 2,0 2,0 4,0 2,0 1,0 3,-1 2,0 1,0 3,0 3,0 2,0 4,-1 3,0 2,0 4,-1 2,0 1,1 3,0 2,0 2,0 4,-1 2,0 1,1 3,0 2,0 2,0 4,-1 2,0 1,0 3,0 3,0 2,0 3,-1 3,0 2,0 4,0 2,0 2,0 4,-1 2,0 1,0 3,-1 2,0 2,1 4,0 2,0 1,0 3,-1 2,0 2,0 4,0 2,0 1,0 3,-1 2,0 1,0 3,0 3,0 2,0 4,-1 2,0 1,0 3,-1 2,0 1,1 3,0 3,0 2,0 4,-1 2,0 1,1 3,0 2,0 1,0 3,-1 3,0 2,0 4,0 2,0 1,0 3,-1 2,0 2,0 4,0 2,0 1,0 3,-1 2,0 1,0 3,-1 3,0 2,1 4,0 2,0 1,0 3,-1 2,0 1,1 3,0 3,0 2,0 4,-1 2,0 1,0 3,0 2,0 1,0 3,-1 3,0 1,0 3,0 2,0 2,0 4,-1 2,0 1,0 3,-1 2,0 1,1 3,0 3,0 2,0 4,-1 2,0 1,0 3,0 2,0 1,0 3,-1 2,0 2,0 4,0 2,0 1,0 2,-1 3,0 2,0 4,-1 2,0 1,1 3,0 2,0 2,0 4,-1 2,0 1,1 3,0 2,0 1,0 3,-1 3,0 2,0 4,0 2,0 1,0 2,-1 3,0 2,0 4,0 2,0 1,0 3,-1 2,0 1,0 3,-1 2,0 2,1 4,0 2,0 1,0 3,-1 2,0 1,1 3,0 2,0 1,0 3,-1 3,0 2,0 4,0 2,0 1,0 3,-1 2,0 2,0 3,0 3,0 2,0 4,-1 2,0 1,0 3,-1 2,0 1,1 3,0 2,0 1,0 3,-1 3,0 2,0 4,0 2,0 1,0 3,-1 2,0 1,0 3,0 2,0 2,0 4,-1 2,0 1,0 3,-1 2,0 1,1 3,0 2,0 1,0 3,-1 3,0 2,1 4,0 2,0 5,0 7,-1 3,0 4,1 7,0 2,0 5,0 7,-1 3,0 5,0 7,0l3 0 4 3c4,0 9,-4 14,-5 2,-1 0,0 3,-1 1,-1 1,-1 3,-2 3,0 1,1 3,-1 2,0 2,-1 4,-1 2,-2 0,-1 3,-1 1,-1 1,-1 3,-3 1,0 8,-2 11,-5l34 -31c9,-6 31,-30 40,-39 6,-7 16,-17 21,-22 7,-10 18,-20 26,-30l8 -10c6,-9 15,-18 21,-27 23,-30 36,-49 57,-81 10,-15 57,-94 60,-107 5,-6 12,-25 16,-33 16,-34 26,-64 39,-99 9,-23 22,-71 29,-98 3,-11 4,-24 7,-33 3,-13 6,-28 8,-41l3 -34 -3 -3c-4,1 -21,7 -25,8 -4,4 -7,8 -11,10 -4,4 -8,10 -13,13 -3,3 -7,7 -11,10 -3,3 -6,7 -10,9 -2,2 -11,12 -17,16l-56 51c-7,6 -17,16 -25,22l-97 83c-12,8 -28,21 -39,30 -37,29 -80,61 -117,88 -26,19 -53,37 -79,56z"/>
   <path class="fil2 str1" d="M1130 1945l-103 -9c-1,0 -12,0 -16,-1 -5,0 -12,1 -16,-1 -5,0 -13,-1 -17,1 -5,0 -12,-1 -16,0 -3,0 -3,0 -6,1 0,0 -7,0 -13,1l-20 3c-9,3 -19,3 -27,7 -2,0 -3,1 -5,1 -6,4 -16,7 -23,10 -8,5 -15,9 -23,14 -6,6 -9,10 -14,17 -1,2 -4,13 -4,15 -1,3 3,17 3,18 1,2 7,8 9,10 8,5 14,6 21,10 4,0 23,6 29,7 6,1 30,7 35,7 3,3 6,7 8,10l19 -2c8,-1 27,1 38,-1l29 -3c3,-5 7,-14 11,-19 10,-4 23,-10 33,-15 21,-9 44,-20 66,-30 8,-4 26,-12 32,-16 3,-1 3,-1 5,-3 2,0 2,0 4,-1l11 -22 -8 -7c-5,0 -16,0 -20,-1 -2,0 -16,0 -22,-1z"/>
   <path class="fil3 str1" d="M1271 2069c-5,1 -21,1 -22,1 -3,1 -4,1 -7,1 -6,1 -22,1 -23,1 -4,1 -8,1 -12,1 -5,1 -30,0 -37,0 -4,2 -36,1 -44,1 -4,-2 -26,-1 -33,-1 -6,-1 -18,-1 -20,-1 -6,-1 -22,-1 -23,-1 -3,-1 -23,-2 -24,-2l-8 -9 -29 3c-11,2 -30,0 -38,1l-19 2c-3,6 -6,12 -9,17 -5,0 -20,7 -25,9 -6,2 -22,8 -26,9 -2,1 -1,0 -3,1 -6,3 -30,10 -38,12 -19,6 -99,30 -114,33l-8 11c2,5 6,12 9,16 3,0 46,17 49,18 4,1 16,6 21,7 7,2 14,5 20,7 14,3 28,7 42,11 17,5 44,11 62,14l133 19c5,1 18,1 18,1 5,1 18,1 19,1 4,1 9,1 14,1 5,1 63,0 74,0 5,0 20,-1 21,-1 3,-1 6,0 9,0 6,-1 18,-1 20,-1l118 -16c7,0 27,-6 36,-7 17,-4 57,-14 73,-19 5,-2 33,-11 37,-11 5,-3 15,-5 20,-8 7,0 68,-25 77,-30 26,-12 52,-23 77,-37 26,-16 52,-28 77,-45 13,-9 26,-17 39,-26 12,-9 26,-20 38,-29 3,-3 10,-21 11,-26l-4 -3 -3 0c-2,0 -4,0 -7,0 -2,1 -5,1 -7,1 -3,1 -4,0 -7,0 -2,1 -5,1 -7,1 -2,1 -1,0 -4,0 -2,1 -1,1 -3,1 -2,1 -1,0 -3,0 -2,1 -1,1 -3,1 -2,1 -2,1 -4,1 -2,0 -1,0 -3,0 -2,1 -1,1 -3,1 -2,0 -1,0 -4,0 -2,1 -1,1 -3,1 -2,1 -1,0 -3,0 -2,1 -1,1 -3,1 -2,1 -1,1 -4,1 -1,0 -1,0 -3,0 -2,1 -1,1 -3,1 -2,0 -1,0 -4,0 -2,1 -1,1 -3,1 -2,1 -1,0 -3,0 -2,1 -1,1 -3,1 -2,1 -2,0 -4,0 -2,1 -1,1 -3,1 -2,1 -1,1 -3,1 -2,0 -1,0 -4,0 -1,1 0,1 -2,1 -2,0 -1,0 -4,0 -2,1 -1,1 -3,1 -2,1 -1,0 -3,0 -2,1 -2,1 -4,1 -2,1 -1,0 -3,0 -2,1 -1,1 -4,1 -1,1 0,1 -2,1 -2,0 -2,0 -4,0 -2,1 -1,1 -3,1 -2,0 -1,0 -3,0 -2,1 -1,1 -4,1 -2,1 -1,0 -3,0 -2,1 -1,1 -3,1 -2,1 -2,1 -4,1 -2,0 0,0 -3,0 -2,1 -1,1 -3,1 -2,0 -1,0 -3,0 -2,1 -1,1 -4,1 -2,1 -1,0 -3,0 -2,1 -1,1 -3,1 -2,1 -1,0 -4,0 -2,1 -1,1 -3,1 -2,1 -1,1 -3,1 -2,0 -2,0 -4,0 -2,1 -1,1 -3,1 -2,0 -1,0 -4,0 -2,1 -1,1 -3,1 -2,1 -1,0 -3,0 -2,1 -1,1 -4,1 -2,1 -1,0 -3,0 -2,1 -1,1 -3,1 -2,1 -1,1 -4,1 -2,0 -1,0 -3,0 -2,1 -1,1 -3,1 -2,0 -2,0 -4,0 -2,1 -1,1 -3,1 -2,1 -2,0 -4,0 -2,1 -1,1 -3,1 -2,1 -2,1 -4,1 -2,0 -1,0 -4,0 -1,1 0,1 -3,1 -2,0 -1,0 -3,0 -2,1 -2,1 -4,1 -2,1 -1,0 -3,0 -2,1 -2,1 -4,1 -2,1 -1,0 -3,0 -2,1 -1,1 -4,1 -2,1 -1,1 -4,1 -2,0 -1,0 -3,0 -2,1 -1,1 -3,1 -2,0 -2,0 -4,0 -2,1 -2,1 -4,1 -2,1 -1,0 -4,0 -2,1 -1,1 -3,1 -2,1 -2,0 -4,0 -2,1 -1,1 -4,1 -2,1 -1,1 -3,1 -2,0 -2,0 -4,0 -2,1 -1,1 -3,1 -3,1 -2,0 -4,0 -2,1 -2,1 -4,1 -2,1 -1,0 -4,0 -2,1 -2,1 -4,1 -2,1 -1,1 -4,1 -2,0 -1,0 -3,0 -2,1 -2,1 -4,1 -2,0 -2,0 -4,0 -2,1 -1,1 -4,1 -2,1 -1,0 -4,0 -2,1 -1,1 -3,1 -3,1 -2,0 -4,0 -2,1 -2,1 -4,1 -2,1 -2,1 -4,1 -2,0 -2,0 -4,0 -2,1 -2,1 -5,1 -2,0 -1,0 -4,0 -2,1 -2,1 -4,1 -2,1 -2,0 -4,0 -2,1 -1,1 -4,1 -2,1 -2,0 -4,0 -2,1 -2,1 -5,1 -2,1 -1,1 -4,1 -2,0 -2,0 -4,0 -2,1 -2,1 -5,1 -2,1 -2,0 -4,0 -2,1 -3,1 -5,1 -2,1 -3,0 -5,0 -2,1 -3,1 -5,1 -2,1 -3,1 -5,1 -3,0 -3,0 -5,0 -3,1 -3,1 -5,1 -3,1 -15,1 -17,1l-88 8z"/>
   <path class="fil3 str1" d="M827 2004c0,-2 3,-13 4,-15 5,-7 8,-11 14,-17 8,-5 15,-9 23,-14 7,-3 17,-6 23,-10 2,0 3,-1 5,-1 8,-4 18,-4 27,-7l20 -3c6,-1 13,-1 13,-1 3,-1 3,-1 6,-1 4,-1 11,0 16,0 4,-2 12,-1 17,-1 4,2 11,1 16,1 4,1 15,1 16,1l103 9c6,1 20,1 22,1 4,1 15,1 20,1l8 7c11,-4 26,-5 38,-9l13 -1c3,-1 4,-1 6,-1 4,-1 9,-2 12,-4l2 0c2,-1 6,-2 9,-3 2,-1 4,-1 6,-2 2,-1 2,-1 4,-2 9,-1 29,-12 38,-14 3,-7 8,-18 12,-24 13,-9 29,-17 43,-26 15,-9 30,-18 45,-27 29,-18 58,-39 87,-58 30,-20 59,-42 88,-63 15,-10 30,-22 44,-32 14,-11 30,-25 44,-35l126 -107c6,-5 14,-13 19,-17l15 -14c3,-2 6,-5 9,-8 3,-2 7,-6 10,-9 4,-3 9,-9 13,-13 7,-5 23,-23 30,-30 2,-1 2,-1 4,-3 5,-7 23,-23 30,-31 3,-4 8,-8 12,-12 5,-6 15,-16 18,-19 5,-6 15,-16 19,-21 10,-12 24,-27 34,-39l42 -50c8,-8 17,-21 24,-29 38,-49 72,-97 105,-149 13,-19 24,-39 36,-59 5,-3 15,-7 20,-10 1,-5 3,-13 4,-17l0 -30c1,-3 1,-7 2,-10l0 -3c0,-2 1,-3 1,-6 -3,-1 -9,-5 -10,-9l-1 -9c-3,-17 -7,-36 -11,-54 -5,-25 -20,-79 -28,-104 -2,-6 -6,-16 -7,-22 -3,-3 -8,-5 -11,-7 -5,3 -10,5 -15,7 -8,13 -16,23 -25,35l-11 13c-5,7 -16,18 -22,23 -7,6 -15,14 -23,20 -8,6 -17,13 -24,19 -23,17 -48,33 -73,45 -17,8 -32,16 -49,23 -7,4 -16,7 -24,10 -6,3 -19,6 -24,9 -5,1 -26,8 -33,10 -11,3 -22,6 -33,8 -11,2 -22,5 -33,7 -9,2 -24,4 -33,7l-531 61 -27 5c-9,0 -35,8 -46,11 -8,2 -16,4 -24,6 -4,2 -19,7 -23,7 -2,2 -1,1 -3,1 -6,4 -20,8 -27,11 -9,4 -18,8 -27,11 -10,5 -47,21 -54,27 -6,1 -22,11 -29,15 -10,5 -20,10 -30,16 -8,4 -53,29 -58,30 -2,2 -2,2 -5,2 -2,2 -4,3 -7,4 -7,6 -49,24 -60,28 -10,4 -20,9 -30,12 -6,2 -26,9 -31,11 -2,0 -1,0 -3,1 -2,1 -1,0 -3,2 -5,0 -18,5 -24,6 -16,5 -32,10 -48,13 -7,2 -17,4 -24,6 -12,2 -26,5 -38,7l-89 10c-5,1 -20,1 -21,1 -4,2 -10,1 -15,1 -5,1 -52,0 -61,0 -7,-1 -24,-1 -25,-1 -5,-1 -18,-1 -20,-1l-95 -12c-9,-3 -26,-6 -35,-8 -24,-4 -47,-11 -71,-18 -8,-2 -29,-8 -35,-11 -5,-1 -33,-12 -40,-15 -6,-2 -13,-5 -19,-8 -5,-1 -16,-7 -20,-8 -4,-3 -6,-2 -9,-3 -7,-2 -17,-3 -24,-5 -1,3 -2,7 -1,10 1,5 1,23 1,23l2 23c1,5 1,21 1,21 2,8 0,9 -1,16l0 6c9,9 7,2 9,13l3 17c3,19 5,29 10,50 6,25 12,51 20,75 3,6 12,33 13,38 0,3 6,6 9,7 2,-1 6,0 9,0 6,0 23,1 24,1l39 3c5,1 19,1 19,1 3,1 7,1 10,1 6,1 18,1 20,1 4,1 9,0 13,0 5,2 11,1 16,1 4,1 12,1 17,1 5,1 41,0 49,0 5,1 0,1 5,0l49 0c4,-1 14,0 19,0 4,-2 9,-1 13,-1 7,-1 19,-1 22,-1 3,-1 6,-1 9,-1 6,-1 18,-1 20,-1 5,-1 18,-1 19,-1l183 -22 53 -9c6,0 24,-5 31,-7 32,-6 67,-14 98,-22 22,-5 43,-12 65,-18 10,-3 22,-6 32,-9 6,-2 29,-10 33,-10 2,-2 1,-1 3,-1 2,-2 1,-1 3,-2 3,-1 1,-1 4,-1 2,-1 1,-1 3,-1 2,-1 1,-1 4,-1 4,-3 10,-3 14,-6 20,-6 53,-18 76,-27 23,-9 45,-18 67,-28 22,-9 45,-19 66,-30 10,-5 24,-12 34,-16 5,-2 29,-14 33,-17 3,-1 33,-17 38,-20 11,-7 25,-15 37,-21 13,-7 25,-14 38,-21 7,-3 33,-16 38,-20l1 -1 1 0 1 -1 1 0 1 -1 1 0 2 -1 1 0 1 -1c2,0 0,0 1,-1l2 0 1 -1 1 0 1 -1 1 0 1 -1 1 0c2,0 1,0 2,-1l1 -1 1 0 1 -1 1 0 2 -1c1,0 0,0 1,0l1 -1 1 -1 2 0c1,0 0,0 1,-1l1 0 2 -1 1 0c2,0 0,0 1,-1l1 0 2 -1 1 -1c2,0 0,1 1,0l1 -1 2 0 1 -1c2,0 0,0 1,0l2 -1 1 -1 1 0c2,0 0,0 1,-1l2 0c1,0 0,0 1,-1l1 0 1 -1c2,0 1,0 2,0l1 -1c2,0 1,0 2,-1 2,0 0,1 2,0l1 -1c2,0 0,0 1,0 2,0 1,0 2,-1l1 0c2,0 1,0 2,-1l1 0c2,0 1,0 2,-1 2,0 0,0 1,-1 2,0 1,1 2,0l1 -1c2,0 1,0 2,0l2 -1c2,0 0,0 2,0l1 -1c2,0 1,0 2,0 2,0 1,0 2,-1 2,0 0,0 1,-1 2,0 1,1 2,0 2,0 1,0 2,-1 2,0 0,0 2,0 1,0 0,0 1,-1 2,0 1,0 2,0 2,0 0,0 2,-1 1,0 0,0 1,-1 2,0 1,1 2,0 2,0 1,0 2,-1 2,0 1,0 2,0 2,0 1,0 2,-1 2,0 1,0 2,0 2,0 1,0 3,-1 2,0 1,0 2,0 2,0 1,0 3,-1 2,0 1,0 2,-1 2,0 1,0 2,0 2,0 1,0 2,-1 2,0 1,0 3,0 2,0 1,0 2,-1 2,0 1,0 2,0 2,0 1,0 3,-1 2,0 1,0 3,0 2,0 1,0 4,-1 2,0 1,0 3,-1 2,0 1,1 3,0 2,0 1,0 3,-1 2,0 1,0 3,0 2,0 3,0 5,-1 2,0 3,0 5,0 2,0 1,0 3,-1 3,0 7,0 9,-1 3,0 5,1 8,0 13,0 25,-1 38,2l7 0c3,1 5,1 7,2l2 0c4,1 14,4 17,4 6,3 17,6 24,9 9,5 15,9 24,15l16 16c6,8 9,12 14,22 4,7 5,14 8,22l0 3c0,1 1,2 1,3l2 17c0,5 0,11 -1,15l-1 18 -6 23c-3,5 -5,13 -8,19 -3,6 -5,12 -9,18 -9,14 -18,24 -27,38l-16 18c-6,8 -33,34 -42,40l-45 40c-10,7 -21,16 -31,24 -10,7 -21,14 -31,22 -19,13 -42,29 -62,40 -20,12 -40,25 -61,36 -11,5 -21,11 -31,16 -7,4 -25,15 -31,16 -2,2 -2,2 -4,2 -2,2 -4,3 -7,4 -2,2 -10,6 -13,6 -6,5 -28,14 -36,18 -35,17 -69,32 -105,47 -33,15 -72,29 -106,42 -15,5 -30,11 -44,16 -2,1 -11,4 -13,4 -2,1 -1,1 -3,1 -7,4 -28,10 -37,13 -12,4 -25,7 -37,11 -25,7 -49,14 -73,21 -27,8 -82,22 -111,28 -9,1 -29,7 -37,7 -3,1 -16,4 -19,4 -3,1 -21,5 -25,5 -2,1 -9,2 -12,2l-50 9 -234 28c-1,0 -14,0 -19,1l-13 0c-2,2 -2,3 -4,4 1,7 5,17 7,24 2,2 21,20 26,23l37 33c8,5 16,12 23,18 8,6 15,12 23,17 30,23 60,42 91,61 8,5 39,24 46,25 6,6 20,11 28,15 3,6 6,12 9,17 5,1 6,1 7,1l8 1 34 0 14 2 8 -11c15,-3 95,-27 114,-33 8,-2 32,-9 38,-12 2,-1 1,0 3,-1 4,-1 20,-7 26,-9 5,-2 20,-9 25,-9 3,-5 6,-11 9,-17 -2,-3 -5,-7 -8,-10 -5,0 -29,-6 -35,-7 -6,-1 -25,-7 -29,-7 -7,-4 -13,-5 -21,-10 -2,-2 -8,-8 -9,-10 0,-1 -4,-15 -3,-18z"/>
   <path class="fil4 str1" d="M1275 1490l2 0 1 -1 1 0 1 -1 1 -1 1 0 1 -1 1 0 1 -1 2 0 1 -1 1 0c2,0 0,0 2,-1l1 -1 1 0 1 -1 1 0 1 -1c2,0 1,0 2,0 2,0 1,0 3,-1 2,0 1,0 2,0 3,0 2,0 4,-1 2,0 1,0 3,-1 2,0 1,1 2,0 3,0 1,0 3,-1 2,0 1,0 3,0 2,0 1,0 3,-1 2,0 1,0 3,0 2,0 0,-1 2,1l-1 8c0,2 0,2 0,4l-3 19c-4,6 -6,14 -10,20 -6,11 -21,28 -31,37 -7,4 -14,11 -21,15 -20,11 -41,22 -63,28 -28,7 -55,15 -84,20 -28,6 -56,13 -84,19 -38,7 -75,16 -112,23 -10,2 -19,4 -29,6 -10,2 -19,4 -29,6 -7,1 -22,5 -28,5 -3,1 -15,4 -17,4 -3,0 -15,3 -18,3 -2,1 -9,2 -12,2 -2,1 -9,2 -11,2l-163 30c-1,0 -2,0 -4,1l-127 20c-2,0 -2,0 -4,1l-235 34 -3 3c0,6 5,16 6,23 0,2 27,36 34,44l30 34c3,3 24,26 26,27 6,1 16,7 23,7 2,-1 2,-2 4,-4l13 0c5,-1 18,-1 19,-1l234 -28 50 -9c3,0 10,-1 12,-2 4,0 22,-4 25,-5 3,0 16,-3 19,-4 8,0 28,-6 37,-7 29,-6 84,-20 111,-28 24,-7 48,-14 73,-21 12,-4 25,-7 37,-11 9,-3 30,-9 37,-13 2,0 1,0 3,-1 2,0 11,-3 13,-4 14,-5 29,-11 44,-16 34,-13 73,-27 106,-42 36,-15 70,-30 105,-47 8,-4 30,-13 36,-18 3,0 11,-4 13,-6 3,-1 5,-2 7,-4 2,0 2,0 4,-2 6,-1 24,-12 31,-16 10,-5 20,-11 31,-16 21,-11 41,-24 61,-36 20,-11 43,-27 62,-40 10,-8 21,-15 31,-22 10,-8 21,-17 31,-24l45 -40c9,-6 36,-32 42,-40l16 -18c9,-14 18,-24 27,-38 4,-6 6,-12 9,-18 3,-6 5,-14 8,-19l6 -23 1 -18c1,-4 1,-10 1,-15l-2 -17c0,-1 -1,-2 -1,-3l0 -3c-3,-8 -4,-15 -8,-22 -5,-10 -8,-14 -14,-22l-16 -16c-9,-6 -15,-10 -24,-15 -7,-3 -18,-6 -24,-9 -3,0 -13,-3 -17,-4l-2 0c-2,-1 -4,-1 -7,-2l-7 0c-13,-3 -25,-2 -38,-2 -3,1 -5,0 -8,0 -2,1 -6,1 -9,1 -2,1 -1,1 -3,1 -2,0 -3,0 -5,0 -2,1 -3,1 -5,1 -2,0 -1,0 -3,0 -2,1 -1,1 -3,1 -2,1 -1,0 -3,0 -2,1 -1,1 -3,1 -3,1 -2,1 -4,1 -2,0 -1,0 -3,0 -2,1 -1,1 -3,1 -1,0 0,0 -2,0 -1,1 0,1 -2,1 -2,0 -1,0 -3,0 -1,1 0,1 -2,1 -1,0 0,0 -2,0 -1,1 0,1 -2,1 -2,1 -1,1 -3,1 -1,0 0,0 -2,0 -2,1 -1,1 -3,1 -1,0 0,0 -2,0 -1,1 0,1 -2,1 -1,0 0,0 -2,0 -1,1 0,1 -2,1 -1,1 0,0 -2,0 -1,1 0,1 -1,1 -2,1 0,1 -2,1 -1,0 0,0 -2,0 -1,1 0,1 -1,1 -2,0 0,0 -2,0 -1,1 0,1 -2,1 -1,1 0,0 -2,0 -1,1 1,1 -1,1 -1,1 0,1 -2,1 -1,0 0,0 -2,0l-1 1c-2,0 0,0 -2,0l-2 1c-1,0 0,0 -2,0l-1 1c-1,1 0,0 -2,0 -1,1 1,1 -1,1 -1,1 0,1 -2,1l-1 0c-1,1 0,1 -2,1l-1 0c-1,1 0,1 -2,1 -1,0 1,0 -1,0l-1 1c-2,1 0,0 -2,0 -1,1 0,1 -2,1l-1 1c-1,0 0,0 -2,0l-1 1 -1 0c-1,1 0,1 -1,1l-2 0c-1,1 1,1 -1,1l-1 0 -1 1 -2 1c-1,0 1,0 -1,0l-1 1 -2 0 -1 1c-1,1 1,0 -1,0l-1 1 -2 1 -1 0c-1,1 1,1 -1,1l-1 0 -2 1 -1 0c-1,1 0,1 -1,1l-2 0 -1 1 -1 1c-1,0 0,0 -1,0l-2 1 -1 0 -1 1 -1 0 -1 1c-1,1 0,1 -2,1l-1 0 -1 1 -1 0 -1 1 -1 0 -1 1 -2 0c-1,1 1,1 -1,1l-1 1 -1 0 -2 1 -1 0 -1 1 -1 0 -1 1 -1 0 -1 1c-5,4 -31,17 -38,20 -13,7 -25,14 -38,21 -12,6 -26,14 -37,21 -5,3 -35,19 -38,20 -4,3 -28,15 -33,17 -10,4 -24,11 -34,16 -21,11 -44,21 -66,30 -22,10 -44,19 -67,28 -23,9 -56,21 -76,27 -4,3 -10,3 -14,6 -3,0 -2,0 -4,1 -2,0 -1,0 -3,1 -3,0 -1,0 -4,1 -2,1 -1,0 -3,2 -2,0 -1,-1 -3,1 -4,0 -27,8 -33,10 -10,3 -22,6 -32,9 -22,6 -43,13 -65,18 -31,8 -66,16 -98,22 -7,2 -25,7 -31,7l-53 9 -183 22c-1,0 -14,0 -19,1 -2,0 -14,0 -20,1 -3,0 -6,0 -9,1 -3,0 -15,0 -22,1 -4,0 -9,-1 -13,1 -5,0 -15,-1 -19,0l-49 0c-5,1 0,1 -5,0 -8,0 -44,1 -49,0 -5,0 -13,0 -17,-1 -5,0 -11,1 -16,-1 -4,0 -9,1 -13,0 -2,0 -14,0 -20,-1 -3,0 -7,0 -10,-1 0,0 -14,0 -19,-1l-39 -3c-1,0 -18,-1 -24,-1 -3,0 -7,-1 -9,0l4 29c3,6 8,21 11,28 3,6 11,22 12,27 1,2 7,15 8,17 1,1 1,2 2,3 1,4 3,5 3,9 2,2 2,3 4,5 0,3 8,18 10,20 1,3 4,11 6,13 2,1 10,5 12,5 1,0 1,0 2,-1 18,0 133,-2 141,1 10,0 65,-1 70,0 7,0 27,1 32,0 6,0 29,-1 34,0 16,0 117,2 124,0 6,0 27,1 31,-1 5,0 13,1 17,0 5,0 16,1 20,-1 4,0 9,1 12,0 3,0 8,0 11,-1 3,0 7,1 10,-1 3,0 6,1 9,0 3,0 7,0 10,-1 3,0 7,1 10,0 3,0 5,0 8,-1 2,0 5,0 7,0 2,0 3,0 5,-1 3,0 4,0 6,-1 3,0 3,1 6,0 2,0 3,0 5,-1 3,0 4,1 6,0 2,0 4,0 6,-1 3,0 3,1 6,0 2,0 2,0 5,-1 2,0 2,0 5,0 2,0 3,0 5,-1 3,0 2,0 4,-1 3,0 3,1 5,0 2,0 1,0 3,-1 2,0 2,1 5,0 2,0 1,0 3,-1 2,0 1,0 3,0 3,0 2,0 4,-1 3,0 2,0 4,0 2,0 2,0 3,-1 3,0 2,0 4,-1 3,0 2,1 4,0 3,0 2,0 4,-1 2,0 1,1 4,0 2,0 1,0 3,-1 2,0 1,0 3,0 3,0 2,0 4,-1 2,0 1,0 3,-1 2,0 1,1 3,0 2,0 1,0 3,-1 2,0 1,0 3,0 2,0 1,0 3,-1 2,0 1,0 3,0 2,0 1,0 2,-1 3,0 1,0 3,0 2,0 1,0 2,-1 3,0 1,0 3,-1 2,0 1,1 3,0 2,0 1,0 3,-1 2,0 1,0 3,0 2,0 1,0 2,-1 2,0 1,0 3,0 2,0 1,0 2,-1 3,0 1,0 3,0 2,0 1,0 2,-1 3,0 2,0 3,-1 2,0 1,1 3,0 2,0 1,0 2,-1 3,0 1,0 3,0 2,0 1,0 2,-1 3,0 1,0 3,0 2,0 1,0 2,-1 3,0 1,0 3,-1 2,0 1,1 2,0 3,0 2,0 3,-1 2,0 1,0 2,0 2,0 1,0 3,-1 2,0 1,0 2,0 2,0 1,0 2,-1 2,0 1,0 2,0 2,0 1,0 3,-1 2,0 0,0 1,-1 3,0 1,1 3,0 2,0 1,0 2,-1 2,0 1,0 2,0 2,0 1,0 2,-1 2,0 1,0 2,0 2,0 1,0 2,-1 2,0 1,0 2,0 2,0 1,0 2,-1 2,0 1,0 2,-1 2,0 1,1 2,0 2,0 1,0 2,-1 2,0 1,0 3,0 1,0 0,0 2,-1 2,0 0,0 1,0 2,0 1,0 3,-1 2,0 1,0 2,-1 2,0 0,1 2,0 2,0 1,0 2,-1 2,0 0,1 1,0 2,0 1,0 2,-1 2,0 1,0 2,0 2,0 1,0 2,-1 2,0 1,0 2,0 2,0 1,0 2,-1 2,0 1,0 2,-1 2,0 1,1 2,0 2,0 0,0 2,-1 2,0 1,0 2,0 2,0 0,0 2,-1 2,0 0,0 2,0 2,0 0,0 1,-1 2,0 1,0 3,0 2,0 0,0 1,-1 2,0 1,0 2,-1 2,0 1,1 2,0 2,0 1,0 2,-1 2,0 0,0 2,0 2,0 0,0 1,-1 2,0 1,0 3,0 1,0 0,0 1,-1 2,0 1,0 2,0 2,0 0,0 2,-1 2,0 1,0 2,-1 2,0 0,1 2,0 1,0 0,0 1,-1 2,0 1,0 2,0 2,0 0,0 2,-1 1,0 0,0 1,0 2,0 1,0 2,-1 2,0 1,0 2,-1l1 0c2,0 1,0 3,-1l1 0c2,0 1,0 2,-1l1 0c2,0 1,0 2,-1l1 0c2,0 1,0 2,-1 2,0 1,0 2,-1 2,0 0,1 1,0 2,0 1,0 2,-1 2,0 1,0 2,0 2,0 0,0 1,-1 2,0 1,0 2,0l1 -1c2,0 1,0 2,-1 2,0 0,1 2,0 1,0 0,0 1,-1 2,0 1,1 2,0 2,0 0,0 2,-1l1 0c2,0 0,0 1,-1 2,0 1,0 2,0 2,0 1,0 2,-1 2,0 0,0 1,-1l2 0c1,0 0,0 1,-1 2,0 1,0 2,0l1 -1c2,0 1,0 2,0 2,0 0,0 1,-1 2,0 1,0 2,0l1 -1c2,0 1,0 2,-1 2,0 0,1 2,0 1,0 0,0 1,-1 2,0 1,0 2,0l1 -1c2,0 1,0 2,0 2,0 0,0 1,-1l2 -1c1,0 0,1 1,0 2,0 1,0 2,-1l1 0c2,0 1,0 2,-1 2,0 0,0 1,0 2,0 1,0 2,-1l1 0c2,0 1,0 2,-1 2,0 0,0 2,-1l1 0c2,0 0,0 1,-1l1 0c2,0 1,0 2,-1l1 0c2,0 1,0 2,-1l1 0c2,0 1,0 2,-1l1 -1c2,0 0,1 2,0l1 -1c2,0 0,0 1,0l1 -1c2,0 1,0 2,0 2,0 1,0 2,-1l1 0c2,0 0,0 2,-1l1 -1c2,0 0,1 1,0l2 -1c1,0 0,0 1,0l1 -1c2,0 1,0 2,0l1 -1c2,0 1,0 2,-1l1 0c2,0 0,0 2,-1l1 0c2,0 0,0 1,-1l2 0c1,0 0,0 1,-1l1 0c2,0 1,0 2,-1l1 -1c2,0 1,1 2,0l1 -1 1 0c2,0 1,0 2,-1l1 0c2,0 0,0 2,-1l1 0c2,0 0,0 1,-1l1 -1 2 0c1,0 0,0 1,-1l1 0c2,0 1,0 2,-1l1 0 1 -1c2,0 1,0 2,-1l1 0 1 -1c2,0 1,1 2,0l1 -1c2,0 1,0 2,0l1 -1 1 0 1 -1c2,0 1,0 2,-1l1 0c2,0 0,0 2,-1l1 0 1 -1 1 0c2,0 0,0 2,-1l1 0c2,0 0,0 1,-1l1 -1 2 0 1 -1c2,0 0,0 1,0l2 -1 1 0 1 -1c2,0 0,0 1,-1l2 0 1 -1 1 0c2,0 0,0 1,-1l2 0 1 -1 1 0c2,0 0,0 2,-1l1 -1 1 0 1 -1c2,0 0,0 2,0l1 -1 1 0 1 -1 1 0 1 -1c2,0 1,0 2,-1l1 0 1 -1 1 0 1 -1c2,0 1,0 2,0l1 -1 1 -1 1 0 1 -1 2 0c1,0 0,0 1,-1l1 0 2 -1 1 0 1 -1 1 -1 1 0c2,0 1,0 2,-1l1 0 1 -1 1 0 1 -1 1 0 1 -1 1 -1c2,0 1,1 2,0l1 -1 1 0 2 -1 1 0 1 -1 1 -1 1 0c2,0 1,0 2,-1l1 0 1 -1 1 0 1 -1 1 0 1 -1 2 -1 1 0 1 -1 1 0 1 -1c2,0 1,0 2,0l1 -1 1 0 1 -1 1 -1 1 0 1 -1z"/>
   <path class="fil5 str1" d="M1291 1483c-2,1 0,1 -2,1l-1 0 -1 1 -2 0 -1 1 -1 0 -1 1 -1 0 -1 1 -1 1 -1 0 -1 1 -2 0 -1 1 -1 0 -1 1 -1 1 -1 0 -1 1c-1,0 0,0 -2,0l-1 1 -1 0 -1 1 -1 0 -2 1 -1 1 -1 0 -1 1 -1 0 -1 1 -1 0c-1,1 0,1 -2,1l-1 0 -1 1 -1 1 -1 0 -2 1 -1 0 -1 1c-1,1 0,0 -2,0l-1 1 -1 1 -1 0 -1 1 -1 0 -1 1 -1 0c-1,1 0,1 -2,1l-1 0 -1 1 -1 1 -1 0 -2 1 -1 0c-1,1 0,1 -1,1l-2 0 -1 1 -1 0 -1 1 -1 1c-1,0 0,0 -2,0l-1 1 -1 0 -1 1 -1 0c-1,1 0,1 -2,1l-1 1 -1 0 -1 1 -1 0 -1 1c-2,0 0,0 -2,0l-1 1 -1 0 -1 1c-2,1 0,1 -2,1l-1 0 -1 1 -2 0c-1,1 1,1 -1,1l-1 0 -1 1 -2 0c-1,1 1,1 -1,1l-1 1 -1 0 -2 1c-1,0 1,0 -1,0l-1 1 -2 0 -1 1c-1,1 1,1 -1,1l-1 0c-2,1 0,1 -2,1l-1 0 -1 1 -1 0c-2,1 0,1 -2,1l-1 0c-1,1 0,1 -2,1l-1 1 -1 0 -1 1c-1,0 0,0 -2,0l-1 1c-1,1 0,0 -2,0l-1 1 -1 0c-1,1 0,1 -2,1l-1 1 -1 0c-1,1 0,1 -2,1l-1 0c-1,1 0,1 -1,1l-2 0 -1 1c-1,1 1,1 -1,1l-1 0c-2,1 0,1 -2,1l-1 0c-1,1 0,1 -2,1l-1 0 -1 1c-1,1 0,0 -2,0l-1 1c-1,1 0,1 -2,1l-1 0c-1,1 0,1 -1,1l-2 0c-1,1 1,1 -1,1l-1 0c-2,1 0,1 -2,1l-1 0c-1,1 0,1 -2,1l-1 1c-1,0 0,0 -2,0l-1 1c-1,0 0,0 -1,0l-2 1c-1,1 1,0 -1,0l-1 1c-2,1 0,1 -2,1l-1 0c-1,1 0,1 -2,1 -1,0 0,0 -2,0l-1 1c-1,0 1,0 -1,0l-1 1c-2,1 0,0 -2,0l-1 1c-1,1 0,1 -2,1l-1 0c-1,1 0,1 -2,1l-1 0c-1,1 0,1 -2,1l-1 0c-1,1 1,1 -1,1l-1 0c-2,1 0,1 -2,1 -1,1 0,1 -2,1l-1 0c-1,1 0,1 -2,1 -1,0 1,0 -1,0 -1,1 0,1 -2,1l-1 0c-1,1 0,1 -2,1 -1,1 0,0 -1,0l-2 1c-1,1 1,1 -1,1 -1,0 0,0 -2,0l-1 1c-1,0 0,0 -2,0 -1,1 0,1 -1,1 -2,1 0,0 -2,0 -1,1 0,1 -2,1l-1 1c-1,0 0,0 -2,0 -1,1 1,1 -1,1 -1,0 0,0 -2,0l-1 1c-1,0 0,0 -2,0 -1,1 0,1 -1,1l-2 0c-1,1 1,1 -1,1 -1,1 0,1 -2,1 -1,0 0,0 -2,0 -1,1 1,1 -1,1l-1 0c-2,1 0,1 -2,1 -1,1 0,0 -2,0 -1,1 0,1 -1,1 -2,1 0,0 -2,0 -1,1 0,1 -2,1l-1 1c-1,0 0,0 -2,0 -1,1 1,1 -1,1 -1,0 0,0 -2,0 -1,1 0,1 -2,1 -1,1 1,0 -1,0 -1,1 0,1 -2,1 -1,1 0,1 -2,1l-1 0c-1,1 0,1 -2,1l-1 0c-1,1 0,1 -2,1l-1 0c-2,1 -1,1 -3,1l-1 0c-1,1 0,1 -2,1 -1,1 0,1 -2,1 -1,0 0,0 -1,0 -2,1 0,1 -2,1 -1,0 0,0 -2,0 -1,1 0,1 -1,1 -2,1 0,0 -2,0 -1,1 0,1 -2,1 -2,1 0,1 -2,1 -1,0 0,0 -2,0 -1,1 0,1 -1,1 -2,0 -1,0 -3,0 -1,1 1,1 -1,1 -2,0 0,0 -2,0 -1,1 0,1 -2,1 -1,1 0,0 -2,0 -1,1 0,1 -2,1 -1,1 1,1 -1,1 -2,0 -1,0 -3,0 -1,1 1,1 -1,1 -2,0 0,0 -2,0 -2,1 0,1 -2,1 -1,0 0,0 -2,0 -2,1 0,1 -2,1 -1,1 0,0 -2,0 -1,1 0,1 -2,1 -1,1 0,1 -2,1 -1,0 0,0 -2,0 -1,1 0,1 -2,1 -1,0 0,0 -2,0 -1,1 0,1 -2,1 -1,1 1,0 -1,0 -1,1 0,1 -2,1 -2,1 0,0 -2,0 -1,1 0,1 -2,1 -2,1 -1,1 -3,1 -1,0 1,0 -1,0 -2,1 -1,1 -2,1 -2,0 -1,0 -3,0 -1,1 0,1 -2,1 -1,1 0,0 -2,0 -1,1 0,1 -2,1 -1,1 0,1 -2,1 -1,0 0,0 -2,0 -1,1 0,1 -2,1 -1,0 0,0 -2,0 -1,1 0,1 -2,1 -1,0 0,0 -2,0 -1,1 0,1 -2,1 -2,1 0,0 -3,0 -1,1 1,1 -1,1 -2,1 -1,1 -3,1 -1,0 0,0 -2,0 -1,1 0,1 -2,1 -1,0 0,0 -2,0 -2,1 -1,1 -3,1 -1,0 0,0 -2,0 -1,1 0,1 -3,1 -1,1 0,0 -2,0 -2,1 0,1 -3,1 -1,1 0,1 -2,1 -2,0 0,0 -3,0 -1,1 0,1 -2,1 -2,0 0,0 -3,0 -1,1 0,1 -2,1 -2,1 -1,0 -3,0 -1,1 0,1 -3,1 -1,1 0,1 -2,1 -2,0 0,0 -3,0 -1,1 0,1 -2,1 -2,0 -1,0 -3,0 -1,1 0,1 -2,1 -2,0 -1,0 -3,0 -2,1 -1,1 -3,1 -2,1 -1,0 -3,0 -2,1 0,1 -3,1 -1,1 0,1 -2,1 -2,0 0,0 -3,0 -1,1 0,1 -2,1 -2,0 -1,0 -3,0 -2,1 -1,1 -3,1 -2,0 -1,0 -3,0 -2,1 -1,1 -3,1 -2,1 -1,0 -3,0 -2,1 -1,1 -3,1 -2,1 -1,1 -4,1 -2,0 -1,0 -3,0 -2,1 -1,1 -3,1 -3,1 -2,0 -4,0 -2,1 -1,1 -4,1 -2,1 -1,0 -4,0 -2,1 -1,1 -4,1 -1,1 -1,1 -3,1 -2,0 -1,0 -4,0 -2,1 -1,1 -4,1 -2,0 -1,0 -3,0 -2,1 -1,1 -3,1 -3,1 -3,0 -5,0 -2,1 -1,1 -3,1 -2,1 -2,0 -5,0 -2,1 -1,1 -4,1 -2,1 -3,1 -5,1 -3,0 -3,0 -5,0 -3,1 -3,1 -5,1 -3,1 -3,0 -6,0 -2,1 -4,1 -6,1 -2,1 -3,0 -6,0 -2,1 -3,1 -5,1 -3,1 -3,0 -6,0 -2,1 -3,1 -6,1 -2,1 -3,1 -5,1 -2,0 -5,0 -7,0 -3,1 -5,1 -8,1 -3,1 -7,0 -10,0 -3,1 -7,1 -10,1 -3,1 -6,0 -9,0 -3,2 -7,1 -10,1 -3,1 -8,1 -11,1 -3,1 -8,0 -12,0 -4,2 -15,1 -20,1 -4,1 -12,0 -17,0 -4,2 -25,1 -31,1 -7,2 -108,0 -124,0 -5,-1 -28,0 -34,0 -5,1 -25,0 -32,0 -5,-1 -60,0 -70,0 -8,-3 -123,-1 -141,-1 -1,1 -1,1 -2,1 1,9 5,19 6,27 17,29 34,54 53,82l2 3c4,2 11,5 15,6l3 -3 235 -34c2,-1 2,-1 4,-1l127 -20c2,-1 3,-1 4,-1l163 -30c2,0 9,-1 11,-2 3,0 10,-1 12,-2 3,0 15,-3 18,-3 2,0 14,-3 17,-4 6,0 21,-4 28,-5 10,-2 19,-4 29,-6 10,-2 19,-4 29,-6 37,-7 74,-16 112,-23 28,-6 56,-13 84,-19 29,-5 56,-13 84,-20 22,-6 43,-17 63,-28 7,-4 14,-11 21,-15 10,-9 25,-26 31,-37 4,-6 6,-14 10,-20l3 -19c0,-2 0,-2 0,-4l1 -8c-2,-2 0,-1 -2,-1 -2,0 -1,0 -3,0 -2,1 -1,1 -3,1 -2,0 -1,0 -3,0 -2,1 0,1 -3,1 -1,1 0,0 -2,0 -2,1 -1,1 -3,1 -2,1 -1,1 -4,1 -1,0 0,0 -2,0 -2,1 -1,1 -3,1 -1,0 0,0 -2,0l-1 1 -1 0 -1 1 -1 0 -1 1z"/>
   <path class="fil3 str1" d="M1329 1907l1 -1c0,1 2,1 -1,1zm723 -627l-42 50c-10,12 -24,27 -34,39 -4,5 -14,15 -19,21 -3,3 -13,13 -18,19 -4,4 -9,8 -12,12 -7,8 -25,24 -30,31 -2,2 -2,2 -4,3 -7,7 -23,25 -30,30 -4,4 -9,10 -13,13 -3,3 -7,7 -10,9 -3,3 -6,6 -9,8l-15 14c-5,4 -13,12 -19,17l-126 107c-14,10 -30,24 -44,35 -14,10 -29,22 -44,32 -29,21 -58,43 -88,63 -29,19 -58,40 -87,58 -15,9 -30,18 -45,27 -14,9 -30,17 -43,26 -4,6 -9,17 -12,24l4 4 3 0c1,3 0,1 5,1l24 -3c58,-20 102,-44 155,-76 53,-32 105,-70 157,-104 25,-18 52,-36 77,-54 26,-19 53,-37 79,-56 37,-27 80,-59 117,-88 11,-9 27,-22 39,-30l97 -83c8,-6 18,-16 25,-22l56 -51c6,-4 15,-14 17,-16 4,-2 7,-6 10,-9 4,-3 8,-7 11,-10 5,-3 9,-9 13,-13 4,-2 7,-6 11,-10 4,-1 21,-7 25,-8 3,-8 4,-9 6,-12 0,-2 0,-2 0,-3 2,-3 2,-3 3,-6l3 -37c1,-6 1,-18 1,-18 1,-5 1,-19 1,-19 1,-3 1,-5 1,-8 1,-4 0,-13 0,-17 2,-5 1,-51 1,-60 -1,-5 -1,-12 -1,-17 0,-4 -1,-18 -1,-18 -1,-6 -1,-20 -1,-21l-1 -13c-1,-2 -6,-6 -8,-8 -5,3 -15,7 -20,10 -12,20 -23,40 -36,59 -33,52 -67,100 -105,149 -7,8 -16,21 -24,29z"/>
   <path class="fil6 str1" d="M1215 754c6,-1 18,-1 20,-1l59 -7c9,-3 20,-4 29,-7 6,-1 24,-7 29,-8 6,-3 22,-8 30,-11 17,-7 45,-22 60,-33 13,-9 27,-19 39,-30 10,-8 35,-31 41,-38 7,-9 16,-18 23,-27 1,-2 2,-2 3,-4 10,-14 23,-28 33,-43 9,-14 19,-28 29,-43 18,-28 34,-57 51,-86 24,-42 49,-89 76,-129l28 -43c4,-8 -1,-3 6,-11 -1,-4 -4,-10 -6,-14 -3,-3 -7,-5 -11,-8 -3,-7 -6,-14 -9,-21 -2,0 -1,0 -4,0 -9,-3 -20,-5 -30,-7 -4,-1 -27,-15 -30,-17 -7,0 -18,-5 -25,-5 -1,1 -1,1 -3,2 -3,5 0,9 -6,14 -11,10 -21,16 -34,23 -7,4 -16,6 -22,9 -4,1 -15,4 -19,5 -3,1 -18,4 -22,5l-68 11c-8,2 -18,4 -27,6 -53,16 -90,40 -135,71 -19,13 -37,30 -55,42 -8,8 -23,19 -33,26 -11,8 -22,17 -33,25 -31,23 -64,43 -99,59 -19,9 -45,17 -66,23 -10,3 -24,4 -33,7l-46 6c-2,1 -2,0 -5,0 -6,1 -16,1 -19,2 -7,1 -52,2 -59,1 -5,-1 -17,-1 -19,-1 -6,-1 -20,-1 -21,-2l-153 -21c-2,0 -9,-2 -12,-3 -3,0 -19,-3 -23,-4l-11 -2c-3,0 -14,-3 -17,-4 -3,0 -15,-2 -17,-3l-31 -6c-22,-3 -45,-8 -67,-11l-98 -11c-2,-1 -4,-1 -7,-1 -4,-1 -8,0 -12,0 -4,-2 -14,-1 -19,-1 -4,-1 -23,0 -29,0 -4,1 -28,0 -34,0 -3,1 -7,1 -10,1l-3 -3c-3,1 -6,3 -9,4 -2,1 -3,2 -6,2 -1,2 -1,1 -3,2l-5 3c-7,10 -17,21 -24,31 -23,30 -45,63 -64,95 -13,21 -25,41 -36,63 -5,10 -10,21 -15,31 -3,6 -13,27 -14,32 -3,4 -6,12 -8,17l-4 20c0,5 1,4 -1,7 2,0 1,0 3,2 4,0 10,2 15,2 3,1 21,12 25,14 4,1 22,9 28,12 7,3 23,7 28,11 3,0 2,0 4,1 4,0 16,4 21,6 6,1 16,4 22,6 3,0 21,4 24,5l42 5c5,0 16,0 18,1 4,1 17,0 23,0 2,1 1,1 3,0l28 0c4,-1 9,-1 13,-1 7,-1 13,-2 20,-3 2,0 1,0 4,0l15 -2c8,-3 22,-5 30,-7 49,-9 102,-29 150,-41 11,-2 21,-5 31,-7l56 -11 16 -2c2,-1 2,-1 4,-1l26 -2c4,-1 11,0 16,0 4,-2 20,-1 26,-1 4,-1 13,-1 18,-1 4,2 10,1 15,1 7,1 18,1 21,1l262 30c6,1 15,1 15,1 6,1 17,1 20,1 3,1 8,1 11,1 5,1 24,0 31,0 2,1 1,1 3,1 4,-2 23,-1 28,-1z"/>
   <path class="fil7 str1" d="M1235 753c-2,0 -14,0 -20,1 -5,0 -24,-1 -28,1 -2,0 -1,0 -3,-1 -7,0 -26,1 -31,0 -3,0 -8,0 -11,-1 -3,0 -14,0 -20,-1 0,0 -9,0 -15,-1l-262 -30c-3,0 -14,0 -21,-1 -5,0 -11,1 -15,-1 -5,0 -14,0 -18,1 -6,0 -22,-1 -26,1 -5,0 -12,-1 -16,0l-26 2c-2,0 -2,0 -4,1l-16 2 -56 11c-10,2 -20,5 -31,7 -48,12 -101,32 -150,41 -8,2 -22,4 -30,7l-15 2c-3,0 -2,0 -4,0 -7,1 -13,2 -20,3 -4,0 -9,0 -13,1l-28 0c-2,1 -1,1 -3,0 -6,0 -19,1 -23,0 -2,-1 -13,-1 -18,-1l-42 -5c-3,-1 -21,-5 -24,-5 -6,-2 -16,-5 -22,-6 -5,-2 -17,-6 -21,-6 -2,-1 -1,-1 -4,-1 -5,-4 -21,-8 -28,-11 -6,-3 -24,-11 -28,-12 -4,-2 -22,-13 -25,-14 -5,0 -11,-2 -15,-2 -2,-2 -1,-2 -3,-2l-1 0 -1 1 -2 1c-1,1 -2,1 -4,2 -1,2 -4,12 -5,14 -1,2 -2,4 -2,6 -1,3 -1,1 -1,4 -1,2 -2,4 -2,6 -1,2 -1,1 -1,3 -1,2 -2,4 -3,6 -1,3 0,1 -1,4 -1,2 -1,3 -2,4 0,1 -16,53 -16,54 0,6 -7,26 -9,34 -2,7 -7,27 -7,34l-3 12c0,1 0,2 -1,3l-2 13c0,1 -1,3 -1,4l0 2c-1,1 -1,3 -1,4l-3 19c-1,2 -1,3 -1,5l0 3c-1,2 -1,3 -1,5l0 4c-1,1 -1,2 -1,4l0 4c-1,1 -1,2 -1,4l0 3c-1,2 -1,3 -2,5 0,3 1,3 0,5l-4 41c-1,7 -1,16 -2,23 0,3 0,15 -1,22 0,4 1,10 0,15 0,5 0,17 -1,21 0,5 -1,20 1,24 0,5 -1,17 0,21 0,5 -1,11 1,15 0,4 -1,9 0,13 1,5 -2,4 3,13 7,2 17,3 24,5 3,1 5,0 9,3 4,1 15,7 20,8 6,3 13,6 19,8 7,3 35,14 40,15 6,3 27,9 35,11 24,7 47,14 71,18 9,2 26,5 35,8l95 12c2,0 15,0 20,1 1,0 18,0 25,1 9,0 56,1 61,0 5,0 11,1 15,-1 1,0 16,0 21,-1l89 -10c12,-2 26,-5 38,-7 7,-2 17,-4 24,-6 16,-3 32,-8 48,-13 6,-1 19,-6 24,-6 2,-2 1,-1 3,-2 2,-1 1,-1 3,-1 5,-2 25,-9 31,-11 10,-3 20,-8 30,-12 11,-4 53,-22 60,-28 3,-1 5,-2 7,-4 3,0 3,0 5,-2 5,-1 50,-26 58,-30 10,-6 20,-11 30,-16 7,-4 23,-14 29,-15 7,-6 44,-22 54,-27 9,-3 18,-7 27,-11 7,-3 21,-7 27,-11 2,0 1,1 3,-1 4,0 19,-5 23,-7 8,-2 16,-4 24,-6 11,-3 37,-11 46,-11l27 -5 531 -61c9,-3 24,-5 33,-7 11,-2 22,-5 33,-7 11,-2 22,-5 33,-8 7,-2 28,-9 33,-10 5,-3 18,-6 24,-9 8,-3 17,-6 24,-10 17,-7 32,-15 49,-23 25,-12 50,-28 73,-45 7,-6 16,-13 24,-19 8,-6 16,-14 23,-20 6,-5 17,-16 22,-23l11 -13c9,-12 17,-22 25,-35 5,-2 10,-4 15,-7 0,-9 -2,-18 -4,-27l-1 -7c-4,-10 -9,-22 -13,-32 -3,-6 -13,-28 -14,-33 -2,-2 -5,-9 -6,-11 -2,-3 -7,-14 -8,-16 -4,-5 -6,-14 -11,-20 -1,-3 -3,-7 -5,-10 -1,-5 -17,-30 -21,-37 -3,-6 -7,-12 -11,-18 -3,-5 -9,-14 -12,-19 -4,-5 -12,-18 -16,-24 -5,-8 -11,-16 -17,-24 -6,-8 -12,-17 -18,-24 -6,-8 -14,-17 -19,-25l-41 -47c-4,-5 -12,-12 -15,-16 -6,-9 -31,-32 -40,-41 -7,-6 -17,-16 -23,-21 -9,-8 -20,-18 -30,-26 -2,-1 -3,-2 -5,-4l-17 -14c-11,-10 -26,-18 -36,-28 -4,-1 -18,-5 -22,-5 -7,8 -2,3 -6,11l-28 43c-27,40 -52,87 -76,129 -17,29 -33,58 -51,86 -10,15 -20,29 -29,43 -10,15 -23,29 -33,43 -1,2 -2,2 -3,4 -7,9 -16,18 -23,27 -6,7 -31,30 -41,38 -12,11 -26,21 -39,30 -15,11 -43,26 -60,33 -8,3 -24,8 -30,11 -5,1 -23,7 -29,8 -9,3 -20,4 -29,7l-59 7z"/>
   <path class="fil8 str1" d="M1215 754c6,-1 18,-1 20,-1l59 -7c9,-3 20,-4 29,-7 6,-1 24,-7 29,-8 6,-3 22,-8 30,-11 17,-7 45,-22 60,-33 13,-9 27,-19 39,-30 10,-8 35,-31 41,-38 7,-9 16,-18 23,-27 1,-2 2,-2 3,-4 10,-14 23,-28 33,-43 9,-14 19,-28 29,-43 18,-28 34,-57 51,-86 24,-42 49,-89 76,-129l28 -43c4,-8 -1,-3 6,-11 -1,-4 -4,-10 -6,-14 -3,-3 -7,-5 -11,-8 -3,-7 -6,-14 -9,-21 -2,0 -1,0 -4,0 -9,-3 -20,-5 -30,-7 -4,-1 -27,-15 -30,-17 -7,0 -18,-5 -25,-5 -1,1 -1,1 -3,2 -3,5 0,9 -6,14 -11,10 -21,16 -34,23 -7,4 -16,6 -22,9 -4,1 -15,4 -19,5 -3,1 -18,4 -22,5l-68 11c-8,2 -18,4 -27,6 -53,16 -90,40 -135,71 -19,13 -37,30 -55,42 -8,8 -23,19 -33,26 -11,8 -22,17 -33,25 -31,23 -64,43 -99,59 -19,9 -45,17 -66,23 -10,3 -24,4 -33,7l-46 6c-2,1 -2,0 -5,0 -6,1 -16,1 -19,2 -7,1 -52,2 -59,1 -5,-1 -17,-1 -19,-1 -6,-1 -20,-1 -21,-2l-153 -21c-2,0 -9,-2 -12,-3 -3,0 -19,-3 -23,-4l-11 -2c-3,0 -14,-3 -17,-4 -3,0 -15,-2 -17,-3l-31 -6c-22,-3 -45,-8 -67,-11l-98 -11c-2,-1 -4,-1 -7,-1 -4,-1 -8,0 -12,0 -4,-2 -14,-1 -19,-1 -4,-1 -23,0 -29,0 -4,1 -28,0 -34,0 -3,1 -7,1 -10,1l-3 -3c-3,1 -6,3 -9,4 -2,1 -3,2 -6,2 -1,2 -1,1 -3,2l-5 3c-7,10 -17,21 -24,31 -23,30 -45,63 -64,95 -13,21 -25,41 -36,63 -5,10 -10,21 -15,31 -3,6 -13,27 -14,32 -3,4 -6,12 -8,17l-4 20c0,5 1,4 -1,7 2,0 1,0 3,2 4,0 10,2 15,2 3,1 21,12 25,14 4,1 22,9 28,12 7,3 23,7 28,11 3,0 2,0 4,1 4,0 16,4 21,6 6,1 16,4 22,6 3,0 21,4 24,5l42 5c5,0 16,0 18,1 4,1 17,0 23,0 2,1 1,1 3,0l28 0c4,-1 9,-1 13,-1 7,-1 13,-2 20,-3 2,0 1,0 4,0l15 -2c8,-3 22,-5 30,-7 49,-9 102,-29 150,-41 11,-2 21,-5 31,-7l56 -11 16 -2c2,-1 2,-1 4,-1l26 -2c4,-1 11,0 16,0 4,-2 20,-1 26,-1 4,-1 13,-1 18,-1 4,2 10,1 15,1 7,1 18,1 21,1l262 30c6,1 15,1 15,1 6,1 17,1 20,1 3,1 8,1 11,1 5,1 24,0 31,0 2,1 1,1 3,1 4,-2 23,-1 28,-1z"/>
   <path class="fil9 str1" d="M1812 1630c-26,19 -53,37 -79,56 -25,18 -52,36 -77,54 -52,34 -104,72 -157,104 -53,32 -97,56 -155,76l-24 3c-5,0 -4,2 -5,-1l-3 0 -4 -4c-9,2 -29,13 -38,14 -2,1 -2,1 -4,2 -2,1 -4,1 -6,2 -3,1 -7,2 -9,3l-2 0c-3,2 -8,3 -12,4 -2,0 -3,0 -6,1l-13 1c-12,4 -27,5 -38,9l-11 22c-2,1 -2,1 -4,1 -2,2 -2,2 -5,3 -6,4 -24,12 -32,16 -22,10 -45,21 -66,30 -10,5 -23,11 -33,15 -4,5 -8,14 -11,19l8 9c1,0 21,1 24,2 1,0 17,0 23,1 2,0 14,0 20,1 7,0 29,-1 33,1 8,0 40,1 44,-1 7,0 32,1 37,0 4,0 8,0 12,-1 1,0 17,0 23,-1 3,0 4,0 7,-1 1,0 17,0 22,-1l88 -8c2,0 14,0 17,-1 2,0 2,0 5,-1 2,0 2,0 5,0 2,0 3,0 5,-1 2,0 3,0 5,-1 2,0 3,1 5,0 2,0 3,0 5,-1 2,0 2,1 4,0 3,0 3,0 5,-1 2,0 2,0 4,0 3,0 2,0 4,-1 3,0 3,0 5,-1 2,0 2,1 4,0 3,0 2,0 4,-1 2,0 2,1 4,0 2,0 2,0 4,-1 3,0 2,0 4,0 3,0 3,0 5,-1 2,0 2,0 4,0 2,0 2,0 4,-1 2,0 2,0 4,-1 2,0 1,1 4,0 2,0 1,0 3,-1 3,0 2,1 4,0 3,0 2,0 4,-1 2,0 2,0 4,0 2,0 2,0 4,-1 2,0 1,0 3,0 3,0 2,0 4,-1 2,0 2,0 4,-1 3,0 2,1 4,0 2,0 2,0 4,-1 2,0 1,1 4,0 2,0 1,0 3,-1 2,0 2,0 4,0 2,0 1,0 3,-1 3,0 2,0 4,-1 2,0 2,1 4,0 2,0 1,0 3,-1 3,0 2,1 4,0 2,0 2,0 4,-1 2,0 2,0 4,0 2,0 1,0 3,-1 2,0 1,0 3,0 3,0 2,0 4,-1 3,0 2,0 4,-1 2,0 1,1 3,0 2,0 2,0 4,-1 2,0 1,1 3,0 2,0 2,0 4,-1 2,0 1,0 3,0 3,0 2,0 3,-1 3,0 2,0 4,0 2,0 2,0 4,-1 2,0 1,0 3,-1 2,0 2,1 4,0 2,0 1,0 3,-1 2,0 2,0 4,0 2,0 1,0 3,-1 2,0 1,0 3,0 3,0 2,0 4,-1 2,0 1,0 3,-1 2,0 1,1 3,0 3,0 2,0 4,-1 2,0 1,1 3,0 2,0 1,0 3,-1 3,0 2,0 4,0 2,0 1,0 3,-1 2,0 2,0 4,0 2,0 1,0 3,-1 2,0 1,0 3,-1 3,0 2,1 4,0 2,0 1,0 3,-1 2,0 1,1 3,0 3,0 2,0 4,-1 2,0 1,0 3,0 2,0 1,0 3,-1 3,0 1,0 3,0 2,0 2,0 4,-1 2,0 1,0 3,-1 2,0 1,1 3,0 3,0 2,0 4,-1 2,0 1,0 3,0 2,0 1,0 3,-1 2,0 2,0 4,0 2,0 1,0 2,-1 3,0 2,0 4,-1 2,0 1,1 3,0 2,0 2,0 4,-1 2,0 1,1 3,0 2,0 1,0 3,-1 3,0 2,0 4,0 2,0 1,0 2,-1 3,0 2,0 4,0 2,0 1,0 3,-1 2,0 1,0 3,-1 2,0 2,1 4,0 2,0 1,0 3,-1 2,0 1,1 3,0 2,0 1,0 3,-1 3,0 2,0 4,0 2,0 1,0 3,-1 2,0 2,0 3,0 3,0 2,0 4,-1 2,0 1,0 3,-1 2,0 1,1 3,0 2,0 1,0 3,-1 3,0 2,0 4,0 2,0 1,0 3,-1 2,0 1,0 3,0 2,0 2,0 4,-1 2,0 1,0 3,-1 2,0 1,1 3,0 2,0 1,0 3,-1 3,0 2,1 4,0 2,0 5,0 7,-1 3,0 4,1 7,0 2,0 5,0 7,-1 3,0 5,0 7,0l3 0 4 3c4,0 9,-4 14,-5 2,-1 0,0 3,-1 1,-1 1,-1 3,-2 3,0 1,1 3,-1 2,0 2,-1 4,-1 2,-2 0,-1 3,-1 1,-1 1,-1 3,-3 1,0 8,-2 11,-5l34 -31c9,-6 31,-30 40,-39 6,-7 16,-17 21,-22 7,-10 18,-20 26,-30l8 -10c6,-9 15,-18 21,-27 23,-30 36,-49 57,-81 10,-15 57,-94 60,-107 5,-6 12,-25 16,-33 16,-34 26,-64 39,-99 9,-23 22,-71 29,-98 3,-11 4,-24 7,-33 3,-13 6,-28 8,-41l3 -34 -3 -3c-4,1 -21,7 -25,8 -4,4 -7,8 -11,10 -4,4 -8,10 -13,13 -3,3 -7,7 -11,10 -3,3 -6,7 -10,9 -2,2 -11,12 -17,16l-56 51c-7,6 -17,16 -25,22l-97 83c-12,8 -28,21 -39,30 -37,29 -80,61 -117,88z"/>
   <path class="fil9 str1" d="M1130 1945l-103 -9c-1,0 -12,0 -16,-1 -5,0 -12,1 -16,-1 -5,0 -13,-1 -17,1 -5,0 -12,-1 -16,0 -3,0 -3,0 -6,1 0,0 -7,0 -13,1l-20 3c-9,3 -19,3 -27,7 -2,0 -3,1 -5,1 -6,4 -16,7 -23,10 -8,5 -15,9 -23,14 -6,6 -9,10 -14,17 -1,2 -4,13 -4,15 -1,3 3,17 3,18 1,2 7,8 9,10 8,5 14,6 21,10 4,0 23,6 29,7 6,1 30,7 35,7 3,3 6,7 8,10l19 -2c8,-1 27,1 38,-1l29 -3c3,-5 7,-14 11,-19 10,-4 23,-10 33,-15 21,-9 44,-20 66,-30 8,-4 26,-12 32,-16 3,-1 3,-1 5,-3 2,0 2,0 4,-1l11 -22 -8 -7c-5,0 -16,0 -20,-1 -2,0 -16,0 -22,-1z"/>
  </g>
 </g>
</svg>
