<?xml version="1.0" encoding="UTF-8"?>
<!DOCTYPE svg PUBLIC "-//W3C//DTD SVG 1.1//EN" "http://www.w3.org/Graphics/SVG/1.1/DTD/svg11.dtd">
<!-- Creator: CorelDRAW 2020 (64-Bit) -->
<svg xmlns="http://www.w3.org/2000/svg" xml:space="preserve" width="127px" height="128px" version="1.1" style="shape-rendering:geometricPrecision; text-rendering:geometricPrecision; image-rendering:optimizeQuality; fill-rule:evenodd; clip-rule:evenodd"
viewBox="0 0 4134 4146"
 xmlns:xlink="http://www.w3.org/1999/xlink"
 xmlns:xodm="http://www.corel.com/coreldraw/odm/2003">
 <defs>
  <style type="text/css">
   <![CDATA[
    .str1 {stroke:#2B2A29;stroke-width:29;stroke-miterlimit:22.9256}
    .str0 {stroke:black;stroke-width:65;stroke-linecap:square;stroke-miterlimit:22.9256}
    .fil0 {fill:none}
    .fil2 {fill:#009933}
    .fil1 {fill:#00CCFF}
    .fil3 {fill:#D18C02}
    .fil4 {fill:white}
   ]]>
  </style>
 </defs>
 <g id="planets">
  <metadata id="CorelCorpID_0Corel-Layer"/>
  <g id="_1378750041536">
   <path class="fil0 str0" d="M1720 348c-5,2 -14,2 -16,2 -16,6 -25,7 -41,15 -14,7 -28,15 -42,22 -90,45 -157,60 -251,89 -96,29 -161,45 -251,90 -29,14 -87,48 -110,76 -10,13 -18,26 -20,41 -2,11 -3,13 -1,22 0,6 3,12 3,19 2,3 2,3 3,7 2,4 15,18 19,21 5,1 10,4 14,7 4,0 7,2 11,4 5,0 8,1 12,3l4 0c2,1 4,1 6,2l5 0c3,1 5,1 8,2l50 2c10,-2 40,-2 40,-2 10,-2 33,-2 36,-2l264 -35c13,0 47,-9 62,-12 21,-4 43,-9 63,-14 22,-6 42,-11 64,-17 12,-4 53,-17 63,-18 16,-9 42,-15 61,-26 24,-11 61,-37 79,-58 5,-7 12,-15 17,-22 5,-8 8,-16 12,-24l6 -18c1,-6 3,-28 3,-33l-3 -24c-2,-5 -4,-10 -5,-16 -5,-9 -6,-20 -14,-29 -2,-9 -11,-17 -16,-25 -9,-11 -28,-25 -40,-32 -7,-4 -15,-6 -21,-10l-43 -7c-16,-2 -16,0 -31,0z"/>
   <path class="fil0 str0" d="M2096 1656c-5,2 -12,2 -15,2 -7,3 -15,3 -21,7l-4 0c-8,4 -17,7 -26,11 -9,5 -16,9 -25,14 -13,8 -45,31 -57,41 -11,9 -45,41 -51,49l-28 32c-2,2 -3,4 -5,7 -25,25 -59,82 -79,113 -11,18 -41,67 -51,86 -5,9 -9,25 -11,35l-1 17c1,6 4,23 6,28 5,10 20,22 30,27l19 8c5,0 8,2 12,3l5 0c2,1 4,2 6,2l27 2c7,1 25,2 31,1 11,-1 20,0 27,-2l55 -7 51 -11c5,-3 21,-7 28,-8 37,-11 99,-41 131,-62 9,-6 50,-36 59,-46 7,-10 16,-20 23,-30 5,-9 11,-22 17,-30 0,0 22,-50 23,-53l10 -34 3 -33 -3 -30c-1,-2 -2,-4 -2,-6 -1,-6 -3,-9 -3,-16l-3 -5c-1,-5 -3,-7 -4,-12 -3,-4 -1,0 -2,-4 -2,-3 -2,-2 -3,-6 -3,-3 -6,-10 -8,-14 -4,-6 -23,-28 -28,-33 -11,-8 -21,-16 -33,-23 -15,-8 -32,-15 -49,-18l-33 -3c-7,0 -11,1 -18,1z"/>
   <path class="fil0 str0" d="M2774 3496l-21 4c-15,8 -35,19 -52,25 -9,4 -15,6 -25,9 -9,3 -19,4 -27,7l-7 0c-2,0 -4,1 -7,2l-22 1c-8,2 -18,1 -26,1 -4,1 -5,1 -9,1 -8,-3 -26,-1 -35,-1 -11,-2 -37,-2 -41,-2l-53 -5c-7,-2 -22,-1 -30,-1 -8,-2 -25,-1 -34,-1 -9,2 -33,2 -35,2 -3,2 -5,1 -8,3l-22 3c-15,0 -36,11 -49,12 -11,6 -31,13 -44,20 -16,8 -46,26 -58,40 -3,4 -5,6 -7,11 -3,4 -3,3 -4,7 -3,5 -1,0 -2,6 -4,5 -4,12 -6,18 -2,10 -4,23 -2,33 1,9 4,24 8,32 7,17 14,28 28,39 10,9 7,6 17,10 4,3 5,4 10,4 5,3 9,3 15,5l11 1c6,2 16,1 23,1 5,-2 9,-1 15,-1 3,-2 5,-1 8,-3l45 -6c14,-4 42,-9 59,-12 19,-4 40,-8 59,-14 27,-7 100,-25 120,-36 12,-1 87,-33 104,-39 16,-7 37,-18 52,-27 20,-11 33,-22 52,-35l27 -27c4,-4 13,-14 15,-20 0,-2 4,-21 4,-25 -3,-9 -3,-15 -7,-25 -7,-11 -22,-15 -34,-16 -4,0 -2,0 -5,-1z"/>
   <path class="fil0 str0" d="M3449 1827c-5,1 -12,1 -15,2 -2,1 -4,1 -7,2l-4 0c-4,3 -13,5 -19,8 -23,11 -60,48 -82,66 -29,23 -59,52 -88,75l-30 27c-8,6 -27,24 -32,31 -2,5 -5,9 -7,13 0,5 1,1 -2,5 0,0 -5,25 -4,30l4 23c3,3 2,3 3,7l18 22c6,4 16,10 21,14l29 8 39 3c11,-2 23,-1 33,-3 4,-2 5,-1 9,-1l50 -12c6,-4 20,-9 27,-11 14,-5 48,-24 61,-33 12,-7 22,-17 34,-25 26,-21 49,-49 66,-78 9,-15 10,-24 15,-39l2 -20c1,-4 2,-9 1,-14l-5 -30c-2,-4 -1,-1 -2,-6l-14 -23 -17 -18c-23,-14 -25,-13 -48,-21l-22 -2c-10,-2 -2,0 -14,0z"/>
   <path class="fil0 str0" d="M1166 1096c-2,0 -23,3 -30,5 -6,3 -19,7 -27,11 -9,5 -17,11 -26,17l-26 26c-8,12 -17,22 -23,35 -4,7 -15,34 -16,40l-4 43c2,13 5,31 14,41l7 7c2,2 31,10 36,10 2,-1 1,-1 4,-1l12 -1c36,-6 95,-37 126,-57 12,-8 48,-34 59,-48 7,-11 12,-18 19,-29 0,-5 0,-2 2,-6l3 -24c0,-5 -4,-20 -6,-25 -4,-7 -26,-23 -34,-27 -7,-4 -14,-6 -21,-10l-4 0c-3,-2 -4,-2 -7,-3l-21 -3c-23,-4 -17,-1 -37,-1z"/>
   <path class="fil0 str0" d="M643 3506l9 -9c9,-14 109,-72 129,-81 22,-11 42,-21 65,-31 11,-6 21,-10 33,-14 9,-4 25,-9 32,-13 5,-1 2,0 6,-2 5,-1 3,0 6,-2 5,-1 3,0 7,-2 9,-1 49,-16 63,-19 19,-5 46,-9 63,-15l84 -12c4,-2 5,-1 9,-1l54 -4c10,-2 40,-2 40,-3 5,-1 9,-1 14,-1 9,-1 29,-1 32,-2l56 -7c6,-1 11,-2 17,-4 12,0 52,-15 63,-21 18,-9 41,-26 57,-39l32 -28c8,-5 20,-13 27,-19m2 -1l-2 1m4 -2l-2 1m4 -2l-2 1m4 -2l-2 1m6 -2c-3,1 0,1 -4,1m6 -2l-2 1m4 -2l-2 1m7 -2c-3,1 -1,1 -5,1m7 -2l-2 1m8 -2c-4,1 -2,1 -6,1m12 -2c-3,1 -2,1 -6,1m12 -2c-3,1 -2,1 -6,1m-537 650c10,-10 5,-6 9,-20l71 -86c11,-14 53,-57 66,-68 14,-12 32,-30 47,-42l25 -21c22,-21 64,-47 89,-64 70,-46 106,-60 178,-95 15,-8 29,-14 44,-22 21,-13 53,-33 69,-54 4,-5 9,-12 14,-17 2,-5 8,-20 11,-24l5 -38c1,-8 1,0 0,-8l-3 -29c-2,-5 -2,-9 -5,-14 -1,-5 -3,-10 -6,-14 -7,-12 -14,-20 -26,-27l-32 -8 -13 0m-238 796c4,7 8,15 12,22 24,10 63,24 88,31 29,8 59,17 88,26 43,12 88,22 132,31 12,2 33,5 44,9l22 3c4,1 2,1 6,1l70 10c4,1 3,1 7,1l107 10c6,2 13,1 19,1 10,2 29,2 34,2 7,3 17,1 25,1 16,5 69,-3 85,2 7,-2 40,-1 51,-1 11,-1 34,-1 38,-2 6,-1 12,-1 18,-1 11,-1 29,-1 34,-2l208 -26c18,-6 50,-11 70,-15 24,-5 47,-11 71,-17 24,-6 47,-12 70,-19 16,-5 60,-16 72,-23 4,0 2,0 6,-2 17,-1 131,-49 153,-58 140,-61 259,-129 383,-218 26,-19 52,-42 78,-59l51 -42c12,-10 24,-22 36,-32l23 -21c5,-3 10,-8 14,-13 8,-6 16,-15 24,-23 10,-7 33,-32 44,-42 5,-9 15,-17 22,-24 14,-17 35,-37 49,-54l46 -55c5,-6 12,-15 16,-21 18,-17 43,-54 58,-75 98,-137 145,-226 216,-378 13,-29 33,-81 45,-113 3,-10 10,-32 14,-39 1,-9 10,-24 10,-34 6,-10 16,-52 21,-66 13,-44 22,-89 33,-133 5,-20 8,-49 14,-67l4 -30c1,-4 1,-2 1,-6l19 -161c2,-10 2,-38 2,-38 2,-5 1,-8 1,-14 3,-8 1,-27 1,-36 3,-7 1,-16 1,-23l-11 -11m-3680 -207c3,2 4,3 7,6l18 126c6,33 12,69 19,100 5,19 9,33 17,49 7,13 16,28 28,37l12 7 26 6c4,-2 1,-1 6,-1l21 -5c4,-1 20,-12 26,-19 7,-11 11,-18 17,-29 0,-4 1,-4 3,-8 0,-4 3,-14 4,-18l2 -27c2,-5 1,-12 1,-18 3,-8 1,-24 1,-33 2,-13 1,-27 3,-41 2,-4 1,-6 1,-11l3 -13c0,-6 3,-13 4,-18 1,-14 11,-29 12,-41l24 -55c9,-19 19,-38 29,-56 22,-36 43,-74 65,-110 7,-7 17,-11 25,-17m-480 1341c3,-2 3,-3 6,-6 6,-3 13,-1 20,-7 25,-23 71,-48 100,-64 16,-8 86,-39 100,-40 20,-11 66,-17 89,-24l107 -15c10,-1 25,-1 30,-2l26 -2c7,-2 19,-1 28,-1 6,-2 15,-1 22,-1 7,-2 25,-1 34,-1 7,-2 17,-1 25,-1 8,-2 42,-1 53,-1 8,-2 21,-1 29,-1 9,-2 43,-1 55,-1 11,-2 33,-1 38,-2 10,-1 32,-2 35,-2 9,-1 24,-1 29,-2l106 -13c21,-7 49,-9 71,-16 59,-18 90,-30 144,-60 30,-17 64,-41 90,-63 17,-14 43,-41 57,-58 11,-16 23,-30 33,-45 22,-35 28,-59 57,-94 8,-10 26,-27 36,-35 16,-10 27,-20 44,-28 8,-4 15,-7 22,-11 8,-3 17,-5 23,-8l38 -8 20 -1c7,-2 12,0 18,-2 5,2 12,1 18,1 6,2 13,1 19,1 7,2 17,1 25,1 5,2 12,1 18,1l26 -2c3,-1 5,-1 8,-2l22 -3c5,-3 13,-5 19,-5 12,-7 29,-11 43,-19 18,-11 34,-21 50,-34l24 -25c5,-7 18,-24 24,-31 7,-18 23,-37 34,-54 29,-34 58,-51 96,-74 19,-11 45,-17 62,-27 4,0 2,0 6,-2 4,0 2,0 6,-2 7,0 38,-12 47,-15 15,-5 31,-8 47,-13 16,-4 31,-9 47,-13 10,-3 39,-13 47,-14 10,-6 42,-16 55,-21 19,-6 37,-14 56,-22 22,-8 97,-41 112,-53 55,-26 137,-77 187,-115 20,-15 43,-34 63,-47l82 -73c9,-5 16,-15 24,-22 9,-6 25,-24 34,-33 5,-8 16,-17 23,-25 14,-17 36,-37 50,-55l56 -66c4,-6 10,-12 14,-18 20,-20 42,-53 59,-75 56,-71 115,-153 167,-227 34,-49 66,-98 95,-150 21,-37 42,-74 57,-113 24,-59 11,-30 32,-49m-712 -282c7,-7 9,-12 10,-13 19,-9 38,-15 57,-24 47,-24 68,-35 113,-65 14,-9 53,-39 69,-52l18 -16c6,-7 -4,0 12,-16m-3243 1844c-5,-4 -14,-11 -20,-15l-8 -95c-1,-9 -2,-30 -2,-30 -2,-7 -1,-18 -1,-26 -2,-8 -1,-25 -1,-34 -3,-8 -1,-89 -1,-105 3,-8 1,-21 1,-30 2,-13 1,-37 2,-42l2 -26c2,-10 2,-28 2,-28 2,-11 2,-28 3,-33l12 -96c5,-29 12,-62 17,-90 7,-43 19,-87 30,-129 4,-19 10,-40 16,-59 4,-11 19,-52 19,-60 6,-10 20,-56 25,-70 8,-23 18,-48 28,-70 10,-24 20,-46 31,-70 6,-14 27,-60 35,-70 4,-16 37,-71 47,-89 17,-30 36,-60 55,-89 33,-51 57,-85 93,-133 11,-14 26,-30 35,-44l100 -114c6,-8 17,-17 24,-24 6,-9 26,-27 35,-36 8,-6 17,-16 24,-24 14,-11 35,-33 48,-43l57 -50c3,-1 6,-4 9,-6 21,-21 62,-50 87,-68 29,-20 60,-43 89,-61 42,-25 90,-57 133,-79 10,-5 37,-19 45,-24m2 -1l-2 1m4 -3l-2 2m4 -3l-2 1m4 -2l-2 1m4 -2l-2 1m4 -2l-2 1m4 -2l-2 1m4 -2l-2 1m4 -2l-2 1m4 -2l-2 1m4 -2l-2 1m4 -2l-2 1m4 -2l-2 1m5 -2l-3 1m5 -2l-2 1m4 -2l-2 1m4 -2l-2 1m4 -2l-2 1m4 -2l-2 1m4 -2l-2 1m4 -2l-2 1m4 -2l-2 1m4 -2l-2 1m5 -2c-2,1 0,1 -3,1m5 -2l-2 1m4 -2l-2 1m4 -2l-2 1m4 -2l-2 1m4 -2l-2 1m4 -2l-2 1m4 -2l-2 1m5 -2c-2,1 1,1 -3,1m5 -2l-2 1m4 -2l-2 1m4 -2l-2 1m5 -2l-3 1m5 -2l-2 1m5 -2c-3,1 0,1 -3,1m5 -2l-2 1m4 -2l-2 1m4 -2l-2 1m5 -2c-2,1 0,1 -3,1m5 -2l-2 1m4 -2l-2 1m4 -2l-2 1m5 -2c-2,1 0,1 -3,1m5 -2l-2 1m4 -2l-2 1m4 -3l-2 2m5 -3c-2,2 1,1 -3,1m5 -2l-2 1m4 -2l-2 1m4 -2l-2 1m5 -2c-2,2 1,1 -3,1m5 -2l-2 1m4 -2l-2 1m4 -2l-2 1m6 -2c-3,2 0,1 -4,1m6 -2l-2 1m4 -2l-2 1m5 -2c-2,2 0,1 -3,1m5 -2l-2 1m4 -2l-2 1m5 -2c-2,2 0,1 -3,1m5 -2l-2 1m4 -2l-2 1m5 -2c-2,1 0,1 -3,1m5 -2l-2 1m4 -2l-2 1m5 -2c-2,1 1,1 -3,1m5 -2l-2 1m5 -2c-2,1 1,1 -3,1m5 -2l-2 1m4 -2l-2 1m5 -2c-2,1 1,1 -3,1m5 -2l-2 1m5 -2c-2,1 1,1 -3,1m6 -2l-3 1m6 -2c-3,1 0,1 -3,1m5 -2l-2 1m5 -2c-2,1 0,1 -3,1m5 -2l-2 1m5 -2c-2,1 0,1 -3,1m5 -2l-2 1m5 -2c-2,1 0,1 -3,1m5 -2l-2 1m5 -2c-2,1 0,1 -3,1m6 -2c-2,1 0,1 -3,1m6 -2c-2,1 1,1 -3,1m5 -2l-2 1m5 -2c-2,1 1,1 -3,1m5 -2l-2 1m5 -2c-2,1 1,1 -3,1m6 -2c-2,1 1,1 -3,1m5 -2l-2 1m6 -3c-3,2 0,2 -4,2m6 -3l-2 1m5 -2c-2,2 0,1 -3,1m6 -2c-2,2 0,1 -3,1m5 -2l-2 1m5 -2c-2,2 0,1 -3,1m6 -2c-2,2 0,1 -3,1m6 -2c-2,2 0,1 -3,1m6 -2c-2,2 0,1 -3,1m6 -2c-2,2 0,1 -3,1m5 -2l-2 1m6 -2c-2,1 0,1 -4,1m6 -2l-2 1m5 -2c-2,2 1,1 -3,1m6 -2c-2,2 1,1 -3,1m6 -2c-2,1 1,1 -3,1m7 -2c-3,1 0,1 -4,1m7 -2c-3,1 0,1 -3,1m6 -2c-3,1 0,1 -3,1m6 -2c-2,1 0,1 -3,1m6 -2c-2,1 0,1 -3,1m6 -2c-2,1 0,1 -3,1m6 -2c-2,1 0,1 -3,1m7 -2c-2,1 0,1 -4,1m6 -2l-2 1m6 -2c-2,1 0,1 -4,1m7 -2c-2,1 1,1 -3,1m6 -2c-2,1 1,1 -3,1m6 -2c-2,1 1,1 -3,1m6 -2c-2,1 1,1 -3,1m6 -2c-2,1 1,1 -3,1m6 -2c-2,1 1,1 -3,1m7 -2c-3,1 0,1 -4,1m7 -2c-3,1 0,1 -3,1m6 -2c-2,1 0,1 -3,1m6 -2c-2,1 0,1 -3,1m6 -2c-2,1 0,1 -3,1m7 -2c-2,1 -1,1 -4,1m7 -2c-2,1 0,1 -3,1m6 -2c-2,1 0,1 -3,1m6 -2c-2,1 0,1 -3,1m7 -2c-2,1 0,1 -4,1m7 -2c-2,1 1,1 -3,1m6 -2c-2,1 1,1 -3,1m7 -2c-2,1 0,1 -4,1m7 -2c-2,1 1,1 -3,1m7 -2c-2,1 0,1 -4,1m8 -2c-3,1 0,1 -4,1m8 -3c-3,2 -1,2 -4,2m7 -3c-2,2 0,1 -3,1m7 -2c-3,2 -1,1 -4,1m7 -2c-2,2 0,1 -3,1m7 -2c-2,2 0,1 -4,1m7 -2c-2,2 0,1 -3,1m7 -2c-2,1 0,1 -4,1m8 -2c-2,1 0,1 -4,1m8 -2c-2,1 0,1 -4,1m7 -2c-2,2 1,1 -3,1m8 -2c-3,2 -1,1 -5,1m9 -2c-3,2 0,1 -4,1m9 -2c-3,1 -1,1 -5,1m8 -2c-2,2 0,1 -3,1m8 -2c-3,1 -1,1 -5,1m8 -2c-2,1 0,1 -3,1m8 -2c-3,1 -1,1 -5,1m9 -2c-2,1 0,1 -4,1m8 -2c-2,1 0,1 -4,1m8 -2c-2,1 0,1 -4,1m8 -2c-2,1 0,1 -4,1m8 -2c-2,1 0,1 -4,1m8 -2c-2,1 0,1 -4,1m9 -2c-3,1 -1,1 -5,1m9 -2c-3,1 -1,1 -4,1m8 -2c-3,1 -1,1 -4,1m9 -2c-3,1 -1,1 -5,1m9 -2c-2,1 -1,1 -4,1m8 -2c-2,1 0,1 -4,1m8 -2c-2,1 0,1 -4,1m9 -2c-3,1 -1,1 -5,1m9 -2c-2,1 0,1 -4,1m9 -2c-3,1 -1,1 -5,1m10 -2c-3,1 -1,1 -5,1m11 -2c-3,1 -1,1 -6,1m10 -2c-3,1 -1,1 -4,1m9 -2c-3,1 -1,1 -5,1m11 -2c-4,1 -2,1 -6,1m10 -2c-2,1 0,1 -4,1m10 -2c-3,1 -2,1 -6,1m12 -2c-3,1 -2,1 -6,1m11 -2c-3,1 -1,1 -5,1m11 -2c-3,1 -1,1 -6,1m12 -2c-4,1 -1,1 -6,1m12 -2c-4,1 -2,1 -6,1m12 -2c-4,1 -2,1 -6,1m11 -2c-3,1 -1,1 -5,1m11 -3c-3,2 -2,2 -6,2m11 -3c-3,2 -1,1 -5,1m11 -2c-3,2 -2,1 -6,1m12 -2c-3,2 -1,1 -6,1m13 -2c-4,2 -2,1 -7,1m12 -2c-3,2 -1,1 -5,1m12 -2c-4,2 -3,1 -7,1m14 -2c-4,2 -3,1 -7,1m13 -2c-3,2 -2,1 -6,1m14 -2c-4,2 -3,1 -8,1m15 -2c-3,2 -2,1 -7,1m17 -2c-4,2 -5,1 -10,1m18 -2c-4,2 -4,1 -8,1m17 -2c-4,2 -5,1 -9,1m16 -2c-4,2 -3,1 -7,1m15 -2c-4,2 -3,1 -8,1m16 -2c-3,2 -3,1 -8,1m17 -2c-4,2 -4,1 -9,1m17 -2c-4,2 -4,1 -8,1m18 -2c-4,2 -6,1 -10,1m20 -2c-4,2 -5,1 -10,1m25 -2c-4,2 -10,1 -15,1m28 -2c-4,2 -8,1 -13,1m27 -2c-4,2 -9,1 -14,1m25 -2c-4,2 -6,1 -11,1m25 -2c-5,2 -9,1 -14,1m29 -2c-4,2 -10,1 -15,1m53 -2c-8,3 -29,1 -38,1m62 -2c-7,2 -17,1 -24,1m693 680c8,1 42,11 50,14l24 22c20,16 49,47 67,69 13,19 29,37 42,56 13,20 24,38 35,58 11,17 20,38 29,57 8,16 15,43 23,57 0,6 9,31 11,39l16 50c3,7 12,23 17,28l12 14c12,10 24,13 39,15l10 0c6,-1 22,-4 27,-7l17 -14c7,-9 16,-24 21,-35 4,-8 5,-16 9,-23 1,-6 6,-24 9,-30 0,-6 3,-19 5,-25l1 -12c1,-4 1,-2 1,-6l2 -21c2,-11 3,-55 2,-65 -2,-9 -1,-22 -2,-28 -2,-4 -1,-6 -1,-11 -1,-3 -1,-5 -2,-8l-1 -13c-6,-17 -9,-38 -14,-56 -3,-10 -6,-19 -10,-28 -2,-7 -10,-22 -11,-29 -3,-4 -1,0 -2,-4 -4,-5 -5,-10 -9,-15 -3,-11 -16,-23 -23,-33l-39 -37c-2,-7 -10,-27 -11,-32 -12,-1 -32,-10 -45,-11 -46,-31 -95,-64 -144,-89 -25,-13 -125,-75 -144,-77 -4,-1 -4,-2 -13,-4l-11 -1c-5,-1 -7,0 -12,-2 -4,2 -3,1 -8,1l-22 4c-4,3 0,2 -5,2 -3,1 -15,10 -18,14l-11 19 -6 41 4 28c2,7 7,17 8,23l18 24 28 29c8,5 14,11 22,16 4,5 15,30 15,36l-10 13c-5,3 -84,22 -152,78 -13,10 -41,39 -51,51 -25,29 -57,77 -77,110 -20,35 -37,70 -57,104 -19,35 -38,72 -60,105 -11,17 -23,36 -36,52 -19,24 -36,47 -55,70l-21 23c-12,15 -53,57 -67,69 -15,12 -33,30 -50,44 -3,2 -4,2 -6,5 -15,10 -32,25 -47,36 -49,37 -88,60 -141,90 -30,17 -63,33 -94,47 -16,7 -31,12 -47,19 -13,5 -37,11 -47,17 -6,1 -32,10 -40,12 -13,4 -26,8 -40,12 -25,7 -56,10 -79,17l-98 13c-15,2 -46,2 -46,3 -6,1 -13,1 -19,1 -8,2 -39,1 -50,1 -8,2 -57,1 -70,1 -9,-3 -62,-1 -76,-1 -7,-3 -20,-1 -28,-1 -9,-3 -49,-1 -61,-1 -8,-3 -68,-1 -82,-1 -8,2 -21,1 -30,1 -7,2 -17,1 -26,1 -12,2 -26,1 -33,2l-53 4c-10,1 -37,2 -38,2 -5,1 -12,2 -16,-1l8 -42c0,-10 10,-32 13,-42 5,-12 15,-50 17,-63l1 -13c2,-7 4,-39 3,-44l-2 -26c-1,-3 -1,-5 -2,-8l0 -5c0,-2 -1,-4 -2,-6l0 -5c-1,-4 -3,-10 -4,-15l-17 -38c-5,-7 -26,-29 -32,-34 -8,-6 -15,-11 -23,-16 -7,-4 -31,-15 -39,-16 -5,0 -5,-1 -9,-2l-4 0c-3,-1 -5,-1 -7,-2l-30 -2 -20 2c-2,1 -4,1 -7,2l-5 0c-18,3 -51,18 -66,31l-27 26c-13,20 -26,37 -39,57 -12,20 -20,38 -30,59 -9,20 -14,37 -21,57 -7,16 -18,69 -22,93l-2 22c-1,4 -1,3 -1,7 -2,11 -2,26 -2,26 -2,4 -1,5 -1,10 -3,8 -1,19 -1,28 -3,8 -1,45 -1,57 2,8 1,26 1,36 2,7 1,26 1,35 2,17 -1,9 -2,20 -4,0 -41,10 -44,12l-65 60c-11,12 -27,28 -37,40l-23 28c-27,28 -66,95 -86,129 -11,21 -35,74 -45,98 -4,9 -8,25 -13,33 -6,4 -25,17 -30,18 1,5 1,2 0,6l0 16c-2,4 -2,2 0,6 -3,7 0,14 -2,20 1,3 0,2 1,4 -2,5 -2,2 0,7 -2,5 -1,12 -1,18l6 61c4,13 7,37 11,51 3,18 8,34 12,51 16,71 39,136 62,205 6,17 13,33 19,51 5,14 19,39 21,52 3,3 4,5 4,9 3,3 28,60 29,63 8,11 13,31 22,42 1,4 2,6 4,10 9,12 19,38 28,52 5,3 16,9 21,10 1,13 8,30 9,43 25,43 51,83 79,124 14,21 29,42 44,62 15,20 35,43 48,63l127 142c11,2 22,8 33,10 0,6 7,26 10,32 6,10 96,89 115,105l30 23c12,12 35,27 49,38 16,13 32,24 49,36 33,24 66,44 99,66 7,1 37,8 44,10 2,6 7,15 8,20 14,13 49,25 64,37 15,4 43,26 59,29 4,4 9,5 14,8 10,2 27,14 37,17 13,9 41,16 56,25l67 9c5,-7 9,-16 12,-23 25,-15 61,-27 88,-41 29,-14 60,-26 89,-40 27,-14 60,-29 88,-40 16,-7 78,-34 89,-43 4,-1 4,-1 8,-4 5,-1 33,-17 39,-21 13,-9 26,-20 39,-29l25 -25c12,-18 21,-27 31,-47 6,-13 11,-26 18,-38 11,-18 23,-34 36,-50 7,-8 31,-31 40,-39 22,-18 42,-29 60,-51 15,-18 29,-44 40,-65 7,-15 23,-55 31,-66 5,-15 26,-43 36,-58 21,-25 44,-41 74,-55 16,-8 29,-9 45,-14l4 0c2,-1 4,-2 7,-2l7 0c3,-1 5,-1 8,-2l10 0c8,-3 35,-1 45,-1l81 11c16,0 80,18 99,23 17,5 34,9 50,14 16,4 35,6 50,11l20 2c3,1 5,1 8,2l17 1c5,2 12,1 18,1 8,2 20,1 29,1l28 -2c2,-1 4,-1 7,-2l6 0c4,-1 8,-2 12,-3 4,0 5,-1 8,-1 13,-4 32,-11 44,-17 21,-10 44,-25 58,-43 19,-28 27,-41 38,-72 8,-24 15,-50 27,-72 12,-25 21,-47 36,-72 13,-23 42,-63 60,-85 9,-11 26,-28 37,-41 6,-9 14,-18 20,-27 5,-8 10,-20 16,-28 2,-8 25,-53 30,-64 12,-24 28,-42 43,-64 18,-23 44,-48 67,-67 27,-18 47,-33 76,-47 11,-6 26,-13 38,-17 8,-3 31,-10 37,-14 4,-1 37,-12 41,-15 4,0 37,-12 41,-14 4,0 37,-12 41,-14 4,-1 37,-12 41,-15 4,0 37,-12 41,-14 4,0 37,-12 40,-14 13,-1 122,-44 139,-51 25,-12 46,-23 70,-36 18,-10 62,-44 82,-60 19,-15 55,-52 72,-73l40 -52c10,-13 18,-27 27,-41 10,-5 31,-15 41,-19l12 -60 0 -21c-2,-8 -1,-36 -1,-47 -1,-9 -1,-33 -2,-34 -1,-10 -1,-37 -2,-38l-26 -205c-1,-4 -1,-5 -2,-9 -1,-13 -10,-49 -14,-65 -20,-106 -61,-227 -101,-327 -9,-22 -18,-43 -27,-65 -6,-15 -29,-54 -31,-65 -3,-5 -19,-37 -20,-41 -6,-8 -19,-34 -24,-44 -12,-22 -71,-125 -79,-132 -7,-3 -23,-11 -30,-12 -11,-61 -18,-58 -54,-106 -14,-19 -32,-38 -44,-57l-89 -101c-12,-18 -66,-66 -85,-85 -14,-12 -35,-35 -50,-46l-75 -64c-11,-1 -25,-8 -36,-9 -3,-10 -7,-19 -11,-29 -28,-18 -54,-39 -82,-58 -74,-49 -166,-109 -247,-145 -4,-3 -6,-3 -10,-6 -10,-2 -23,-12 -33,-14 -13,-10 -66,-30 -84,-38 -13,-6 -28,-11 -42,-16 -9,-4 -33,-12 -41,-17 -9,0 -58,-18 -70,-22 -53,-18 -88,-26 -140,-40 -22,-6 -50,-10 -70,-16l-115 -20c-3,-1 -3,-1 -7,-1l-162 -16c-5,-2 -9,-1 -14,-1 -8,-2 -18,-1 -26,-1 -8,-3 -20,-1 -29,-1 -8,-3 -92,-1 -109,-1"/>
   <path class="fil1 str1" d="M3332 1566c20,-20 42,-53 59,-75 56,-71 115,-153 167,-227 34,-49 66,-98 95,-150 21,-37 42,-74 57,-113 24,-59 11,-30 32,-49 -11,-61 -18,-58 -54,-106 -14,-19 -32,-38 -44,-57l-89 -101c-12,-18 -66,-66 -85,-85 -14,-12 -35,-35 -50,-46l-75 -64c-11,-1 -25,-8 -36,-9 -16,16 -6,9 -12,16l-18 16c-16,13 -55,43 -69,52 -45,30 -66,41 -113,65 -19,9 -38,15 -57,24 -1,1 -3,6 -10,13 1,5 9,25 11,32l39 37c7,10 20,22 23,33 4,5 5,10 9,15 1,4 -1,0 2,4 1,7 9,22 11,29 4,9 7,18 10,28 5,18 8,39 14,56l1 13c1,3 1,5 2,8 0,5 -1,7 1,11 1,6 0,19 2,28 1,10 0,54 -2,65l-2 21c0,4 0,2 -1,6l-1 12c-2,6 -5,19 -5,25 -3,6 -8,24 -9,30 -4,7 -5,15 -9,23 -5,11 -14,26 -21,35l-17 14c-5,3 -21,6 -27,7l-10 0c-15,-2 -27,-5 -39,-15l-12 -14c-5,-5 -14,-21 -17,-28l-16 -50c-2,-8 -11,-33 -11,-39 -8,-14 -15,-41 -23,-57 -9,-19 -18,-40 -29,-57 -11,-20 -22,-38 -35,-58 -13,-19 -29,-37 -42,-56 -18,-22 -47,-53 -67,-69l-24 -22c-8,-3 -42,-13 -50,-14l-10 13c-5,3 -84,22 -152,78 -13,10 -41,39 -51,51 -25,29 -57,77 -77,110 -20,35 -37,70 -57,104 -19,35 -38,72 -60,105 -11,17 -23,36 -36,52 -19,24 -36,47 -55,70l-21 23c-12,15 -53,57 -67,69 -15,12 -33,30 -50,44 -3,2 -4,2 -6,5 -15,10 -32,25 -47,36 -49,37 -88,60 -141,90 -30,17 -63,33 -94,47 -16,7 -31,12 -47,19 -13,5 -37,11 -47,17 -6,1 -32,10 -40,12 -13,4 -26,8 -40,12 -25,7 -56,10 -79,17l-98 13c-15,2 -46,2 -46,3 -6,1 -13,1 -19,1 -8,2 -39,1 -50,1 -8,2 -57,1 -70,1 -9,-3 -62,-1 -76,-1 -7,-3 -20,-1 -28,-1 -9,-3 -49,-1 -61,-1 -8,-3 -68,-1 -82,-1 -8,2 -21,1 -30,1 -7,2 -17,1 -26,1 -12,2 -26,1 -33,2l-53 4c-10,1 -37,2 -38,2 -5,1 -12,2 -16,-1 -8,6 -18,10 -25,17 -22,36 -43,74 -65,110 -10,18 -20,37 -29,56l-24 55c-1,12 -11,27 -12,41 -1,5 -4,12 -4,18l-3 13c0,5 1,7 -1,11 -2,14 -1,28 -3,41 0,9 2,25 -1,33 0,6 1,13 -1,18l-2 27c-1,4 -4,14 -4,18 -2,4 -3,4 -3,8 -6,11 -10,18 -17,29 -6,7 -22,18 -26,19l-21 5c-5,0 -2,-1 -6,1l-26 -6 -12 -7c-12,-9 -21,-24 -28,-37 -8,-16 -12,-30 -17,-49 -7,-31 -13,-67 -19,-100l-18 -126c-3,-3 -4,-4 -7,-6 -4,0 -41,10 -44,12l-65 60c-11,12 -27,28 -37,40l-23 28c-27,28 -66,95 -86,129 -11,21 -35,74 -45,98 -4,9 -8,25 -13,33 -6,4 -25,17 -30,18 1,5 1,2 0,6l0 16c-2,4 -2,2 0,6 -3,7 0,14 -2,20 1,3 0,2 1,4 -2,5 -2,2 0,7 -2,5 -1,12 -1,18l6 61c4,13 7,37 11,51 3,18 8,34 12,51 16,71 39,136 62,205 6,17 13,33 19,51 5,14 19,39 21,52 3,3 4,5 4,9 3,3 28,60 29,63 8,11 13,31 22,42 1,4 2,6 4,10 9,12 19,38 28,52 5,3 16,9 21,10 3,-2 3,-3 6,-6 6,-3 13,-1 20,-7 25,-23 71,-48 100,-64 16,-8 86,-39 100,-40 20,-11 66,-17 89,-24l107 -15c10,-1 25,-1 30,-2l26 -2c7,-2 19,-1 28,-1 6,-2 15,-1 22,-1 7,-2 25,-1 34,-1 7,-2 17,-1 25,-1 8,-2 42,-1 53,-1 8,-2 21,-1 29,-1 9,-2 43,-1 55,-1 11,-2 33,-1 38,-2 10,-1 32,-2 35,-2 9,-1 24,-1 29,-2l106 -13c21,-7 49,-9 71,-16 59,-18 90,-30 144,-60 30,-17 64,-41 90,-63 17,-14 43,-41 57,-58 11,-16 23,-30 33,-45 22,-35 28,-59 57,-94 8,-10 26,-27 36,-35 16,-10 27,-20 44,-28 8,-4 15,-7 22,-11 8,-3 17,-5 23,-8l38 -8 20 -1c7,-2 12,0 18,-2 5,2 12,1 18,1 6,2 13,1 19,1 7,2 17,1 25,1 5,2 12,1 18,1l26 -2c3,-1 5,-1 8,-2l22 -3c5,-3 13,-5 19,-5 12,-7 29,-11 43,-19 18,-11 34,-21 50,-34l24 -25c5,-7 18,-24 24,-31 7,-18 23,-37 34,-54 29,-34 58,-51 96,-74 19,-11 45,-17 62,-27 4,0 2,0 6,-2 4,0 2,0 6,-2 7,0 38,-12 47,-15 15,-5 31,-8 47,-13 16,-4 31,-9 47,-13 10,-3 39,-13 47,-14 10,-6 42,-16 55,-21 19,-6 37,-14 56,-22 22,-8 97,-41 112,-53 55,-26 137,-77 187,-115 20,-15 43,-34 63,-47l82 -73c9,-5 16,-15 24,-22 9,-6 25,-24 34,-33 5,-8 16,-17 23,-25 14,-17 36,-37 50,-55l56 -66c4,-6 10,-12 14,-18zm-1185 92c17,3 34,10 49,18 12,7 22,15 33,23 5,5 24,27 28,33 2,4 5,11 8,14 1,4 1,3 3,6 1,4 -1,0 2,4 1,5 3,7 4,12l3 5c0,7 2,10 3,16 0,2 1,4 2,6l3 30 -3 33 -10 34c-1,3 -23,53 -23,53 -6,8 -12,21 -17,30 -7,10 -16,20 -23,30 -9,10 -50,40 -59,46 -32,21 -94,51 -131,62 -7,1 -23,5 -28,8l-51 11 -55 7c-7,2 -16,1 -27,2 -6,1 -24,0 -31,-1l-27 -2c-2,0 -4,-1 -6,-2l-5 0c-4,-1 -7,-3 -12,-3l-19 -8c-10,-5 -25,-17 -30,-27 -2,-5 -5,-22 -6,-28l1 -17c2,-10 6,-26 11,-35 10,-19 40,-68 51,-86 20,-31 54,-88 79,-113 2,-3 3,-5 5,-7l28 -32c6,-8 40,-40 51,-49 12,-10 44,-33 57,-41 9,-5 16,-9 25,-14 9,-4 18,-7 26,-11l4 0c6,-4 14,-4 21,-7 3,0 10,0 15,-2 7,0 11,-1 18,-1l33 3z"/>
   <path class="fil1 str1" d="M3336 2549c-12,4 -27,11 -38,17 -29,14 -49,29 -76,47 -23,19 -49,44 -67,67 -15,22 -31,40 -43,64 -5,11 -28,56 -30,64 -6,8 -11,20 -16,28 -6,9 -14,18 -20,27 -11,13 -28,30 -37,41 -18,22 -47,62 -60,85 -15,25 -24,47 -36,72 -12,22 -19,48 -27,72 -11,31 -19,44 -38,72 -14,18 -37,33 -58,43 -12,6 -31,13 -44,17 -3,0 -4,1 -8,1 -4,1 -8,2 -12,3l-6 0c-3,1 -5,1 -7,2l-28 2c-9,0 -21,1 -29,-1 -6,0 -13,1 -18,-1l-17 -1c-3,-1 -5,-1 -8,-2l-20 -2c-15,-5 -34,-7 -50,-11 -16,-5 -33,-9 -50,-14 -19,-5 -83,-23 -99,-23l-81 -11c-10,0 -37,-2 -45,1l-10 0c-3,1 -5,1 -8,2l-7 0c-3,0 -5,1 -7,2l-4 0c-16,5 -29,6 -45,14 -30,14 -53,30 -74,55 -10,15 -31,43 -36,58 -8,11 -24,51 -31,66 -11,21 -25,47 -40,65 -18,22 -38,33 -60,51 -9,8 -33,31 -40,39 -13,16 -25,32 -36,50 -7,12 -12,25 -18,38 -10,20 -19,29 -31,47l-25 25c-13,9 -26,20 -39,29 -6,4 -34,20 -39,21 -4,3 -4,3 -8,4 -11,9 -73,36 -89,43 -28,11 -61,26 -88,40 -29,14 -60,26 -89,40 -27,14 -63,26 -88,41 -3,7 -7,16 -12,23 4,7 8,15 12,22 24,10 63,24 88,31 29,8 59,17 88,26 43,12 88,22 132,31 12,2 33,5 44,9l22 3c4,1 2,1 6,1l70 10c4,1 3,1 7,1l107 10c6,2 13,1 19,1 10,2 29,2 34,2 7,3 17,1 25,1 16,5 69,-3 85,2 7,-2 40,-1 51,-1 11,-1 34,-1 38,-2 6,-1 12,-1 18,-1 11,-1 29,-1 34,-2l208 -26c18,-6 50,-11 70,-15 24,-5 47,-11 71,-17 24,-6 47,-12 70,-19 16,-5 60,-16 72,-23 4,0 2,0 6,-2 17,-1 131,-49 153,-58 140,-61 259,-129 383,-218 26,-19 52,-42 78,-59l51 -42c12,-10 24,-22 36,-32l23 -21c5,-3 10,-8 14,-13 8,-6 16,-15 24,-23 10,-7 33,-32 44,-42 5,-9 15,-17 22,-24 14,-17 35,-37 49,-54l46 -55c5,-6 12,-15 16,-21 18,-17 43,-54 58,-75 98,-137 145,-226 216,-378 13,-29 33,-81 45,-113 3,-10 10,-32 14,-39 1,-9 10,-24 10,-34 6,-10 16,-52 21,-66 13,-44 22,-89 33,-133 5,-20 8,-49 14,-67l4 -30c1,-4 1,-2 1,-6l19 -161c2,-10 2,-38 2,-38 2,-5 1,-8 1,-14 3,-8 1,-27 1,-36 3,-7 1,-16 1,-23l-11 -11c-10,4 -31,14 -41,19 -9,14 -17,28 -27,41l-40 52c-17,21 -53,58 -72,73 -20,16 -64,50 -82,60 -24,13 -45,24 -70,36 -17,7 -126,50 -139,51 -3,2 -36,14 -40,14 -4,2 -37,14 -41,14 -4,3 -37,14 -41,15 -4,2 -37,14 -41,14 -4,2 -37,14 -41,14 -4,3 -37,14 -41,15 -6,4 -29,11 -37,14zm-583 951l21 -4c3,1 1,1 5,1 12,1 27,5 34,16 4,10 4,16 7,25 0,4 -4,23 -4,25 -2,6 -11,16 -15,20l-27 27c-19,13 -32,24 -52,35 -15,9 -36,20 -52,27 -17,6 -92,38 -104,39 -20,11 -93,29 -120,36 -19,6 -40,10 -59,14 -17,3 -45,8 -59,12l-45 6c-3,2 -5,1 -8,3 -6,0 -10,-1 -15,1 -7,0 -17,1 -23,-1l-11 -1c-6,-2 -10,-2 -15,-5 -5,0 -6,-1 -10,-4 -10,-4 -7,-1 -17,-10 -14,-11 -21,-22 -28,-39 -4,-8 -7,-23 -8,-32 -2,-10 0,-23 2,-33 2,-6 2,-13 6,-18 1,-6 -1,-1 2,-6 1,-4 1,-3 4,-7 2,-5 4,-7 7,-11 12,-14 42,-32 58,-40 13,-7 33,-14 44,-20 13,-1 34,-12 49,-12l22 -3c3,-2 5,-1 8,-3 2,0 26,0 35,-2 9,0 26,-1 34,1 8,0 23,-1 30,1l53 5c4,0 30,0 41,2 9,0 27,-2 35,1 4,0 5,0 9,-1 8,0 18,1 26,-1l22 -1c3,-1 5,-2 7,-2l7 0c8,-3 18,-4 27,-7 10,-3 16,-5 25,-9 17,-6 37,-17 52,-25z"/>
   <path class="fil2 str1" d="M3298 2566c11,-6 26,-13 38,-17 8,-3 31,-10 37,-14 4,-1 37,-12 41,-15 4,0 37,-12 41,-14 4,0 37,-12 41,-14 4,-1 37,-12 41,-15 4,0 37,-12 41,-14 4,0 37,-12 40,-14 13,-1 122,-44 139,-51 25,-12 46,-23 70,-36 18,-10 62,-44 82,-60 19,-15 55,-52 72,-73l40 -52c10,-13 18,-27 27,-41 10,-5 31,-15 41,-19l12 -60 0 -21c-2,-8 -1,-36 -1,-47 -1,-9 -1,-33 -2,-34 -1,-10 -1,-37 -2,-38l-26 -205c-1,-4 -1,-5 -2,-9 -1,-13 -10,-49 -14,-65 -20,-106 -61,-227 -101,-327 -9,-22 -18,-43 -27,-65 -6,-15 -29,-54 -31,-65 -3,-5 -19,-37 -20,-41 -6,-8 -19,-34 -24,-44 -12,-22 -71,-125 -79,-132 -7,-3 -23,-11 -30,-12 -21,19 -8,-10 -32,49 -15,39 -36,76 -57,113 -29,52 -61,101 -95,150 -52,74 -111,156 -167,227 -17,22 -39,55 -59,75 -4,6 -10,12 -14,18l-56 66c-14,18 -36,38 -50,55 -7,8 -18,17 -23,25 -9,9 -25,27 -34,33 -8,7 -15,17 -24,22l-82 73c-20,13 -43,32 -63,47 -50,38 -132,89 -187,115 -15,12 -90,45 -112,53 -19,8 -37,16 -56,22 -13,5 -45,15 -55,21 -8,1 -37,11 -47,14 -16,4 -31,9 -47,13 -16,5 -32,8 -47,13 -9,3 -40,15 -47,15 -4,2 -2,2 -6,2 -4,2 -2,2 -6,2 -17,10 -43,16 -62,27 -38,23 -67,40 -96,74 -11,17 -27,36 -34,54 -6,7 -19,24 -24,31l-24 25c-16,13 -32,23 -50,34 -14,8 -31,12 -43,19 -6,0 -14,2 -19,5l-22 3c-3,1 -5,1 -8,2l-26 2c-6,0 -13,1 -18,-1 -8,0 -18,1 -25,-1 -6,0 -13,1 -19,-1 -6,0 -13,1 -18,-1 -6,2 -11,0 -18,2l-20 1 -38 8c-6,3 -15,5 -23,8 -7,4 -14,7 -22,11 -17,8 -28,18 -44,28 -10,8 -28,25 -36,35 -29,35 -35,59 -57,94 -10,15 -22,29 -33,45 -14,17 -40,44 -57,58 -26,22 -60,46 -90,63 -54,30 -85,42 -144,60 -22,7 -50,9 -71,16l-106 13c-5,1 -20,1 -29,2 -3,0 -25,1 -35,2 -5,1 -27,0 -38,2 -12,0 -46,-1 -55,1 -8,0 -21,-1 -29,1 -11,0 -45,-1 -53,1 -8,0 -18,-1 -25,1 -9,0 -27,-1 -34,1 -7,0 -16,-1 -22,1 -9,0 -21,-1 -28,1l-26 2c-5,1 -20,1 -30,2l-107 15c-23,7 -69,13 -89,24 -14,1 -84,32 -100,40 -29,16 -75,41 -100,64 -7,6 -14,4 -20,7 -3,3 -3,4 -6,6 1,13 8,30 9,43 25,43 51,83 79,124 14,21 29,42 44,62 15,20 35,43 48,63l127 142c11,2 22,8 33,10l9 -9c9,-14 109,-72 129,-81 22,-11 42,-21 65,-31 11,-6 21,-10 33,-14 9,-4 25,-9 32,-13 5,-1 2,0 6,-2 5,-1 3,0 6,-2 5,-1 3,0 7,-2 9,-1 49,-16 63,-19 19,-5 46,-9 63,-15l84 -12c4,-2 5,-1 9,-1l54 -4c10,-2 40,-2 40,-3 5,-1 9,-1 14,-1 9,-1 29,-1 32,-2l56 -7c6,-1 11,-2 17,-4 12,0 52,-15 63,-21 18,-9 41,-26 57,-39l32 -28c8,-5 20,-13 27,-19l2 -1 2 -1 2 -1 2 -1c4,0 1,0 4,-1l2 -1 2 -1c4,0 2,0 5,-1l2 -1c4,0 2,0 6,-1 4,0 3,0 6,-1 4,0 3,0 6,-1l13 0 32 8c12,7 19,15 26,27 3,4 5,9 6,14 3,5 3,9 5,14l3 29c1,8 1,0 0,8l-5 38c-3,4 -9,19 -11,24 -5,5 -10,12 -14,17 -16,21 -48,41 -69,54 -15,8 -29,14 -44,22 -72,35 -108,49 -178,95 -25,17 -67,43 -89,64l-25 21c-15,12 -33,30 -47,42 -13,11 -55,54 -66,68l-71 86c-4,14 1,10 -9,20 2,6 7,15 8,20 14,13 49,25 64,37 15,4 43,26 59,29 4,4 9,5 14,8 10,2 27,14 37,17 13,9 41,16 56,25l67 9c5,-7 9,-16 12,-23 25,-15 61,-27 88,-41 29,-14 60,-26 89,-40 27,-14 60,-29 88,-40 16,-7 78,-34 89,-43 4,-1 4,-1 8,-4 5,-1 33,-17 39,-21 13,-9 26,-20 39,-29l25 -25c12,-18 21,-27 31,-47 6,-13 11,-26 18,-38 11,-18 23,-34 36,-50 7,-8 31,-31 40,-39 22,-18 42,-29 60,-51 15,-18 29,-44 40,-65 7,-15 23,-55 31,-66 5,-15 26,-43 36,-58 21,-25 44,-41 74,-55 16,-8 29,-9 45,-14l4 0c2,-1 4,-2 7,-2l7 0c3,-1 5,-1 8,-2l10 0c8,-3 35,-1 45,-1l81 11c16,0 80,18 99,23 17,5 34,9 50,14 16,4 35,6 50,11l20 2c3,1 5,1 8,2l17 1c5,2 12,1 18,1 8,2 20,1 29,1l28 -2c2,-1 4,-1 7,-2l6 0c4,-1 8,-2 12,-3 4,0 5,-1 8,-1 13,-4 32,-11 44,-17 21,-10 44,-25 58,-43 19,-28 27,-41 38,-72 8,-24 15,-50 27,-72 12,-25 21,-47 36,-72 13,-23 42,-63 60,-85 9,-11 26,-28 37,-41 6,-9 14,-18 20,-27 5,-8 10,-20 16,-28 2,-8 25,-53 30,-64 12,-24 28,-42 43,-64 18,-23 44,-48 67,-67 27,-18 47,-33 76,-47zm24 -661c22,-18 59,-55 82,-66 6,-3 15,-5 19,-8l4 0c3,-1 5,-1 7,-2 3,-1 10,-1 15,-2 12,0 4,-2 14,0l22 2c23,8 25,7 48,21l17 18 14 23c1,5 0,2 2,6l5 30c1,5 0,10 -1,14l-2 20c-5,15 -6,24 -15,39 -17,29 -40,57 -66,78 -12,8 -22,18 -34,25 -13,9 -47,28 -61,33 -7,2 -21,7 -27,11l-50 12c-4,0 -5,-1 -9,1 -10,2 -22,1 -33,3l-39 -3 -29 -8c-5,-4 -15,-10 -21,-14l-18 -22c-1,-4 0,-4 -3,-7l-4 -23c-1,-5 4,-30 4,-30 3,-4 2,0 2,-5 2,-4 5,-8 7,-13 5,-7 24,-25 32,-31l30 -27c29,-23 59,-52 88,-75z"/>
   <path class="fil3 str1" d="M1856 1573c53,-30 92,-53 141,-90 15,-11 32,-26 47,-36 2,-3 3,-3 6,-5 17,-14 35,-32 50,-44 14,-12 55,-54 67,-69l21 -23c19,-23 36,-46 55,-70 13,-16 25,-35 36,-52 22,-33 41,-70 60,-105 20,-34 37,-69 57,-104 20,-33 52,-81 77,-110 10,-12 38,-41 51,-51 68,-56 147,-75 152,-78l10 -13c0,-6 -11,-31 -15,-36 -8,-5 -14,-11 -22,-16l-28 -29 -18 -24c-1,-6 -6,-16 -8,-23l-4 -28 6 -41 11 -19c3,-4 15,-13 18,-14 5,0 1,1 5,-2l22 -4c5,0 4,1 8,-1 5,2 7,1 12,2l11 1c9,2 9,3 13,4 19,2 119,64 144,77 49,25 98,58 144,89 13,1 33,10 45,11 7,-7 9,-12 10,-13 19,-9 38,-15 57,-24 47,-24 68,-35 113,-65 14,-9 53,-39 69,-52l18 -16c6,-7 -4,0 12,-16 -3,-10 -7,-19 -11,-29 -28,-18 -54,-39 -82,-58 -74,-49 -166,-109 -247,-145 -4,-3 -6,-3 -10,-6 -10,-2 -23,-12 -33,-14 -13,-10 -66,-30 -84,-38 -13,-6 -28,-11 -42,-16 -9,-4 -33,-12 -41,-17 -9,0 -58,-18 -70,-22 -53,-18 -88,-26 -140,-40 -22,-6 -50,-10 -70,-16l-115 -20c-3,-1 -3,-1 -7,-1l-162 -16c-5,-2 -9,-1 -14,-1 -8,-2 -18,-1 -26,-1 -8,-3 -20,-1 -29,-1 -8,-3 -92,-1 -109,-1 -7,2 -17,1 -24,1 -8,3 -29,1 -38,1 -4,2 -10,1 -15,1 -5,2 -9,1 -14,1 -4,2 -6,1 -11,1 -4,2 -9,1 -14,1 -4,2 -8,1 -13,1 -4,2 -10,1 -15,1 -4,2 -5,1 -10,1 -4,2 -6,1 -10,1 -4,2 -4,1 -8,1 -4,2 -4,1 -9,1 -3,2 -3,1 -8,1 -4,2 -3,1 -8,1 -4,2 -3,1 -7,1 -4,2 -5,1 -9,1 -4,2 -4,1 -8,1 -4,2 -5,1 -10,1 -3,2 -2,1 -7,1 -4,2 -3,1 -8,1 -3,2 -2,1 -6,1 -4,2 -3,1 -7,1 -4,2 -3,1 -7,1 -3,2 -1,1 -5,1 -4,2 -2,1 -7,1 -3,2 -1,1 -6,1 -3,2 -2,1 -6,1 -3,2 -1,1 -5,1 -3,2 -2,2 -6,2 -3,1 -1,1 -5,1 -4,1 -2,1 -6,1 -4,1 -2,1 -6,1 -4,1 -1,1 -6,1 -3,1 -1,1 -6,1 -3,1 -1,1 -5,1 -3,1 -2,1 -6,1 -3,1 -2,1 -6,1 -2,1 0,1 -4,1 -4,1 -2,1 -6,1 -3,1 -1,1 -5,1 -3,1 -1,1 -4,1 -3,1 -1,1 -6,1 -3,1 -1,1 -5,1 -3,1 -1,1 -5,1 -2,1 0,1 -4,1 -3,1 -1,1 -5,1 -2,1 0,1 -4,1 -2,1 0,1 -4,1 -2,1 -1,1 -4,1 -3,1 -1,1 -5,1 -3,1 -1,1 -4,1 -3,1 -1,1 -4,1 -3,1 -1,1 -5,1 -2,1 0,1 -4,1 -2,1 0,1 -4,1 -2,1 0,1 -4,1 -2,1 0,1 -4,1 -2,1 0,1 -4,1 -2,1 0,1 -4,1 -3,1 -1,1 -5,1 -2,1 0,1 -3,1 -3,1 -1,1 -5,1 -2,2 0,1 -3,1 -3,1 -1,1 -5,1 -3,2 0,1 -4,1 -3,2 -1,1 -5,1 -2,2 1,1 -3,1 -2,1 0,1 -4,1 -2,1 0,1 -4,1 -2,1 0,1 -4,1 -2,2 0,1 -3,1 -2,2 0,1 -4,1 -2,2 0,1 -3,1 -3,2 -1,1 -4,1 -2,2 0,1 -3,1 -3,2 -1,2 -4,2 -3,1 0,1 -4,1 -2,1 0,1 -4,1 -2,1 1,1 -3,1 -2,1 0,1 -4,1 -2,1 1,1 -3,1 -2,1 1,1 -3,1 -2,1 0,1 -4,1 -2,1 0,1 -3,1 -2,1 0,1 -3,1 -2,1 0,1 -3,1 -2,1 -1,1 -4,1 -2,1 0,1 -3,1 -2,1 0,1 -3,1 -2,1 0,1 -3,1 -3,1 0,1 -3,1 -3,1 0,1 -4,1 -2,1 1,1 -3,1 -2,1 1,1 -3,1 -2,1 1,1 -3,1 -2,1 1,1 -3,1 -2,1 1,1 -3,1 -2,1 1,1 -3,1 -2,1 0,1 -4,1l-2 1c-2,1 0,1 -4,1 -2,1 0,1 -3,1 -2,1 0,1 -3,1 -2,1 0,1 -3,1 -2,1 0,1 -3,1 -3,1 0,1 -3,1 -3,1 0,1 -3,1 -3,1 0,1 -4,1 -2,1 1,1 -3,1 -2,2 1,1 -3,1 -2,2 1,1 -3,1l-2 1c-2,1 0,1 -4,1l-2 1c-2,2 0,1 -3,1 -2,2 0,1 -3,1 -2,2 0,1 -3,1 -2,2 0,1 -3,1 -2,2 0,1 -3,1l-2 1c-2,2 0,1 -3,1 -2,2 0,1 -3,1l-2 1c-3,2 0,2 -4,2l-2 1c-2,1 1,1 -3,1 -2,1 1,1 -3,1l-2 1c-2,1 1,1 -3,1l-2 1c-2,1 1,1 -3,1 -2,1 0,1 -3,1 -2,1 0,1 -3,1l-2 1c-2,1 0,1 -3,1l-2 1c-2,1 0,1 -3,1l-2 1c-2,1 0,1 -3,1l-2 1c-3,1 0,1 -3,1l-3 1c-2,1 1,1 -3,1l-2 1c-2,1 1,1 -3,1l-2 1 -2 1c-2,1 1,1 -3,1l-2 1c-2,1 1,1 -3,1l-2 1 -2 1c-2,1 0,1 -3,1l-2 1 -2 1c-2,2 0,1 -3,1l-2 1 -2 1c-2,2 0,1 -3,1l-2 1 -2 1c-3,2 0,1 -4,1l-2 1 -2 1 -2 1c-2,2 1,1 -3,1l-2 1 -2 1 -2 1c-2,2 1,1 -3,1l-2 2 -2 1 -2 1c-2,1 0,1 -3,1l-2 1 -2 1 -2 1c-2,1 0,1 -3,1l-2 1 -2 1 -2 1c-3,1 0,1 -3,1l-2 1 -3 1 -2 1 -2 1 -2 1c-2,1 1,1 -3,1l-2 1 -2 1 -2 1 -2 1 -2 1 -2 1 -2 1c-2,1 0,1 -3,1l-2 1 -2 1 -2 1 -2 1 -2 1 -2 1 -2 1 -2 1 -2 1 -3 1 -2 1 -2 1 -2 1 -2 1 -2 1 -2 1 -2 1 -2 1 -2 1 -2 1 -2 1 -2 2 -2 1c-8,5 -35,19 -45,24 -43,22 -91,54 -133,79 -29,18 -60,41 -89,61 -25,18 -66,47 -87,68 -3,2 -6,5 -9,6l-57 50c-13,10 -34,32 -48,43 -7,8 -16,18 -24,24 -9,9 -29,27 -35,36 -7,7 -18,16 -24,24l-100 114c-9,14 -24,30 -35,44 -36,48 -60,82 -93,133 -19,29 -38,59 -55,89 -10,18 -43,73 -47,89 -8,10 -29,56 -35,70 -11,24 -21,46 -31,70 -10,22 -20,47 -28,70 -5,14 -19,60 -25,70 0,8 -15,49 -19,60 -6,19 -12,40 -16,59 -11,42 -23,86 -30,129 -5,28 -12,61 -17,90l-12 96c-1,5 -1,22 -3,33 0,0 0,18 -2,28l-2 26c-1,5 0,29 -2,42 0,9 2,22 -1,30 0,16 -2,97 1,105 0,9 -1,26 1,34 0,8 -1,19 1,26 0,0 1,21 2,30l8 95c6,4 15,11 20,15 5,-1 24,-14 30,-18 5,-8 9,-24 13,-33 10,-24 34,-77 45,-98 20,-34 59,-101 86,-129l23 -28c10,-12 26,-28 37,-40l65 -60c3,-2 40,-12 44,-12 1,-11 4,-3 2,-20 0,-9 1,-28 -1,-35 0,-10 1,-28 -1,-36 0,-12 -2,-49 1,-57 0,-9 -2,-20 1,-28 0,-5 -1,-6 1,-10 0,0 0,-15 2,-26 0,-4 0,-3 1,-7l2 -22c4,-24 15,-77 22,-93 7,-20 12,-37 21,-57 10,-21 18,-39 30,-59 13,-20 26,-37 39,-57l27 -26c15,-13 48,-28 66,-31l5 0c3,-1 5,-1 7,-2l20 -2 30 2c2,1 4,1 7,2l4 0c4,1 4,2 9,2 8,1 32,12 39,16 8,5 15,10 23,16 6,5 27,27 32,34l17 38c1,5 3,11 4,15l0 5c1,2 2,4 2,6l0 5c1,3 1,5 2,8l2 26c1,5 -1,37 -3,44l-1 13c-2,13 -12,51 -17,63 -3,10 -13,32 -13,42l-8 42c4,3 11,2 16,1 1,0 28,-1 38,-2l53 -4c7,-1 21,0 33,-2 9,0 19,1 26,-1 9,0 22,1 30,-1 14,0 74,-2 82,1 12,0 52,-2 61,1 8,0 21,-2 28,1 14,0 67,-2 76,1 13,0 62,1 70,-1 11,0 42,1 50,-1 6,0 13,0 19,-1 0,-1 31,-1 46,-3l98 -13c23,-7 54,-10 79,-17 14,-4 27,-8 40,-12 8,-2 34,-11 40,-12 10,-6 34,-12 47,-17 16,-7 31,-12 47,-19 31,-14 64,-30 94,-47zm-141 -901c-10,1 -51,14 -63,18 -22,6 -42,11 -64,17 -20,5 -42,10 -63,14 -15,3 -49,12 -62,12l-264 35c-3,0 -26,0 -36,2 0,0 -30,0 -40,2l-50 -2c-3,-1 -5,-1 -8,-2l-5 0c-2,-1 -4,-1 -6,-2l-4 0c-4,-2 -7,-3 -12,-3 -4,-2 -7,-4 -11,-4 -4,-3 -9,-6 -14,-7 -4,-3 -17,-17 -19,-21 -1,-4 -1,-4 -3,-7 0,-7 -3,-13 -3,-19 -2,-9 -1,-11 1,-22 2,-15 10,-28 20,-41 23,-28 81,-62 110,-76 90,-45 155,-61 251,-90 94,-29 161,-44 251,-89 14,-7 28,-15 42,-22 16,-8 25,-9 41,-15 2,0 11,0 16,-2 15,0 15,-2 31,0l43 7c6,4 14,6 21,10 12,7 31,21 40,32 5,8 14,16 16,25 8,9 9,20 14,29 1,6 3,11 5,16l3 24c0,5 -2,27 -3,33l-6 18c-4,8 -7,16 -12,24 -5,7 -12,15 -17,22 -18,21 -55,47 -79,58 -19,11 -45,17 -61,26zm-480 431c7,4 14,6 21,10 8,4 30,20 34,27 2,5 6,20 6,25l-3 24c-2,4 -2,1 -2,6 -7,11 -12,18 -19,29 -11,14 -47,40 -59,48 -31,20 -90,51 -126,57l-12 1c-3,0 -2,0 -4,1 -5,0 -34,-8 -36,-10l-7 -7c-9,-10 -12,-28 -14,-41l4 -43c1,-6 12,-33 16,-40 6,-13 15,-23 23,-35l26 -26c9,-6 17,-12 26,-17 8,-4 21,-8 27,-11 7,-2 28,-5 30,-5 20,0 14,-3 37,1l21 3c3,1 4,1 7,3l4 0z"/>
   <path class="fil4 str1" d="M2005 1690c-13,8 -45,31 -57,41 -11,9 -45,41 -51,49l-28 32c-2,2 -3,4 -5,7 -25,25 -59,82 -79,113 -11,18 -41,67 -51,86 -5,9 -9,25 -11,35l-1 17c1,6 4,23 6,28 5,10 20,22 30,27l19 8c5,0 8,2 12,3l5 0c2,1 4,2 6,2l27 2c7,1 25,2 31,1 11,-1 20,0 27,-2l55 -7 51 -11c5,-3 21,-7 28,-8 37,-11 99,-41 131,-62 9,-6 50,-36 59,-46 7,-10 16,-20 23,-30 5,-9 11,-22 17,-30 0,0 22,-50 23,-53l10 -34 3 -33 -3 -30c-1,-2 -2,-4 -2,-6 -1,-6 -3,-9 -3,-16l-3 -5c-1,-5 -3,-7 -4,-12 -3,-4 -1,0 -2,-4 -2,-3 -2,-2 -3,-6 -3,-3 -6,-10 -8,-14 -4,-6 -23,-28 -28,-33 -11,-8 -21,-16 -33,-23 -15,-8 -32,-15 -49,-18l-33 -3c-7,0 -11,1 -18,1 -5,2 -12,2 -15,2 -7,3 -15,3 -21,7l-4 0c-8,4 -17,7 -26,11 -9,5 -16,9 -25,14z"/>
   <path class="fil4 str1" d="M783 1721l8 -42c0,-10 10,-32 13,-42 5,-12 15,-50 17,-63l1 -13c2,-7 4,-39 3,-44l-2 -26c-1,-3 -1,-5 -2,-8l0 -5c0,-2 -1,-4 -2,-6l0 -5c-1,-4 -3,-10 -4,-15l-17 -38c-5,-7 -26,-29 -32,-34 -8,-6 -15,-11 -23,-16 -7,-4 -31,-15 -39,-16 -5,0 -5,-1 -9,-2l-4 0c-3,-1 -5,-1 -7,-2l-30 -2 -20 2c-2,1 -4,1 -7,2l-5 0c-18,3 -51,18 -66,31l-27 26c-13,20 -26,37 -39,57 -12,20 -20,38 -30,59 -9,20 -14,37 -21,57 -7,16 -18,69 -22,93l-2 22c-1,4 -1,3 -1,7 -2,11 -2,26 -2,26 -2,4 -1,5 -1,10 -3,8 -1,19 -1,28 -3,8 -1,45 -1,57 2,8 1,26 1,36 2,7 1,26 1,35 2,17 -1,9 -2,20 3,2 4,3 7,6l18 126c6,33 12,69 19,100 5,19 9,33 17,49 7,13 16,28 28,37l12 7 26 6c4,-2 1,-1 6,-1l21 -5c4,-1 20,-12 26,-19 7,-11 11,-18 17,-29 0,-4 1,-4 3,-8 0,-4 3,-14 4,-18l2 -27c2,-5 1,-12 1,-18 3,-8 1,-24 1,-33 2,-13 1,-27 3,-41 2,-4 1,-6 1,-11l3 -13c0,-6 3,-13 4,-18 1,-14 11,-29 12,-41l24 -55c9,-19 19,-38 29,-56 22,-36 43,-74 65,-110 7,-7 17,-11 25,-17z"/>
   <path class="fil4 str1" d="M1199 768l264 -35c13,0 47,-9 62,-12 21,-4 43,-9 63,-14 22,-6 42,-11 64,-17 12,-4 53,-17 63,-18 16,-9 42,-15 61,-26 24,-11 61,-37 79,-58 5,-7 12,-15 17,-22 5,-8 8,-16 12,-24l6 -18c1,-6 3,-28 3,-33l-3 -24c-2,-5 -4,-10 -5,-16 -5,-9 -6,-20 -14,-29 -2,-9 -11,-17 -16,-25 -9,-11 -28,-25 -40,-32 -7,-4 -15,-6 -21,-10l-43 -7c-16,-2 -16,0 -31,0 -5,2 -14,2 -16,2 -16,6 -25,7 -41,15 -14,7 -28,15 -42,22 -90,45 -157,60 -251,89 -96,29 -161,45 -251,90 -29,14 -87,48 -110,76 -10,13 -18,26 -20,41 -2,11 -3,13 -1,22 0,6 3,12 3,19 2,3 2,3 3,7 2,4 15,18 19,21 5,1 10,4 14,7 4,0 7,2 11,4 5,0 8,1 12,3l4 0c2,1 4,1 6,2l5 0c3,1 5,1 8,2l50 2c10,-2 40,-2 40,-2 10,-2 33,-2 36,-2z"/>
   <path class="fil4 str1" d="M1203 1097c-23,-4 -17,-1 -37,-1 -2,0 -23,3 -30,5 -6,3 -19,7 -27,11 -9,5 -17,11 -26,17l-26 26c-8,12 -17,22 -23,35 -4,7 -15,34 -16,40l-4 43c2,13 5,31 14,41l7 7c2,2 31,10 36,10 2,-1 1,-1 4,-1l12 -1c36,-6 95,-37 126,-57 12,-8 48,-34 59,-48 7,-11 12,-18 19,-29 0,-5 0,-2 2,-6l3 -24c0,-5 -4,-20 -6,-25 -4,-7 -26,-23 -34,-27 -7,-4 -14,-6 -21,-10l-4 0c-3,-2 -4,-2 -7,-3l-21 -3z"/>
   <path class="fil4 str1" d="M2827 828c13,19 29,37 42,56 13,20 24,38 35,58 11,17 20,38 29,57 8,16 15,43 23,57 0,6 9,31 11,39l16 50c3,7 12,23 17,28l12 14c12,10 24,13 39,15l10 0c6,-1 22,-4 27,-7l17 -14c7,-9 16,-24 21,-35 4,-8 5,-16 9,-23 1,-6 6,-24 9,-30 0,-6 3,-19 5,-25l1 -12c1,-4 1,-2 1,-6l2 -21c2,-11 3,-55 2,-65 -2,-9 -1,-22 -2,-28 -2,-4 -1,-6 -1,-11 -1,-3 -1,-5 -2,-8l-1 -13c-6,-17 -9,-38 -14,-56 -3,-10 -6,-19 -10,-28 -2,-7 -10,-22 -11,-29 -3,-4 -1,0 -2,-4 -4,-5 -5,-10 -9,-15 -3,-11 -16,-23 -23,-33l-39 -37c-2,-7 -10,-27 -11,-32 -12,-1 -32,-10 -45,-11 -46,-31 -95,-64 -144,-89 -25,-13 -125,-75 -144,-77 -4,-1 -4,-2 -13,-4l-11 -1c-5,-1 -7,0 -12,-2 -4,2 -3,1 -8,1l-22 4c-4,3 0,2 -5,2 -3,1 -15,10 -18,14l-11 19 -6 41 4 28c2,7 7,17 8,23l18 24 28 29c8,5 14,11 22,16 4,5 15,30 15,36 8,1 42,11 50,14l24 22c20,16 49,47 67,69z"/>
   <path class="fil4 str1" d="M3404 1839c-23,11 -60,48 -82,66 -29,23 -59,52 -88,75l-30 27c-8,6 -27,24 -32,31 -2,5 -5,9 -7,13 0,5 1,1 -2,5 0,0 -5,25 -4,30l4 23c3,3 2,3 3,7l18 22c6,4 16,10 21,14l29 8 39 3c11,-2 23,-1 33,-3 4,-2 5,-1 9,-1l50 -12c6,-4 20,-9 27,-11 14,-5 48,-24 61,-33 12,-7 22,-17 34,-25 26,-21 49,-49 66,-78 9,-15 10,-24 15,-39l2 -20c1,-4 2,-9 1,-14l-5 -30c-2,-4 -1,-1 -2,-6l-14 -23 -17 -18c-23,-14 -25,-13 -48,-21l-22 -2c-10,-2 -2,0 -14,0 -5,1 -12,1 -15,2 -2,1 -4,1 -7,2l-4 0c-4,3 -13,5 -19,8z"/>
   <path class="fil4 str1" d="M2502 3543l-53 -5c-7,-2 -22,-1 -30,-1 -8,-2 -25,-1 -34,-1 -9,2 -33,2 -35,2 -3,2 -5,1 -8,3l-22 3c-15,0 -36,11 -49,12 -11,6 -31,13 -44,20 -16,8 -46,26 -58,40 -3,4 -5,6 -7,11 -3,4 -3,3 -4,7 -3,5 -1,0 -2,6 -4,5 -4,12 -6,18 -2,10 -4,23 -2,33 1,9 4,24 8,32 7,17 14,28 28,39 10,9 7,6 17,10 4,3 5,4 10,4 5,3 9,3 15,5l11 1c6,2 16,1 23,1 5,-2 9,-1 15,-1 3,-2 5,-1 8,-3l45 -6c14,-4 42,-9 59,-12 19,-4 40,-8 59,-14 27,-7 100,-25 120,-36 12,-1 87,-33 104,-39 16,-7 37,-18 52,-27 20,-11 33,-22 52,-35l27 -27c4,-4 13,-14 15,-20 0,-2 4,-21 4,-25 -3,-9 -3,-15 -7,-25 -7,-11 -22,-15 -34,-16 -4,0 -2,0 -5,-1l-21 4c-15,8 -35,19 -52,25 -9,4 -15,6 -25,9 -9,3 -19,4 -27,7l-7 0c-2,0 -4,1 -7,2l-22 1c-8,2 -18,1 -26,1 -4,1 -5,1 -9,1 -8,-3 -26,-1 -35,-1 -11,-2 -37,-2 -41,-2z"/>
   <path class="fil4 str1" d="M1257 3579c22,-21 64,-47 89,-64 70,-46 106,-60 178,-95 15,-8 29,-14 44,-22 21,-13 53,-33 69,-54 4,-5 9,-12 14,-17 2,-5 8,-20 11,-24l5 -38c1,-8 1,0 0,-8l-3 -29c-2,-5 -2,-9 -5,-14 -1,-5 -3,-10 -6,-14 -7,-12 -14,-20 -26,-27l-32 -8 -13 0c-3,1 -2,1 -6,1 -3,1 -2,1 -6,1 -4,1 -2,1 -6,1l-2 1c-3,1 -1,1 -5,1l-2 1 -2 1c-3,1 0,1 -4,1l-2 1 -2 1 -2 1 -2 1c-7,6 -19,14 -27,19l-32 28c-16,13 -39,30 -57,39 -11,6 -51,21 -63,21 -6,2 -11,3 -17,4l-56 7c-3,1 -23,1 -32,2 -5,0 -9,0 -14,1 0,1 -30,1 -40,3l-54 4c-4,0 -5,-1 -9,1l-84 12c-17,6 -44,10 -63,15 -14,3 -54,18 -63,19 -4,2 -2,1 -7,2 -3,2 -1,1 -6,2 -4,2 -1,1 -6,2 -7,4 -23,9 -32,13 -12,4 -22,8 -33,14 -23,10 -43,20 -65,31 -20,9 -120,67 -129,81l-9 9c0,6 7,26 10,32 6,10 96,89 115,105l30 23c12,12 35,27 49,38 16,13 32,24 49,36 33,24 66,44 99,66 7,1 37,8 44,10 10,-10 5,-6 9,-20l71 -86c11,-14 53,-57 66,-68 14,-12 32,-30 47,-42l25 -21z"/>
  </g>
 </g>
</svg>
