<?xml version="1.0" encoding="UTF-8"?>
<!DOCTYPE svg PUBLIC "-//W3C//DTD SVG 1.1//EN" "http://www.w3.org/Graphics/SVG/1.1/DTD/svg11.dtd">
<!-- Creator: CorelDRAW 2020 (64-Bit) -->
<svg xmlns="http://www.w3.org/2000/svg" xml:space="preserve" width="69px" height="61px" version="1.1" style="shape-rendering:geometricPrecision; text-rendering:geometricPrecision; image-rendering:optimizeQuality; fill-rule:evenodd; clip-rule:evenodd"
viewBox="0 0 611 542"
 xmlns:xlink="http://www.w3.org/1999/xlink"
 xmlns:xodm="http://www.corel.com/coreldraw/odm/2003">
 <defs>
  <style type="text/css">
   <![CDATA[
    .str4 {stroke:#2B2A29;stroke-width:9;stroke-miterlimit:22.9256}
    .str0 {stroke:black;stroke-width:9;stroke-miterlimit:22.9256}
    .str1 {stroke:red;stroke-width:9;stroke-miterlimit:22.9256}
    .str2 {stroke:#2B2A29;stroke-width:8;stroke-miterlimit:22.9256}
    .str3 {stroke:red;stroke-width:8;stroke-miterlimit:22.9256}
    .fil1 {fill:none}
    .fil0 {fill:#FEFEFE}
    .fil2 {fill:#7688A1}
    .fil4 {fill:gray}
    .fil5 {fill:#CCCCCC}
    .fil3 {fill:red}
    .fil6 {fill:#FEFEFE;fill-rule:nonzero}
   ]]>
  </style>
 </defs>
 <g id="laser_guns">
  <metadata id="CorelCorpID_0Corel-Layer"/>
  <g id="_1417364912432">
   <polygon class="fil0 str0" points="510,89 501,56 552,42 561,76 "/>
   <path class="fil0 str0" d="M171 193l-20 -75 20 -6 -20 6 20 75zm118 20l0 -29 230 -61 -26 -97 -241 65 241 -65 26 97 -230 61 174 -46 8 27 -182 48z"/>
   <rect class="fil0 str0" transform="matrix(-0.965926 0.258819 0.258819 0.965926 445.421 38.7304)" width="17" height="26"/>
   <rect class="fil0 str0" transform="matrix(-0.965926 0.258819 0.258819 0.965926 400.037 50.8912)" width="17" height="26"/>
   <polygon class="fil0 str0" points="266,110 252,91 260,88 "/>
   <rect class="fil0 str0" transform="matrix(-0.965926 0.258819 0.258819 0.965926 354.652 63.0519)" width="17" height="26"/>
   <rect class="fil0 str0" transform="matrix(0.965926 -0.258819 0.258819 0.965926 289.167 80.5987)" width="17" height="26"/>
   <rect class="fil0 str0" transform="matrix(-0.965926 0.258819 0.258819 0.965926 354.652 63.0519)" width="17" height="26"/>
   <rect class="fil0 str0" transform="matrix(0.965926 -0.258819 0.258819 0.965926 289.167 80.5987)" width="17" height="26"/>
   <line class="fil1 str1" x1="531" y1="66" x2="610" y2= "45" />
   <path class="fil1 str0" d="M4 69c31,-27 71,-43 114,-43 95,0 172,77 172,171 0,95 -77,171 -172,171 -43,0 -83,-16 -114,-43"/>
   <rect class="fil0 str0" x="4" y="4" width="167" height="386"/>
   <path class="fil2 str2" d="M171 112l0 81 0 167c64,-21 111,-78 118,-147l0 -29c-2,-27 -10,-52 -23,-74l-14 -19c-20,-26 -49,-46 -81,-57l0 78z"/>
   <path class="fil2 str2" d="M266 110c13,22 21,47 23,74l174 -46 56 -15 -9 -34 -9 -33 -8 -30 -48 13 7 25 -16 4 -7 -25 -29 8 7 25 -16 5 -7 -26 -29 8 6 25 -16 5 -6 -26 -34 9 7 26 -16 4 -7 -25 -29 7 6 22z"/>
   <path class="fil0 str2" d="M463 138l-174 46c0,5 1,9 1,13 0,6 -1,11 -1,16l182 -48 -8 -27z"/>
   <path class="fil2 str2" d="M463 138l-174 46c0,5 1,9 1,13 0,6 -1,11 -1,16l182 -48 -8 -27z"/>
   <path class="fil3 str3" d="M463 138l-174 46c0,5 1,9 1,13 0,6 -1,11 -1,16l182 -48 -8 -27z"/>
   <path class="fil4 str2" d="M289 184l174 -46 56 -15 -9 -34 -9 -33 -8 -30 -48 13 7 25 -16 4 -7 -25 -29 8 7 25 -16 5 -7 -26 -29 8 6 25 -16 5 -6 -26 -34 9 7 26 -16 4 -7 -25 -29 7 6 22c13,22 21,47 23,74z"/>
   <path class="fil5 str2" d="M289 213l0 -29c-2,-27 -10,-52 -23,-74l-14 -19c-20,-26 -49,-46 -81,-57l0 78 0 81 0 167c64,-21 111,-78 118,-147z"/>
   <polygon class="fil0 str2" points="296,106 312,102 305,76 289,81 "/>
   <polygon class="fil0 str2" points="339,67 345,93 361,88 355,63 "/>
   <polygon class="fil0 str2" points="384,55 391,81 407,76 400,51 "/>
   <polygon class="fil0 str2" points="429,43 436,68 452,64 445,39 "/>
   <polygon class="fil5 str2" points="171,485 171,150 171,45 171,4 4,4 4,92 4,438 4,526 171,526 "/>
   <polygon class="fil4 str2" points="501,56 510,89 561,76 552,42 "/>
   <polygon class="fil3 str2" points="296,106 312,102 305,76 289,81 "/>
   <polygon class="fil3 str2" points="339,67 345,93 361,88 355,63 "/>
   <polygon class="fil3 str2" points="384,55 391,81 407,76 400,51 "/>
   <polygon class="fil3 str2" points="429,43 436,68 452,64 445,39 "/>
  </g>
  <circle class="fil4 str4" cx="414" cy="369" r="169"/>
  <path class="fil6" d="M341 479l0 -220 82 0c17,0 31,3 41,7 10,4 18,11 24,21 5,9 8,18 8,29 0,9 -2,18 -7,26 -5,8 -13,15 -23,20 13,4 23,11 30,20 7,9 11,21 11,33 0,11 -2,20 -6,29 -5,9 -10,16 -17,21 -6,4 -14,8 -24,10 -9,3 -21,4 -35,4l-84 0zm29 -127l48 0c13,0 22,-1 27,-3 8,-2 13,-6 17,-11 4,-5 6,-11 6,-19 0,-7 -2,-14 -6,-19 -3,-6 -8,-10 -14,-12 -7,-2 -18,-3 -34,-3l-44 0 0 67zm0 101l55 0c9,0 16,0 20,-1 6,-1 12,-3 17,-6 4,-3 8,-7 11,-12 3,-5 4,-12 4,-19 0,-8 -2,-15 -6,-21 -5,-6 -10,-10 -18,-13 -7,-2 -18,-4 -32,-4l-51 0 0 76z"/>
 </g>
</svg>
