<?xml version="1.0" encoding="UTF-8"?>
<!DOCTYPE svg PUBLIC "-//W3C//DTD SVG 1.1//EN" "http://www.w3.org/Graphics/SVG/1.1/DTD/svg11.dtd">
<!-- Creator: CorelDRAW 2020 (64-Bit) -->
<svg xmlns="http://www.w3.org/2000/svg" xml:space="preserve" width="69px" height="61px" version="1.1" style="shape-rendering:geometricPrecision; text-rendering:geometricPrecision; image-rendering:optimizeQuality; fill-rule:evenodd; clip-rule:evenodd"
viewBox="0 0 818 727"
 xmlns:xlink="http://www.w3.org/1999/xlink"
 xmlns:xodm="http://www.corel.com/coreldraw/odm/2003">
 <defs>
  <style type="text/css">
   <![CDATA[
    .str4 {stroke:#2B2A29;stroke-width:12;stroke-miterlimit:22.9256}
    .str0 {stroke:black;stroke-width:12;stroke-miterlimit:22.9256}
    .str1 {stroke:red;stroke-width:12;stroke-miterlimit:22.9256}
    .str2 {stroke:#2B2A29;stroke-width:11;stroke-miterlimit:22.9256}
    .str3 {stroke:red;stroke-width:11;stroke-miterlimit:22.9256}
    .fil1 {fill:none}
    .fil0 {fill:#FEFEFE}
    .fil2 {fill:#7688A1}
    .fil4 {fill:gray}
    .fil5 {fill:#CCCCCC}
    .fil3 {fill:red}
    .fil6 {fill:#FEFEFE;fill-rule:nonzero}
   ]]>
  </style>
 </defs>
 <g id="laser_guns">
  <metadata id="CorelCorpID_0Corel-Layer"/>
  <g id="_1417468982064">
   <polygon class="fil0 str0" points="683,120 671,75 739,57 751,101 "/>
   <path class="fil0 str0" d="M229 258l-27 -101 27 -7 -27 7 27 101zm158 28l0 -39 308 -82 -35 -130 -322 86 322 -86 35 130 -308 82 234 -63 9 37 -243 65z"/>
   <rect class="fil0 str0" transform="matrix(-0.965926 0.258819 0.258819 0.965926 596.61 51.8766)" width="22" height="35"/>
   <rect class="fil0 str0" transform="matrix(-0.965926 0.258819 0.258819 0.965926 535.82 68.165)" width="22" height="35"/>
   <polygon class="fil0 str0" points="356,147 338,121 348,118 "/>
   <rect class="fil0 str0" transform="matrix(-0.965926 0.258819 0.258819 0.965926 475.031 84.4535)" width="22" height="35"/>
   <rect class="fil0 str0" transform="matrix(0.965926 -0.258819 0.258819 0.965926 387.318 107.956)" width="22" height="35"/>
   <rect class="fil0 str0" transform="matrix(-0.965926 0.258819 0.258819 0.965926 475.031 84.4535)" width="22" height="35"/>
   <rect class="fil0 str0" transform="matrix(0.965926 -0.258819 0.258819 0.965926 387.318 107.956)" width="22" height="35"/>
   <line class="fil1 str1" x1="711" y1="88" x2="817" y2= "60" />
   <path class="fil1 str0" d="M6 93c41,-36 94,-58 153,-58 126,0 229,103 229,229 0,127 -103,230 -229,230 -59,0 -112,-22 -153,-59"/>
   <rect class="fil0 str0" x="6" y="6" width="223" height="517"/>
   <path class="fil2 str2" d="M229 150l0 108 0 224c86,-27 149,-104 158,-196l0 -39c-2,-36 -14,-70 -31,-100l-18 -26c-28,-34 -65,-61 -109,-75l0 104z"/>
   <path class="fil2 str2" d="M356 147c17,30 29,64 31,100l234 -63 74 -19 -12 -45 -12 -45 -11 -40 -63 17 9 34 -22 6 -9 -34 -39 10 9 34 -22 6 -9 -34 -39 10 9 34 -21 6 -10 -34 -44 12 9 34 -22 6 -9 -34 -39 10 8 29z"/>
   <path class="fil0 str2" d="M621 184l-234 63c1,6 1,11 1,17 0,8 0,15 -1,22l243 -65 -9 -37z"/>
   <path class="fil2 str2" d="M621 184l-234 63c1,6 1,11 1,17 0,8 0,15 -1,22l243 -65 -9 -37z"/>
   <path class="fil3 str3" d="M621 184l-234 63c1,6 1,11 1,17 0,8 0,15 -1,22l243 -65 -9 -37z"/>
   <path class="fil4 str2" d="M387 247l234 -63 74 -19 -12 -45 -12 -45 -11 -40 -63 17 9 34 -22 6 -9 -34 -39 10 9 34 -22 6 -9 -34 -39 10 9 34 -21 6 -10 -34 -44 12 9 34 -22 6 -9 -34 -39 10 8 29c17,30 29,64 31,100z"/>
   <path class="fil5 str2" d="M387 286l0 -39c-2,-36 -14,-70 -31,-100l-18 -26c-28,-34 -65,-61 -109,-75l0 104 0 108 0 224c86,-27 149,-104 158,-196z"/>
   <polygon class="fil0 str2" points="396,142 418,136 409,102 387,108 "/>
   <polygon class="fil0 str2" points="453,90 463,124 484,118 475,84 "/>
   <polygon class="fil0 str2" points="514,74 523,108 545,102 536,68 "/>
   <polygon class="fil0 str2" points="575,58 584,92 606,86 597,52 "/>
   <polygon class="fil5 str2" points="229,650 229,201 229,60 229,6 6,6 6,124 6,586 6,704 229,704 "/>
   <polygon class="fil4 str2" points="671,75 683,120 751,101 739,57 "/>
   <polygon class="fil3 str2" points="396,142 418,136 409,102 387,108 "/>
   <polygon class="fil3 str2" points="453,90 463,124 484,118 475,84 "/>
   <polygon class="fil3 str2" points="514,74 523,108 545,102 536,68 "/>
   <polygon class="fil3 str2" points="575,58 584,92 606,86 597,52 "/>
  </g>
  <circle class="fil4 str4" cx="555" cy="494" r="226"/>
  <path class="fil6" d="M417 630l113 -294 43 0 120 294 -44 0 -34 -89 -124 0 -32 89 -42 0zm85 -120l100 0 -30 -82c-10,-25 -17,-45 -21,-61 -5,19 -10,38 -17,56l-32 87z"/>
 </g>
</svg>
