<?xml version="1.0" encoding="UTF-8"?>
<!DOCTYPE svg PUBLIC "-//W3C//DTD SVG 1.1//EN" "http://www.w3.org/Graphics/SVG/1.1/DTD/svg11.dtd">
<!-- Creator: CorelDRAW 2020 (64-Bit) -->
<svg xmlns="http://www.w3.org/2000/svg" xml:space="preserve" width="122px" height="117px" version="1.1" style="shape-rendering:geometricPrecision; text-rendering:geometricPrecision; image-rendering:optimizeQuality; fill-rule:evenodd; clip-rule:evenodd"
viewBox="0 0 2687 2595"
 xmlns:xlink="http://www.w3.org/1999/xlink"
 xmlns:xodm="http://www.corel.com/coreldraw/odm/2003">
 <defs>
  <style type="text/css">
   <![CDATA[
    .str2 {stroke:#2B2A29;stroke-width:44;stroke-miterlimit:22.9256}
    .str0 {stroke:black;stroke-width:44;stroke-miterlimit:22.9256}
    .str3 {stroke:#FF6633;stroke-width:44;stroke-miterlimit:22.9256}
    .str1 {stroke:#2B2A29;stroke-width:52;stroke-miterlimit:22.9256}
    .fil2 {fill:none}
    .fil4 {fill:black}
    .fil5 {fill:gray}
    .fil0 {fill:gray}
    .fil3 {fill:#99FFFF}
    .fil1 {fill:#CCCCCC}
    .fil6 {fill:#FF6633}
   ]]>
  </style>
 </defs>
 <g id="medic">
  <metadata id="CorelCorpID_0Corel-Layer"/>
  <rect class="fil0 str0" x="276" y="992" width="2123" height="1232" rx="44" ry="44"/>
  <path class="fil1 str0" d="M785 1302l1172 0c390,0 708,318 708,707l0 487c0,24 -20,44 -44,44l-2499 0c-25,0 -45,-20 -45,-44l0 -487c0,-389 319,-707 708,-707z"/>
  <ellipse class="fil1 str0" cx="1338" cy="815" rx="818" ry="793"/>
  <line class="fil2 str0" x1="630" y1="1965" x2="630" y2= "2540" />
  <line class="fil2 str0" x1="2112" y1="1965" x2="2112" y2= "2540" />
  <path class="fil2 str0" d="M521 770c545,-267 1090,-267 1635,0"/>
  <path class="fil2 str0" d="M581 1117c545,252 1051,252 1521,0"/>
  <path class="fil3 str1" d="M581 1117c231,107 455,168 672,185 78,5 155,5 232,0 209,-17 412,-77 608,-181 18,-41 32,-85 43,-129 13,-57 20,-116 20,-177 0,-15 0,-31 -1,-46 -545,-266 -1090,-266 -1634,1 -1,15 -1,30 -1,45 0,61 7,120 20,177 10,43 24,85 41,125z"/>
  <line class="fil2 str0" x1="2245" y1="970" x2="2245" y2= "218" />
  <circle class="fil4 str0" cx="2245" cy="218" r="88"/>
  <circle class="fil5 str2" cx="630" cy="1965" r="608"/>
  <rect class="fil6 str3" x="531" y="1606" width="199" height="719" rx="5" ry="11"/>
  <rect class="fil6 str3" transform="matrix(6.47864E-15 -0.117558 0.24462 3.11347E-15 271.047 2064.55)" width="1693" height="2937" rx="44" ry="44"/>
 </g>
</svg>
